<svg id="svg" version="1.1" width="400" height="130.5114638447972" xmlns="http://www.w3.org/2000/svg" xmlns:xlink="http://www.w3.org/1999/xlink" style="display: block;"><g id="svgg"><path id="path0" d="" stroke="none" fill="#000000" fill-rule="evenodd"></path><path id="path1" d="M33.127 53.951 C 33.334 53.991,33.634 53.990,33.794 53.948 C 33.953 53.906,33.783 53.874,33.417 53.875 C 33.050 53.877,32.920 53.911,33.127 53.951 M41.127 53.951 C 41.334 53.991,41.634 53.990,41.794 53.948 C 41.953 53.906,41.783 53.874,41.417 53.875 C 41.050 53.877,40.920 53.911,41.127 53.951 M95.294 53.951 C 95.501 53.991,95.801 53.990,95.960 53.948 C 96.120 53.906,95.950 53.874,95.583 53.875 C 95.217 53.877,95.086 53.911,95.294 53.951 M103.208 53.948 C 103.369 53.990,103.631 53.990,103.792 53.948 C 103.952 53.906,103.821 53.872,103.500 53.872 C 103.179 53.872,103.048 53.906,103.208 53.948 M220.542 53.948 C 220.702 53.990,220.965 53.990,221.125 53.948 C 221.285 53.906,221.154 53.872,220.833 53.872 C 220.512 53.872,220.381 53.906,220.542 53.948 M228.627 53.951 C 228.834 53.991,229.134 53.990,229.294 53.948 C 229.453 53.906,229.283 53.874,228.917 53.875 C 228.550 53.877,228.420 53.911,228.627 53.951 M1.911 61.342 C 1.753 61.598,1.970 61.763,2.184 61.549 C 2.304 61.430,2.307 61.336,2.193 61.266 C 2.099 61.208,1.973 61.242,1.911 61.342 M247.768 69.069 C 247.863 69.317,247.837 69.356,247.653 69.245 C 247.464 69.131,247.467 69.164,247.667 69.411 C 247.902 69.700,247.920 69.701,247.974 69.425 C 248.005 69.263,247.945 69.045,247.839 68.941 C 247.694 68.797,247.677 68.829,247.768 69.069 M330.812 91.792 C 330.605 92.056,330.611 92.062,330.875 91.855 C 331.081 91.693,331.167 91.683,331.167 91.823 C 331.167 91.931,331.243 91.973,331.336 91.915 C 331.518 91.802,331.402 91.500,331.177 91.500 C 331.102 91.500,330.938 91.631,330.812 91.792 " stroke="none" fill="#808080" fill-rule="evenodd"></path><path id="path2" d="M383.637 25.792 C 386.692 25.817,391.642 25.817,394.637 25.792 C 397.633 25.766,395.133 25.745,389.083 25.745 C 383.033 25.745,380.583 25.766,383.637 25.792 M370.910 26.678 C 370.849 26.776,370.845 26.901,370.900 26.956 C 370.955 27.011,371.000 26.964,371.000 26.851 C 371.000 26.739,371.070 26.690,371.155 26.743 C 371.240 26.796,371.357 26.763,371.415 26.669 C 371.473 26.576,371.407 26.500,371.270 26.500 C 371.132 26.500,370.970 26.580,370.910 26.678 M358.167 33.917 C 358.167 34.054,358.079 34.167,357.972 34.167 C 357.865 34.167,357.829 34.217,357.891 34.280 C 357.953 34.342,358.156 34.229,358.342 34.030 C 358.613 33.738,358.629 33.667,358.423 33.667 C 358.282 33.667,358.167 33.779,358.167 33.917 M384.226 37.911 C 384.034 38.045,383.830 38.108,383.772 38.050 C 383.714 37.992,383.667 38.032,383.667 38.139 C 383.667 38.377,383.942 38.395,384.083 38.167 C 384.150 38.059,387.002 38.000,392.093 38.000 C 397.253 38.000,400.000 37.942,400.000 37.833 C 400.000 37.537,384.652 37.612,384.226 37.911 M381.708 38.448 C 381.869 38.490,382.131 38.490,382.292 38.448 C 382.452 38.406,382.321 38.372,382.000 38.372 C 381.679 38.372,381.548 38.406,381.708 38.448 M379.431 38.625 C 379.362 38.694,379.256 38.756,379.194 38.764 C 379.091 38.778,378.992 38.813,378.333 39.072 C 378.196 39.126,378.345 39.130,378.664 39.081 C 379.130 39.010,379.992 38.500,379.647 38.500 C 379.597 38.500,379.499 38.556,379.431 38.625 M27.505 41.493 C 27.370 41.579,27.310 41.699,27.372 41.761 C 27.434 41.823,27.606 41.752,27.754 41.603 C 28.047 41.310,27.899 41.244,27.505 41.493 M48.167 41.480 C 48.167 41.693,48.657 42.065,48.778 41.944 C 48.899 41.823,48.526 41.333,48.313 41.333 C 48.232 41.333,48.167 41.399,48.167 41.480 M110.401 41.642 C 110.754 42.040,110.833 42.076,110.833 41.839 C 110.833 41.751,110.665 41.590,110.458 41.482 C 110.085 41.286,110.085 41.287,110.401 41.642 M235.667 41.500 C 235.667 41.592,235.746 41.667,235.843 41.667 C 235.940 41.667,235.973 41.742,235.917 41.833 C 235.860 41.925,235.942 42.000,236.099 42.000 C 236.364 42.000,236.363 41.975,236.083 41.667 C 235.743 41.291,235.667 41.260,235.667 41.500 M211.497 42.254 C 211.381 42.394,211.319 42.541,211.360 42.582 C 211.401 42.623,211.561 42.509,211.716 42.328 C 211.870 42.148,211.932 42.000,211.852 42.000 C 211.773 42.000,211.613 42.114,211.497 42.254 M239.000 42.135 C 239.000 42.224,239.119 42.343,239.264 42.399 C 239.426 42.461,239.502 42.424,239.462 42.302 C 239.379 42.053,239.000 41.916,239.000 42.135 M21.762 42.929 C 21.365 43.325,21.448 43.428,21.875 43.069 C 22.081 42.896,22.281 42.734,22.319 42.710 C 22.358 42.686,22.307 42.667,22.206 42.667 C 22.106 42.667,21.906 42.785,21.762 42.929 M369.708 43.453 C 369.594 43.494,369.500 43.650,369.500 43.800 C 369.500 44.047,369.525 44.046,369.782 43.790 C 370.083 43.488,370.049 43.332,369.708 43.453 M366.097 48.354 C 365.920 48.525,365.815 48.704,365.861 48.750 C 365.908 48.797,366.083 48.684,366.250 48.500 C 366.642 48.067,366.516 47.947,366.097 48.354 M348.444 52.944 C 348.265 53.124,348.316 53.278,348.556 53.278 C 348.678 53.278,348.778 53.178,348.778 53.056 C 348.778 52.816,348.624 52.765,348.444 52.944 M295.410 53.511 C 295.349 53.609,295.340 53.729,295.389 53.778 C 295.508 53.897,295.833 53.687,295.833 53.490 C 295.833 53.277,295.546 53.291,295.410 53.511 M35.717 53.958 C 36.708 53.987,38.283 53.987,39.217 53.958 C 40.152 53.928,39.342 53.904,37.417 53.904 C 35.492 53.904,34.727 53.928,35.717 53.958 M97.884 53.958 C 98.874 53.987,100.449 53.987,101.384 53.958 C 102.319 53.928,101.508 53.904,99.583 53.904 C 97.658 53.904,96.894 53.928,97.884 53.958 M158.636 53.958 C 160.682 53.985,163.982 53.985,165.970 53.958 C 167.957 53.932,166.283 53.910,162.250 53.910 C 158.217 53.910,156.591 53.932,158.636 53.958 M223.042 53.958 C 224.027 53.987,225.640 53.987,226.625 53.958 C 227.610 53.928,226.804 53.904,224.833 53.904 C 222.862 53.904,222.056 53.928,223.042 53.958 M283.958 53.958 C 285.998 53.985,289.335 53.985,291.375 53.958 C 293.415 53.932,291.746 53.910,287.667 53.910 C 283.587 53.910,281.919 53.932,283.958 53.958 M90.857 54.348 C 90.588 54.565,90.542 54.667,90.711 54.667 C 90.961 54.667,91.437 54.215,91.315 54.094 C 91.279 54.058,91.073 54.172,90.857 54.348 M6.243 54.344 C 6.183 54.442,6.173 54.562,6.222 54.611 C 6.342 54.730,6.667 54.520,6.667 54.323 C 6.667 54.111,6.379 54.125,6.243 54.344 M111.167 55.499 C 111.167 55.591,111.246 55.667,111.343 55.667 C 111.440 55.667,111.473 55.742,111.417 55.833 C 111.360 55.925,111.389 56.000,111.480 56.000 C 111.803 56.000,111.808 55.731,111.489 55.532 C 111.294 55.410,111.167 55.397,111.167 55.499 M133.031 56.344 C 133.071 56.464,133.203 56.595,133.323 56.635 C 133.448 56.677,133.510 56.615,133.469 56.490 C 133.429 56.369,133.297 56.238,133.177 56.198 C 133.052 56.156,132.990 56.219,133.031 56.344 M241.833 59.167 C 241.931 59.350,242.084 59.500,242.173 59.500 C 242.437 59.500,242.354 59.044,242.070 58.934 C 241.667 58.780,241.641 58.806,241.833 59.167 M20.243 59.178 C 20.183 59.276,20.173 59.396,20.222 59.444 C 20.342 59.564,20.667 59.353,20.667 59.157 C 20.667 58.944,20.379 58.958,20.243 59.178 M190.320 59.359 C 190.154 59.668,190.167 59.702,190.411 59.609 C 190.567 59.549,190.725 59.500,190.764 59.500 C 190.802 59.500,190.833 59.387,190.833 59.250 C 190.833 58.883,190.541 58.945,190.320 59.359 M81.169 60.326 C 80.941 60.501,80.797 60.686,80.849 60.738 C 80.901 60.790,81.119 60.645,81.334 60.416 C 81.799 59.921,81.738 59.888,81.169 60.326 M119.844 63.430 C 120.081 63.715,120.387 63.744,120.297 63.473 C 120.261 63.366,120.101 63.260,119.940 63.236 C 119.705 63.202,119.687 63.240,119.844 63.430 M121.167 66.167 C 121.265 66.350,121.429 66.500,121.532 66.500 C 121.634 66.500,121.583 66.350,121.417 66.167 C 121.251 65.983,121.086 65.833,121.052 65.833 C 121.017 65.833,121.069 65.983,121.167 66.167 M59.178 66.263 C 59.414 66.548,59.720 66.577,59.630 66.306 C 59.594 66.200,59.434 66.093,59.273 66.070 C 59.039 66.035,59.020 66.073,59.178 66.263 M246.767 66.900 C 246.885 67.207,247.206 67.182,247.269 66.860 C 247.292 66.744,247.272 66.733,247.221 66.836 C 247.161 66.959,247.061 66.953,246.897 66.817 C 246.704 66.657,246.679 66.672,246.767 66.900 M187.125 68.595 C 187.056 68.665,187.000 69.032,187.000 69.411 C 187.000 69.790,186.910 70.190,186.800 70.300 C 186.681 70.419,186.669 70.500,186.772 70.500 C 187.074 70.500,187.359 69.748,187.304 69.098 C 187.274 68.752,187.194 68.526,187.125 68.595 M14.721 68.776 C 14.781 68.837,14.737 68.999,14.624 69.137 C 14.454 69.342,14.462 69.373,14.667 69.305 C 14.975 69.203,15.102 68.667,14.818 68.667 C 14.704 68.667,14.660 68.716,14.721 68.776 M76.700 68.867 C 76.471 69.096,76.424 69.900,76.647 69.762 C 76.761 69.692,77.017 68.667,76.921 68.667 C 76.910 68.667,76.810 68.757,76.700 68.867 M247.333 69.030 C 247.333 69.168,247.502 69.425,247.708 69.599 C 248.080 69.914,248.081 69.914,247.804 69.583 C 247.650 69.400,247.525 69.188,247.526 69.111 C 247.527 69.035,247.484 68.928,247.431 68.875 C 247.377 68.822,247.333 68.891,247.333 69.030 M14.413 87.833 C 14.413 96.862,14.434 100.556,14.458 96.042 C 14.483 91.527,14.483 84.140,14.458 79.625 C 14.434 75.110,14.413 78.804,14.413 87.833 M60.374 88.438 C 60.338 102.361,60.364 104.318,60.583 104.500 C 60.788 104.670,60.833 104.659,60.833 104.437 C 60.833 104.288,60.759 104.167,60.668 104.167 C 60.559 104.167,60.487 98.709,60.458 88.375 L 60.415 72.583 60.374 88.438 M122.500 88.618 C 122.500 102.458,122.530 104.317,122.754 104.503 C 123.100 104.790,123.285 104.561,123.033 104.157 C 122.875 103.905,122.829 100.429,122.833 88.956 C 122.836 80.776,122.831 74.046,122.822 74.000 C 122.813 73.954,122.787 73.748,122.764 73.542 C 122.560 71.705,122.500 75.142,122.500 88.618 M347.762 74.762 C 347.618 74.906,347.506 75.112,347.513 75.220 C 347.523 75.368,347.546 75.368,347.607 75.218 C 347.652 75.108,347.792 75.058,347.918 75.107 C 348.072 75.166,348.139 75.081,348.122 74.848 C 348.091 74.431,348.092 74.432,347.762 74.762 M363.479 77.806 C 363.453 78.045,363.387 78.319,363.340 78.375 C 363.236 78.500,363.241 79.167,363.347 79.167 C 363.504 79.167,363.734 77.845,363.600 77.711 C 363.545 77.656,363.491 77.699,363.479 77.806 M362.367 82.700 C 362.257 82.810,362.175 83.054,362.186 83.242 C 362.205 83.572,362.208 83.572,362.289 83.254 C 362.335 83.073,362.495 82.832,362.644 82.718 C 362.794 82.604,362.838 82.508,362.742 82.505 C 362.645 82.502,362.477 82.590,362.367 82.700 M361.763 84.854 C 361.587 85.025,361.481 85.204,361.528 85.250 C 361.575 85.297,361.750 85.184,361.917 85.000 C 362.309 84.567,362.182 84.447,361.763 84.854 M327.208 92.115 C 327.369 92.157,327.631 92.157,327.792 92.115 C 327.952 92.073,327.821 92.039,327.500 92.039 C 327.179 92.039,327.048 92.073,327.208 92.115 M324.917 92.333 C 324.851 92.440,322.502 92.500,318.417 92.500 C 314.332 92.500,311.982 92.560,311.917 92.667 C 311.733 92.963,324.349 92.887,324.774 92.589 C 324.966 92.455,325.170 92.392,325.228 92.450 C 325.286 92.508,325.333 92.468,325.333 92.361 C 325.333 92.123,325.058 92.105,324.917 92.333 M347.571 100.746 C 347.289 100.960,347.284 100.990,347.532 100.995 C 347.687 100.998,347.863 100.920,347.924 100.822 C 348.105 100.528,347.914 100.487,347.571 100.746 M340.656 103.686 C 340.509 103.960,340.514 104.023,340.678 103.969 C 340.793 103.930,340.906 103.771,340.929 103.616 C 340.985 103.234,340.884 103.260,340.656 103.686 M3.292 104.791 C 5.148 104.818,8.185 104.818,10.042 104.791 C 11.898 104.765,10.379 104.743,6.667 104.743 C 2.954 104.743,1.435 104.765,3.292 104.791 M64.886 104.792 C 66.886 104.818,70.111 104.818,72.053 104.791 C 73.995 104.765,72.358 104.743,68.417 104.743 C 64.475 104.743,62.886 104.765,64.886 104.792 M127.220 104.792 C 129.311 104.818,132.686 104.818,134.720 104.791 C 136.753 104.765,135.042 104.743,130.917 104.743 C 126.792 104.743,125.128 104.765,127.220 104.792 M158.720 104.792 C 160.720 104.818,163.945 104.818,165.886 104.791 C 167.828 104.765,166.192 104.743,162.250 104.743 C 158.308 104.743,156.720 104.765,158.720 104.792 M190.958 104.791 C 192.815 104.818,195.852 104.818,197.708 104.791 C 199.565 104.765,198.046 104.743,194.333 104.743 C 190.621 104.743,189.102 104.765,190.958 104.791 M252.553 104.792 C 254.553 104.818,257.778 104.818,259.720 104.791 C 261.661 104.765,260.025 104.743,256.083 104.743 C 252.142 104.743,250.553 104.765,252.553 104.792 M284.292 104.791 C 286.240 104.818,289.427 104.818,291.375 104.791 C 293.323 104.765,291.729 104.743,287.833 104.743 C 283.938 104.743,282.344 104.765,284.292 104.791 M317.304 104.792 C 320.358 104.817,325.308 104.817,328.304 104.792 C 331.299 104.766,328.800 104.745,322.750 104.745 C 316.700 104.745,314.249 104.766,317.304 104.792 " stroke="none" fill="#ffffff" fill-rule="evenodd"></path><path id="path3" d="" stroke="none" fill="#ff0000" fill-rule="evenodd"></path><path id="path4" d="M374.000 26.167 C 373.741 26.426,373.444 26.500,372.667 26.500 C 372.074 26.500,371.667 26.572,371.667 26.677 C 371.667 26.774,371.598 26.810,371.513 26.758 C 371.429 26.706,371.247 26.777,371.109 26.915 C 370.970 27.054,370.564 27.167,370.204 27.167 C 369.790 27.167,369.410 27.289,369.167 27.500 C 368.955 27.683,368.588 27.839,368.349 27.845 C 367.726 27.862,367.250 28.081,367.250 28.350 C 367.249 28.583,367.158 28.611,366.292 28.647 C 365.951 28.662,365.833 28.752,365.833 29.000 C 365.833 29.277,365.722 29.333,365.178 29.333 C 364.669 29.333,364.499 29.408,364.417 29.667 C 364.342 29.901,364.164 30.000,363.817 30.000 C 363.521 30.000,363.282 30.105,363.222 30.263 C 363.167 30.407,362.944 30.593,362.727 30.675 C 362.511 30.758,362.333 30.939,362.333 31.079 C 362.333 31.219,362.277 31.339,362.208 31.346 C 361.575 31.409,361.207 31.554,360.973 31.835 C 360.821 32.017,360.577 32.167,360.432 32.167 C 360.278 32.167,360.167 32.306,360.167 32.500 C 360.167 32.722,360.056 32.833,359.833 32.833 C 359.611 32.833,359.500 32.944,359.500 33.167 C 359.500 33.384,359.389 33.500,359.181 33.500 C 359.005 33.500,358.653 33.721,358.399 33.990 C 358.145 34.260,357.879 34.445,357.810 34.402 C 357.740 34.359,357.594 34.491,357.484 34.696 C 357.375 34.900,357.023 35.315,356.703 35.617 C 356.382 35.919,356.171 36.167,356.232 36.167 C 356.294 36.167,356.080 36.399,355.756 36.684 C 355.432 36.968,355.167 37.343,355.167 37.517 C 355.167 37.722,355.049 37.833,354.833 37.833 C 354.611 37.833,354.500 37.944,354.500 38.167 C 354.500 38.350,354.393 38.500,354.261 38.500 C 354.130 38.500,353.975 38.650,353.917 38.834 C 353.858 39.017,353.666 39.245,353.489 39.339 C 353.266 39.459,353.167 39.689,353.167 40.089 C 353.167 40.558,353.103 40.667,352.829 40.667 C 352.588 40.667,352.463 40.808,352.392 41.164 C 352.338 41.437,352.238 41.627,352.171 41.586 C 352.031 41.500,351.667 42.227,351.667 42.591 C 351.667 42.724,351.517 42.983,351.333 43.167 C 351.114 43.386,351.000 43.722,351.000 44.147 C 351.000 44.654,350.928 44.813,350.667 44.882 C 350.404 44.950,350.333 45.109,350.333 45.632 C 350.333 46.134,350.259 46.314,350.028 46.374 C 349.860 46.418,349.718 46.558,349.713 46.685 C 349.665 47.930,349.436 48.930,349.152 49.129 C 348.868 49.328,348.833 49.571,348.833 51.343 C 348.833 52.933,348.787 53.333,348.601 53.333 C 348.183 53.333,348.167 53.753,348.167 64.514 C 348.167 73.649,348.133 75.167,347.928 75.167 C 347.703 75.167,347.458 75.627,347.514 75.941 C 347.685 76.894,347.467 78.637,347.167 78.715 C 346.911 78.782,346.829 78.952,346.814 79.443 C 346.804 79.795,346.777 80.158,346.756 80.250 C 346.735 80.342,346.706 80.502,346.692 80.606 C 346.678 80.709,346.517 80.834,346.333 80.882 C 346.150 80.930,346.000 81.091,346.000 81.241 C 346.000 81.391,345.850 81.675,345.667 81.872 C 345.483 82.069,345.333 82.394,345.333 82.595 C 345.333 82.823,345.205 82.995,344.995 83.050 C 344.809 83.098,344.668 83.201,344.682 83.277 C 344.788 83.882,344.639 84.333,344.333 84.333 C 344.111 84.333,344.000 84.444,344.000 84.667 C 344.000 84.885,343.889 85.000,343.678 85.000 C 343.501 85.000,343.309 85.146,343.253 85.325 C 343.196 85.503,343.005 85.696,342.828 85.752 C 342.651 85.808,342.514 85.905,342.523 85.968 C 342.575 86.332,342.462 86.500,342.167 86.500 C 341.944 86.500,341.833 86.611,341.833 86.833 C 341.833 87.056,341.722 87.167,341.500 87.167 C 341.312 87.167,341.167 87.278,341.167 87.421 C 341.167 87.561,340.979 87.746,340.750 87.833 C 340.521 87.920,340.333 88.106,340.333 88.246 C 340.333 88.426,340.160 88.500,339.734 88.500 C 339.275 88.500,339.115 88.578,339.048 88.835 C 338.986 89.070,338.770 89.200,338.314 89.272 C 337.829 89.350,337.667 89.454,337.667 89.688 C 337.667 89.933,337.542 90.000,337.085 90.000 C 336.683 90.000,336.438 90.103,336.295 90.333 C 336.146 90.571,335.906 90.667,335.460 90.667 C 335.115 90.667,334.833 90.746,334.833 90.843 C 334.833 90.940,334.767 90.979,334.686 90.928 C 334.604 90.878,334.445 90.949,334.332 91.085 C 334.204 91.239,333.832 91.334,333.355 91.335 C 332.312 91.338,331.321 91.513,331.423 91.676 C 331.468 91.750,331.429 91.857,331.336 91.915 C 331.243 91.973,331.167 91.931,331.167 91.823 C 331.167 91.684,331.105 91.677,330.958 91.799 C 330.746 91.975,328.845 92.162,327.013 92.188 C 326.456 92.196,326.000 92.262,326.000 92.336 C 326.000 92.409,325.861 92.432,325.692 92.388 C 325.522 92.344,325.266 92.425,325.122 92.569 C 324.895 92.796,323.957 92.835,317.889 92.873 L 310.917 92.917 310.917 98.750 L 310.917 104.583 324.292 104.622 C 332.966 104.647,337.667 104.603,337.667 104.497 C 337.667 104.407,337.760 104.352,337.875 104.375 C 337.990 104.398,338.065 104.323,338.042 104.208 C 338.012 104.059,338.303 104.000,339.070 104.000 C 340.270 104.000,340.667 103.897,340.667 103.585 C 340.667 103.441,341.018 103.350,341.749 103.303 C 342.472 103.257,342.900 103.147,343.040 102.970 C 343.156 102.825,343.576 102.666,343.975 102.617 C 344.377 102.567,344.864 102.373,345.069 102.180 C 345.272 101.989,345.553 101.833,345.693 101.833 C 345.834 101.833,346.084 101.683,346.250 101.500 C 346.416 101.317,346.709 101.167,346.902 101.167 C 347.095 101.167,347.347 101.017,347.461 100.833 C 347.577 100.648,347.850 100.500,348.075 100.500 C 348.298 100.500,348.579 100.365,348.699 100.199 C 348.819 100.034,349.179 99.825,349.500 99.735 C 349.826 99.643,350.083 99.463,350.083 99.327 C 350.083 99.193,350.177 99.074,350.292 99.063 C 350.406 99.051,350.570 99.032,350.655 99.021 C 350.741 99.009,350.854 98.865,350.906 98.701 C 350.958 98.537,351.244 98.330,351.542 98.241 C 351.840 98.152,352.065 97.987,352.042 97.873 C 352.019 97.760,352.149 97.667,352.332 97.667 C 352.514 97.667,352.758 97.517,352.872 97.333 C 352.987 97.150,353.161 97.000,353.260 97.000 C 353.359 97.000,353.603 96.813,353.802 96.583 C 354.001 96.354,354.240 96.167,354.332 96.167 C 354.425 96.167,354.500 96.017,354.500 95.833 C 354.500 95.611,354.611 95.500,354.833 95.500 C 355.056 95.500,355.167 95.389,355.167 95.167 C 355.167 94.944,355.278 94.833,355.500 94.833 C 355.718 94.833,355.833 94.722,355.833 94.511 C 355.833 94.334,355.965 94.147,356.126 94.096 C 356.288 94.045,356.497 93.834,356.591 93.627 C 356.685 93.419,356.852 93.268,356.963 93.291 C 357.079 93.315,357.207 93.054,357.269 92.666 C 357.350 92.164,357.453 92.000,357.688 92.000 C 357.889 92.000,358.000 91.881,358.000 91.667 C 358.000 91.444,358.111 91.333,358.333 91.333 C 358.579 91.333,358.667 91.222,358.667 90.911 C 358.667 90.679,358.777 90.447,358.912 90.396 C 359.046 90.344,359.249 90.046,359.362 89.734 C 359.475 89.422,359.664 89.167,359.782 89.167 C 359.902 89.167,360.042 88.881,360.100 88.514 C 360.171 88.070,360.305 87.836,360.519 87.780 C 360.761 87.717,360.833 87.544,360.833 87.027 C 360.833 86.502,360.906 86.333,361.167 86.250 C 361.423 86.168,361.500 85.998,361.500 85.507 C 361.500 85.082,361.587 84.836,361.761 84.769 C 361.904 84.714,361.974 84.593,361.917 84.501 C 361.860 84.409,361.893 84.333,361.990 84.333 C 362.087 84.333,362.167 84.042,362.167 83.686 C 362.167 83.114,362.633 81.822,362.685 82.250 C 362.739 82.695,362.982 80.959,362.990 80.069 C 362.996 79.512,363.056 78.999,363.125 78.931 C 363.194 78.862,363.259 78.737,363.271 78.653 C 363.282 78.569,363.310 78.481,363.331 78.458 C 363.501 78.280,363.557 75.832,363.614 66.014 C 363.671 56.102,363.710 54.755,363.938 54.588 C 364.117 54.458,364.220 54.017,364.274 53.158 C 364.363 51.744,364.435 51.440,364.648 51.572 C 364.864 51.705,365.000 51.253,365.000 50.403 C 365.000 49.778,365.050 49.667,365.333 49.667 C 365.517 49.667,365.676 49.554,365.688 49.417 C 365.699 49.279,365.727 49.092,365.750 49.000 C 365.773 48.908,365.801 48.721,365.813 48.583 C 365.824 48.446,365.938 48.333,366.066 48.333 C 366.346 48.333,366.500 47.974,366.500 47.320 C 366.500 46.944,366.576 46.833,366.833 46.833 C 367.056 46.833,367.167 46.722,367.167 46.500 C 367.167 46.312,367.278 46.167,367.421 46.167 C 367.561 46.167,367.746 45.979,367.833 45.750 C 367.920 45.521,368.111 45.333,368.256 45.333 C 368.401 45.333,368.476 45.263,368.424 45.178 C 368.371 45.093,368.492 44.908,368.693 44.767 C 368.894 44.626,369.177 44.265,369.321 43.964 C 369.465 43.663,369.731 43.391,369.911 43.360 C 370.090 43.328,370.380 43.141,370.554 42.943 C 370.727 42.745,370.932 42.601,371.008 42.622 C 371.084 42.643,371.193 42.511,371.251 42.330 C 371.309 42.148,371.503 42.000,371.683 42.000 C 371.863 42.000,372.059 41.869,372.118 41.708 C 372.260 41.323,372.499 41.172,372.974 41.169 C 373.223 41.168,373.396 41.046,373.452 40.833 C 373.500 40.649,373.679 40.500,373.853 40.500 C 374.025 40.500,374.317 40.350,374.500 40.167 C 374.725 39.942,375.056 39.833,375.516 39.833 C 376.042 39.833,376.216 39.762,376.279 39.521 C 376.346 39.265,376.568 39.195,377.518 39.127 C 378.229 39.076,378.786 38.944,378.963 38.785 C 379.215 38.557,381.784 38.223,382.875 38.276 C 383.035 38.284,383.167 38.227,383.167 38.150 C 383.167 38.073,383.269 38.050,383.395 38.098 C 383.521 38.146,383.741 38.069,383.883 37.926 C 384.111 37.699,385.116 37.667,392.071 37.667 L 400.000 37.667 400.000 31.750 L 400.000 25.833 387.167 25.833 C 374.556 25.833,374.328 25.839,374.000 26.167 M27.784 41.669 C 27.456 41.928,27.108 42.000,26.196 42.000 C 24.880 42.000,24.500 42.097,24.500 42.434 C 24.500 42.595,24.281 42.670,23.792 42.678 C 22.666 42.696,22.150 42.797,21.857 43.055 C 21.706 43.188,21.354 43.345,21.074 43.404 C 20.794 43.464,20.459 43.660,20.329 43.839 C 20.180 44.046,19.899 44.167,19.567 44.167 C 19.049 44.167,18.565 44.509,18.779 44.724 C 18.840 44.784,18.658 44.833,18.375 44.833 C 17.707 44.833,17.333 44.983,17.333 45.249 C 17.333 45.367,17.067 45.513,16.741 45.574 C 16.416 45.635,16.108 45.793,16.057 45.926 C 16.006 46.058,15.821 46.167,15.645 46.167 C 15.457 46.167,15.260 46.339,15.167 46.583 C 15.047 46.898,14.888 47.000,14.515 47.000 C 14.169 47.000,13.991 47.099,13.917 47.333 C 13.858 47.517,13.671 47.667,13.500 47.667 C 13.329 47.667,13.142 47.817,13.083 48.000 C 13.025 48.183,12.833 48.333,12.655 48.333 C 12.478 48.333,12.333 48.413,12.333 48.510 C 12.333 48.607,12.272 48.648,12.196 48.602 C 12.121 48.555,11.934 48.663,11.781 48.842 C 11.628 49.021,11.390 49.167,11.252 49.167 C 11.113 49.167,11.009 49.223,11.020 49.292 C 11.078 49.660,10.965 49.833,10.667 49.833 C 10.444 49.833,10.333 49.944,10.333 50.167 C 10.333 50.394,10.222 50.500,9.984 50.500 C 9.778 50.500,9.601 50.634,9.550 50.828 C 9.503 51.008,9.322 51.201,9.149 51.256 C 8.975 51.311,8.833 51.454,8.833 51.575 C 8.833 51.696,8.683 51.834,8.500 51.882 C 8.301 51.934,8.167 52.109,8.167 52.318 C 8.167 52.556,8.061 52.667,7.833 52.667 C 7.626 52.667,7.500 52.778,7.500 52.960 C 7.500 53.121,7.347 53.349,7.160 53.465 C 6.973 53.582,6.865 53.750,6.920 53.839 C 6.975 53.927,6.940 54.000,6.843 54.000 C 6.746 54.000,6.667 54.120,6.667 54.266 C 6.667 54.412,6.517 54.570,6.333 54.618 C 6.150 54.666,6.000 54.842,6.000 55.008 C 6.000 55.175,5.850 55.358,5.667 55.417 C 5.462 55.482,5.333 55.669,5.333 55.902 C 5.333 56.111,5.183 56.417,5.000 56.583 C 4.817 56.749,4.667 57.023,4.667 57.192 C 4.667 57.385,4.547 57.500,4.347 57.500 C 4.129 57.500,3.993 57.655,3.920 57.983 C 3.862 58.248,3.669 58.597,3.491 58.759 C 3.312 58.920,3.167 59.190,3.167 59.359 C 3.167 59.528,3.017 59.817,2.833 60.000 C 2.650 60.183,2.500 60.494,2.500 60.690 C 2.500 60.886,2.369 61.154,2.208 61.286 C 2.018 61.442,2.003 61.487,2.167 61.417 C 2.330 61.346,2.316 61.391,2.125 61.548 C 1.933 61.705,1.833 62.022,1.833 62.477 C 1.833 62.966,1.764 63.167,1.593 63.167 C 1.262 63.167,1.204 63.300,1.087 64.328 C 1.027 64.852,0.875 65.305,0.722 65.417 C 0.542 65.548,0.433 65.986,0.374 66.804 C 0.327 67.462,0.224 68.000,0.144 68.000 C 0.064 68.000,0.000 76.119,0.000 86.333 L 0.000 104.667 6.980 104.667 C 12.579 104.667,13.996 104.623,14.143 104.445 C 14.274 104.287,14.328 99.680,14.331 88.404 C 14.335 71.390,14.391 69.133,14.818 68.706 C 15.121 68.402,15.118 68.416,15.146 67.428 C 15.161 66.875,15.242 66.665,15.466 66.594 C 15.672 66.529,15.778 66.305,15.807 65.880 C 15.831 65.524,15.987 65.132,16.174 64.957 C 16.353 64.790,16.500 64.469,16.500 64.244 C 16.500 63.986,16.595 63.833,16.755 63.833 C 17.060 63.833,17.271 63.351,17.321 62.542 C 17.328 62.427,17.483 62.333,17.667 62.333 C 17.882 62.333,18.000 62.222,18.000 62.019 C 18.000 61.841,18.151 61.666,18.350 61.614 C 18.543 61.564,18.653 61.446,18.595 61.352 C 18.537 61.258,18.679 61.057,18.911 60.905 C 19.143 60.753,19.333 60.528,19.333 60.406 C 19.333 60.283,19.431 60.123,19.550 60.050 C 19.669 59.977,19.937 59.673,20.145 59.375 C 20.353 59.076,20.669 58.833,20.850 58.833 C 21.030 58.833,21.223 58.715,21.278 58.571 C 21.333 58.426,21.556 58.240,21.773 58.158 C 21.989 58.076,22.167 57.894,22.167 57.754 C 22.167 57.611,22.312 57.500,22.500 57.500 C 22.722 57.500,22.833 57.389,22.833 57.167 C 22.833 56.983,22.927 56.828,23.042 56.821 C 23.851 56.771,24.333 56.560,24.333 56.255 C 24.333 56.073,24.506 56.000,24.932 56.000 C 25.391 56.000,25.552 55.922,25.618 55.667 C 25.673 55.459,25.846 55.333,26.077 55.333 C 26.281 55.333,26.576 55.192,26.732 55.020 C 26.921 54.811,27.319 54.681,27.927 54.631 C 28.513 54.582,28.913 54.457,29.045 54.279 C 29.524 53.634,46.050 53.704,46.256 54.352 C 46.339 54.613,46.521 54.667,47.325 54.667 C 48.154 54.667,48.307 54.715,48.382 55.000 C 48.439 55.218,48.609 55.333,48.875 55.333 C 49.099 55.333,49.417 55.483,49.583 55.667 C 49.784 55.888,50.097 56.000,50.514 56.000 C 51.040 56.000,51.152 56.062,51.197 56.375 C 51.226 56.581,51.336 56.750,51.442 56.750 C 51.548 56.750,51.922 57.012,52.275 57.333 C 52.628 57.654,52.966 57.917,53.027 57.917 C 53.089 57.917,53.195 57.973,53.264 58.042 C 53.333 58.110,53.526 58.167,53.694 58.167 C 53.889 58.167,54.000 58.288,54.000 58.500 C 54.000 58.722,54.111 58.833,54.333 58.833 C 54.556 58.833,54.667 58.944,54.667 59.167 C 54.667 59.354,54.778 59.500,54.921 59.500 C 55.061 59.500,55.246 59.688,55.333 59.917 C 55.430 60.172,55.623 60.333,55.829 60.333 C 56.056 60.333,56.167 60.443,56.167 60.667 C 56.167 60.889,56.278 61.000,56.500 61.000 C 56.744 61.000,56.833 61.111,56.833 61.417 C 56.833 61.646,56.983 61.983,57.167 62.167 C 57.350 62.350,57.500 62.620,57.500 62.766 C 57.500 62.912,57.650 63.070,57.833 63.118 C 58.059 63.177,58.167 63.347,58.169 63.644 C 58.172 64.166,58.313 64.403,58.708 64.549 C 58.899 64.619,59.000 64.832,59.000 65.163 C 59.000 65.464,59.136 65.786,59.333 65.955 C 59.582 66.168,59.667 66.447,59.667 67.053 C 59.667 67.724,59.724 67.880,60.000 67.952 C 60.298 68.030,60.335 68.184,60.345 69.394 C 60.352 70.140,60.380 71.050,60.407 71.417 C 60.435 71.783,60.466 79.307,60.477 88.136 C 60.489 97.537,60.559 104.150,60.646 104.096 C 60.728 104.045,60.835 104.154,60.883 104.337 C 60.968 104.665,61.093 104.669,68.693 104.627 L 76.417 104.583 76.459 86.709 C 76.501 69.052,76.506 68.833,76.834 68.628 C 77.097 68.463,77.167 68.239,77.167 67.554 C 77.167 66.854,77.226 66.670,77.480 66.590 C 77.800 66.488,78.000 65.867,78.000 64.979 C 78.000 64.611,78.077 64.500,78.333 64.500 C 78.587 64.500,78.667 64.389,78.667 64.037 C 78.667 63.765,78.804 63.474,79.000 63.333 C 79.183 63.201,79.333 62.922,79.333 62.713 C 79.333 62.444,79.431 62.333,79.667 62.333 C 79.911 62.333,80.000 62.222,80.000 61.917 C 80.000 61.687,80.056 61.509,80.125 61.520 C 80.408 61.564,80.665 61.492,80.639 61.375 C 80.574 61.077,80.888 60.333,81.079 60.333 C 81.391 60.333,82.167 59.498,82.167 59.162 C 82.167 58.962,82.345 58.837,82.734 58.764 C 83.046 58.705,83.344 58.547,83.395 58.412 C 83.447 58.277,83.602 58.167,83.739 58.167 C 83.876 58.167,84.069 58.017,84.167 57.833 C 84.265 57.650,84.450 57.500,84.578 57.500 C 84.706 57.500,84.854 57.363,84.907 57.196 C 84.964 57.018,85.263 56.827,85.627 56.737 C 86.001 56.645,86.250 56.484,86.250 56.333 C 86.250 56.163,86.456 56.066,86.894 56.031 C 87.363 55.992,87.560 55.890,87.621 55.656 C 87.669 55.474,87.850 55.333,88.035 55.333 C 88.224 55.333,88.402 55.192,88.452 55.000 C 88.526 54.715,88.679 54.667,89.497 54.667 C 90.204 54.667,90.567 54.579,90.880 54.332 C 91.759 53.641,108.205 53.659,108.386 54.352 C 108.456 54.616,108.628 54.667,109.465 54.667 C 110.321 54.667,110.473 54.714,110.548 55.000 C 110.596 55.183,110.774 55.335,110.943 55.337 C 111.112 55.339,111.438 55.487,111.667 55.667 C 111.896 55.846,112.215 55.994,112.375 55.996 C 112.535 55.998,112.835 56.169,113.042 56.375 C 113.248 56.581,113.473 56.759,113.542 56.771 C 113.610 56.782,113.742 56.801,113.833 56.813 C 113.925 56.824,114.000 56.945,114.000 57.081 C 114.000 57.217,114.263 57.439,114.583 57.573 C 114.904 57.707,115.167 57.895,115.167 57.991 C 115.167 58.088,115.345 58.167,115.564 58.167 C 115.821 58.167,115.992 58.284,116.048 58.500 C 116.100 58.699,116.276 58.833,116.484 58.833 C 116.718 58.833,116.833 58.940,116.833 59.155 C 116.833 59.333,116.983 59.525,117.167 59.583 C 117.350 59.642,117.500 59.804,117.500 59.944 C 117.500 60.083,117.650 60.237,117.833 60.285 C 118.018 60.333,118.167 60.512,118.167 60.686 C 118.167 60.889,118.285 61.000,118.500 61.000 C 118.741 61.000,118.833 61.111,118.833 61.403 C 118.833 62.024,119.005 62.333,119.351 62.333 C 119.572 62.333,119.667 62.452,119.667 62.731 C 119.667 62.988,119.784 63.159,120.000 63.215 C 120.255 63.282,120.333 63.442,120.333 63.901 C 120.333 64.389,120.395 64.500,120.667 64.500 C 120.944 64.500,121.000 64.611,121.000 65.161 C 121.000 65.651,121.086 65.868,121.333 66.000 C 121.541 66.111,121.667 66.350,121.668 66.631 C 121.669 67.321,121.998 68.354,122.180 68.242 C 122.269 68.187,122.331 68.204,122.318 68.279 C 122.305 68.355,122.309 68.454,122.326 68.500 C 122.389 68.661,122.467 69.761,122.495 70.875 C 122.511 71.494,122.576 72.000,122.641 72.000 C 122.706 72.000,122.730 72.300,122.695 72.667 C 122.642 73.224,122.682 73.335,122.941 73.346 C 123.111 73.354,123.158 73.397,123.045 73.443 C 122.885 73.507,122.839 76.899,122.838 88.939 C 122.836 99.107,122.892 104.317,123.001 104.249 C 123.092 104.193,123.167 104.264,123.167 104.407 C 123.167 104.638,124.009 104.667,130.918 104.667 L 138.670 104.667 138.665 87.136 C 138.661 68.811,138.648 68.341,138.142 68.208 C 137.886 68.142,137.833 67.962,137.833 67.158 C 137.833 66.336,137.783 66.173,137.500 66.083 C 137.215 65.993,137.167 65.831,137.167 64.973 C 137.167 64.109,137.120 63.957,136.833 63.882 C 136.551 63.808,136.500 63.654,136.500 62.882 C 136.500 62.109,136.449 61.955,136.167 61.882 C 135.944 61.823,135.829 61.648,135.822 61.356 C 135.806 60.772,135.609 60.296,135.410 60.363 C 135.322 60.392,135.179 60.098,135.093 59.708 C 134.979 59.194,134.853 59.000,134.635 59.000 C 134.393 59.000,134.333 58.865,134.333 58.318 C 134.333 57.776,134.265 57.618,134.000 57.548 C 133.817 57.500,133.667 57.351,133.667 57.216 C 133.667 57.081,133.517 56.846,133.335 56.693 C 133.152 56.541,132.977 56.239,132.946 56.021 C 132.915 55.803,132.732 55.541,132.539 55.438 C 132.202 55.257,132.167 55.200,132.167 54.833 C 132.167 54.742,132.017 54.667,131.833 54.667 C 131.589 54.667,131.500 54.556,131.500 54.248 C 131.500 54.018,131.350 53.702,131.167 53.545 C 130.983 53.388,130.833 53.161,130.833 53.041 C 130.833 52.921,130.717 52.778,130.575 52.724 C 130.242 52.596,129.404 51.758,129.276 51.425 C 129.222 51.283,129.062 51.167,128.922 51.167 C 128.781 51.167,128.667 51.023,128.667 50.845 C 128.667 50.638,128.533 50.504,128.292 50.470 C 128.085 50.441,127.917 50.304,127.917 50.167 C 127.917 50.029,127.748 49.893,127.542 49.863 C 127.208 49.816,127.094 49.657,127.143 49.304 C 127.151 49.242,126.932 49.142,126.655 49.081 C 126.377 49.020,126.061 48.827,125.952 48.652 C 125.843 48.477,125.621 48.333,125.460 48.333 C 125.278 48.333,125.167 48.207,125.167 48.000 C 125.167 47.782,125.056 47.667,124.845 47.667 C 124.667 47.667,124.475 47.517,124.417 47.333 C 124.338 47.085,124.164 47.000,123.739 47.000 C 123.424 47.000,123.167 46.930,123.167 46.845 C 123.167 46.528,122.627 46.167,122.155 46.167 C 121.778 46.167,121.667 46.091,121.667 45.833 C 121.667 45.615,121.556 45.500,121.345 45.500 C 121.167 45.500,120.975 45.350,120.917 45.167 C 120.835 44.910,120.664 44.833,120.175 44.833 C 119.679 44.833,119.520 44.760,119.452 44.500 C 119.384 44.239,119.224 44.167,118.722 44.167 C 118.266 44.167,118.021 44.073,117.877 43.842 C 117.766 43.663,117.406 43.466,117.079 43.405 C 116.752 43.343,116.371 43.180,116.233 43.042 C 116.087 42.897,115.548 42.757,114.951 42.709 C 114.225 42.651,113.859 42.540,113.716 42.335 C 113.550 42.099,113.232 42.037,112.053 42.014 C 110.840 41.990,110.543 41.930,110.289 41.657 C 109.810 41.144,90.435 41.157,89.782 41.672 C 89.450 41.933,89.105 42.000,88.100 42.000 C 87.017 42.000,86.806 42.048,86.628 42.333 C 86.463 42.597,86.239 42.667,85.554 42.667 C 84.577 42.667,83.762 42.916,83.916 43.166 C 83.973 43.258,83.921 43.339,83.802 43.346 C 83.682 43.353,83.433 43.395,83.250 43.439 C 83.067 43.483,82.813 43.528,82.685 43.538 C 82.558 43.547,82.418 43.693,82.374 43.861 C 82.312 44.099,82.132 44.167,81.564 44.167 C 80.944 44.167,80.833 44.217,80.833 44.500 C 80.833 44.777,80.722 44.833,80.178 44.833 C 79.669 44.833,79.499 44.908,79.417 45.167 C 79.358 45.350,79.166 45.500,78.989 45.500 C 78.812 45.500,78.517 45.650,78.333 45.833 C 78.150 46.017,77.886 46.167,77.746 46.167 C 77.606 46.167,77.420 46.354,77.333 46.583 C 77.205 46.922,77.062 47.000,76.572 47.000 C 76.109 47.000,75.949 47.077,75.882 47.333 C 75.833 47.518,75.654 47.667,75.481 47.667 C 75.284 47.667,75.167 47.784,75.167 47.981 C 75.167 48.210,75.005 48.327,74.575 48.407 C 74.249 48.468,73.942 48.624,73.893 48.753 C 73.843 48.882,73.668 49.030,73.503 49.083 C 73.338 49.135,73.164 49.325,73.117 49.506 C 73.066 49.700,72.889 49.833,72.682 49.833 C 72.444 49.833,72.333 49.939,72.333 50.167 C 72.333 50.389,72.222 50.500,72.000 50.500 C 71.778 50.500,71.667 50.611,71.667 50.833 C 71.667 51.056,71.556 51.167,71.333 51.167 C 71.111 51.167,71.000 51.278,71.000 51.500 C 71.000 51.724,70.889 51.833,70.663 51.833 C 70.456 51.833,70.264 51.995,70.167 52.250 C 70.080 52.479,69.894 52.667,69.754 52.667 C 69.611 52.667,69.500 52.812,69.500 53.000 C 69.500 53.244,69.389 53.333,69.083 53.333 C 68.778 53.333,68.667 53.244,68.667 53.000 C 68.667 52.778,68.556 52.667,68.333 52.667 C 68.106 52.667,68.000 52.556,68.000 52.318 C 68.000 52.111,67.866 51.934,67.672 51.883 C 67.492 51.836,67.299 51.655,67.244 51.482 C 67.189 51.309,67.037 51.167,66.905 51.167 C 66.774 51.167,66.667 51.052,66.667 50.913 C 66.667 50.773,66.479 50.587,66.250 50.500 C 66.021 50.413,65.833 50.227,65.833 50.087 C 65.833 49.944,65.688 49.833,65.500 49.833 C 65.282 49.833,65.167 49.722,65.167 49.513 C 65.167 49.298,65.013 49.160,64.699 49.090 C 64.442 49.034,64.125 48.840,63.996 48.661 C 63.866 48.481,63.635 48.333,63.483 48.333 C 63.330 48.333,63.166 48.183,63.118 48.000 C 63.068 47.808,62.891 47.667,62.702 47.667 C 62.512 47.667,62.335 47.525,62.285 47.333 C 62.219 47.080,62.058 47.000,61.611 47.000 C 61.128 47.000,61.014 46.933,60.970 46.625 C 60.927 46.326,60.793 46.240,60.309 46.199 C 59.872 46.163,59.677 46.057,59.616 45.824 C 59.567 45.638,59.388 45.500,59.194 45.500 C 59.002 45.500,58.810 45.356,58.750 45.167 C 58.671 44.919,58.498 44.833,58.072 44.833 C 57.687 44.833,57.500 44.755,57.500 44.595 C 57.500 44.311,57.164 44.192,56.226 44.141 C 55.779 44.117,55.561 44.035,55.609 43.909 C 55.681 43.723,55.004 43.353,54.442 43.271 C 54.296 43.249,54.118 43.168,54.046 43.089 C 53.975 43.011,54.029 43.007,54.167 43.081 C 54.359 43.184,54.373 43.168,54.228 43.010 C 54.124 42.898,53.561 42.764,52.978 42.713 C 52.250 42.650,51.823 42.524,51.619 42.311 C 51.374 42.056,51.069 42.000,49.936 42.000 C 48.767 42.000,48.505 41.949,48.252 41.669 C 47.784 41.152,28.442 41.152,27.784 41.669 M154.286 41.436 C 154.101 41.622,154.144 53.167,154.330 53.167 C 154.423 53.167,154.500 53.271,154.500 53.399 C 154.500 53.802,154.834 53.820,162.402 53.830 L 169.810 53.840 170.072 53.466 C 170.340 53.084,170.486 42.258,170.232 41.597 C 170.129 41.327,154.552 41.170,154.286 41.436 M215.171 41.663 C 214.917 41.916,214.583 41.988,213.551 42.013 C 212.222 42.044,211.579 42.223,211.758 42.512 C 211.813 42.602,211.796 42.658,211.721 42.637 C 211.326 42.529,209.472 42.878,209.397 43.075 C 209.349 43.198,208.978 43.349,208.572 43.410 C 207.990 43.497,207.833 43.589,207.833 43.844 C 207.833 44.111,207.715 44.167,207.151 44.167 C 206.609 44.167,206.451 44.235,206.382 44.500 C 206.314 44.757,206.154 44.833,205.680 44.833 C 205.288 44.833,204.863 44.982,204.508 45.244 C 204.201 45.471,203.886 45.616,203.808 45.568 C 203.684 45.491,203.602 45.712,203.640 46.021 C 203.647 46.079,203.349 46.175,202.976 46.234 C 202.497 46.311,202.275 46.439,202.214 46.671 C 202.166 46.852,201.987 47.000,201.814 47.000 C 201.611 47.000,201.500 47.118,201.500 47.333 C 201.500 47.562,201.389 47.667,201.145 47.667 C 200.949 47.667,200.655 47.821,200.492 48.009 C 200.328 48.198,200.027 48.365,199.822 48.380 C 199.617 48.395,199.414 48.541,199.372 48.704 C 199.329 48.867,199.184 49.000,199.048 49.000 C 198.913 49.000,198.765 49.141,198.720 49.313 C 198.675 49.485,198.457 49.709,198.236 49.809 C 198.014 49.910,197.833 50.107,197.833 50.246 C 197.833 50.389,197.687 50.500,197.500 50.500 C 197.278 50.500,197.167 50.611,197.167 50.833 C 197.167 51.056,197.056 51.167,196.833 51.167 C 196.611 51.167,196.500 51.278,196.500 51.500 C 196.500 51.722,196.389 51.833,196.167 51.833 C 195.944 51.833,195.833 51.944,195.833 52.167 C 195.833 52.354,195.722 52.500,195.580 52.500 C 195.440 52.500,195.241 52.688,195.136 52.917 C 195.032 53.146,194.839 53.333,194.708 53.333 C 194.576 53.333,194.430 53.483,194.382 53.667 C 194.334 53.850,194.192 54.000,194.067 54.000 C 193.942 54.000,193.789 54.206,193.727 54.458 C 193.664 54.710,193.475 55.038,193.307 55.186 C 193.138 55.334,193.000 55.616,193.000 55.811 C 193.000 56.056,192.896 56.167,192.667 56.167 C 192.483 56.167,192.333 56.276,192.333 56.409 C 192.333 56.542,192.146 56.839,191.917 57.068 C 191.688 57.297,191.500 57.636,191.500 57.820 C 191.500 58.004,191.351 58.235,191.168 58.332 C 190.986 58.430,190.845 58.564,190.855 58.630 C 190.927 59.111,190.785 59.493,190.500 59.583 C 190.243 59.665,190.167 59.836,190.167 60.325 C 190.167 60.821,190.093 60.980,189.833 61.048 C 189.570 61.117,189.500 61.276,189.500 61.798 C 189.500 62.305,189.427 62.480,189.189 62.542 C 188.985 62.596,188.837 62.844,188.757 63.270 C 188.691 63.625,188.554 63.966,188.455 64.028 C 188.220 64.173,188.140 64.519,188.047 65.792 C 187.996 66.500,187.902 66.833,187.754 66.833 C 187.424 66.833,187.353 67.172,187.321 68.908 C 187.299 70.065,187.233 70.500,187.080 70.500 C 186.685 70.500,186.673 71.017,186.668 87.839 L 186.664 104.667 193.998 104.667 L 201.333 104.667 201.333 87.922 C 201.333 72.334,201.353 71.185,201.612 71.284 C 201.826 71.366,201.865 71.324,201.781 71.104 C 201.720 70.945,201.735 70.856,201.814 70.905 C 201.993 71.015,202.162 70.032,202.165 68.875 C 202.166 68.224,202.252 67.915,202.500 67.667 C 202.785 67.382,202.936 66.781,202.849 66.279 C 202.836 66.204,202.898 66.187,202.988 66.242 C 203.226 66.390,203.500 65.777,203.500 65.094 C 203.500 64.611,203.562 64.500,203.833 64.500 C 204.111 64.500,204.167 64.389,204.167 63.833 C 204.167 63.347,204.235 63.167,204.421 63.167 C 204.561 63.167,204.746 62.979,204.833 62.750 C 204.920 62.521,205.105 62.333,205.244 62.333 C 205.409 62.333,205.533 62.104,205.603 61.667 C 205.683 61.164,205.786 61.000,206.021 61.000 C 206.219 61.000,206.333 60.882,206.333 60.678 C 206.333 60.501,206.483 60.308,206.667 60.250 C 206.850 60.192,207.000 60.042,207.000 59.917 C 207.000 59.792,207.150 59.642,207.333 59.583 C 207.517 59.525,207.667 59.333,207.667 59.155 C 207.667 58.948,207.782 58.833,207.989 58.833 C 208.166 58.833,208.358 58.683,208.417 58.500 C 208.475 58.317,208.667 58.167,208.845 58.167 C 209.022 58.167,209.317 58.017,209.500 57.833 C 209.683 57.650,209.953 57.500,210.099 57.500 C 210.245 57.500,210.402 57.356,210.448 57.181 C 210.494 57.005,210.711 56.816,210.931 56.761 C 211.151 56.706,211.323 56.606,211.313 56.539 C 211.248 56.121,211.388 56.000,211.932 56.000 C 212.391 56.000,212.552 55.922,212.618 55.667 C 212.686 55.408,212.846 55.333,213.333 55.333 C 213.821 55.333,213.981 55.259,214.048 55.000 C 214.123 54.716,214.276 54.667,215.083 54.667 C 215.879 54.667,216.045 54.615,216.115 54.346 C 216.227 53.920,217.014 53.885,226.007 53.910 C 233.087 53.930,233.097 53.930,233.465 54.298 C 233.768 54.601,234.022 54.667,234.897 54.667 C 235.821 54.667,235.973 54.711,236.048 55.000 C 236.098 55.192,236.276 55.333,236.465 55.333 C 236.646 55.333,236.829 55.467,236.872 55.629 C 236.923 55.826,237.136 55.939,237.510 55.968 C 238.047 56.009,238.392 56.270,238.238 56.519 C 238.198 56.584,238.466 56.688,238.833 56.750 C 239.249 56.820,239.500 56.953,239.500 57.102 C 239.500 57.234,239.688 57.413,239.917 57.500 C 240.146 57.587,240.333 57.773,240.333 57.913 C 240.333 58.052,240.456 58.167,240.607 58.167 C 240.757 58.167,240.976 58.298,241.093 58.458 C 241.210 58.619,241.369 58.754,241.445 58.758 C 241.901 58.785,242.333 59.065,242.333 59.333 C 242.333 59.675,243.346 60.833,243.645 60.833 C 243.748 60.833,243.833 60.990,243.833 61.182 C 243.833 61.391,243.967 61.566,244.167 61.618 C 244.350 61.666,244.500 61.842,244.500 62.008 C 244.500 62.175,244.650 62.358,244.833 62.417 C 245.017 62.475,245.176 62.667,245.188 62.845 C 245.228 63.463,245.252 63.528,245.516 63.722 C 245.662 63.829,245.834 64.197,245.898 64.539 C 245.962 64.882,246.101 65.144,246.207 65.123 C 246.313 65.101,246.473 65.421,246.562 65.833 C 246.723 66.577,246.944 66.887,247.200 66.729 C 247.274 66.684,247.340 66.970,247.347 67.365 C 247.368 68.437,247.417 68.720,247.648 69.085 C 247.858 69.416,247.858 69.416,247.753 69.083 C 247.679 68.850,247.700 68.802,247.823 68.924 C 247.943 69.044,248.012 74.675,248.041 86.841 L 248.083 104.583 256.125 104.627 L 264.167 104.670 264.167 87.272 C 264.167 72.011,264.136 69.849,263.917 69.667 C 263.779 69.553,263.654 69.525,263.638 69.605 C 263.622 69.685,263.557 69.112,263.493 68.333 C 263.357 66.669,263.289 66.346,263.045 66.194 C 262.895 66.102,262.745 65.292,262.678 64.228 C 262.672 64.124,262.517 64.000,262.333 63.952 C 262.055 63.879,262.000 63.724,262.000 63.017 C 262.000 62.350,261.929 62.125,261.667 61.961 C 261.464 61.835,261.333 61.573,261.333 61.292 C 261.333 61.036,261.184 60.703,261.000 60.545 C 260.817 60.388,260.667 60.095,260.667 59.893 C 260.667 59.371,260.497 59.000,260.259 59.000 C 260.145 59.000,259.965 58.708,259.858 58.351 C 259.751 57.993,259.552 57.658,259.415 57.606 C 259.278 57.553,259.167 57.358,259.167 57.172 C 259.167 56.949,259.057 56.833,258.845 56.833 C 258.639 56.833,258.503 56.698,258.466 56.458 C 258.434 56.252,258.311 56.104,258.192 56.129 C 258.073 56.154,258.020 56.103,258.074 56.016 C 258.128 55.928,258.096 55.809,258.003 55.752 C 257.910 55.694,257.833 55.515,257.833 55.354 C 257.833 55.192,257.646 54.897,257.417 54.698 C 257.188 54.499,257.000 54.260,257.000 54.168 C 257.000 54.075,256.896 54.000,256.769 54.000 C 256.643 54.000,256.500 53.850,256.452 53.667 C 256.400 53.467,256.224 53.333,256.016 53.333 C 255.753 53.333,255.667 53.229,255.667 52.910 C 255.667 52.628,255.417 52.245,254.917 51.759 C 254.504 51.358,254.167 50.948,254.167 50.848 C 254.167 50.748,254.099 50.667,254.017 50.667 C 253.867 50.667,253.123 50.079,252.380 49.375 C 252.163 49.169,251.885 49.000,251.762 49.000 C 251.639 49.000,251.501 48.856,251.455 48.681 C 251.409 48.505,251.194 48.335,250.978 48.302 C 250.761 48.269,250.599 48.159,250.618 48.057 C 250.638 47.956,250.431 47.828,250.159 47.773 C 249.883 47.718,249.683 47.581,249.707 47.462 C 249.731 47.346,249.656 47.269,249.542 47.292 C 249.427 47.315,249.333 47.258,249.333 47.167 C 249.333 47.075,249.183 47.000,249.000 47.000 C 248.702 47.000,248.634 46.907,248.681 46.560 C 248.708 46.357,248.247 46.172,247.708 46.169 C 247.279 46.167,247.167 46.098,247.167 45.833 C 247.167 45.613,247.056 45.500,246.839 45.500 C 246.659 45.500,246.434 45.355,246.339 45.177 C 246.225 44.964,245.952 44.836,245.541 44.802 C 245.120 44.767,244.917 44.669,244.917 44.500 C 244.917 44.313,244.677 44.237,243.958 44.200 C 243.145 44.158,243.000 44.102,243.000 43.833 C 243.000 43.595,242.842 43.489,242.375 43.411 C 241.493 43.265,241.300 43.189,241.399 43.029 C 241.446 42.952,241.395 42.875,241.284 42.857 C 241.174 42.839,240.633 42.763,240.083 42.687 C 239.533 42.611,239.154 42.538,239.240 42.525 C 239.988 42.408,238.526 42.010,237.332 42.005 C 236.094 42.001,235.887 41.957,235.704 41.664 C 235.383 41.151,215.684 41.149,215.171 41.663 M279.749 41.875 C 279.503 43.210,279.740 53.264,280.023 53.547 C 280.451 53.974,295.006 53.981,295.352 53.554 C 295.506 53.365,295.514 53.311,295.375 53.395 C 295.260 53.463,295.167 53.440,295.167 53.343 C 295.167 53.246,295.313 53.167,295.492 53.167 C 295.729 53.167,295.847 53.016,295.922 52.613 C 296.071 51.822,295.944 41.791,295.782 41.542 C 295.677 41.380,293.884 41.333,287.748 41.333 L 279.848 41.333 279.749 41.875 M154.503 62.830 C 154.169 63.164,154.167 63.325,154.167 83.918 L 154.167 104.670 162.208 104.627 L 170.250 104.583 170.250 83.702 C 170.250 65.343,170.220 62.803,170.001 62.667 C 169.419 62.308,154.872 62.461,154.503 62.830 M280.050 62.715 C 279.980 62.826,279.914 62.954,279.905 63.000 C 279.896 63.046,279.838 63.196,279.776 63.333 C 279.715 63.471,279.684 72.808,279.707 84.083 L 279.750 104.583 287.712 104.627 L 295.674 104.670 295.837 104.241 C 296.078 103.606,296.058 64.049,295.816 63.355 C 295.714 63.064,295.492 62.752,295.321 62.660 C 294.840 62.403,280.215 62.455,280.050 62.715 " stroke="none" fill="#b9b7b7" fill-rule="evenodd"></path></g></svg>