<svg id="svg" version="1.1" width="400" height="136.6771159874608" xmlns="http://www.w3.org/2000/svg" xmlns:xlink="http://www.w3.org/1999/xlink" style="display: block;"><g id="svgg"><path id="path0" d="M175.333 62.750 L 175.333 90.000 178.750 90.000 L 182.167 90.000 182.167 79.686 C 182.167 69.512,182.171 69.371,182.500 69.285 C 182.808 69.204,182.833 69.058,182.833 67.349 C 182.833 65.817,182.876 65.500,183.083 65.500 C 183.275 65.500,183.333 65.287,183.333 64.583 C 183.333 63.778,183.374 63.667,183.667 63.667 C 183.944 63.667,184.000 63.556,184.000 63.000 C 184.000 62.444,184.056 62.333,184.333 62.333 C 184.519 62.333,184.667 62.222,184.667 62.083 C 184.667 61.946,184.786 61.833,184.932 61.833 C 185.078 61.833,185.237 61.683,185.285 61.500 C 185.333 61.317,185.476 61.167,185.603 61.167 C 185.730 61.167,185.833 61.017,185.833 60.833 C 185.833 60.611,185.944 60.500,186.167 60.500 C 186.389 60.500,186.500 60.389,186.500 60.167 C 186.500 59.944,186.611 59.833,186.833 59.833 C 187.056 59.833,187.167 59.722,187.167 59.500 C 187.167 59.230,187.278 59.167,187.750 59.167 C 188.157 59.167,188.333 59.091,188.333 58.917 C 188.333 58.736,188.519 58.667,189.000 58.667 C 189.556 58.667,189.667 58.611,189.667 58.333 C 189.667 58.013,189.778 58.000,192.500 58.000 C 195.222 58.000,195.333 58.013,195.333 58.333 C 195.333 58.611,195.444 58.667,196.000 58.667 C 196.481 58.667,196.667 58.736,196.667 58.917 C 196.667 59.091,196.843 59.167,197.250 59.167 C 197.722 59.167,197.833 59.230,197.833 59.500 C 197.833 59.722,197.944 59.833,198.167 59.833 C 198.389 59.833,198.500 59.944,198.500 60.167 C 198.500 60.389,198.611 60.500,198.833 60.500 C 199.056 60.500,199.167 60.611,199.167 60.833 C 199.167 61.019,199.278 61.167,199.417 61.167 C 199.591 61.167,199.667 61.343,199.667 61.750 C 199.667 62.222,199.730 62.333,200.000 62.333 C 200.278 62.333,200.333 62.444,200.333 63.000 C 200.333 63.556,200.389 63.667,200.667 63.667 C 200.997 63.667,201.000 63.778,201.000 76.833 L 201.000 90.000 204.750 90.000 L 208.500 90.000 208.500 76.833 C 208.500 63.778,208.497 63.667,208.167 63.667 C 207.857 63.667,207.833 63.556,207.833 62.083 C 207.833 60.611,207.810 60.500,207.500 60.500 C 207.207 60.500,207.167 60.389,207.167 59.583 C 207.167 58.880,207.109 58.667,206.917 58.667 C 206.741 58.667,206.667 58.489,206.667 58.068 C 206.667 57.609,206.589 57.448,206.333 57.382 C 206.150 57.334,206.000 57.191,206.000 57.064 C 206.000 56.937,205.850 56.833,205.667 56.833 C 205.389 56.833,205.333 56.722,205.333 56.167 C 205.333 55.611,205.278 55.500,205.000 55.500 C 204.778 55.500,204.667 55.389,204.667 55.167 C 204.667 54.944,204.556 54.833,204.333 54.833 C 204.148 54.833,204.000 54.722,204.000 54.583 C 204.000 54.409,203.824 54.333,203.417 54.333 C 202.944 54.333,202.833 54.270,202.833 54.000 C 202.833 53.778,202.722 53.667,202.500 53.667 C 202.278 53.667,202.167 53.556,202.167 53.333 C 202.167 53.066,202.056 53.000,201.603 53.000 C 201.179 53.000,201.017 52.917,200.952 52.667 C 200.878 52.383,200.724 52.333,199.932 52.333 C 199.215 52.333,199.000 52.276,199.000 52.083 C 199.000 51.880,198.722 51.833,197.500 51.833 C 196.111 51.833,196.000 51.809,196.000 51.500 C 196.000 51.190,195.889 51.167,194.417 51.167 C 192.944 51.167,192.833 51.190,192.833 51.500 C 192.833 51.810,192.722 51.833,191.250 51.833 C 189.954 51.833,189.667 51.879,189.667 52.083 C 189.667 52.275,189.454 52.333,188.750 52.333 C 187.944 52.333,187.833 52.374,187.833 52.667 C 187.833 52.944,187.722 53.000,187.167 53.000 C 186.611 53.000,186.500 53.056,186.500 53.333 C 186.500 53.519,186.389 53.667,186.250 53.667 C 186.111 53.667,186.000 53.815,186.000 54.000 C 186.000 54.278,185.889 54.333,185.333 54.333 C 184.877 54.333,184.667 54.406,184.667 54.564 C 184.667 54.691,184.517 54.834,184.333 54.882 C 184.150 54.930,184.000 55.088,184.000 55.234 C 184.000 55.380,183.887 55.500,183.750 55.500 C 183.611 55.500,183.500 55.648,183.500 55.833 C 183.500 56.056,183.389 56.167,183.167 56.167 C 182.897 56.167,182.833 56.278,182.833 56.750 C 182.833 57.222,182.770 57.333,182.500 57.333 C 182.170 57.333,182.167 57.222,182.167 46.417 L 182.167 35.500 178.750 35.500 L 175.333 35.500 175.333 62.750 M152.000 51.500 C 152.000 51.813,151.889 51.833,150.167 51.833 C 148.648 51.833,148.333 51.876,148.333 52.083 C 148.333 52.283,148.083 52.333,147.083 52.333 C 145.944 52.333,145.833 52.363,145.833 52.667 C 145.833 52.944,145.722 53.000,145.167 53.000 C 144.611 53.000,144.500 53.056,144.500 53.333 C 144.500 53.603,144.389 53.667,143.917 53.667 C 143.444 53.667,143.333 53.730,143.333 54.000 C 143.333 54.222,143.222 54.333,143.000 54.333 C 142.815 54.333,142.667 54.444,142.667 54.583 C 142.667 54.758,142.491 54.833,142.083 54.833 C 141.611 54.833,141.500 54.897,141.500 55.167 C 141.500 55.389,141.389 55.500,141.167 55.500 C 140.944 55.500,140.833 55.611,140.833 55.833 C 140.833 56.056,140.722 56.167,140.500 56.167 C 140.278 56.167,140.167 56.278,140.167 56.500 C 140.167 56.722,140.056 56.833,139.833 56.833 C 139.650 56.833,139.500 56.937,139.500 57.064 C 139.500 57.191,139.350 57.334,139.167 57.382 C 138.983 57.430,138.833 57.588,138.833 57.734 C 138.833 57.880,138.721 58.000,138.583 58.000 C 138.403 58.000,138.333 58.185,138.333 58.667 C 138.333 59.222,138.278 59.333,138.000 59.333 C 137.815 59.333,137.667 59.444,137.667 59.583 C 137.667 59.722,137.519 59.833,137.333 59.833 C 137.056 59.833,137.000 59.944,137.000 60.500 C 137.000 61.056,136.944 61.167,136.667 61.167 C 136.389 61.167,136.333 61.278,136.333 61.833 C 136.333 62.315,136.264 62.500,136.083 62.500 C 135.891 62.500,135.833 62.713,135.833 63.417 C 135.833 64.222,135.793 64.333,135.500 64.333 C 135.207 64.333,135.167 64.444,135.167 65.250 C 135.167 66.056,135.126 66.167,134.833 66.167 C 134.507 66.167,134.500 66.278,134.500 71.167 C 134.500 76.056,134.507 76.167,134.833 76.167 C 135.126 76.167,135.167 76.278,135.167 77.083 C 135.167 77.889,135.207 78.000,135.500 78.000 C 135.796 78.000,135.833 78.111,135.833 79.000 C 135.833 79.778,135.889 80.000,136.083 80.000 C 136.258 80.000,136.333 80.176,136.333 80.583 C 136.333 81.056,136.397 81.167,136.667 81.167 C 136.944 81.167,137.000 81.278,137.000 81.833 C 137.000 82.389,137.056 82.500,137.333 82.500 C 137.519 82.500,137.667 82.611,137.667 82.750 C 137.667 82.889,137.815 83.000,138.000 83.000 C 138.278 83.000,138.333 83.111,138.333 83.667 C 138.333 84.148,138.403 84.333,138.583 84.333 C 138.721 84.333,138.833 84.453,138.833 84.599 C 138.833 84.745,138.983 84.904,139.167 84.952 C 139.350 85.000,139.500 85.143,139.500 85.269 C 139.500 85.396,139.650 85.500,139.833 85.500 C 140.056 85.500,140.167 85.611,140.167 85.833 C 140.167 86.056,140.278 86.167,140.500 86.167 C 140.722 86.167,140.833 86.278,140.833 86.500 C 140.833 86.722,140.944 86.833,141.167 86.833 C 141.389 86.833,141.500 86.944,141.500 87.167 C 141.500 87.437,141.611 87.500,142.083 87.500 C 142.491 87.500,142.667 87.575,142.667 87.750 C 142.667 87.889,142.815 88.000,143.000 88.000 C 143.222 88.000,143.333 88.111,143.333 88.333 C 143.333 88.603,143.444 88.667,143.917 88.667 C 144.389 88.667,144.500 88.730,144.500 89.000 C 144.500 89.296,144.611 89.333,145.500 89.333 C 146.389 89.333,146.500 89.370,146.500 89.667 C 146.500 89.960,146.611 90.000,147.417 90.000 C 148.222 90.000,148.333 90.040,148.333 90.333 C 148.333 90.646,148.444 90.667,150.167 90.667 C 151.685 90.667,152.000 90.710,152.000 90.917 C 152.000 91.121,152.287 91.167,153.583 91.167 C 154.880 91.167,155.167 91.121,155.167 90.917 C 155.167 90.709,155.483 90.667,157.016 90.667 C 158.724 90.667,158.871 90.641,158.952 90.333 C 159.025 90.052,159.179 90.000,159.936 90.000 C 160.722 90.000,160.833 89.959,160.833 89.667 C 160.833 89.397,160.944 89.333,161.417 89.333 C 161.889 89.333,162.000 89.270,162.000 89.000 C 162.000 88.722,162.111 88.667,162.667 88.667 C 163.222 88.667,163.333 88.611,163.333 88.333 C 163.333 88.063,163.444 88.000,163.917 88.000 C 164.324 88.000,164.500 87.925,164.500 87.750 C 164.500 87.611,164.648 87.500,164.833 87.500 C 165.056 87.500,165.167 87.389,165.167 87.167 C 165.167 86.944,165.278 86.833,165.500 86.833 C 165.722 86.833,165.833 86.722,165.833 86.500 C 165.833 86.278,165.944 86.167,166.167 86.167 C 166.389 86.167,166.500 86.056,166.500 85.833 C 166.500 85.611,166.611 85.500,166.833 85.500 C 167.019 85.500,167.167 85.389,167.167 85.250 C 167.167 85.112,167.279 85.000,167.417 85.000 C 167.556 85.000,167.667 84.852,167.667 84.667 C 167.667 84.444,167.778 84.333,168.000 84.333 C 168.278 84.333,168.333 84.222,168.333 83.667 C 168.333 83.111,168.389 83.000,168.667 83.000 C 168.850 83.000,169.000 82.896,169.000 82.769 C 169.000 82.643,169.150 82.500,169.333 82.452 C 169.589 82.385,169.667 82.224,169.667 81.766 C 169.667 81.344,169.741 81.167,169.917 81.167 C 170.091 81.167,170.167 80.991,170.167 80.583 C 170.167 80.028,170.139 80.000,169.583 80.000 C 169.111 80.000,169.000 79.937,169.000 79.667 C 169.000 79.389,168.889 79.333,168.333 79.333 C 167.778 79.333,167.667 79.278,167.667 79.000 C 167.667 78.730,167.556 78.667,167.083 78.667 C 166.676 78.667,166.500 78.591,166.500 78.417 C 166.500 78.222,166.278 78.167,165.500 78.167 C 164.611 78.167,164.500 78.130,164.500 77.833 C 164.500 77.563,164.389 77.500,163.917 77.500 C 163.365 77.500,163.333 77.531,163.333 78.064 C 163.333 78.488,163.250 78.649,163.000 78.715 C 162.745 78.782,162.667 78.942,162.667 79.401 C 162.667 79.822,162.593 80.000,162.417 80.000 C 162.278 80.000,162.167 80.148,162.167 80.333 C 162.167 80.556,162.056 80.667,161.833 80.667 C 161.648 80.667,161.500 80.778,161.500 80.917 C 161.500 81.056,161.352 81.167,161.167 81.167 C 160.944 81.167,160.833 81.278,160.833 81.500 C 160.833 81.722,160.722 81.833,160.500 81.833 C 160.278 81.833,160.167 81.944,160.167 82.167 C 160.167 82.437,160.056 82.500,159.583 82.500 C 159.111 82.500,159.000 82.563,159.000 82.833 C 159.000 83.056,158.889 83.167,158.667 83.167 C 158.481 83.167,158.333 83.278,158.333 83.417 C 158.333 83.609,158.120 83.667,157.417 83.667 C 156.611 83.667,156.500 83.707,156.500 84.000 C 156.500 84.322,156.389 84.333,153.333 84.333 C 150.278 84.333,150.167 84.322,150.167 84.000 C 150.167 83.722,150.056 83.667,149.500 83.667 C 149.019 83.667,148.833 83.597,148.833 83.417 C 148.833 83.242,148.657 83.167,148.250 83.167 C 147.778 83.167,147.667 83.103,147.667 82.833 C 147.667 82.611,147.556 82.500,147.333 82.500 C 147.111 82.500,147.000 82.389,147.000 82.167 C 147.000 81.897,146.889 81.833,146.417 81.833 C 145.994 81.833,145.833 81.760,145.833 81.568 C 145.833 81.422,145.683 81.263,145.500 81.215 C 145.317 81.167,145.167 81.024,145.167 80.897 C 145.167 80.770,145.017 80.667,144.833 80.667 C 144.556 80.667,144.500 80.556,144.500 80.000 C 144.500 79.444,144.444 79.333,144.167 79.333 C 143.944 79.333,143.833 79.222,143.833 79.000 C 143.833 78.815,143.722 78.667,143.583 78.667 C 143.409 78.667,143.333 78.491,143.333 78.083 C 143.333 77.611,143.270 77.500,143.000 77.500 C 142.722 77.500,142.667 77.389,142.667 76.833 C 142.667 76.278,142.611 76.167,142.333 76.167 C 142.030 76.167,142.000 76.056,142.000 74.917 C 142.000 73.778,141.970 73.667,141.667 73.667 C 141.348 73.667,141.333 73.556,141.333 71.167 C 141.333 68.778,141.348 68.667,141.667 68.667 C 141.970 68.667,142.000 68.556,142.000 67.417 C 142.000 66.278,142.030 66.167,142.333 66.167 C 142.611 66.167,142.667 66.056,142.667 65.500 C 142.667 64.944,142.722 64.833,143.000 64.833 C 143.270 64.833,143.333 64.722,143.333 64.250 C 143.333 63.843,143.409 63.667,143.583 63.667 C 143.722 63.667,143.833 63.519,143.833 63.333 C 143.833 63.111,143.944 63.000,144.167 63.000 C 144.437 63.000,144.500 62.889,144.500 62.417 C 144.500 61.944,144.563 61.833,144.833 61.833 C 145.056 61.833,145.167 61.722,145.167 61.500 C 145.167 61.278,145.278 61.167,145.500 61.167 C 145.722 61.167,145.833 61.056,145.833 60.833 C 145.833 60.563,145.944 60.500,146.417 60.500 C 146.889 60.500,147.000 60.437,147.000 60.167 C 147.000 59.944,147.111 59.833,147.333 59.833 C 147.556 59.833,147.667 59.722,147.667 59.500 C 147.667 59.230,147.778 59.167,148.250 59.167 C 148.657 59.167,148.833 59.091,148.833 58.917 C 148.833 58.736,149.019 58.667,149.500 58.667 C 150.056 58.667,150.167 58.611,150.167 58.333 C 150.167 58.012,150.278 58.000,153.333 58.000 C 156.389 58.000,156.500 58.012,156.500 58.333 C 156.500 58.603,156.611 58.667,157.083 58.667 C 157.491 58.667,157.667 58.742,157.667 58.917 C 157.667 59.097,157.852 59.167,158.333 59.167 C 158.889 59.167,159.000 59.222,159.000 59.500 C 159.000 59.770,159.111 59.833,159.583 59.833 C 160.056 59.833,160.167 59.897,160.167 60.167 C 160.167 60.389,160.278 60.500,160.500 60.500 C 160.722 60.500,160.833 60.611,160.833 60.833 C 160.833 61.056,160.944 61.167,161.167 61.167 C 161.437 61.167,161.500 61.278,161.500 61.750 C 161.500 62.222,161.563 62.333,161.833 62.333 C 162.056 62.333,162.167 62.444,162.167 62.667 C 162.167 62.852,162.278 63.000,162.417 63.000 C 162.593 63.000,162.667 63.178,162.667 63.599 C 162.667 64.058,162.745 64.218,163.000 64.285 C 163.183 64.333,163.333 64.476,163.333 64.603 C 163.333 64.755,163.531 64.833,163.917 64.833 C 164.324 64.833,164.500 64.758,164.500 64.583 C 164.500 64.403,164.685 64.333,165.167 64.333 C 165.722 64.333,165.833 64.278,165.833 64.000 C 165.833 63.722,165.944 63.667,166.500 63.667 C 167.056 63.667,167.167 63.611,167.167 63.333 C 167.167 63.040,167.278 63.000,168.083 63.000 C 168.889 63.000,169.000 62.960,169.000 62.667 C 169.000 62.444,169.111 62.333,169.333 62.333 C 169.626 62.333,169.667 62.222,169.667 61.417 C 169.667 60.611,169.626 60.500,169.333 60.500 C 169.063 60.500,169.000 60.389,169.000 59.917 C 169.000 59.444,168.937 59.333,168.667 59.333 C 168.444 59.333,168.333 59.222,168.333 59.000 C 168.333 58.778,168.222 58.667,168.000 58.667 C 167.722 58.667,167.667 58.556,167.667 58.000 C 167.667 57.519,167.597 57.333,167.417 57.333 C 167.279 57.333,167.167 57.221,167.167 57.083 C 167.167 56.944,167.019 56.833,166.833 56.833 C 166.611 56.833,166.500 56.722,166.500 56.500 C 166.500 56.278,166.389 56.167,166.167 56.167 C 165.944 56.167,165.833 56.056,165.833 55.833 C 165.833 55.611,165.722 55.500,165.500 55.500 C 165.278 55.500,165.167 55.389,165.167 55.167 C 165.167 54.944,165.056 54.833,164.833 54.833 C 164.648 54.833,164.500 54.722,164.500 54.583 C 164.500 54.409,164.324 54.333,163.917 54.333 C 163.444 54.333,163.333 54.270,163.333 54.000 C 163.333 53.722,163.222 53.667,162.667 53.667 C 162.111 53.667,162.000 53.611,162.000 53.333 C 162.000 53.063,161.889 53.000,161.417 53.000 C 160.944 53.000,160.833 52.937,160.833 52.667 C 160.833 52.374,160.722 52.333,159.917 52.333 C 159.213 52.333,159.000 52.275,159.000 52.083 C 159.000 51.876,158.676 51.833,157.083 51.833 C 155.278 51.833,155.167 51.814,155.167 51.500 C 155.167 51.190,155.056 51.167,153.583 51.167 C 152.111 51.167,152.000 51.190,152.000 51.500 M256.833 51.500 C 256.833 51.814,256.722 51.833,254.917 51.833 C 253.324 51.833,253.000 51.876,253.000 52.083 C 253.000 52.275,252.787 52.333,252.083 52.333 C 251.278 52.333,251.167 52.374,251.167 52.667 C 251.167 52.960,251.056 53.000,250.250 53.000 C 249.444 53.000,249.333 53.040,249.333 53.333 C 249.333 53.556,249.222 53.667,249.000 53.667 C 248.778 53.667,248.667 53.778,248.667 54.000 C 248.667 54.278,248.556 54.333,248.000 54.333 C 247.519 54.333,247.333 54.403,247.333 54.583 C 247.333 54.721,247.214 54.833,247.068 54.833 C 246.922 54.833,246.763 54.983,246.715 55.167 C 246.649 55.417,246.488 55.500,246.064 55.500 C 245.611 55.500,245.500 55.566,245.500 55.833 C 245.500 56.056,245.389 56.167,245.167 56.167 C 244.944 56.167,244.833 56.278,244.833 56.500 C 244.833 56.722,244.722 56.833,244.500 56.833 C 244.315 56.833,244.167 56.944,244.167 57.083 C 244.167 57.221,244.054 57.333,243.917 57.333 C 243.736 57.333,243.667 57.519,243.667 58.000 C 243.667 58.556,243.611 58.667,243.333 58.667 C 243.111 58.667,243.000 58.778,243.000 59.000 C 243.000 59.222,242.889 59.333,242.667 59.333 C 242.397 59.333,242.333 59.444,242.333 59.917 C 242.333 60.389,242.270 60.500,242.000 60.500 C 241.778 60.500,241.667 60.611,241.667 60.833 C 241.667 61.019,241.556 61.167,241.417 61.167 C 241.225 61.167,241.167 61.380,241.167 62.083 C 241.167 62.889,241.126 63.000,240.833 63.000 C 240.556 63.000,240.500 63.111,240.500 63.667 C 240.500 64.222,240.444 64.333,240.167 64.333 C 239.857 64.333,239.833 64.444,239.833 65.917 C 239.833 67.389,239.810 67.500,239.500 67.500 C 239.177 67.500,239.167 67.611,239.167 71.167 C 239.167 74.722,239.177 74.833,239.500 74.833 C 239.810 74.833,239.833 74.944,239.833 76.417 C 239.833 77.889,239.857 78.000,240.167 78.000 C 240.444 78.000,240.500 78.111,240.500 78.667 C 240.500 79.222,240.556 79.333,240.833 79.333 C 241.126 79.333,241.167 79.444,241.167 80.250 C 241.167 80.954,241.225 81.167,241.417 81.167 C 241.556 81.167,241.667 81.315,241.667 81.500 C 241.667 81.722,241.778 81.833,242.000 81.833 C 242.270 81.833,242.333 81.944,242.333 82.417 C 242.333 82.889,242.397 83.000,242.667 83.000 C 242.889 83.000,243.000 83.111,243.000 83.333 C 243.000 83.556,243.111 83.667,243.333 83.667 C 243.611 83.667,243.667 83.778,243.667 84.333 C 243.667 84.815,243.736 85.000,243.917 85.000 C 244.054 85.000,244.167 85.112,244.167 85.250 C 244.167 85.389,244.315 85.500,244.500 85.500 C 244.722 85.500,244.833 85.611,244.833 85.833 C 244.833 86.056,244.944 86.167,245.167 86.167 C 245.389 86.167,245.500 86.278,245.500 86.500 C 245.500 86.770,245.611 86.833,246.083 86.833 C 246.506 86.833,246.667 86.907,246.667 87.099 C 246.667 87.245,246.817 87.404,247.000 87.452 C 247.183 87.500,247.333 87.643,247.333 87.769 C 247.333 87.927,247.543 88.000,248.000 88.000 C 248.556 88.000,248.667 88.056,248.667 88.333 C 248.667 88.556,248.778 88.667,249.000 88.667 C 249.222 88.667,249.333 88.778,249.333 89.000 C 249.333 89.293,249.444 89.333,250.250 89.333 C 251.056 89.333,251.167 89.374,251.167 89.667 C 251.167 89.960,251.278 90.000,252.083 90.000 C 252.889 90.000,253.000 90.040,253.000 90.333 C 253.000 90.650,253.111 90.667,255.167 90.667 C 256.981 90.667,257.333 90.707,257.333 90.917 C 257.333 91.117,257.583 91.167,258.583 91.167 C 259.583 91.167,259.833 91.117,259.833 90.917 C 259.833 90.709,260.157 90.667,261.750 90.667 C 263.556 90.667,263.667 90.647,263.667 90.333 C 263.667 90.040,263.778 90.000,264.583 90.000 C 265.389 90.000,265.500 89.960,265.500 89.667 C 265.500 89.374,265.611 89.333,266.417 89.333 C 267.222 89.333,267.333 89.293,267.333 89.000 C 267.333 88.722,267.444 88.667,268.000 88.667 C 268.556 88.667,268.667 88.611,268.667 88.333 C 268.667 88.111,268.778 88.000,269.000 88.000 C 269.185 88.000,269.333 87.889,269.333 87.750 C 269.333 87.575,269.509 87.500,269.917 87.500 C 270.389 87.500,270.500 87.437,270.500 87.167 C 270.500 86.944,270.611 86.833,270.833 86.833 C 271.056 86.833,271.167 86.722,271.167 86.500 C 271.167 86.278,271.278 86.167,271.500 86.167 C 271.722 86.167,271.833 86.056,271.833 85.833 C 271.833 85.648,271.944 85.500,272.083 85.500 C 272.221 85.500,272.333 85.388,272.333 85.250 C 272.333 85.111,272.481 85.000,272.667 85.000 C 272.889 85.000,273.000 84.889,273.000 84.667 C 273.000 84.444,273.111 84.333,273.333 84.333 C 273.611 84.333,273.667 84.222,273.667 83.667 C 273.667 83.111,273.722 83.000,274.000 83.000 C 274.183 83.000,274.333 82.896,274.333 82.769 C 274.333 82.643,274.483 82.500,274.667 82.452 C 274.922 82.385,275.000 82.224,275.000 81.766 C 275.000 81.344,275.074 81.167,275.250 81.167 C 275.425 81.167,275.500 80.991,275.500 80.583 C 275.500 80.111,275.563 80.000,275.833 80.000 C 276.130 80.000,276.167 79.889,276.167 79.000 C 276.167 78.111,276.204 78.000,276.500 78.000 C 276.793 78.000,276.833 77.889,276.833 77.083 C 276.833 76.278,276.874 76.167,277.167 76.167 C 277.493 76.167,277.500 76.056,277.500 71.167 C 277.500 66.278,277.493 66.167,277.167 66.167 C 276.874 66.167,276.833 66.056,276.833 65.250 C 276.833 64.444,276.793 64.333,276.500 64.333 C 276.207 64.333,276.167 64.222,276.167 63.417 C 276.167 62.611,276.126 62.500,275.833 62.500 C 275.556 62.500,275.500 62.389,275.500 61.833 C 275.500 61.352,275.431 61.167,275.250 61.167 C 275.074 61.167,275.000 60.989,275.000 60.568 C 275.000 60.109,274.922 59.948,274.667 59.882 C 274.483 59.834,274.333 59.691,274.333 59.564 C 274.333 59.437,274.183 59.333,274.000 59.333 C 273.722 59.333,273.667 59.222,273.667 58.667 C 273.667 58.111,273.611 58.000,273.333 58.000 C 273.111 58.000,273.000 57.889,273.000 57.667 C 273.000 57.444,272.889 57.333,272.667 57.333 C 272.481 57.333,272.333 57.222,272.333 57.083 C 272.333 56.946,272.221 56.833,272.083 56.833 C 271.944 56.833,271.833 56.685,271.833 56.500 C 271.833 56.278,271.722 56.167,271.500 56.167 C 271.278 56.167,271.167 56.056,271.167 55.833 C 271.167 55.611,271.056 55.500,270.833 55.500 C 270.611 55.500,270.500 55.389,270.500 55.167 C 270.500 54.897,270.389 54.833,269.917 54.833 C 269.509 54.833,269.333 54.758,269.333 54.583 C 269.333 54.444,269.185 54.333,269.000 54.333 C 268.778 54.333,268.667 54.222,268.667 54.000 C 268.667 53.722,268.556 53.667,268.000 53.667 C 267.444 53.667,267.333 53.611,267.333 53.333 C 267.333 53.063,267.222 53.000,266.750 53.000 C 266.278 53.000,266.167 52.937,266.167 52.667 C 266.167 52.363,266.056 52.333,264.917 52.333 C 263.917 52.333,263.667 52.283,263.667 52.083 C 263.667 51.876,263.343 51.833,261.750 51.833 C 259.944 51.833,259.833 51.814,259.833 51.500 C 259.833 51.191,259.722 51.167,258.333 51.167 C 256.944 51.167,256.833 51.191,256.833 51.500 M300.000 51.500 C 300.000 51.804,299.889 51.833,298.750 51.833 C 297.750 51.833,297.500 51.883,297.500 52.083 C 297.500 52.275,297.287 52.333,296.583 52.333 C 295.778 52.333,295.667 52.374,295.667 52.667 C 295.667 52.944,295.556 53.000,295.000 53.000 C 294.444 53.000,294.333 53.056,294.333 53.333 C 294.333 53.519,294.222 53.667,294.083 53.667 C 293.944 53.667,293.833 53.815,293.833 54.000 C 293.833 54.278,293.722 54.333,293.167 54.333 C 292.685 54.333,292.500 54.403,292.500 54.583 C 292.500 54.721,292.380 54.833,292.234 54.833 C 292.088 54.833,291.930 54.983,291.882 55.167 C 291.834 55.350,291.691 55.500,291.564 55.500 C 291.437 55.500,291.333 55.650,291.333 55.833 C 291.333 56.056,291.222 56.167,291.000 56.167 C 290.730 56.167,290.667 56.278,290.667 56.750 C 290.667 57.222,290.603 57.333,290.333 57.333 C 290.015 57.333,290.000 57.222,290.000 54.833 L 290.000 52.333 286.583 52.333 L 283.167 52.333 283.167 71.167 L 283.167 90.000 286.583 90.000 L 290.000 90.000 290.000 79.000 C 290.000 68.111,290.003 68.000,290.333 68.000 C 290.643 68.000,290.667 67.889,290.667 66.417 C 290.667 65.120,290.712 64.833,290.917 64.833 C 291.091 64.833,291.167 64.657,291.167 64.250 C 291.167 63.778,291.230 63.667,291.500 63.667 C 291.778 63.667,291.833 63.556,291.833 63.000 C 291.833 62.444,291.889 62.333,292.167 62.333 C 292.350 62.333,292.500 62.230,292.500 62.103 C 292.500 61.976,292.650 61.833,292.833 61.785 C 293.017 61.737,293.167 61.578,293.167 61.432 C 293.167 61.286,293.279 61.167,293.417 61.167 C 293.556 61.167,293.667 61.019,293.667 60.833 C 293.667 60.611,293.778 60.500,294.000 60.500 C 294.222 60.500,294.333 60.389,294.333 60.167 C 294.333 59.944,294.444 59.833,294.667 59.833 C 294.889 59.833,295.000 59.722,295.000 59.500 C 295.000 59.278,295.111 59.167,295.333 59.167 C 295.519 59.167,295.667 59.056,295.667 58.917 C 295.667 58.725,295.880 58.667,296.583 58.667 C 297.389 58.667,297.500 58.626,297.500 58.333 C 297.500 58.015,297.611 58.000,299.981 58.000 C 302.321 58.000,302.466 58.019,302.548 58.333 C 302.615 58.589,302.776 58.667,303.234 58.667 C 303.656 58.667,303.833 58.741,303.833 58.917 C 303.833 59.091,304.009 59.167,304.417 59.167 C 304.889 59.167,305.000 59.230,305.000 59.500 C 305.000 59.722,305.111 59.833,305.333 59.833 C 305.556 59.833,305.667 59.944,305.667 60.167 C 305.667 60.389,305.778 60.500,306.000 60.500 C 306.278 60.500,306.333 60.611,306.333 61.167 C 306.333 61.722,306.389 61.833,306.667 61.833 C 306.960 61.833,307.000 61.944,307.000 62.750 C 307.000 63.454,307.058 63.667,307.250 63.667 C 307.470 63.667,307.500 65.241,307.500 76.833 L 307.500 90.000 311.250 90.000 L 315.000 90.000 315.000 78.083 C 315.000 66.278,315.003 66.167,315.333 66.167 C 315.626 66.167,315.667 66.056,315.667 65.250 C 315.667 64.444,315.707 64.333,316.000 64.333 C 316.278 64.333,316.333 64.222,316.333 63.667 C 316.333 63.111,316.389 63.000,316.667 63.000 C 316.937 63.000,317.000 62.889,317.000 62.417 C 317.000 62.009,317.075 61.833,317.250 61.833 C 317.389 61.833,317.500 61.685,317.500 61.500 C 317.500 61.278,317.611 61.167,317.833 61.167 C 318.056 61.167,318.167 61.056,318.167 60.833 C 318.167 60.611,318.278 60.500,318.500 60.500 C 318.722 60.500,318.833 60.389,318.833 60.167 C 318.833 59.944,318.944 59.833,319.167 59.833 C 319.389 59.833,319.500 59.722,319.500 59.500 C 319.500 59.230,319.611 59.167,320.083 59.167 C 320.491 59.167,320.667 59.091,320.667 58.917 C 320.667 58.741,320.844 58.667,321.266 58.667 C 321.724 58.667,321.885 58.589,321.952 58.333 C 322.035 58.017,322.179 58.000,324.853 58.000 C 327.556 58.000,327.667 58.013,327.667 58.333 C 327.667 58.603,327.778 58.667,328.250 58.667 C 328.657 58.667,328.833 58.742,328.833 58.917 C 328.833 59.056,328.981 59.167,329.167 59.167 C 329.389 59.167,329.500 59.278,329.500 59.500 C 329.500 59.722,329.611 59.833,329.833 59.833 C 330.056 59.833,330.167 59.944,330.167 60.167 C 330.167 60.389,330.278 60.500,330.500 60.500 C 330.722 60.500,330.833 60.611,330.833 60.833 C 330.833 61.019,330.944 61.167,331.083 61.167 C 331.258 61.167,331.333 61.343,331.333 61.750 C 331.333 62.222,331.397 62.333,331.667 62.333 C 331.970 62.333,332.000 62.444,332.000 63.583 C 332.000 64.722,332.030 64.833,332.333 64.833 C 332.664 64.833,332.667 64.944,332.667 77.417 L 332.667 90.000 336.083 90.000 L 339.500 90.000 339.500 75.917 C 339.500 61.944,339.497 61.833,339.167 61.833 C 338.863 61.833,338.833 61.722,338.833 60.583 C 338.833 59.444,338.804 59.333,338.500 59.333 C 338.222 59.333,338.167 59.222,338.167 58.667 C 338.167 58.185,338.097 58.000,337.917 58.000 C 337.742 58.000,337.667 57.824,337.667 57.417 C 337.667 56.944,337.603 56.833,337.333 56.833 C 337.111 56.833,337.000 56.722,337.000 56.500 C 337.000 56.278,336.889 56.167,336.667 56.167 C 336.389 56.167,336.333 56.056,336.333 55.500 C 336.333 54.944,336.278 54.833,336.000 54.833 C 335.815 54.833,335.667 54.722,335.667 54.583 C 335.667 54.409,335.491 54.333,335.083 54.333 C 334.611 54.333,334.500 54.270,334.500 54.000 C 334.500 53.778,334.389 53.667,334.167 53.667 C 333.944 53.667,333.833 53.556,333.833 53.333 C 333.833 53.066,333.722 53.000,333.269 53.000 C 332.846 53.000,332.684 52.917,332.618 52.667 C 332.552 52.411,332.391 52.333,331.932 52.333 C 331.511 52.333,331.333 52.259,331.333 52.083 C 331.333 51.879,331.046 51.833,329.750 51.833 C 328.278 51.833,328.167 51.810,328.167 51.500 C 328.167 51.187,328.056 51.167,326.333 51.167 C 324.611 51.167,324.500 51.187,324.500 51.500 C 324.500 51.810,324.389 51.833,322.917 51.833 C 321.620 51.833,321.333 51.879,321.333 52.083 C 321.333 52.275,321.120 52.333,320.417 52.333 C 319.611 52.333,319.500 52.374,319.500 52.667 C 319.500 52.944,319.389 53.000,318.833 53.000 C 318.278 53.000,318.167 53.056,318.167 53.333 C 318.167 53.519,318.056 53.667,317.917 53.667 C 317.778 53.667,317.667 53.815,317.667 54.000 C 317.667 54.222,317.556 54.333,317.333 54.333 C 317.148 54.333,317.000 54.444,317.000 54.583 C 317.000 54.759,316.822 54.833,316.401 54.833 C 315.942 54.833,315.782 54.911,315.715 55.167 C 315.667 55.350,315.524 55.500,315.397 55.500 C 315.270 55.500,315.167 55.650,315.167 55.833 C 315.167 56.056,315.056 56.167,314.833 56.167 C 314.563 56.167,314.500 56.278,314.500 56.750 C 314.500 57.222,314.437 57.333,314.167 57.333 C 313.944 57.333,313.833 57.444,313.833 57.667 C 313.833 57.889,313.722 58.000,313.500 58.000 C 313.278 58.000,313.167 57.889,313.167 57.667 C 313.167 57.444,313.056 57.333,312.833 57.333 C 312.563 57.333,312.500 57.222,312.500 56.750 C 312.500 56.278,312.437 56.167,312.167 56.167 C 311.944 56.167,311.833 56.056,311.833 55.833 C 311.833 55.648,311.722 55.500,311.583 55.500 C 311.446 55.500,311.333 55.380,311.333 55.234 C 311.333 55.088,311.183 54.930,311.000 54.882 C 310.817 54.834,310.667 54.691,310.667 54.564 C 310.667 54.437,310.517 54.333,310.333 54.333 C 310.111 54.333,310.000 54.222,310.000 54.000 C 310.000 53.778,309.889 53.667,309.667 53.667 C 309.444 53.667,309.333 53.556,309.333 53.333 C 309.333 53.063,309.222 53.000,308.750 53.000 C 308.278 53.000,308.167 52.937,308.167 52.667 C 308.167 52.389,308.056 52.333,307.500 52.333 C 307.019 52.333,306.833 52.264,306.833 52.083 C 306.833 51.876,306.519 51.833,305.000 51.833 C 303.278 51.833,303.167 51.813,303.167 51.500 C 303.167 51.190,303.056 51.167,301.583 51.167 C 300.111 51.167,300.000 51.190,300.000 51.500 M361.500 51.500 C 361.500 51.814,361.389 51.833,359.583 51.833 C 357.991 51.833,357.667 51.876,357.667 52.083 C 357.667 52.275,357.454 52.333,356.750 52.333 C 355.944 52.333,355.833 52.374,355.833 52.667 C 355.833 52.937,355.722 53.000,355.250 53.000 C 354.778 53.000,354.667 53.063,354.667 53.333 C 354.667 53.556,354.556 53.667,354.333 53.667 C 354.111 53.667,354.000 53.778,354.000 54.000 C 354.000 54.278,353.889 54.333,353.333 54.333 C 352.852 54.333,352.667 54.403,352.667 54.583 C 352.667 54.721,352.547 54.833,352.401 54.833 C 352.255 54.833,352.096 54.983,352.048 55.167 C 352.000 55.350,351.857 55.500,351.731 55.500 C 351.604 55.500,351.500 55.650,351.500 55.833 C 351.500 56.056,351.389 56.167,351.167 56.167 C 350.944 56.167,350.833 56.278,350.833 56.500 C 350.833 56.722,350.722 56.833,350.500 56.833 C 350.317 56.833,350.167 56.937,350.167 57.064 C 350.167 57.191,350.017 57.334,349.833 57.382 C 349.650 57.430,349.500 57.588,349.500 57.734 C 349.500 57.880,349.387 58.000,349.250 58.000 C 349.111 58.000,349.000 58.148,349.000 58.333 C 349.000 58.556,348.889 58.667,348.667 58.667 C 348.397 58.667,348.333 58.778,348.333 59.250 C 348.333 59.722,348.270 59.833,348.000 59.833 C 347.778 59.833,347.667 59.944,347.667 60.167 C 347.667 60.389,347.556 60.500,347.333 60.500 C 347.056 60.500,347.000 60.611,347.000 61.167 C 347.000 61.648,346.931 61.833,346.750 61.833 C 346.558 61.833,346.500 62.046,346.500 62.750 C 346.500 63.556,346.460 63.667,346.167 63.667 C 345.874 63.667,345.833 63.778,345.833 64.583 C 345.833 65.389,345.793 65.500,345.500 65.500 C 345.182 65.500,345.167 65.611,345.167 67.981 C 345.167 70.321,345.148 70.466,344.833 70.548 C 344.588 70.612,344.500 70.776,344.500 71.167 C 344.500 71.558,344.588 71.721,344.833 71.785 C 345.148 71.867,345.167 72.012,345.167 74.353 C 345.167 76.722,345.182 76.833,345.500 76.833 C 345.793 76.833,345.833 76.944,345.833 77.750 C 345.833 78.556,345.874 78.667,346.167 78.667 C 346.460 78.667,346.500 78.778,346.500 79.583 C 346.500 80.287,346.558 80.500,346.750 80.500 C 346.931 80.500,347.000 80.685,347.000 81.167 C 347.000 81.722,347.056 81.833,347.333 81.833 C 347.603 81.833,347.667 81.944,347.667 82.417 C 347.667 82.889,347.730 83.000,348.000 83.000 C 348.222 83.000,348.333 83.111,348.333 83.333 C 348.333 83.556,348.444 83.667,348.667 83.667 C 348.889 83.667,349.000 83.778,349.000 84.000 C 349.000 84.185,349.111 84.333,349.250 84.333 C 349.387 84.333,349.500 84.453,349.500 84.599 C 349.500 84.745,349.650 84.904,349.833 84.952 C 350.017 85.000,350.167 85.143,350.167 85.269 C 350.167 85.396,350.317 85.500,350.500 85.500 C 350.722 85.500,350.833 85.611,350.833 85.833 C 350.833 86.056,350.944 86.167,351.167 86.167 C 351.389 86.167,351.500 86.278,351.500 86.500 C 351.500 86.685,351.611 86.833,351.750 86.833 C 351.887 86.833,352.000 86.953,352.000 87.099 C 352.000 87.245,352.150 87.404,352.333 87.452 C 352.517 87.500,352.667 87.643,352.667 87.769 C 352.667 87.927,352.877 88.000,353.333 88.000 C 353.889 88.000,354.000 88.056,354.000 88.333 C 354.000 88.603,354.111 88.667,354.583 88.667 C 355.056 88.667,355.167 88.730,355.167 89.000 C 355.167 89.278,355.278 89.333,355.833 89.333 C 356.389 89.333,356.500 89.389,356.500 89.667 C 356.500 89.960,356.611 90.000,357.417 90.000 C 358.222 90.000,358.333 90.040,358.333 90.333 C 358.333 90.650,358.444 90.667,360.500 90.667 C 362.315 90.667,362.667 90.707,362.667 90.917 C 362.667 91.117,362.917 91.167,363.917 91.167 C 364.917 91.167,365.167 91.117,365.167 90.917 C 365.167 90.707,365.520 90.667,367.349 90.667 C 369.391 90.667,369.537 90.645,369.618 90.333 C 369.692 90.052,369.846 90.000,370.603 90.000 C 371.389 90.000,371.500 89.959,371.500 89.667 C 371.500 89.397,371.611 89.333,372.083 89.333 C 372.556 89.333,372.667 89.270,372.667 89.000 C 372.667 88.722,372.778 88.667,373.333 88.667 C 373.889 88.667,374.000 88.611,374.000 88.333 C 374.000 88.111,374.111 88.000,374.333 88.000 C 374.519 88.000,374.667 87.889,374.667 87.750 C 374.667 87.575,374.843 87.500,375.250 87.500 C 375.722 87.500,375.833 87.437,375.833 87.167 C 375.833 86.944,375.944 86.833,376.167 86.833 C 376.389 86.833,376.500 86.722,376.500 86.500 C 376.500 86.278,376.611 86.167,376.833 86.167 C 377.056 86.167,377.167 86.056,377.167 85.833 C 377.167 85.648,377.278 85.500,377.417 85.500 C 377.591 85.500,377.667 85.324,377.667 84.917 C 377.667 84.444,377.730 84.333,378.000 84.333 C 378.222 84.333,378.333 84.222,378.333 84.000 C 378.333 83.778,378.444 83.667,378.667 83.667 C 378.937 83.667,379.000 83.556,379.000 83.083 C 379.000 82.611,379.063 82.500,379.333 82.500 C 379.556 82.500,379.667 82.389,379.667 82.167 C 379.667 81.944,379.778 81.833,380.000 81.833 C 380.270 81.833,380.333 81.722,380.333 81.250 C 380.333 80.778,380.270 80.667,380.000 80.667 C 379.778 80.667,379.667 80.556,379.667 80.333 C 379.667 80.037,379.556 80.000,378.667 80.000 C 377.778 80.000,377.667 79.963,377.667 79.667 C 377.667 79.397,377.556 79.333,377.083 79.333 C 376.611 79.333,376.500 79.270,376.500 79.000 C 376.500 78.707,376.389 78.667,375.583 78.667 C 374.880 78.667,374.667 78.609,374.667 78.417 C 374.667 78.236,374.481 78.167,374.000 78.167 C 373.349 78.167,373.333 78.181,373.333 78.750 C 373.333 79.157,373.258 79.333,373.083 79.333 C 372.903 79.333,372.833 79.519,372.833 80.000 C 372.833 80.556,372.778 80.667,372.500 80.667 C 372.315 80.667,372.167 80.778,372.167 80.917 C 372.167 81.056,372.019 81.167,371.833 81.167 C 371.611 81.167,371.500 81.278,371.500 81.500 C 371.500 81.722,371.389 81.833,371.167 81.833 C 370.944 81.833,370.833 81.944,370.833 82.167 C 370.833 82.437,370.722 82.500,370.250 82.500 C 369.778 82.500,369.667 82.563,369.667 82.833 C 369.667 83.111,369.556 83.167,369.000 83.167 C 368.519 83.167,368.333 83.236,368.333 83.417 C 368.333 83.591,368.157 83.667,367.750 83.667 C 367.278 83.667,367.167 83.730,367.167 84.000 C 367.167 84.322,367.056 84.333,364.000 84.333 C 360.944 84.333,360.833 84.322,360.833 84.000 C 360.833 83.707,360.722 83.667,359.917 83.667 C 359.213 83.667,359.000 83.609,359.000 83.417 C 359.000 83.236,358.815 83.167,358.333 83.167 C 357.778 83.167,357.667 83.111,357.667 82.833 C 357.667 82.611,357.556 82.500,357.333 82.500 C 357.111 82.500,357.000 82.389,357.000 82.167 C 357.000 81.981,356.889 81.833,356.750 81.833 C 356.613 81.833,356.500 81.714,356.500 81.568 C 356.500 81.422,356.350 81.263,356.167 81.215 C 355.983 81.167,355.833 81.024,355.833 80.897 C 355.833 80.770,355.683 80.667,355.500 80.667 C 355.278 80.667,355.167 80.556,355.167 80.333 C 355.167 80.111,355.056 80.000,354.833 80.000 C 354.611 80.000,354.500 79.889,354.500 79.667 C 354.500 79.481,354.389 79.333,354.250 79.333 C 354.075 79.333,354.000 79.157,354.000 78.750 C 354.000 78.278,353.937 78.167,353.667 78.167 C 353.389 78.167,353.333 78.056,353.333 77.500 C 353.333 76.944,353.278 76.833,353.000 76.833 C 352.707 76.833,352.667 76.722,352.667 75.917 C 352.667 75.111,352.626 75.000,352.333 75.000 C 352.028 75.000,352.000 74.889,352.000 73.667 L 352.000 72.333 366.750 72.333 L 381.500 72.333 381.500 70.167 C 381.500 68.111,381.483 68.000,381.167 68.000 C 380.854 68.000,380.833 67.889,380.833 66.167 C 380.833 64.648,380.790 64.333,380.583 64.333 C 380.391 64.333,380.333 64.120,380.333 63.417 C 380.333 62.611,380.293 62.500,380.000 62.500 C 379.722 62.500,379.667 62.389,379.667 61.833 C 379.667 61.278,379.611 61.167,379.333 61.167 C 379.056 61.167,379.000 61.056,379.000 60.500 C 379.000 59.944,378.944 59.833,378.667 59.833 C 378.397 59.833,378.333 59.722,378.333 59.250 C 378.333 58.778,378.270 58.667,378.000 58.667 C 377.778 58.667,377.667 58.556,377.667 58.333 C 377.667 58.148,377.556 58.000,377.417 58.000 C 377.242 58.000,377.167 57.824,377.167 57.417 C 377.167 56.944,377.103 56.833,376.833 56.833 C 376.611 56.833,376.500 56.722,376.500 56.500 C 376.500 56.278,376.389 56.167,376.167 56.167 C 375.944 56.167,375.833 56.056,375.833 55.833 C 375.833 55.563,375.722 55.500,375.250 55.500 C 374.827 55.500,374.667 55.427,374.667 55.234 C 374.667 55.088,374.517 54.930,374.333 54.882 C 374.150 54.834,374.000 54.691,374.000 54.564 C 374.000 54.437,373.850 54.333,373.667 54.333 C 373.444 54.333,373.333 54.222,373.333 54.000 C 373.333 53.730,373.222 53.667,372.750 53.667 C 372.278 53.667,372.167 53.603,372.167 53.333 C 372.167 53.056,372.056 53.000,371.500 53.000 C 370.944 53.000,370.833 52.944,370.833 52.667 C 370.833 52.374,370.722 52.333,369.917 52.333 C 369.213 52.333,369.000 52.275,369.000 52.083 C 369.000 51.873,368.639 51.833,366.750 51.833 C 364.611 51.833,364.500 51.817,364.500 51.500 C 364.500 51.191,364.389 51.167,363.000 51.167 C 361.611 51.167,361.500 51.191,361.500 51.500 M230.500 52.083 C 230.500 52.276,230.285 52.333,229.568 52.333 C 228.776 52.333,228.622 52.383,228.548 52.667 C 228.483 52.917,228.321 53.000,227.897 53.000 C 227.444 53.000,227.333 53.066,227.333 53.333 C 227.333 53.556,227.222 53.667,227.000 53.667 C 226.778 53.667,226.667 53.778,226.667 54.000 C 226.667 54.270,226.556 54.333,226.083 54.333 C 225.676 54.333,225.500 54.409,225.500 54.583 C 225.500 54.722,225.352 54.833,225.167 54.833 C 224.944 54.833,224.833 54.944,224.833 55.167 C 224.833 55.389,224.722 55.500,224.500 55.500 C 224.278 55.500,224.167 55.611,224.167 55.833 C 224.167 56.056,224.056 56.167,223.833 56.167 C 223.563 56.167,223.500 56.278,223.500 56.750 C 223.500 57.157,223.425 57.333,223.250 57.333 C 223.069 57.333,223.000 57.519,223.000 58.000 C 223.000 58.553,222.944 58.667,222.670 58.667 C 222.355 58.667,222.339 58.529,222.295 55.542 L 222.250 52.417 218.833 52.417 L 215.417 52.417 215.374 71.208 L 215.332 90.000 219.083 90.000 L 222.833 90.000 222.833 78.417 C 222.833 66.944,222.837 66.833,223.167 66.833 C 223.463 66.833,223.500 66.722,223.500 65.833 C 223.500 64.944,223.537 64.833,223.833 64.833 C 224.103 64.833,224.167 64.722,224.167 64.250 C 224.167 63.778,224.230 63.667,224.500 63.667 C 224.778 63.667,224.833 63.556,224.833 63.000 C 224.833 62.519,224.903 62.333,225.083 62.333 C 225.221 62.333,225.333 62.221,225.333 62.083 C 225.333 61.944,225.481 61.833,225.667 61.833 C 225.889 61.833,226.000 61.722,226.000 61.500 C 226.000 61.278,226.111 61.167,226.333 61.167 C 226.556 61.167,226.667 61.056,226.667 60.833 C 226.667 60.563,226.778 60.500,227.250 60.500 C 227.722 60.500,227.833 60.437,227.833 60.167 C 227.833 59.944,227.944 59.833,228.167 59.833 C 228.389 59.833,228.500 59.722,228.500 59.500 C 228.500 59.207,228.611 59.167,229.417 59.167 C 230.120 59.167,230.333 59.109,230.333 58.917 C 230.333 58.707,230.694 58.667,232.583 58.667 C 234.472 58.667,234.833 58.707,234.833 58.917 C 234.833 59.091,235.009 59.167,235.417 59.167 C 235.824 59.167,236.000 59.091,236.000 58.917 C 236.000 58.778,236.148 58.667,236.333 58.667 C 236.611 58.667,236.667 58.556,236.667 58.000 C 236.667 57.444,236.722 57.333,237.000 57.333 C 237.268 57.333,237.333 57.222,237.333 56.769 C 237.333 56.346,237.416 56.184,237.667 56.118 C 237.950 56.044,238.000 55.891,238.000 55.099 C 238.000 54.381,238.058 54.167,238.250 54.167 C 238.442 54.167,238.500 53.954,238.500 53.250 L 238.500 52.333 237.917 52.333 C 237.509 52.333,237.333 52.258,237.333 52.083 C 237.333 51.869,236.843 51.833,233.917 51.833 C 230.991 51.833,230.500 51.869,230.500 52.083 M261.167 58.333 C 261.167 58.626,261.278 58.667,262.083 58.667 C 262.787 58.667,263.000 58.725,263.000 58.917 C 263.000 59.097,263.185 59.167,263.667 59.167 C 264.222 59.167,264.333 59.222,264.333 59.500 C 264.333 59.722,264.444 59.833,264.667 59.833 C 264.889 59.833,265.000 59.944,265.000 60.167 C 265.000 60.437,265.111 60.500,265.583 60.500 C 266.056 60.500,266.167 60.563,266.167 60.833 C 266.167 61.056,266.278 61.167,266.500 61.167 C 266.722 61.167,266.833 61.278,266.833 61.500 C 266.833 61.722,266.944 61.833,267.167 61.833 C 267.437 61.833,267.500 61.944,267.500 62.417 C 267.500 62.824,267.575 63.000,267.750 63.000 C 267.889 63.000,268.000 63.148,268.000 63.333 C 268.000 63.556,268.111 63.667,268.333 63.667 C 268.603 63.667,268.667 63.778,268.667 64.250 C 268.667 64.722,268.730 64.833,269.000 64.833 C 269.278 64.833,269.333 64.944,269.333 65.500 C 269.333 66.056,269.389 66.167,269.667 66.167 C 269.970 66.167,270.000 66.278,270.000 67.417 C 270.000 68.417,270.050 68.667,270.250 68.667 C 270.461 68.667,270.500 69.056,270.500 71.167 C 270.500 73.278,270.461 73.667,270.250 73.667 C 270.050 73.667,270.000 73.917,270.000 74.917 C 270.000 76.056,269.970 76.167,269.667 76.167 C 269.389 76.167,269.333 76.278,269.333 76.833 C 269.333 77.389,269.278 77.500,269.000 77.500 C 268.732 77.500,268.667 77.611,268.667 78.064 C 268.667 78.488,268.584 78.649,268.333 78.715 C 268.150 78.763,268.000 78.922,268.000 79.068 C 268.000 79.214,267.887 79.333,267.750 79.333 C 267.569 79.333,267.500 79.519,267.500 80.000 C 267.500 80.556,267.444 80.667,267.167 80.667 C 266.981 80.667,266.833 80.778,266.833 80.917 C 266.833 81.056,266.685 81.167,266.500 81.167 C 266.278 81.167,266.167 81.278,266.167 81.500 C 266.167 81.770,266.056 81.833,265.583 81.833 C 265.111 81.833,265.000 81.897,265.000 82.167 C 265.000 82.389,264.889 82.500,264.667 82.500 C 264.444 82.500,264.333 82.611,264.333 82.833 C 264.333 83.111,264.222 83.167,263.667 83.167 C 263.185 83.167,263.000 83.236,263.000 83.417 C 263.000 83.609,262.787 83.667,262.083 83.667 C 261.278 83.667,261.167 83.707,261.167 84.000 C 261.167 84.320,261.056 84.333,258.333 84.333 C 255.611 84.333,255.500 84.320,255.500 84.000 C 255.500 83.707,255.389 83.667,254.583 83.667 C 253.880 83.667,253.667 83.609,253.667 83.417 C 253.667 83.236,253.481 83.167,253.000 83.167 C 252.444 83.167,252.333 83.111,252.333 82.833 C 252.333 82.611,252.222 82.500,252.000 82.500 C 251.778 82.500,251.667 82.389,251.667 82.167 C 251.667 81.983,251.563 81.833,251.436 81.833 C 251.309 81.833,251.166 81.683,251.118 81.500 C 251.052 81.245,250.891 81.167,250.432 81.167 C 249.859 81.167,249.833 81.142,249.833 80.583 C 249.833 80.111,249.770 80.000,249.500 80.000 C 249.278 80.000,249.167 79.889,249.167 79.667 C 249.167 79.481,249.056 79.333,248.917 79.333 C 248.779 79.333,248.667 79.214,248.667 79.068 C 248.667 78.922,248.517 78.763,248.333 78.715 C 248.083 78.649,248.000 78.488,248.000 78.064 C 248.000 77.611,247.934 77.500,247.667 77.500 C 247.370 77.500,247.333 77.389,247.333 76.500 C 247.333 75.611,247.296 75.500,247.000 75.500 C 246.691 75.500,246.667 75.389,246.667 74.000 C 246.667 72.611,246.642 72.500,246.333 72.500 C 246.028 72.500,246.000 72.389,246.000 71.167 C 246.000 69.944,246.028 69.833,246.333 69.833 C 246.642 69.833,246.667 69.722,246.667 68.333 C 246.667 66.944,246.691 66.833,247.000 66.833 C 247.296 66.833,247.333 66.722,247.333 65.833 C 247.333 64.944,247.370 64.833,247.667 64.833 C 247.937 64.833,248.000 64.722,248.000 64.250 C 248.000 63.778,248.063 63.667,248.333 63.667 C 248.556 63.667,248.667 63.556,248.667 63.333 C 248.667 63.148,248.778 63.000,248.917 63.000 C 249.056 63.000,249.167 62.852,249.167 62.667 C 249.167 62.444,249.278 62.333,249.500 62.333 C 249.770 62.333,249.833 62.222,249.833 61.750 C 249.833 61.181,249.849 61.167,250.500 61.167 C 251.056 61.167,251.167 61.111,251.167 60.833 C 251.167 60.648,251.278 60.500,251.417 60.500 C 251.556 60.500,251.667 60.352,251.667 60.167 C 251.667 59.944,251.778 59.833,252.000 59.833 C 252.222 59.833,252.333 59.722,252.333 59.500 C 252.333 59.222,252.444 59.167,253.000 59.167 C 253.481 59.167,253.667 59.097,253.667 58.917 C 253.667 58.725,253.880 58.667,254.583 58.667 C 255.389 58.667,255.500 58.626,255.500 58.333 C 255.500 58.013,255.611 58.000,258.333 58.000 C 261.056 58.000,261.167 58.013,261.167 58.333 M366.500 58.333 C 366.500 58.611,366.611 58.667,367.167 58.667 C 367.648 58.667,367.833 58.736,367.833 58.917 C 367.833 59.091,368.009 59.167,368.417 59.167 C 368.889 59.167,369.000 59.230,369.000 59.500 C 369.000 59.778,369.111 59.833,369.667 59.833 C 370.222 59.833,370.333 59.889,370.333 60.167 C 370.333 60.352,370.444 60.500,370.583 60.500 C 370.722 60.500,370.833 60.648,370.833 60.833 C 370.833 61.056,370.944 61.167,371.167 61.167 C 371.389 61.167,371.500 61.278,371.500 61.500 C 371.500 61.722,371.611 61.833,371.833 61.833 C 372.103 61.833,372.167 61.944,372.167 62.417 C 372.167 62.889,372.230 63.000,372.500 63.000 C 372.778 63.000,372.833 63.111,372.833 63.667 C 372.833 64.148,372.903 64.333,373.083 64.333 C 373.283 64.333,373.333 64.583,373.333 65.583 L 373.333 66.833 363.000 66.833 L 352.667 66.833 352.667 65.833 C 352.667 64.944,352.704 64.833,353.000 64.833 C 353.270 64.833,353.333 64.722,353.333 64.250 C 353.333 63.778,353.397 63.667,353.667 63.667 C 353.889 63.667,354.000 63.556,354.000 63.333 C 354.000 63.148,354.111 63.000,354.250 63.000 C 354.425 63.000,354.500 62.824,354.500 62.417 C 354.500 61.944,354.563 61.833,354.833 61.833 C 355.056 61.833,355.167 61.722,355.167 61.500 C 355.167 61.278,355.278 61.167,355.500 61.167 C 355.722 61.167,355.833 61.056,355.833 60.833 C 355.833 60.611,355.944 60.500,356.167 60.500 C 356.389 60.500,356.500 60.389,356.500 60.167 C 356.500 59.897,356.611 59.833,357.083 59.833 C 357.556 59.833,357.667 59.770,357.667 59.500 C 357.667 59.278,357.778 59.167,358.000 59.167 C 358.185 59.167,358.333 59.056,358.333 58.917 C 358.333 58.725,358.546 58.667,359.250 58.667 C 360.056 58.667,360.167 58.626,360.167 58.333 C 360.167 58.012,360.278 58.000,363.333 58.000 C 366.389 58.000,366.500 58.012,366.500 58.333 " stroke="none" fill="#000000" fill-rule="evenodd"></path><path id="path1" d="M50.500 46.511 C 49.446 46.593,48.396 46.764,48.167 46.891 C 47.938 47.017,47.389 47.168,46.947 47.226 C 46.506 47.283,45.983 47.443,45.785 47.582 C 45.588 47.720,45.274 47.834,45.088 47.834 C 44.902 47.835,44.525 47.985,44.250 48.167 C 43.975 48.349,43.624 48.498,43.470 48.499 C 43.316 48.500,43.089 48.594,42.966 48.708 C 42.842 48.823,42.368 49.101,41.912 49.327 C 41.456 49.552,40.896 49.876,40.667 50.047 C 40.438 50.217,39.840 50.653,39.339 51.016 C 37.547 52.313,35.302 54.696,33.961 56.723 C 33.526 57.380,33.095 58.007,33.002 58.118 C 32.909 58.229,32.833 58.423,32.833 58.551 C 32.833 58.678,32.683 58.955,32.500 59.167 C 32.317 59.378,32.167 59.652,32.167 59.776 C 32.167 59.900,32.017 60.281,31.833 60.623 C 31.650 60.965,31.500 61.406,31.500 61.602 C 31.500 61.799,31.396 62.046,31.269 62.151 C 31.141 62.257,30.985 62.772,30.922 63.297 C 30.858 63.821,30.682 64.438,30.530 64.667 C 30.103 65.309,30.114 74.045,30.542 74.677 C 30.701 74.913,30.880 75.475,30.940 75.927 C 31.001 76.380,31.151 76.898,31.275 77.079 C 31.399 77.260,31.500 77.538,31.500 77.698 C 31.500 77.982,31.658 78.391,32.421 80.083 C 32.628 80.542,32.845 81.029,32.905 81.167 C 32.964 81.304,33.105 81.567,33.217 81.750 C 36.247 86.706,41.641 90.837,46.739 92.108 C 47.282 92.243,47.846 92.417,47.990 92.495 C 48.487 92.761,53.216 93.207,54.417 93.102 C 57.496 92.831,60.212 92.300,61.500 91.718 C 62.032 91.478,62.710 91.177,63.833 90.682 C 65.799 89.817,67.810 88.354,70.142 86.094 C 72.371 83.934,72.331 83.976,72.761 83.306 C 72.977 82.970,73.231 82.646,73.327 82.588 C 73.422 82.529,73.500 82.295,73.500 82.068 C 73.500 81.842,73.615 81.612,73.755 81.558 C 73.895 81.504,74.353 80.738,74.773 79.855 C 75.193 78.972,75.602 78.121,75.683 77.964 C 76.040 77.266,76.838 73.719,77.024 72.000 C 77.347 69.015,76.829 64.216,76.022 62.707 C 75.918 62.514,75.833 62.182,75.833 61.969 C 75.833 61.656,74.671 59.197,73.398 56.815 C 72.829 55.750,69.762 52.486,68.144 51.223 C 66.388 49.853,62.809 47.836,62.128 47.832 C 62.012 47.832,61.692 47.711,61.417 47.564 C 60.963 47.321,60.138 47.090,58.250 46.678 C 57.192 46.447,52.598 46.348,50.500 46.511 M57.917 51.260 C 62.414 52.420,65.045 54.139,68.767 58.347 C 68.895 58.493,69.000 58.662,69.000 58.724 C 69.000 58.786,69.253 59.196,69.562 59.636 C 69.871 60.076,70.180 60.619,70.248 60.843 C 70.317 61.067,70.461 61.362,70.569 61.500 C 71.211 62.316,72.077 65.463,72.312 67.833 C 72.662 71.357,72.014 74.811,70.389 78.083 C 69.601 79.670,69.448 79.922,68.609 81.000 C 63.816 87.158,56.561 89.680,48.685 87.927 C 48.007 87.776,47.297 87.543,47.106 87.409 C 46.915 87.276,46.629 87.167,46.470 87.167 C 45.466 87.167,41.971 84.831,40.000 82.843 C 33.963 76.752,32.655 66.604,37.070 60.118 C 37.306 59.770,37.500 59.439,37.500 59.383 C 37.500 59.122,39.030 57.289,40.252 56.083 C 42.589 53.780,45.630 52.065,48.527 51.415 C 49.047 51.299,49.566 51.146,49.680 51.075 C 50.480 50.581,55.742 50.699,57.917 51.260 " stroke="none" fill="#f1f1f1" fill-rule="evenodd"></path><path id="path2" d="" stroke="none" fill="#005500" fill-rule="evenodd"></path><path id="path3" d="M9.871 41.766 C 9.919 42.124,10.190 42.792,10.473 43.250 C 10.757 43.708,11.103 44.308,11.244 44.583 C 11.384 44.858,11.649 45.308,11.831 45.583 C 12.013 45.858,12.290 46.327,12.446 46.625 C 12.601 46.923,12.782 47.167,12.848 47.167 C 12.914 47.167,13.051 47.373,13.152 47.625 C 13.254 47.877,13.520 48.383,13.743 48.750 C 13.967 49.117,14.230 49.595,14.329 49.813 C 14.428 50.032,14.648 50.407,14.818 50.647 C 14.989 50.887,15.408 51.608,15.751 52.250 C 16.094 52.892,16.468 53.529,16.582 53.667 C 16.786 53.911,18.580 56.946,19.591 58.756 C 19.870 59.256,20.189 59.755,20.299 59.866 C 20.410 59.976,20.500 60.137,20.500 60.222 C 20.500 60.362,21.830 62.677,23.198 64.917 C 23.478 65.375,23.904 66.108,24.145 66.546 C 24.386 66.983,24.752 67.621,24.957 67.962 C 25.163 68.304,25.445 68.808,25.584 69.083 C 25.723 69.358,26.249 70.251,26.752 71.066 C 27.255 71.882,27.667 72.607,27.667 72.677 C 27.667 72.748,27.728 72.831,27.803 72.861 C 27.878 72.892,28.404 73.742,28.972 74.750 C 29.541 75.758,30.081 76.696,30.173 76.833 C 30.266 76.971,30.499 77.330,30.691 77.632 C 31.134 78.326,31.298 78.197,30.938 77.439 C 30.789 77.124,30.661 76.653,30.655 76.391 C 30.645 75.977,30.625 75.959,30.502 76.250 C 30.388 76.519,30.360 76.471,30.358 76.000 C 30.357 75.679,30.283 75.192,30.193 74.917 L 30.029 74.417 30.014 74.875 C 30.000 75.342,29.667 75.540,29.667 75.082 C 29.667 74.943,29.517 74.702,29.333 74.545 C 29.150 74.388,29.000 74.135,29.000 73.983 C 29.000 73.832,28.890 73.617,28.756 73.505 C 28.623 73.394,28.463 73.145,28.402 72.953 C 28.340 72.760,28.055 72.260,27.766 71.843 C 27.478 71.425,27.147 70.896,27.030 70.667 C 26.572 69.770,26.262 69.223,25.850 68.583 C 25.614 68.217,25.325 67.729,25.209 67.500 C 25.092 67.271,24.819 66.783,24.601 66.417 C 24.384 66.050,23.993 65.347,23.732 64.856 C 23.472 64.364,23.168 63.926,23.056 63.883 C 22.945 63.840,22.807 63.592,22.749 63.331 C 22.692 63.070,22.538 62.767,22.406 62.658 C 22.274 62.549,22.167 62.381,22.167 62.284 C 22.167 62.188,22.061 61.991,21.933 61.846 C 21.804 61.702,21.448 61.111,21.141 60.535 C 20.401 59.144,20.158 58.719,19.612 57.867 C 19.359 57.473,19.082 56.967,18.997 56.742 C 18.911 56.517,18.771 56.333,18.684 56.333 C 18.597 56.333,18.476 56.103,18.414 55.822 C 18.352 55.541,18.203 55.273,18.083 55.227 C 17.962 55.180,17.819 54.966,17.765 54.750 C 17.711 54.533,17.572 54.258,17.456 54.137 C 17.341 54.016,17.150 53.729,17.032 53.500 C 16.441 52.353,16.265 52.073,16.058 51.950 C 15.935 51.877,15.833 51.645,15.833 51.434 C 15.833 51.224,15.683 50.916,15.500 50.750 C 15.317 50.584,15.167 50.355,15.167 50.242 C 15.167 50.129,15.061 49.995,14.932 49.946 C 14.804 49.896,14.649 49.632,14.589 49.359 C 14.529 49.085,14.372 48.820,14.240 48.769 C 14.108 48.719,14.000 48.535,14.000 48.361 C 14.000 48.187,13.869 47.866,13.708 47.646 C 13.385 47.205,13.058 46.653,12.707 45.958 C 12.580 45.706,12.406 45.500,12.321 45.500 C 12.236 45.500,12.167 45.359,12.167 45.187 C 12.167 45.015,12.050 44.777,11.907 44.659 C 11.764 44.540,11.539 44.212,11.407 43.930 C 11.275 43.648,11.018 43.192,10.836 42.917 C 10.468 42.362,10.167 41.723,10.167 41.499 C 10.167 41.419,10.080 41.300,9.975 41.234 C 9.837 41.149,9.808 41.300,9.871 41.766 " stroke="none" fill="#6f6a4a" fill-rule="evenodd"></path><path id="path4" d="M8.875 41.682 C 8.584 41.791,8.500 41.954,8.500 42.411 C 8.500 42.889,8.437 43.000,8.167 43.000 C 7.897 43.000,7.833 43.111,7.833 43.583 C 7.833 44.006,7.760 44.167,7.568 44.167 C 7.422 44.167,7.263 44.317,7.215 44.500 C 7.167 44.683,7.024 44.833,6.897 44.833 C 6.739 44.833,6.667 45.043,6.667 45.500 C 6.667 46.056,6.611 46.167,6.333 46.167 C 6.040 46.167,6.000 46.278,6.000 47.083 C 6.000 47.889,5.960 48.000,5.667 48.000 C 5.389 48.000,5.333 48.111,5.333 48.667 C 5.333 49.222,5.278 49.333,5.000 49.333 C 4.730 49.333,4.667 49.444,4.667 49.917 C 4.667 50.324,4.591 50.500,4.417 50.500 C 4.225 50.500,4.167 50.711,4.167 51.397 C 4.167 52.154,4.115 52.308,3.833 52.382 C 3.550 52.456,3.500 52.609,3.500 53.401 C 3.500 54.222,3.460 54.333,3.167 54.333 C 2.863 54.333,2.833 54.444,2.833 55.583 C 2.833 56.722,2.804 56.833,2.500 56.833 C 2.196 56.833,2.167 56.944,2.167 58.083 C 2.167 59.083,2.117 59.333,1.917 59.333 C 1.707 59.333,1.667 59.685,1.667 61.500 C 1.667 63.556,1.650 63.667,1.333 63.667 C 1.006 63.667,1.000 63.778,1.000 69.583 C 1.000 75.389,1.006 75.500,1.333 75.500 C 1.650 75.500,1.667 75.611,1.667 77.750 C 1.667 79.639,1.707 80.000,1.917 80.000 C 2.113 80.000,2.167 80.231,2.167 81.082 C 2.167 81.983,2.222 82.199,2.500 82.372 C 2.781 82.547,2.833 82.761,2.833 83.722 C 2.833 84.724,2.874 84.875,3.167 84.952 C 3.448 85.025,3.500 85.179,3.500 85.936 C 3.500 86.722,3.541 86.833,3.833 86.833 C 4.126 86.833,4.167 86.944,4.167 87.750 C 4.167 88.454,4.225 88.667,4.417 88.667 C 4.593 88.667,4.667 88.844,4.667 89.266 C 4.667 89.724,4.745 89.885,5.000 89.952 C 5.250 90.017,5.333 90.179,5.333 90.603 C 5.333 91.056,5.399 91.167,5.667 91.167 C 5.960 91.167,6.000 91.278,6.000 92.099 C 6.000 92.891,6.050 93.044,6.333 93.118 C 6.584 93.184,6.667 93.346,6.667 93.769 C 6.667 94.138,6.746 94.333,6.897 94.333 C 7.024 94.333,7.167 94.483,7.215 94.667 C 7.263 94.850,7.422 95.000,7.568 95.000 C 7.760 95.000,7.833 95.161,7.833 95.583 C 7.833 96.056,7.897 96.167,8.167 96.167 C 8.444 96.167,8.500 96.278,8.500 96.833 C 8.500 97.389,8.556 97.500,8.833 97.500 C 9.056 97.500,9.167 97.611,9.167 97.833 C 9.167 98.056,9.278 98.167,9.500 98.167 C 9.770 98.167,9.833 98.278,9.833 98.750 C 9.833 99.136,9.912 99.333,10.064 99.333 C 10.191 99.333,10.334 99.483,10.382 99.667 C 10.430 99.850,10.588 100.000,10.734 100.000 C 10.927 100.000,11.000 100.161,11.000 100.583 C 11.000 101.056,11.063 101.167,11.333 101.167 C 11.556 101.167,11.667 101.278,11.667 101.500 C 11.667 101.722,11.778 101.833,12.000 101.833 C 12.222 101.833,12.333 101.944,12.333 102.167 C 12.333 102.352,12.444 102.500,12.583 102.500 C 12.721 102.500,12.833 102.620,12.833 102.766 C 12.833 102.912,12.983 103.070,13.167 103.118 C 13.417 103.184,13.500 103.346,13.500 103.769 C 13.500 104.222,13.566 104.333,13.833 104.333 C 14.056 104.333,14.167 104.444,14.167 104.667 C 14.167 104.889,14.278 105.000,14.500 105.000 C 14.722 105.000,14.833 105.111,14.833 105.333 C 14.833 105.517,14.905 105.667,14.992 105.667 C 15.199 105.667,16.000 106.468,16.000 106.674 C 16.000 106.762,16.150 106.833,16.333 106.833 C 16.556 106.833,16.667 106.944,16.667 107.167 C 16.667 107.389,16.778 107.500,17.000 107.500 C 17.222 107.500,17.333 107.611,17.333 107.833 C 17.333 108.017,17.428 108.167,17.543 108.167 C 17.659 108.167,17.847 108.317,17.961 108.500 C 18.094 108.713,18.350 108.833,18.668 108.833 C 19.000 108.833,19.167 108.917,19.167 109.083 C 19.167 109.222,19.315 109.333,19.500 109.333 C 19.722 109.333,19.833 109.444,19.833 109.667 C 19.833 109.852,19.944 110.000,20.083 110.000 C 20.221 110.000,20.333 110.120,20.333 110.266 C 20.333 110.412,20.483 110.570,20.667 110.618 C 20.850 110.666,21.000 110.816,21.000 110.952 C 21.000 111.087,21.150 111.237,21.333 111.285 C 21.517 111.333,21.667 111.476,21.667 111.603 C 21.667 111.761,21.877 111.833,22.333 111.833 C 22.889 111.833,23.000 111.889,23.000 112.167 C 23.000 112.350,23.104 112.500,23.231 112.500 C 23.357 112.500,23.500 112.650,23.548 112.833 C 23.615 113.089,23.776 113.167,24.234 113.167 C 24.671 113.167,24.833 113.239,24.833 113.432 C 24.833 113.578,24.983 113.737,25.167 113.785 C 25.350 113.833,25.500 113.976,25.500 114.103 C 25.500 114.255,25.698 114.333,26.083 114.333 C 26.556 114.333,26.667 114.397,26.667 114.667 C 26.667 114.944,26.778 115.000,27.333 115.000 C 27.889 115.000,28.000 115.056,28.000 115.333 C 28.000 115.603,28.111 115.667,28.583 115.667 C 29.056 115.667,29.167 115.730,29.167 116.000 C 29.167 116.278,29.278 116.333,29.833 116.333 C 30.389 116.333,30.500 116.389,30.500 116.667 C 30.500 116.937,30.611 117.000,31.083 117.000 C 31.491 117.000,31.667 117.075,31.667 117.250 C 31.667 117.431,31.852 117.500,32.333 117.500 C 32.889 117.500,33.000 117.556,33.000 117.833 C 33.000 118.126,33.111 118.167,33.917 118.167 C 34.722 118.167,34.833 118.207,34.833 118.500 C 34.833 118.776,34.944 118.833,35.481 118.833 C 35.988 118.833,36.147 118.906,36.215 119.167 C 36.288 119.445,36.442 119.500,37.151 119.500 C 37.795 119.500,38.000 119.560,38.000 119.750 C 38.000 119.950,38.250 120.000,39.250 120.000 C 40.389 120.000,40.500 120.030,40.500 120.333 C 40.500 120.643,40.611 120.667,42.083 120.667 C 43.556 120.667,43.667 120.690,43.667 121.000 C 43.667 121.316,43.778 121.333,45.814 121.333 C 47.821 121.333,47.967 121.355,48.048 121.667 C 48.175 122.150,51.000 122.182,51.000 121.700 C 51.000 121.535,51.094 121.299,51.208 121.176 C 51.349 121.024,51.353 120.987,51.220 121.062 C 51.112 121.122,50.976 121.096,50.918 121.003 C 50.861 120.910,50.893 120.833,50.990 120.833 C 51.087 120.833,51.172 120.702,51.178 120.542 C 51.188 120.292,51.211 120.298,51.333 120.583 C 51.471 120.905,51.477 120.904,51.488 120.552 C 51.495 120.351,51.583 120.135,51.684 120.073 C 51.785 120.010,51.975 119.725,52.107 119.438 C 52.239 119.151,52.527 118.617,52.748 118.250 C 52.969 117.883,53.221 117.430,53.307 117.243 C 53.394 117.056,53.586 116.803,53.733 116.681 C 53.880 116.559,54.000 116.328,54.000 116.167 C 54.000 116.006,54.110 115.783,54.244 115.672 C 54.377 115.561,54.537 115.312,54.598 115.119 C 54.660 114.927,54.962 114.409,55.271 113.969 C 55.580 113.530,55.833 113.062,55.833 112.930 C 55.833 112.798,55.940 112.584,56.071 112.453 C 56.202 112.322,56.426 111.961,56.570 111.649 C 56.714 111.338,57.020 110.783,57.252 110.417 C 57.483 110.050,57.748 109.600,57.840 109.417 C 57.932 109.233,58.188 108.783,58.409 108.417 C 58.630 108.050,58.930 107.525,59.076 107.250 C 59.223 106.975,59.437 106.600,59.552 106.417 C 59.667 106.233,59.930 105.783,60.137 105.417 C 60.343 105.050,60.693 104.450,60.914 104.083 C 61.135 103.717,61.392 103.252,61.484 103.050 C 61.577 102.848,61.861 102.360,62.116 101.966 C 62.371 101.572,62.673 101.063,62.788 100.833 C 63.218 99.976,64.226 98.226,64.688 97.533 C 64.951 97.139,65.167 96.755,65.167 96.681 C 65.167 96.606,65.312 96.360,65.490 96.134 C 65.667 95.908,65.863 95.523,65.924 95.279 C 65.986 95.034,66.097 94.833,66.171 94.833 C 66.245 94.833,66.544 94.365,66.836 93.792 C 67.128 93.219,67.546 92.450,67.765 92.083 C 67.985 91.717,68.282 91.192,68.425 90.917 C 68.826 90.151,69.136 89.609,69.333 89.333 C 69.590 88.975,69.952 88.333,70.243 87.720 C 70.382 87.428,70.563 87.148,70.646 87.096 C 70.729 87.045,70.846 86.806,70.906 86.565 C 70.967 86.324,71.126 86.017,71.260 85.883 C 71.394 85.749,71.452 85.557,71.389 85.456 C 71.317 85.338,71.189 85.403,71.034 85.636 C 70.901 85.836,70.730 86.000,70.653 86.000 C 70.577 86.000,70.117 86.402,69.632 86.893 C 68.319 88.222,64.318 91.002,63.721 91.000 C 63.645 90.999,63.283 91.145,62.917 91.322 C 61.825 91.852,61.047 92.166,60.808 92.174 C 60.684 92.178,60.283 92.290,59.917 92.423 C 56.921 93.508,49.219 93.558,47.168 92.506 C 47.030 92.435,46.523 92.285,46.041 92.172 C 45.560 92.059,45.124 91.899,45.073 91.817 C 45.022 91.734,44.874 91.667,44.744 91.667 C 44.214 91.667,40.822 89.840,39.417 88.799 C 35.818 86.131,31.417 80.327,31.317 78.115 C 31.301 77.779,31.291 77.782,31.185 78.165 C 31.061 78.608,30.871 78.460,30.748 77.825 C 30.712 77.637,30.534 77.356,30.352 77.200 C 30.170 77.044,29.794 76.489,29.517 75.966 C 28.791 74.599,28.609 74.291,28.375 74.036 C 28.261 73.912,28.121 73.628,28.066 73.405 C 28.010 73.182,27.906 73.000,27.835 73.000 C 27.765 73.000,27.614 72.775,27.500 72.500 C 27.386 72.225,27.234 72.000,27.163 72.000 C 27.091 72.000,26.947 71.794,26.843 71.542 C 26.739 71.290,26.471 70.783,26.247 70.417 C 26.024 70.050,25.772 69.596,25.687 69.408 C 25.603 69.220,25.311 68.733,25.038 68.325 C 24.479 67.488,23.454 65.684,23.084 64.886 C 22.949 64.595,22.767 64.312,22.680 64.258 C 22.592 64.204,22.395 63.918,22.240 63.622 C 21.858 62.892,21.543 62.346,21.159 61.750 C 20.982 61.475,20.744 61.063,20.631 60.833 C 20.517 60.604,20.194 60.042,19.913 59.583 C 19.632 59.125,19.311 58.563,19.199 58.333 C 19.088 58.104,18.847 57.692,18.665 57.417 C 18.482 57.142,18.214 56.692,18.069 56.417 C 17.609 55.548,17.252 54.939,16.747 54.167 C 16.038 53.082,15.965 52.960,15.445 51.975 C 15.186 51.485,14.875 50.971,14.753 50.833 C 14.632 50.696,14.413 50.321,14.267 50.000 C 14.121 49.679,13.853 49.192,13.672 48.917 C 13.492 48.642,13.227 48.192,13.084 47.917 C 12.758 47.288,12.396 46.657,12.176 46.333 C 11.654 45.564,11.223 44.868,11.041 44.500 C 10.801 44.013,10.531 43.577,10.125 43.021 C 9.965 42.801,9.833 42.444,9.833 42.228 C 9.833 41.999,9.734 41.833,9.597 41.833 C 9.467 41.833,9.336 41.767,9.306 41.687 C 9.274 41.605,9.085 41.602,8.875 41.682 M70.667 86.593 C 70.667 86.837,70.595 86.975,70.499 86.916 C 70.407 86.859,70.286 86.929,70.231 87.072 C 70.177 87.215,70.065 87.290,69.983 87.239 C 69.732 87.084,69.816 86.877,70.167 86.785 C 70.350 86.737,70.500 86.578,70.500 86.432 C 70.500 86.286,70.537 86.167,70.583 86.167 C 70.629 86.167,70.667 86.359,70.667 86.593 " stroke="none" fill="#139f5b" fill-rule="evenodd"></path><path id="path5" d="M48.000 17.583 C 48.000 17.793,47.648 17.833,45.833 17.833 C 43.778 17.833,43.667 17.850,43.667 18.167 C 43.667 18.477,43.556 18.500,42.083 18.500 C 40.611 18.500,40.500 18.523,40.500 18.833 C 40.500 19.137,40.389 19.167,39.250 19.167 C 38.111 19.167,38.000 19.196,38.000 19.500 C 38.000 19.793,37.889 19.833,37.083 19.833 C 36.380 19.833,36.167 19.891,36.167 20.083 C 36.167 20.264,35.981 20.333,35.500 20.333 C 34.944 20.333,34.833 20.389,34.833 20.667 C 34.833 20.960,34.722 21.000,33.917 21.000 C 33.111 21.000,33.000 21.040,33.000 21.333 C 33.000 21.611,32.889 21.667,32.333 21.667 C 31.778 21.667,31.667 21.722,31.667 22.000 C 31.667 22.270,31.556 22.333,31.083 22.333 C 30.611 22.333,30.500 22.397,30.500 22.667 C 30.500 22.944,30.389 23.000,29.833 23.000 C 29.352 23.000,29.167 23.069,29.167 23.250 C 29.167 23.425,28.991 23.500,28.583 23.500 C 28.111 23.500,28.000 23.563,28.000 23.833 C 28.000 24.111,27.889 24.167,27.333 24.167 C 26.778 24.167,26.667 24.222,26.667 24.500 C 26.667 24.770,26.556 24.833,26.083 24.833 C 25.611 24.833,25.500 24.897,25.500 25.167 C 25.500 25.389,25.389 25.500,25.167 25.500 C 24.981 25.500,24.833 25.611,24.833 25.750 C 24.833 25.924,24.659 26.000,24.261 26.000 C 23.836 26.000,23.662 26.085,23.583 26.333 C 23.525 26.517,23.370 26.667,23.239 26.667 C 23.107 26.667,23.000 26.817,23.000 27.000 C 23.000 27.278,22.889 27.333,22.333 27.333 C 21.778 27.333,21.667 27.389,21.667 27.667 C 21.667 27.889,21.556 28.000,21.333 28.000 C 21.150 28.000,21.000 28.104,21.000 28.231 C 21.000 28.357,20.850 28.500,20.667 28.548 C 20.483 28.596,20.333 28.755,20.333 28.901 C 20.333 29.047,20.221 29.167,20.083 29.167 C 19.944 29.167,19.833 29.315,19.833 29.500 C 19.833 29.778,19.722 29.833,19.167 29.833 C 18.611 29.833,18.500 29.889,18.500 30.167 C 18.500 30.389,18.389 30.500,18.167 30.500 C 17.981 30.500,17.833 30.611,17.833 30.750 C 17.833 30.887,17.721 31.000,17.583 31.000 C 17.444 31.000,17.333 31.148,17.333 31.333 C 17.333 31.556,17.222 31.667,17.000 31.667 C 16.778 31.667,16.667 31.778,16.667 32.000 C 16.667 32.222,16.556 32.333,16.333 32.333 C 16.111 32.333,16.000 32.444,16.000 32.667 C 16.000 32.889,15.889 33.000,15.667 33.000 C 15.481 33.000,15.333 33.111,15.333 33.250 C 15.333 33.387,15.221 33.500,15.083 33.500 C 14.944 33.500,14.833 33.648,14.833 33.833 C 14.833 34.056,14.722 34.167,14.500 34.167 C 14.278 34.167,14.167 34.278,14.167 34.500 C 14.167 34.722,14.056 34.833,13.833 34.833 C 13.556 34.833,13.500 34.944,13.500 35.500 C 13.500 35.988,13.431 36.167,13.245 36.167 C 13.104 36.167,12.946 36.279,12.894 36.417 C 12.841 36.554,12.693 36.667,12.566 36.667 C 12.438 36.667,12.333 36.817,12.333 37.000 C 12.333 37.222,12.222 37.333,12.000 37.333 C 11.778 37.333,11.667 37.444,11.667 37.667 C 11.667 37.889,11.556 38.000,11.333 38.000 C 11.063 38.000,11.000 38.111,11.000 38.583 C 11.000 39.006,10.927 39.167,10.734 39.167 C 10.588 39.167,10.430 39.317,10.382 39.500 C 10.334 39.683,10.191 39.833,10.064 39.833 C 9.790 39.833,9.745 40.851,10.000 41.294 C 10.092 41.453,10.243 41.771,10.336 42.000 C 10.429 42.229,10.654 42.642,10.836 42.917 C 11.018 43.192,11.275 43.648,11.407 43.930 C 11.539 44.212,11.764 44.540,11.907 44.659 C 12.050 44.777,12.167 45.015,12.167 45.187 C 12.167 45.359,12.236 45.500,12.321 45.500 C 12.406 45.500,12.580 45.706,12.707 45.958 C 13.058 46.653,13.385 47.205,13.708 47.646 C 13.869 47.866,14.000 48.187,14.000 48.361 C 14.000 48.535,14.108 48.719,14.240 48.769 C 14.372 48.820,14.529 49.085,14.589 49.359 C 14.649 49.632,14.804 49.896,14.932 49.946 C 15.061 49.995,15.167 50.129,15.167 50.242 C 15.167 50.355,15.317 50.584,15.500 50.750 C 15.683 50.916,15.833 51.224,15.833 51.434 C 15.833 51.645,15.935 51.877,16.058 51.950 C 16.265 52.073,16.441 52.353,17.032 53.500 C 17.150 53.729,17.341 54.016,17.456 54.137 C 17.572 54.258,17.711 54.533,17.765 54.750 C 17.819 54.966,17.962 55.180,18.083 55.227 C 18.203 55.273,18.352 55.541,18.414 55.822 C 18.476 56.103,18.597 56.333,18.684 56.333 C 18.771 56.333,18.911 56.517,18.997 56.742 C 19.082 56.967,19.359 57.473,19.612 57.867 C 20.158 58.719,20.401 59.144,21.141 60.535 C 21.448 61.111,21.804 61.702,21.933 61.846 C 22.061 61.991,22.167 62.188,22.167 62.284 C 22.167 62.381,22.274 62.549,22.406 62.658 C 22.538 62.767,22.692 63.070,22.749 63.331 C 22.807 63.592,22.945 63.840,23.056 63.883 C 23.168 63.926,23.472 64.364,23.732 64.856 C 23.993 65.347,24.384 66.050,24.601 66.417 C 24.819 66.783,25.092 67.271,25.209 67.500 C 25.325 67.729,25.614 68.217,25.850 68.583 C 26.262 69.223,26.572 69.770,27.030 70.667 C 27.147 70.896,27.478 71.425,27.766 71.843 C 28.055 72.260,28.340 72.760,28.402 72.953 C 28.463 73.145,28.623 73.394,28.756 73.505 C 28.890 73.617,29.000 73.832,29.000 73.983 C 29.000 74.135,29.150 74.388,29.333 74.545 C 29.517 74.702,29.667 74.943,29.667 75.082 C 29.667 75.220,29.733 75.333,29.814 75.333 C 30.119 75.333,30.178 73.868,29.924 72.647 C 28.479 65.721,32.236 56.195,38.303 51.404 C 38.824 50.993,39.360 50.566,39.494 50.455 C 39.978 50.055,40.851 49.500,40.995 49.500 C 41.077 49.500,41.242 49.406,41.363 49.292 C 41.840 48.841,45.934 47.010,46.503 46.993 C 46.639 46.989,47.050 46.875,47.417 46.740 C 49.302 46.046,53.356 45.783,56.833 46.127 C 59.735 46.415,96.597 46.507,99.625 46.234 C 100.689 46.138,101.093 45.747,100.333 45.548 C 100.149 45.500,100.000 45.321,100.000 45.147 C 100.000 44.944,99.882 44.833,99.667 44.833 C 99.397 44.833,99.333 44.722,99.333 44.250 C 99.333 43.778,99.270 43.667,99.000 43.667 C 98.722 43.667,98.667 43.556,98.667 43.000 C 98.667 42.532,98.595 42.333,98.428 42.333 C 98.297 42.333,98.142 42.183,98.083 42.000 C 98.025 41.817,97.870 41.667,97.739 41.667 C 97.577 41.667,97.500 41.479,97.500 41.083 C 97.500 40.611,97.437 40.500,97.167 40.500 C 96.944 40.500,96.833 40.389,96.833 40.167 C 96.833 39.944,96.722 39.833,96.500 39.833 C 96.230 39.833,96.167 39.722,96.167 39.250 C 96.167 38.843,96.091 38.667,95.917 38.667 C 95.778 38.667,95.667 38.519,95.667 38.333 C 95.667 38.111,95.556 38.000,95.333 38.000 C 95.111 38.000,95.000 37.889,95.000 37.667 C 95.000 37.444,94.889 37.333,94.667 37.333 C 94.397 37.333,94.333 37.222,94.333 36.750 C 94.333 36.278,94.270 36.167,94.000 36.167 C 93.778 36.167,93.667 36.056,93.667 35.833 C 93.667 35.648,93.556 35.500,93.417 35.500 C 93.278 35.500,93.167 35.352,93.167 35.167 C 93.167 34.944,93.056 34.833,92.833 34.833 C 92.611 34.833,92.500 34.722,92.500 34.500 C 92.500 34.278,92.389 34.167,92.167 34.167 C 91.944 34.167,91.833 34.056,91.833 33.833 C 91.833 33.611,91.722 33.500,91.500 33.500 C 91.315 33.500,91.167 33.389,91.167 33.250 C 91.167 33.112,91.054 33.000,90.917 33.000 C 90.778 33.000,90.667 32.852,90.667 32.667 C 90.667 32.444,90.556 32.333,90.333 32.333 C 90.111 32.333,90.000 32.222,90.000 32.000 C 90.000 31.778,89.889 31.667,89.667 31.667 C 89.444 31.667,89.333 31.556,89.333 31.333 C 89.333 31.111,89.222 31.000,89.000 31.000 C 88.815 31.000,88.667 30.889,88.667 30.750 C 88.667 30.613,88.554 30.500,88.417 30.500 C 88.278 30.500,88.167 30.352,88.167 30.167 C 88.167 29.944,88.056 29.833,87.833 29.833 C 87.611 29.833,87.500 29.722,87.500 29.500 C 87.500 29.278,87.389 29.167,87.167 29.167 C 86.944 29.167,86.833 29.056,86.833 28.833 C 86.833 28.556,86.722 28.500,86.167 28.500 C 85.685 28.500,85.500 28.431,85.500 28.250 C 85.500 28.113,85.388 28.000,85.250 28.000 C 85.111 28.000,85.000 27.852,85.000 27.667 C 85.000 27.444,84.889 27.333,84.667 27.333 C 84.444 27.333,84.333 27.222,84.333 27.000 C 84.333 26.722,84.222 26.667,83.667 26.667 C 83.111 26.667,83.000 26.611,83.000 26.333 C 83.000 26.148,82.889 26.000,82.750 26.000 C 82.612 26.000,82.500 25.887,82.500 25.750 C 82.500 25.569,82.315 25.500,81.833 25.500 C 81.278 25.500,81.167 25.444,81.167 25.167 C 81.167 24.897,81.056 24.833,80.583 24.833 C 80.161 24.833,80.000 24.760,80.000 24.568 C 80.000 24.422,79.857 24.265,79.682 24.219 C 79.507 24.173,79.327 23.993,79.281 23.818 C 79.219 23.580,79.048 23.500,78.599 23.500 C 78.178 23.500,78.000 23.426,78.000 23.250 C 78.000 23.075,77.824 23.000,77.417 23.000 C 76.944 23.000,76.833 22.937,76.833 22.667 C 76.833 22.389,76.722 22.333,76.167 22.333 C 75.611 22.333,75.500 22.278,75.500 22.000 C 75.500 21.707,75.389 21.667,74.583 21.667 C 73.778 21.667,73.667 21.626,73.667 21.333 C 73.667 21.057,73.556 21.000,73.019 21.000 C 72.512 21.000,72.353 20.928,72.285 20.667 C 72.212 20.388,72.058 20.333,71.349 20.333 C 70.705 20.333,70.500 20.273,70.500 20.083 C 70.500 19.891,70.287 19.833,69.583 19.833 C 68.778 19.833,68.667 19.793,68.667 19.500 C 68.667 19.196,68.556 19.167,67.417 19.167 C 66.278 19.167,66.167 19.137,66.167 18.833 C 66.167 18.530,66.056 18.500,64.936 18.500 C 63.846 18.500,63.696 18.462,63.618 18.167 C 63.537 17.855,63.391 17.833,61.349 17.833 C 59.520 17.833,59.167 17.793,59.167 17.583 C 59.167 17.366,58.435 17.333,53.583 17.333 C 48.731 17.333,48.000 17.366,48.000 17.583 M30.373 75.945 C 30.360 76.499,30.379 76.532,30.513 76.194 C 30.597 75.979,30.604 75.692,30.528 75.555 C 30.433 75.386,30.384 75.510,30.373 75.945 " stroke="none" fill="#dc493c" fill-rule="evenodd"></path><path id="path6" d="M9.289 41.266 C 9.127 41.428,9.350 41.833,9.601 41.833 C 9.729 41.833,9.833 41.683,9.833 41.500 C 9.833 41.186,9.509 41.047,9.289 41.266 M9.834 42.357 C 9.834 42.507,9.989 42.807,10.179 43.023 C 10.370 43.240,10.478 43.323,10.419 43.208 C 9.934 42.253,9.835 42.110,9.834 42.357 M10.500 43.576 C 10.500 43.643,10.650 43.888,10.833 44.121 C 11.017 44.354,11.167 44.490,11.167 44.424 C 11.167 44.357,11.017 44.112,10.833 43.879 C 10.650 43.646,10.500 43.510,10.500 43.576 M11.167 44.743 C 11.167 44.810,11.317 45.055,11.500 45.288 C 11.683 45.521,11.833 45.657,11.833 45.590 C 11.833 45.524,11.683 45.279,11.500 45.045 C 11.317 44.812,11.167 44.676,11.167 44.743 M12.500 46.907 C 12.500 46.975,12.650 47.221,12.833 47.455 C 13.017 47.688,13.167 47.805,13.167 47.715 C 13.167 47.625,13.017 47.378,12.833 47.167 C 12.650 46.955,12.500 46.838,12.500 46.907 M13.167 48.126 C 13.167 48.218,13.279 48.386,13.417 48.500 C 13.556 48.616,13.667 48.634,13.667 48.541 C 13.667 48.449,13.554 48.281,13.417 48.167 C 13.277 48.051,13.167 48.033,13.167 48.126 M13.667 48.910 C 13.667 48.976,13.817 49.221,14.000 49.455 C 14.183 49.688,14.333 49.824,14.333 49.757 C 14.333 49.690,14.183 49.445,14.000 49.212 C 13.817 48.979,13.667 48.843,13.667 48.910 M14.333 50.062 C 14.333 50.268,15.377 51.846,15.458 51.764 C 15.497 51.726,15.259 51.296,14.930 50.808 C 14.602 50.320,14.333 49.985,14.333 50.062 M51.319 50.831 C 50.533 50.894,49.795 51.004,49.680 51.075 C 49.566 51.146,49.047 51.299,48.527 51.415 C 45.630 52.065,42.589 53.780,40.252 56.083 C 39.030 57.289,37.500 59.122,37.500 59.383 C 37.500 59.439,37.306 59.770,37.070 60.118 C 32.655 66.604,33.963 76.752,40.000 82.843 C 41.971 84.831,45.466 87.167,46.470 87.167 C 46.629 87.167,46.915 87.276,47.106 87.409 C 47.297 87.543,48.007 87.776,48.685 87.927 C 54.177 89.149,59.353 88.319,63.750 85.509 C 65.899 84.136,68.787 81.186,69.714 79.417 C 71.974 75.101,72.708 71.826,72.312 67.833 C 72.077 65.463,71.211 62.316,70.569 61.500 C 70.461 61.362,70.317 61.067,70.248 60.843 C 70.180 60.619,69.871 60.076,69.562 59.636 C 69.253 59.196,69.000 58.786,69.000 58.724 C 69.000 58.590,68.902 58.478,67.308 56.774 C 63.134 52.313,57.752 50.312,51.319 50.831 M15.503 52.107 C 15.501 52.211,15.654 52.473,15.843 52.690 C 16.112 52.999,16.149 53.012,16.015 52.750 C 15.726 52.185,15.505 51.908,15.503 52.107 M16.167 53.219 C 16.167 53.355,17.173 54.833,17.266 54.833 C 17.351 54.833,16.914 54.115,16.466 53.519 C 16.301 53.301,16.167 53.166,16.167 53.219 M17.333 55.120 C 17.333 55.217,17.488 55.473,17.677 55.690 L 18.020 56.083 17.727 55.583 C 17.342 54.925,17.333 54.915,17.333 55.120 M18.003 56.273 C 18.001 56.378,18.154 56.640,18.343 56.857 C 18.612 57.166,18.649 57.179,18.515 56.917 C 18.226 56.351,18.005 56.074,18.003 56.273 M18.667 57.410 C 18.667 57.476,18.817 57.721,19.000 57.955 C 19.183 58.188,19.333 58.324,19.333 58.257 C 19.333 58.190,19.183 57.945,19.000 57.712 C 18.817 57.479,18.667 57.343,18.667 57.410 M19.343 58.539 C 19.328 58.727,20.362 60.360,20.444 60.278 C 20.484 60.238,20.344 59.944,20.133 59.624 C 19.922 59.303,19.661 58.901,19.551 58.729 C 19.442 58.557,19.349 58.472,19.343 58.539 M20.500 60.620 C 20.500 60.717,20.654 60.973,20.843 61.190 L 21.186 61.583 20.894 61.083 C 20.508 60.425,20.500 60.415,20.500 60.620 M23.000 64.787 C 23.000 64.884,23.154 65.140,23.343 65.357 L 23.686 65.750 23.394 65.250 C 23.008 64.592,23.000 64.582,23.000 64.787 M23.668 65.917 C 23.669 66.008,23.818 66.308,24.000 66.583 C 24.432 67.235,24.432 67.003,24.001 66.296 C 23.818 65.996,23.668 65.825,23.668 65.917 M24.485 67.417 C 24.774 67.982,24.995 68.259,24.997 68.060 C 24.999 67.956,24.846 67.693,24.657 67.477 C 24.388 67.168,24.351 67.155,24.485 67.417 M26.167 70.287 C 26.167 70.384,26.321 70.640,26.510 70.857 L 26.853 71.250 26.560 70.750 C 26.175 70.092,26.167 70.082,26.167 70.287 M28.000 73.214 C 28.000 73.452,28.398 74.167,28.531 74.167 C 28.610 74.167,28.545 73.960,28.388 73.708 C 28.013 73.110,28.000 73.093,28.000 73.214 M28.673 74.417 C 28.674 74.508,28.827 74.771,29.015 75.000 C 29.241 75.277,29.298 75.305,29.183 75.083 C 28.902 74.540,28.672 74.238,28.673 74.417 M29.335 75.583 C 29.335 75.675,29.485 75.975,29.667 76.250 C 30.098 76.902,30.099 76.670,29.667 75.962 C 29.484 75.662,29.335 75.492,29.335 75.583 M70.519 86.391 C 70.509 86.560,70.350 86.737,70.167 86.785 C 69.833 86.872,69.748 87.026,69.931 87.208 C 70.103 87.381,70.690 86.656,70.613 86.365 C 70.549 86.122,70.536 86.125,70.519 86.391 " stroke="none" fill="#4889f4" fill-rule="evenodd"></path><path id="path7" d="" stroke="none" fill="#ff0000" fill-rule="evenodd"></path><path id="path8" d="" stroke="none" fill="#00ff00" fill-rule="evenodd"></path><path id="path9" d="M51.917 46.010 C 49.703 46.225,48.120 46.482,47.417 46.740 C 47.050 46.875,46.639 46.989,46.503 46.993 C 45.934 47.010,41.840 48.841,41.363 49.292 C 41.242 49.406,41.077 49.500,40.995 49.500 C 40.851 49.500,39.978 50.055,39.494 50.455 C 39.360 50.566,38.824 50.993,38.303 51.404 C 31.505 56.773,28.210 66.510,30.348 74.917 C 30.441 75.283,30.592 75.921,30.683 76.333 C 30.774 76.746,30.958 77.282,31.091 77.526 C 31.224 77.769,31.333 78.086,31.333 78.231 C 31.333 78.589,32.639 81.249,33.266 82.168 C 33.547 82.580,34.022 83.275,34.320 83.713 C 36.717 87.228,42.441 91.293,46.250 92.185 C 46.617 92.271,47.104 92.415,47.333 92.504 C 51.199 94.014,58.228 93.426,63.250 91.173 C 63.617 91.008,64.029 90.826,64.167 90.769 C 64.304 90.711,64.717 90.476,65.083 90.245 C 65.450 90.015,65.862 89.776,66.000 89.714 C 66.488 89.496,68.597 87.853,69.554 86.946 C 70.088 86.440,70.632 85.985,70.763 85.935 C 70.893 85.885,71.000 85.729,71.000 85.589 C 71.000 85.308,71.258 85.244,71.408 85.487 C 71.460 85.571,71.394 85.749,71.260 85.883 C 71.126 86.017,70.967 86.324,70.906 86.565 C 70.846 86.806,70.729 87.045,70.646 87.096 C 70.563 87.148,70.382 87.428,70.243 87.720 C 69.952 88.333,69.590 88.975,69.333 89.333 C 69.136 89.609,68.826 90.151,68.425 90.917 C 68.282 91.192,67.985 91.717,67.765 92.083 C 67.546 92.450,67.128 93.219,66.836 93.792 C 66.544 94.365,66.245 94.833,66.171 94.833 C 66.097 94.833,65.986 95.034,65.924 95.279 C 65.863 95.523,65.667 95.908,65.490 96.134 C 65.312 96.360,65.167 96.606,65.167 96.681 C 65.167 96.755,64.951 97.139,64.688 97.533 C 64.226 98.226,63.218 99.976,62.788 100.833 C 62.673 101.063,62.371 101.572,62.116 101.966 C 61.861 102.360,61.577 102.848,61.484 103.050 C 61.392 103.252,61.135 103.717,60.914 104.083 C 60.693 104.450,60.343 105.050,60.137 105.417 C 59.930 105.783,59.667 106.233,59.552 106.417 C 59.437 106.600,59.223 106.975,59.076 107.250 C 58.930 107.525,58.630 108.050,58.409 108.417 C 58.188 108.783,57.932 109.233,57.840 109.417 C 57.748 109.600,57.483 110.050,57.252 110.417 C 57.020 110.783,56.714 111.338,56.570 111.649 C 56.426 111.961,56.202 112.322,56.071 112.453 C 55.940 112.584,55.833 112.798,55.833 112.930 C 55.833 113.062,55.580 113.530,55.271 113.969 C 54.962 114.409,54.660 114.927,54.598 115.119 C 54.537 115.312,54.377 115.561,54.244 115.672 C 54.110 115.783,54.000 116.006,54.000 116.167 C 54.000 116.328,53.880 116.559,53.733 116.681 C 53.586 116.803,53.394 117.056,53.307 117.243 C 53.221 117.430,52.969 117.883,52.748 118.250 C 52.527 118.617,52.233 119.142,52.093 119.417 C 51.954 119.692,51.776 120.029,51.698 120.167 C 50.591 122.117,50.375 122.000,55.083 122.000 C 59.056 122.000,59.167 121.991,59.167 121.667 C 59.167 121.350,59.278 121.333,61.417 121.333 C 63.556 121.333,63.667 121.317,63.667 121.000 C 63.667 120.696,63.778 120.667,64.917 120.667 C 66.056 120.667,66.167 120.637,66.167 120.333 C 66.167 120.030,66.278 120.000,67.417 120.000 C 68.417 120.000,68.667 119.950,68.667 119.750 C 68.667 119.558,68.880 119.500,69.583 119.500 C 70.389 119.500,70.500 119.460,70.500 119.167 C 70.500 118.874,70.611 118.833,71.417 118.833 C 72.222 118.833,72.333 118.793,72.333 118.500 C 72.333 118.222,72.444 118.167,73.000 118.167 C 73.556 118.167,73.667 118.111,73.667 117.833 C 73.667 117.540,73.778 117.500,74.583 117.500 C 75.287 117.500,75.500 117.442,75.500 117.250 C 75.500 117.069,75.685 117.000,76.167 117.000 C 76.722 117.000,76.833 116.944,76.833 116.667 C 76.833 116.397,76.944 116.333,77.417 116.333 C 77.889 116.333,78.000 116.270,78.000 116.000 C 78.000 115.722,78.111 115.667,78.667 115.667 C 79.222 115.667,79.333 115.611,79.333 115.333 C 79.333 115.111,79.444 115.000,79.667 115.000 C 79.889 115.000,80.000 114.889,80.000 114.667 C 80.000 114.397,80.111 114.333,80.583 114.333 C 80.991 114.333,81.167 114.258,81.167 114.083 C 81.167 113.907,81.344 113.833,81.766 113.833 C 82.224 113.833,82.385 113.755,82.452 113.500 C 82.500 113.317,82.643 113.167,82.769 113.167 C 82.896 113.167,83.000 113.017,83.000 112.833 C 83.000 112.556,83.111 112.500,83.667 112.500 C 84.222 112.500,84.333 112.444,84.333 112.167 C 84.333 111.944,84.444 111.833,84.667 111.833 C 84.852 111.833,85.000 111.722,85.000 111.583 C 85.000 111.446,85.112 111.333,85.250 111.333 C 85.389 111.333,85.500 111.185,85.500 111.000 C 85.500 110.722,85.611 110.667,86.167 110.667 C 86.722 110.667,86.833 110.611,86.833 110.333 C 86.833 110.111,86.944 110.000,87.167 110.000 C 87.389 110.000,87.500 109.889,87.500 109.667 C 87.500 109.444,87.611 109.333,87.833 109.333 C 88.019 109.333,88.167 109.222,88.167 109.083 C 88.167 108.946,88.279 108.833,88.417 108.833 C 88.556 108.833,88.667 108.685,88.667 108.500 C 88.667 108.278,88.778 108.167,89.000 108.167 C 89.222 108.167,89.333 108.056,89.333 107.833 C 89.333 107.611,89.444 107.500,89.667 107.500 C 89.889 107.500,90.000 107.389,90.000 107.167 C 90.000 106.944,90.111 106.833,90.333 106.833 C 90.519 106.833,90.667 106.722,90.667 106.583 C 90.667 106.446,90.779 106.333,90.917 106.333 C 91.056 106.333,91.167 106.185,91.167 106.000 C 91.167 105.778,91.278 105.667,91.500 105.667 C 91.722 105.667,91.833 105.556,91.833 105.333 C 91.833 105.111,91.944 105.000,92.167 105.000 C 92.389 105.000,92.500 104.889,92.500 104.667 C 92.500 104.444,92.611 104.333,92.833 104.333 C 93.019 104.333,93.167 104.222,93.167 104.083 C 93.167 103.946,93.279 103.833,93.417 103.833 C 93.556 103.833,93.667 103.685,93.667 103.500 C 93.667 103.278,93.778 103.167,94.000 103.167 C 94.278 103.167,94.333 103.056,94.333 102.500 C 94.333 101.944,94.389 101.833,94.667 101.833 C 94.889 101.833,95.000 101.722,95.000 101.500 C 95.000 101.278,95.111 101.167,95.333 101.167 C 95.519 101.167,95.667 101.056,95.667 100.917 C 95.667 100.779,95.779 100.667,95.917 100.667 C 96.097 100.667,96.167 100.481,96.167 100.000 C 96.167 99.444,96.222 99.333,96.500 99.333 C 96.722 99.333,96.833 99.222,96.833 99.000 C 96.833 98.778,96.944 98.667,97.167 98.667 C 97.437 98.667,97.500 98.556,97.500 98.083 C 97.500 97.611,97.563 97.500,97.833 97.500 C 98.056 97.500,98.167 97.389,98.167 97.167 C 98.167 96.981,98.278 96.833,98.417 96.833 C 98.591 96.833,98.667 96.657,98.667 96.250 C 98.667 95.778,98.730 95.667,99.000 95.667 C 99.278 95.667,99.333 95.556,99.333 95.000 C 99.333 94.444,99.389 94.333,99.667 94.333 C 99.937 94.333,100.000 94.222,100.000 93.750 C 100.000 93.278,100.063 93.167,100.333 93.167 C 100.611 93.167,100.667 93.056,100.667 92.500 C 100.667 91.944,100.722 91.833,101.000 91.833 C 101.270 91.833,101.333 91.722,101.333 91.250 C 101.333 90.843,101.409 90.667,101.583 90.667 C 101.764 90.667,101.833 90.481,101.833 90.000 C 101.833 89.444,101.889 89.333,102.167 89.333 C 102.460 89.333,102.500 89.222,102.500 88.417 C 102.500 87.611,102.540 87.500,102.833 87.500 C 103.130 87.500,103.167 87.389,103.167 86.500 C 103.167 85.611,103.204 85.500,103.500 85.500 C 103.793 85.500,103.833 85.389,103.833 84.583 C 103.833 83.880,103.891 83.667,104.083 83.667 C 104.283 83.667,104.333 83.417,104.333 82.417 C 104.333 81.278,104.363 81.167,104.667 81.167 C 104.977 81.167,105.000 81.056,105.000 79.583 C 105.000 78.111,105.023 78.000,105.333 78.000 C 105.662 78.000,105.667 77.889,105.667 69.583 C 105.667 61.278,105.662 61.167,105.333 61.167 C 105.023 61.167,105.000 61.056,105.000 59.583 C 105.000 58.111,104.977 58.000,104.667 58.000 C 104.363 58.000,104.333 57.889,104.333 56.750 C 104.333 55.750,104.283 55.500,104.083 55.500 C 103.891 55.500,103.833 55.287,103.833 54.583 C 103.833 53.778,103.793 53.667,103.500 53.667 C 103.207 53.667,103.167 53.556,103.167 52.750 C 103.167 51.944,103.126 51.833,102.833 51.833 C 102.537 51.833,102.500 51.722,102.500 50.833 C 102.500 49.944,102.463 49.833,102.167 49.833 C 101.897 49.833,101.833 49.722,101.833 49.250 C 101.833 48.843,101.758 48.667,101.583 48.667 C 101.391 48.667,101.333 48.452,101.333 47.734 C 101.333 46.942,101.283 46.789,101.000 46.715 C 100.817 46.667,100.667 46.518,100.667 46.384 C 100.667 46.186,100.471 46.158,99.625 46.234 C 96.584 46.508,59.734 46.415,56.833 46.126 C 55.229 45.966,53.767 45.846,53.583 45.858 C 53.400 45.871,52.650 45.939,51.917 46.010 M58.250 46.678 C 60.138 47.090,60.963 47.321,61.417 47.564 C 61.692 47.711,62.012 47.832,62.128 47.832 C 62.639 47.835,65.391 49.296,67.227 50.540 C 69.065 51.785,72.667 55.448,73.398 56.815 C 74.671 59.197,75.833 61.656,75.833 61.969 C 75.833 62.182,75.918 62.514,76.022 62.707 C 76.829 64.216,77.347 69.015,77.024 72.000 C 76.838 73.719,76.040 77.266,75.683 77.964 C 75.602 78.121,75.193 78.972,74.773 79.855 C 74.353 80.738,73.895 81.504,73.755 81.558 C 73.615 81.612,73.500 81.842,73.500 82.068 C 73.500 82.295,73.422 82.529,73.327 82.588 C 73.231 82.646,72.977 82.970,72.761 83.306 C 72.331 83.976,72.371 83.934,70.142 86.094 C 67.810 88.354,65.799 89.817,63.833 90.682 C 62.710 91.177,62.032 91.478,61.500 91.718 C 60.212 92.300,57.496 92.831,54.417 93.102 C 53.216 93.207,48.487 92.761,47.990 92.495 C 47.846 92.417,47.282 92.243,46.739 92.108 C 41.641 90.837,36.247 86.706,33.217 81.750 C 33.105 81.567,32.964 81.304,32.905 81.167 C 32.845 81.029,32.628 80.542,32.421 80.083 C 31.658 78.391,31.500 77.982,31.500 77.698 C 31.500 77.538,31.399 77.260,31.275 77.079 C 31.151 76.898,31.001 76.380,30.940 75.927 C 30.880 75.475,30.701 74.913,30.542 74.677 C 30.114 74.045,30.103 65.309,30.530 64.667 C 30.682 64.438,30.858 63.821,30.922 63.297 C 30.985 62.772,31.141 62.257,31.269 62.151 C 31.396 62.046,31.500 61.799,31.500 61.602 C 31.500 61.406,31.650 60.965,31.833 60.623 C 32.017 60.281,32.167 59.900,32.167 59.776 C 32.167 59.652,32.317 59.378,32.500 59.167 C 32.683 58.955,32.833 58.678,32.833 58.551 C 32.833 58.423,32.909 58.229,33.002 58.118 C 33.095 58.007,33.526 57.380,33.961 56.723 C 35.302 54.696,37.547 52.313,39.339 51.016 C 39.840 50.653,40.438 50.217,40.667 50.047 C 40.896 49.876,41.456 49.552,41.912 49.327 C 42.368 49.101,42.842 48.823,42.966 48.708 C 43.089 48.594,43.316 48.500,43.470 48.499 C 43.624 48.498,43.975 48.349,44.250 48.167 C 44.525 47.985,44.902 47.835,45.088 47.834 C 45.274 47.834,45.588 47.720,45.785 47.582 C 45.983 47.443,46.506 47.283,46.947 47.226 C 47.389 47.168,47.938 47.017,48.167 46.891 C 49.049 46.402,56.286 46.249,58.250 46.678 " stroke="none" fill="#ffcd41" fill-rule="evenodd"></path></g></svg>