<svg id="svg" version="1.1" width="400" height="66.015625" xmlns="http://www.w3.org/2000/svg" xmlns:xlink="http://www.w3.org/1999/xlink" style="display: block;"><g id="svgg"><path id="path0" d="" stroke="none" fill="#000000" fill-rule="evenodd"></path><path id="path1" d="M393.978 6.875 C 393.944 7.081,393.958 8.000,394.009 8.917 L 394.102 10.583 394.134 8.542 C 394.165 6.602,394.113 6.046,393.978 6.875 M91.958 27.791 C 93.265 27.819,95.402 27.819,96.708 27.791 C 98.015 27.763,96.946 27.740,94.333 27.740 C 91.721 27.740,90.652 27.763,91.958 27.791 " stroke="none" fill="#555555" fill-rule="evenodd"></path><path id="path2" d="M381.000 2.333 C 381.000 2.438,382.000 2.500,383.667 2.500 C 385.333 2.500,386.333 2.438,386.333 2.333 C 386.333 2.229,385.333 2.167,383.667 2.167 C 382.000 2.167,381.000 2.229,381.000 2.333 M388.272 2.369 C 388.389 2.558,389.000 2.530,389.000 2.335 C 389.000 2.245,388.818 2.185,388.595 2.204 C 388.373 2.222,388.227 2.296,388.272 2.369 M394.428 2.315 C 394.381 2.390,394.676 2.452,395.083 2.452 C 395.490 2.452,395.791 2.400,395.752 2.337 C 395.649 2.170,394.529 2.152,394.428 2.315 M174.333 6.255 C 174.333 6.525,174.594 6.586,174.739 6.351 C 174.790 6.269,174.719 6.159,174.582 6.106 C 174.431 6.048,174.333 6.107,174.333 6.255 M264.116 34.458 C 263.906 34.834,263.853 35.493,264.025 35.599 C 264.145 35.673,264.173 35.645,264.099 35.526 C 264.034 35.420,264.037 35.241,264.107 35.128 C 264.231 34.929,264.324 34.333,264.232 34.333 C 264.207 34.333,264.155 34.390,264.116 34.458 M180.031 47.416 C 179.926 47.646,179.905 47.833,179.984 47.833 C 180.123 47.833,180.372 47.150,180.270 47.048 C 180.243 47.021,180.135 47.186,180.031 47.416 M106.032 60.846 C 106.065 60.944,106.163 61.025,106.250 61.025 C 106.337 61.025,106.435 60.944,106.468 60.846 C 106.501 60.747,106.403 60.667,106.250 60.667 C 106.097 60.667,105.999 60.747,106.032 60.846 M172.000 63.264 C 172.000 63.409,172.089 63.498,172.198 63.462 C 172.507 63.359,172.558 63.000,172.264 63.000 C 172.119 63.000,172.000 63.119,172.000 63.264 M201.449 63.107 C 201.316 63.240,201.466 63.500,201.677 63.500 C 201.763 63.500,201.833 63.387,201.833 63.250 C 201.833 62.992,201.637 62.919,201.449 63.107 " stroke="none" fill="#ffffff" fill-rule="evenodd"></path><path id="path3" d="M0.958 2.065 C 0.498 2.415,0.862 3.333,1.460 3.333 C 1.580 3.333,2.007 3.671,2.408 4.083 C 2.809 4.496,3.184 4.833,3.242 4.833 C 3.358 4.833,3.642 5.056,4.250 5.625 C 4.471 5.831,4.730 6.000,4.826 6.000 C 4.922 6.000,5.000 6.101,5.000 6.224 C 5.000 6.347,5.337 6.621,5.750 6.833 C 6.162 7.045,6.500 7.288,6.500 7.371 C 6.500 7.581,6.937 8.000,7.155 8.000 C 7.253 8.000,7.333 8.075,7.333 8.167 C 7.333 8.258,7.430 8.333,7.549 8.333 C 7.667 8.333,8.042 8.596,8.382 8.917 C 8.722 9.237,9.058 9.500,9.127 9.500 C 9.197 9.500,9.395 9.688,9.567 9.917 C 9.739 10.146,9.982 10.333,10.107 10.333 C 10.231 10.333,10.333 10.408,10.333 10.500 C 10.333 10.592,10.446 10.667,10.583 10.667 C 10.721 10.667,10.833 10.747,10.833 10.845 C 10.833 10.943,10.940 11.131,11.071 11.262 C 11.202 11.393,11.390 11.500,11.488 11.500 C 11.586 11.500,11.667 11.575,11.667 11.667 C 11.667 11.758,11.817 11.833,12.000 11.833 C 12.183 11.833,12.333 11.914,12.333 12.012 C 12.333 12.199,12.741 12.667,12.904 12.667 C 12.957 12.667,13.278 12.929,13.618 13.250 C 13.958 13.571,14.290 13.833,14.356 13.833 C 14.422 13.833,14.828 14.171,15.259 14.583 C 15.689 14.996,16.099 15.333,16.170 15.333 C 16.240 15.333,16.700 15.708,17.191 16.166 C 17.682 16.624,18.286 17.091,18.533 17.203 C 18.781 17.315,19.075 17.578,19.186 17.787 C 19.298 17.996,19.489 18.167,19.611 18.167 C 19.734 18.167,19.833 18.225,19.833 18.297 C 19.833 18.369,20.068 18.567,20.355 18.736 C 20.642 18.906,21.208 19.372,21.615 19.772 C 22.021 20.172,22.461 20.500,22.593 20.500 C 22.725 20.500,22.833 20.575,22.833 20.667 C 22.833 20.758,22.946 20.833,23.083 20.833 C 23.221 20.833,23.333 20.914,23.333 21.012 C 23.333 21.199,23.741 21.667,23.903 21.667 C 23.994 21.667,24.639 22.187,25.094 22.625 C 25.212 22.740,25.351 22.833,25.402 22.833 C 25.452 22.833,25.764 23.096,26.095 23.417 C 26.425 23.738,26.769 24.000,26.859 24.000 C 26.949 24.000,27.261 24.245,27.553 24.545 C 27.845 24.845,28.383 25.310,28.750 25.580 C 29.117 25.850,29.677 26.313,29.996 26.610 C 30.314 26.907,30.753 27.246,30.971 27.363 C 31.189 27.479,31.737 27.933,32.189 28.371 C 32.641 28.808,33.088 29.167,33.182 29.167 C 33.276 29.167,33.674 29.493,34.067 29.891 C 34.460 30.290,35.018 30.720,35.307 30.848 C 35.597 30.977,35.833 31.148,35.833 31.229 C 35.833 31.388,36.205 31.739,36.925 32.260 C 37.170 32.438,37.469 32.677,37.590 32.792 C 37.711 32.906,37.890 33.000,37.988 33.000 C 38.312 33.000,38.175 33.246,37.571 33.752 C 37.243 34.026,36.796 34.419,36.578 34.625 C 36.360 34.831,36.131 35.000,36.069 35.000 C 36.007 35.000,35.708 35.262,35.406 35.583 C 35.103 35.904,34.766 36.167,34.656 36.167 C 34.546 36.167,34.208 36.429,33.906 36.750 C 33.603 37.071,33.276 37.333,33.178 37.333 C 33.080 37.333,32.999 37.390,32.999 37.458 C 32.998 37.527,32.719 37.771,32.379 38.000 C 32.038 38.229,31.476 38.698,31.130 39.042 C 30.783 39.385,30.435 39.667,30.356 39.667 C 30.278 39.667,29.851 40.004,29.408 40.417 C 28.965 40.829,28.545 41.167,28.475 41.167 C 28.406 41.167,28.161 41.354,27.932 41.583 C 27.703 41.812,27.449 42.000,27.369 42.000 C 27.289 42.000,27.123 42.188,27.000 42.417 C 26.877 42.646,26.708 42.833,26.623 42.833 C 26.435 42.833,25.722 43.376,24.818 44.208 C 24.445 44.552,24.078 44.833,24.004 44.833 C 23.929 44.833,23.511 45.171,23.074 45.583 C 22.638 45.996,22.224 46.333,22.154 46.333 C 22.085 46.333,21.758 46.596,21.428 46.917 C 21.098 47.237,20.786 47.500,20.735 47.500 C 20.574 47.500,20.167 47.969,20.167 48.155 C 20.167 48.253,20.024 48.333,19.849 48.333 C 19.674 48.333,19.183 48.671,18.759 49.083 C 18.334 49.496,17.924 49.833,17.848 49.833 C 17.771 49.833,17.402 50.121,17.029 50.473 C 16.655 50.825,16.084 51.293,15.759 51.515 C 15.435 51.736,15.168 51.973,15.168 52.042 C 15.167 52.110,15.086 52.167,14.988 52.167 C 14.757 52.167,14.333 52.591,14.333 52.821 C 14.333 52.920,14.221 53.000,14.083 53.000 C 13.946 53.000,13.833 53.075,13.833 53.167 C 13.833 53.258,13.728 53.333,13.599 53.333 C 13.470 53.333,12.984 53.690,12.520 54.125 C 11.422 55.154,11.205 55.333,11.062 55.333 C 10.996 55.333,10.636 55.652,10.262 56.042 C 9.887 56.431,9.373 56.843,9.119 56.957 C 8.865 57.071,8.614 57.277,8.561 57.415 C 8.508 57.554,8.394 57.667,8.308 57.667 C 8.222 57.667,7.964 57.854,7.735 58.083 C 7.506 58.312,7.256 58.500,7.180 58.500 C 7.104 58.500,6.689 58.837,6.259 59.250 C 5.828 59.662,5.425 60.003,5.363 60.006 C 5.301 60.009,4.880 60.346,4.427 60.756 C 3.975 61.165,3.543 61.500,3.469 61.500 C 3.394 61.500,3.333 61.612,3.333 61.750 C 3.333 61.889,3.185 62.000,3.000 62.000 C 2.817 62.000,2.667 62.075,2.667 62.167 C 2.667 62.258,2.586 62.333,2.488 62.333 C 2.257 62.333,1.833 62.757,1.833 62.988 C 1.833 63.086,1.721 63.167,1.583 63.167 C 1.446 63.167,1.333 63.233,1.333 63.314 C 1.333 63.395,1.183 63.500,1.000 63.548 C 0.757 63.612,0.667 63.776,0.667 64.151 L 0.667 64.667 9.091 64.667 L 17.516 64.667 17.902 64.250 C 18.114 64.021,18.358 63.833,18.443 63.833 C 18.528 63.833,18.876 63.571,19.216 63.250 C 19.556 62.929,19.877 62.667,19.929 62.667 C 20.092 62.667,20.500 62.199,20.500 62.012 C 20.500 61.914,20.650 61.833,20.833 61.833 C 21.017 61.833,21.167 61.758,21.167 61.667 C 21.167 61.575,21.247 61.500,21.345 61.500 C 21.576 61.500,22.000 61.076,22.000 60.845 C 22.000 60.747,22.113 60.667,22.250 60.667 C 22.387 60.667,22.500 60.592,22.500 60.500 C 22.500 60.408,22.608 60.333,22.740 60.333 C 22.872 60.333,23.323 59.996,23.741 59.583 C 24.160 59.171,24.563 58.833,24.638 58.833 C 24.713 58.833,25.176 58.458,25.667 58.000 C 26.157 57.542,26.621 57.167,26.696 57.167 C 26.772 57.167,26.833 57.097,26.833 57.011 C 26.833 56.926,26.965 56.813,27.125 56.761 C 27.285 56.708,27.782 56.328,28.228 55.916 C 28.674 55.504,29.099 55.167,29.172 55.167 C 29.244 55.167,29.726 54.754,30.243 54.250 C 30.759 53.746,31.250 53.333,31.333 53.333 C 31.417 53.333,31.672 53.146,31.902 52.917 C 32.131 52.688,32.364 52.500,32.421 52.500 C 32.591 52.500,33.000 52.037,33.000 51.845 C 33.000 51.747,33.150 51.667,33.333 51.667 C 33.517 51.667,33.667 51.592,33.667 51.500 C 33.667 51.408,33.747 51.333,33.845 51.333 C 34.076 51.333,34.500 50.909,34.500 50.679 C 34.500 50.580,34.612 50.500,34.750 50.500 C 34.887 50.500,35.000 50.441,35.000 50.369 C 35.000 50.297,35.207 50.116,35.461 49.966 C 35.715 49.816,36.164 49.463,36.460 49.180 C 36.755 48.898,37.073 48.667,37.165 48.667 C 37.258 48.667,37.333 48.554,37.333 48.417 C 37.333 48.279,37.453 48.167,37.600 48.167 C 37.747 48.167,38.209 47.829,38.628 47.417 C 39.046 47.004,39.483 46.667,39.599 46.667 C 39.714 46.667,39.957 46.479,40.137 46.250 C 40.317 46.021,40.516 45.833,40.580 45.833 C 40.643 45.833,40.949 45.571,41.261 45.250 C 41.573 44.929,41.910 44.667,42.012 44.667 C 42.113 44.667,42.524 44.329,42.925 43.917 C 43.326 43.504,43.714 43.167,43.787 43.167 C 43.860 43.167,44.122 42.979,44.369 42.750 C 44.617 42.521,44.860 42.333,44.911 42.333 C 44.962 42.333,45.245 42.102,45.540 41.820 C 45.836 41.537,46.285 41.184,46.539 41.034 C 46.793 40.884,47.000 40.703,47.000 40.631 C 47.000 40.430,47.332 40.475,47.568 40.708 C 47.684 40.823,47.986 41.067,48.241 41.250 C 48.495 41.433,48.802 41.677,48.923 41.792 C 49.044 41.906,49.187 42.000,49.241 42.000 C 49.294 42.000,49.686 42.337,50.110 42.750 C 50.534 43.163,50.947 43.500,51.027 43.500 C 51.107 43.500,51.427 43.763,51.739 44.083 C 52.051 44.404,52.355 44.667,52.415 44.667 C 52.475 44.667,52.623 44.760,52.743 44.875 C 52.864 44.990,53.140 45.211,53.357 45.368 C 53.573 45.524,54.075 45.955,54.472 46.326 C 54.870 46.697,55.251 47.000,55.321 47.000 C 55.390 47.000,55.804 47.338,56.241 47.750 C 56.678 48.163,57.099 48.500,57.177 48.500 C 57.254 48.500,57.506 48.688,57.735 48.917 C 57.964 49.146,58.230 49.333,58.326 49.333 C 58.422 49.333,58.500 49.414,58.500 49.512 C 58.500 49.774,58.844 50.072,59.458 50.343 C 59.756 50.474,60.000 50.643,60.000 50.719 C 60.000 50.879,60.428 51.333,60.579 51.333 C 60.635 51.333,60.883 51.521,61.131 51.750 C 61.378 51.979,61.630 52.167,61.692 52.167 C 61.753 52.167,62.226 52.579,62.743 53.083 C 63.259 53.587,63.750 54.000,63.833 54.000 C 63.917 54.000,64.172 54.188,64.402 54.417 C 64.631 54.646,64.879 54.833,64.953 54.833 C 65.027 54.833,65.228 55.021,65.400 55.250 C 65.573 55.479,65.815 55.667,65.940 55.667 C 66.065 55.667,66.167 55.742,66.167 55.833 C 66.167 55.925,66.238 56.000,66.325 56.000 C 66.413 56.000,66.731 56.246,67.034 56.547 C 67.336 56.847,67.877 57.310,68.235 57.575 C 68.593 57.841,69.143 58.307,69.458 58.612 C 69.772 58.917,70.135 59.167,70.264 59.167 C 70.394 59.167,70.500 59.242,70.500 59.333 C 70.500 59.425,70.612 59.500,70.750 59.500 C 70.887 59.500,71.000 59.585,71.000 59.689 C 71.000 59.885,71.329 60.208,72.091 60.760 C 72.336 60.938,72.636 61.177,72.757 61.292 C 72.877 61.406,73.024 61.500,73.083 61.500 C 73.141 61.500,73.437 61.762,73.739 62.083 C 74.042 62.404,74.369 62.667,74.467 62.667 C 74.565 62.667,75.112 63.117,75.682 63.668 L 76.718 64.670 85.317 64.626 L 93.917 64.583 93.917 64.103 C 93.917 63.733,93.794 63.557,93.381 63.336 C 93.087 63.178,92.625 62.813,92.356 62.524 C 92.087 62.236,91.803 61.999,91.725 61.997 C 91.647 61.995,91.284 61.733,90.918 61.413 C 90.553 61.094,90.197 60.833,90.127 60.833 C 90.057 60.833,90.000 60.737,90.000 60.619 C 90.000 60.502,89.756 60.261,89.458 60.085 C 89.161 59.909,88.758 59.612,88.563 59.424 C 88.068 58.948,87.600 58.573,87.059 58.219 C 86.804 58.053,86.267 57.598,85.866 57.208 C 85.464 56.819,85.057 56.500,84.961 56.500 C 84.865 56.500,84.584 56.294,84.338 56.042 C 83.812 55.504,82.701 54.613,82.435 54.516 C 82.333 54.479,82.034 54.197,81.770 53.891 C 81.507 53.584,81.199 53.333,81.086 53.333 C 80.974 53.333,80.534 52.996,80.110 52.583 C 79.686 52.171,79.294 51.833,79.241 51.833 C 79.187 51.833,79.044 51.740,78.923 51.625 C 78.802 51.510,78.494 51.267,78.237 51.083 C 77.981 50.900,77.585 50.544,77.358 50.292 C 77.131 50.040,76.844 49.833,76.720 49.833 C 76.596 49.833,76.171 49.496,75.776 49.083 C 75.381 48.671,74.972 48.333,74.867 48.333 C 74.763 48.333,74.415 48.071,74.094 47.750 C 73.774 47.429,73.434 47.167,73.339 47.167 C 73.244 47.167,73.167 47.054,73.167 46.917 C 73.167 46.779,73.054 46.667,72.917 46.667 C 72.779 46.667,72.667 46.592,72.667 46.500 C 72.667 46.408,72.517 46.333,72.333 46.333 C 72.150 46.333,72.000 46.248,72.000 46.145 C 72.000 45.948,71.671 45.625,70.909 45.073 C 70.664 44.895,70.364 44.656,70.243 44.542 C 70.123 44.427,69.981 44.333,69.928 44.333 C 69.875 44.333,69.476 43.996,69.041 43.584 C 68.606 43.172,68.192 42.835,68.122 42.834 C 68.052 42.834,67.739 42.571,67.428 42.250 C 67.116 41.929,66.812 41.667,66.752 41.667 C 66.692 41.667,66.544 41.573,66.423 41.458 C 66.302 41.344,65.996 41.100,65.741 40.917 C 65.487 40.733,65.072 40.377,64.819 40.125 C 64.566 39.873,64.275 39.667,64.173 39.667 C 64.071 39.667,63.660 39.329,63.259 38.917 C 62.858 38.504,62.464 38.167,62.383 38.167 C 62.302 38.167,61.958 37.904,61.618 37.583 C 61.278 37.263,60.966 37.000,60.925 37.000 C 60.884 37.000,60.648 36.813,60.401 36.583 C 60.154 36.354,59.882 36.167,59.797 36.167 C 59.599 36.167,59.167 35.737,59.167 35.540 C 59.167 35.457,58.979 35.289,58.750 35.167 C 58.521 35.044,58.333 34.881,58.333 34.805 C 58.333 34.729,58.183 34.667,58.000 34.667 C 57.815 34.667,57.667 34.556,57.667 34.417 C 57.667 34.279,57.588 34.167,57.492 34.167 C 57.307 34.167,56.500 33.418,56.500 33.246 C 56.500 33.102,56.808 32.818,57.583 32.247 C 57.950 31.977,58.489 31.511,58.780 31.212 C 59.072 30.912,59.392 30.667,59.492 30.667 C 59.591 30.667,59.927 30.404,60.239 30.083 C 60.551 29.762,60.855 29.500,60.915 29.500 C 60.975 29.500,61.123 29.406,61.243 29.292 C 61.364 29.177,61.671 28.933,61.926 28.750 C 62.181 28.567,62.692 28.135,63.062 27.792 C 63.432 27.448,63.794 27.167,63.865 27.167 C 63.937 27.167,64.373 26.792,64.833 26.333 C 65.294 25.875,65.752 25.500,65.850 25.500 C 65.949 25.500,66.342 25.181,66.723 24.792 C 67.105 24.402,67.625 23.990,67.880 23.876 C 68.134 23.763,68.386 23.556,68.439 23.418 C 68.492 23.280,68.606 23.167,68.692 23.167 C 68.778 23.167,69.029 22.998,69.250 22.792 C 69.858 22.223,70.142 22.000,70.258 22.000 C 70.316 22.000,70.691 21.662,71.092 21.250 C 71.493 20.837,71.909 20.500,72.016 20.500 C 72.123 20.500,72.458 20.237,72.761 19.917 C 73.063 19.596,73.359 19.333,73.417 19.333 C 73.476 19.333,73.623 19.240,73.743 19.125 C 73.864 19.010,74.173 18.767,74.430 18.583 C 74.686 18.400,75.110 18.044,75.371 17.792 C 75.631 17.540,75.906 17.333,75.982 17.333 C 76.057 17.333,76.455 17.006,76.867 16.606 C 77.279 16.206,77.692 15.849,77.785 15.814 C 78.015 15.727,79.127 14.843,79.653 14.330 C 79.890 14.099,80.290 13.805,80.542 13.677 C 80.794 13.549,81.000 13.344,81.000 13.222 C 81.000 13.100,81.075 13.000,81.166 13.000 C 81.258 13.000,81.611 12.737,81.951 12.417 C 82.291 12.096,82.635 11.833,82.715 11.833 C 82.795 11.833,83.116 11.571,83.428 11.250 C 83.739 10.929,84.070 10.667,84.163 10.667 C 84.256 10.667,84.674 10.329,85.092 9.917 C 85.511 9.504,85.891 9.167,85.938 9.167 C 85.985 9.167,86.128 9.073,86.256 8.958 C 86.763 8.504,86.990 8.333,87.090 8.333 C 87.148 8.333,87.449 8.071,87.761 7.750 C 88.073 7.429,88.397 7.167,88.482 7.167 C 88.567 7.167,88.983 6.829,89.408 6.417 C 89.832 6.004,90.236 5.667,90.305 5.667 C 90.374 5.667,90.709 5.404,91.049 5.083 C 91.389 4.762,91.736 4.500,91.820 4.500 C 91.904 4.500,91.997 4.441,92.028 4.368 C 92.058 4.296,92.382 4.014,92.747 3.743 C 93.876 2.904,94.000 2.770,94.000 2.397 C 94.000 1.835,93.967 1.833,85.162 1.833 L 76.851 1.833 76.438 2.208 C 76.211 2.415,75.819 2.733,75.567 2.917 C 75.001 3.328,74.500 3.851,74.500 4.031 C 74.500 4.106,74.388 4.167,74.251 4.167 C 74.006 4.167,73.708 4.391,72.532 5.458 C 72.203 5.756,71.878 6.000,71.808 6.000 C 71.739 6.000,71.494 6.188,71.265 6.417 C 71.036 6.646,70.783 6.833,70.702 6.833 C 70.622 6.833,70.456 7.021,70.333 7.250 C 70.211 7.479,69.985 7.667,69.833 7.667 C 69.680 7.667,69.369 7.873,69.142 8.125 C 68.915 8.377,68.523 8.733,68.272 8.917 C 67.421 9.536,66.957 9.915,66.276 10.542 C 65.903 10.885,65.529 11.167,65.444 11.167 C 65.359 11.167,65.042 11.429,64.739 11.750 C 64.437 12.071,64.141 12.333,64.083 12.333 C 64.024 12.333,63.877 12.427,63.757 12.542 C 63.636 12.656,63.336 12.895,63.091 13.073 C 62.372 13.594,62.000 13.945,62.000 14.104 C 62.000 14.185,61.773 14.353,61.495 14.475 C 61.217 14.598,60.645 15.029,60.224 15.433 C 59.803 15.836,59.396 16.167,59.320 16.167 C 59.244 16.167,58.994 16.354,58.765 16.583 C 58.536 16.813,58.300 17.000,58.240 17.000 C 58.180 17.000,57.984 17.188,57.804 17.417 C 57.623 17.646,57.401 17.833,57.309 17.833 C 57.218 17.833,57.046 17.927,56.928 18.042 C 56.407 18.548,55.529 19.288,54.916 19.740 C 54.550 20.010,54.011 20.479,53.720 20.782 C 53.428 21.085,53.099 21.333,52.989 21.333 C 52.879 21.333,52.542 21.596,52.239 21.917 C 51.937 22.237,51.609 22.500,51.511 22.500 C 51.413 22.500,51.333 22.556,51.332 22.625 C 51.332 22.694,51.071 22.927,50.752 23.144 C 49.951 23.690,49.500 24.095,49.500 24.271 C 49.500 24.352,49.256 24.525,48.958 24.654 C 48.660 24.784,48.178 25.140,47.886 25.445 C 47.237 26.124,47.302 26.126,46.572 25.417 C 46.242 25.096,45.906 24.833,45.825 24.833 C 45.745 24.833,45.332 24.496,44.908 24.083 C 44.483 23.671,43.993 23.333,43.818 23.333 C 43.643 23.333,43.500 23.248,43.500 23.145 C 43.500 22.948,43.171 22.625,42.409 22.073 C 42.164 21.895,41.864 21.656,41.743 21.542 C 41.623 21.427,41.476 21.333,41.417 21.333 C 41.359 21.333,41.072 21.088,40.780 20.788 C 40.489 20.489,39.950 20.024,39.583 19.755 C 39.217 19.487,38.804 19.145,38.667 18.997 C 38.529 18.848,38.173 18.584,37.875 18.411 C 37.577 18.237,37.333 18.036,37.333 17.964 C 37.333 17.892,37.262 17.833,37.175 17.833 C 37.087 17.833,36.761 17.571,36.450 17.250 C 36.138 16.929,35.841 16.667,35.789 16.667 C 35.693 16.667,35.215 16.277,34.307 15.458 C 34.027 15.206,33.739 15.000,33.668 15.000 C 33.596 15.000,33.209 14.677,32.809 14.282 C 32.408 13.887,31.837 13.456,31.540 13.324 C 31.243 13.193,31.000 13.023,31.000 12.947 C 31.000 12.792,30.574 12.333,30.430 12.333 C 30.340 12.333,29.694 11.813,29.240 11.375 C 29.121 11.260,28.976 11.167,28.917 11.167 C 28.859 11.167,28.563 10.904,28.261 10.583 C 27.958 10.262,27.629 10.000,27.528 10.000 C 27.428 10.000,26.999 9.662,26.574 9.250 C 26.150 8.838,25.660 8.500,25.485 8.500 C 25.310 8.500,25.167 8.420,25.167 8.321 C 25.167 8.139,24.760 7.667,24.603 7.667 C 24.555 7.667,24.261 7.404,23.950 7.083 C 23.638 6.763,23.309 6.500,23.218 6.500 C 23.127 6.500,22.696 6.162,22.259 5.750 C 21.822 5.337,21.406 5.000,21.333 5.000 C 21.261 5.000,20.846 4.664,20.412 4.254 C 19.978 3.844,19.483 3.464,19.311 3.410 C 19.140 3.355,19.000 3.241,19.000 3.155 C 19.000 3.070,18.900 3.000,18.778 3.000 C 18.656 3.000,18.456 2.813,18.333 2.583 C 18.211 2.354,18.011 2.167,17.889 2.167 C 17.766 2.167,17.667 2.092,17.667 2.000 C 17.667 1.723,1.325 1.787,0.958 2.065 M108.405 2.933 C 107.861 3.539,107.392 4.139,107.363 4.267 C 107.333 4.395,107.202 4.500,107.071 4.500 C 106.940 4.500,106.833 4.654,106.833 4.843 C 106.833 5.032,106.758 5.140,106.667 5.083 C 106.514 4.989,106.426 5.217,106.484 5.554 C 106.498 5.630,106.436 5.647,106.349 5.593 C 106.261 5.539,106.055 5.720,105.892 5.997 C 105.728 6.274,105.536 6.500,105.464 6.500 C 105.392 6.500,105.333 6.616,105.333 6.757 C 105.333 6.899,105.146 7.217,104.917 7.464 C 104.688 7.711,104.500 8.019,104.500 8.149 C 104.500 8.279,104.313 8.631,104.083 8.931 C 103.854 9.232,103.667 9.595,103.667 9.739 C 103.667 9.882,103.592 10.000,103.500 10.000 C 103.408 10.000,103.333 10.181,103.333 10.403 C 103.333 10.624,103.276 10.831,103.207 10.861 C 102.971 10.965,102.167 12.695,102.167 13.099 C 102.167 13.319,102.092 13.500,102.000 13.500 C 101.908 13.500,101.833 13.678,101.833 13.896 C 101.833 14.114,101.721 14.386,101.583 14.500 C 101.446 14.614,101.333 14.881,101.333 15.094 C 101.333 15.306,101.258 15.527,101.167 15.583 C 101.075 15.640,101.000 15.940,101.000 16.250 C 101.000 16.560,100.925 16.860,100.833 16.917 C 100.742 16.973,100.667 17.309,100.667 17.663 C 100.667 18.016,100.580 18.334,100.474 18.370 C 100.292 18.431,100.089 19.346,99.891 21.000 C 99.841 21.412,99.733 21.821,99.651 21.908 C 99.568 21.995,99.500 22.562,99.500 23.167 C 99.500 23.825,99.416 24.350,99.292 24.474 C 99.168 24.597,99.049 25.327,99.000 26.269 L 98.917 27.855 94.417 27.840 C 91.942 27.831,89.673 27.873,89.375 27.933 L 88.833 28.042 88.833 33.238 C 88.833 37.056,88.886 38.486,89.033 38.633 C 89.180 38.780,90.541 38.833,94.117 38.833 L 99.000 38.833 99.001 40.208 C 99.002 41.102,99.089 41.750,99.251 42.061 C 99.396 42.339,99.500 42.982,99.500 43.602 C 99.500 44.201,99.573 44.667,99.667 44.667 C 99.758 44.667,99.833 45.037,99.833 45.490 C 99.833 45.943,99.908 46.360,100.000 46.417 C 100.092 46.473,100.167 46.807,100.167 47.159 C 100.167 47.573,100.255 47.831,100.417 47.894 C 100.593 47.961,100.667 48.236,100.667 48.828 C 100.667 49.289,100.742 49.667,100.833 49.667 C 100.925 49.667,101.000 49.929,101.000 50.250 C 101.000 50.571,101.075 50.833,101.167 50.833 C 101.258 50.833,101.333 51.049,101.333 51.313 C 101.333 51.577,101.446 51.886,101.583 52.000 C 101.721 52.114,101.833 52.381,101.833 52.594 C 101.833 52.806,101.908 53.027,102.000 53.083 C 102.092 53.140,102.167 53.369,102.167 53.593 C 102.167 53.817,102.242 54.000,102.333 54.000 C 102.425 54.000,102.500 54.120,102.500 54.266 C 102.500 54.560,103.011 55.551,103.208 55.639 C 103.277 55.669,103.333 55.787,103.333 55.901 C 103.333 56.193,103.918 57.360,104.016 57.262 C 104.060 57.217,104.109 57.345,104.124 57.546 C 104.139 57.747,104.230 57.938,104.326 57.970 C 104.422 58.002,104.500 58.138,104.500 58.274 C 104.500 58.409,104.574 58.474,104.665 58.418 C 104.755 58.362,104.790 58.418,104.742 58.544 C 104.694 58.669,104.808 58.909,104.994 59.078 C 105.181 59.247,105.333 59.467,105.334 59.567 C 105.334 59.824,106.083 60.667,106.311 60.667 C 106.415 60.667,106.500 60.746,106.500 60.843 C 106.500 60.940,106.406 60.963,106.292 60.895 C 106.034 60.740,106.433 61.274,106.957 61.784 C 107.164 61.986,107.333 62.229,107.333 62.325 C 107.333 62.421,107.408 62.500,107.500 62.500 C 107.592 62.500,107.667 62.578,107.667 62.674 C 107.667 62.770,108.073 63.257,108.569 63.757 L 109.471 64.667 140.259 64.667 L 171.047 64.667 171.524 64.168 C 171.786 63.894,172.000 63.519,172.000 63.335 C 172.000 63.151,172.099 63.000,172.220 63.000 C 172.465 63.000,173.167 62.257,173.167 61.999 C 173.167 61.908,173.252 61.833,173.357 61.833 C 173.600 61.833,173.988 61.325,173.995 60.998 C 173.998 60.859,174.188 60.605,174.417 60.433 C 174.646 60.261,174.833 60.015,174.833 59.886 C 174.833 59.757,175.021 59.464,175.250 59.235 C 175.479 59.006,175.667 58.709,175.667 58.576 C 175.667 58.442,175.723 58.333,175.792 58.332 C 175.939 58.330,176.333 57.525,176.333 57.225 C 176.333 57.111,176.521 56.815,176.750 56.568 C 176.979 56.320,177.167 55.979,177.167 55.809 C 177.167 55.639,177.242 55.500,177.333 55.500 C 177.425 55.500,177.500 55.275,177.500 55.000 C 177.500 54.725,177.561 54.500,177.635 54.500 C 177.803 54.500,178.333 53.318,178.333 52.944 C 178.333 52.791,178.408 52.667,178.500 52.667 C 178.592 52.667,178.667 52.442,178.667 52.167 C 178.667 51.892,178.741 51.667,178.831 51.667 C 178.922 51.667,179.044 51.365,179.103 50.996 C 179.162 50.628,179.276 50.286,179.355 50.236 C 179.435 50.187,179.500 49.893,179.500 49.583 C 179.500 49.273,179.575 48.973,179.667 48.917 C 179.758 48.860,179.833 48.588,179.833 48.313 C 179.833 48.037,179.922 47.648,180.031 47.447 C 180.275 46.997,180.504 45.887,180.613 44.625 C 180.659 44.098,180.765 43.667,180.848 43.667 C 180.932 43.667,181.000 43.110,181.000 42.431 C 181.000 41.613,181.068 41.172,181.201 41.127 C 181.423 41.053,181.602 38.924,181.440 38.294 C 181.342 37.915,180.512 37.333,180.070 37.333 C 179.940 37.333,179.833 37.258,179.833 37.167 C 179.833 37.075,179.681 37.000,179.495 37.000 C 179.309 37.000,179.113 36.888,179.060 36.750 C 179.008 36.613,178.822 36.500,178.649 36.500 C 178.475 36.500,178.333 36.425,178.333 36.333 C 178.333 36.242,178.221 36.167,178.083 36.167 C 177.946 36.167,177.833 36.092,177.833 36.000 C 177.833 35.908,177.683 35.833,177.500 35.833 C 177.182 35.833,177.167 35.722,177.167 33.337 L 177.167 30.842 177.917 30.500 C 178.329 30.312,178.667 30.085,178.667 29.996 C 178.667 29.906,178.854 29.833,179.083 29.833 C 179.313 29.833,179.500 29.758,179.500 29.667 C 179.500 29.575,179.650 29.500,179.833 29.500 C 180.017 29.500,180.167 29.433,180.167 29.351 C 180.167 29.270,180.354 29.156,180.583 29.098 C 180.813 29.041,181.000 28.920,181.000 28.830 C 181.000 28.740,181.112 28.667,181.250 28.667 C 181.603 28.667,181.608 26.206,181.255 25.740 C 181.095 25.529,181.009 25.010,181.005 24.242 C 181.002 23.595,180.932 22.995,180.848 22.908 C 180.764 22.821,180.659 22.337,180.613 21.833 C 180.488 20.442,180.194 19.093,180.004 19.029 C 179.910 18.998,179.833 18.693,179.833 18.353 C 179.833 18.012,179.764 17.662,179.679 17.575 C 179.594 17.488,179.493 17.192,179.455 16.917 C 179.417 16.642,179.343 16.304,179.290 16.167 C 179.238 16.029,179.149 15.707,179.092 15.452 C 179.036 15.196,178.933 15.022,178.863 15.065 C 178.793 15.108,178.718 14.906,178.696 14.616 C 178.674 14.326,178.583 14.016,178.494 13.928 C 178.406 13.839,178.333 13.632,178.333 13.467 C 178.333 13.302,178.246 13.167,178.139 13.167 C 178.032 13.167,177.988 13.123,178.042 13.069 C 178.177 12.934,177.835 12.000,177.650 12.000 C 177.568 12.000,177.500 11.817,177.500 11.593 C 177.500 11.369,177.425 11.140,177.333 11.083 C 177.242 11.027,177.167 10.835,177.167 10.657 C 177.167 10.479,177.092 10.333,177.000 10.333 C 176.908 10.333,176.833 10.218,176.833 10.078 C 176.833 9.938,176.721 9.780,176.583 9.727 C 176.446 9.674,176.333 9.452,176.333 9.232 C 176.333 9.013,176.258 8.833,176.167 8.833 C 176.075 8.833,176.000 8.727,176.000 8.597 C 176.000 8.299,175.459 7.336,175.292 7.334 C 175.223 7.334,175.167 7.221,175.167 7.083 C 175.167 6.946,175.092 6.833,175.000 6.833 C 174.908 6.833,174.833 6.723,174.833 6.589 C 174.833 6.439,174.736 6.381,174.583 6.440 C 174.401 6.510,174.333 6.419,174.333 6.101 C 174.333 5.862,174.258 5.667,174.167 5.667 C 174.075 5.667,174.000 5.573,173.999 5.458 C 173.999 5.344,173.661 4.878,173.249 4.424 C 172.837 3.969,172.500 3.538,172.500 3.465 C 172.500 3.393,172.420 3.333,172.321 3.333 C 172.096 3.333,171.828 3.043,171.469 2.412 L 171.188 1.917 140.290 1.875 L 109.393 1.832 108.405 2.933 M202.596 2.125 C 202.466 2.529,201.752 3.333,201.522 3.333 C 201.418 3.333,201.333 3.400,201.333 3.481 C 201.333 3.563,200.992 3.975,200.576 4.398 C 200.159 4.821,199.894 5.167,199.987 5.167 C 200.080 5.167,199.896 5.427,199.578 5.744 C 199.260 6.062,199.000 6.400,199.000 6.494 C 199.000 6.589,198.925 6.667,198.833 6.667 C 198.742 6.667,198.667 6.765,198.667 6.885 C 198.667 7.005,198.521 7.260,198.343 7.451 C 198.166 7.642,198.066 7.843,198.121 7.899 C 198.177 7.955,198.135 8.000,198.028 8.000 C 197.921 8.000,197.833 8.112,197.833 8.250 C 197.833 8.387,197.758 8.500,197.667 8.500 C 197.575 8.500,197.498 8.631,197.495 8.792 C 197.492 8.952,197.382 9.226,197.250 9.400 C 197.118 9.573,197.050 9.780,197.099 9.858 C 197.147 9.936,197.088 10.001,196.968 10.003 C 196.729 10.006,195.997 11.429,195.956 11.970 C 195.942 12.157,195.853 12.297,195.757 12.280 C 195.662 12.264,195.560 12.456,195.531 12.708 C 195.502 12.960,195.408 13.167,195.322 13.167 C 195.237 13.167,195.167 13.350,195.167 13.573 C 195.167 13.797,195.092 14.027,195.000 14.083 C 194.908 14.140,194.833 14.399,194.833 14.659 C 194.833 14.925,194.724 15.173,194.583 15.227 C 194.437 15.283,194.333 15.533,194.333 15.828 C 194.333 16.106,194.258 16.333,194.167 16.333 C 194.075 16.333,194.000 16.581,194.000 16.883 C 194.000 17.186,193.926 17.508,193.835 17.599 C 193.647 17.786,193.343 19.052,193.218 20.167 C 193.172 20.579,193.067 20.988,192.984 21.075 C 192.901 21.162,192.833 21.625,192.833 22.103 C 192.833 22.581,192.754 22.999,192.656 23.031 C 191.917 23.278,191.907 42.641,192.646 43.379 C 192.749 43.482,192.833 43.960,192.833 44.440 C 192.833 44.921,192.908 45.360,193.000 45.417 C 193.092 45.473,193.167 45.886,193.167 46.333 C 193.167 46.781,193.242 47.193,193.333 47.250 C 193.425 47.307,193.500 47.555,193.501 47.802 C 193.502 48.048,193.614 48.465,193.751 48.727 C 193.888 48.990,194.000 49.421,194.000 49.686 C 194.000 49.950,194.075 50.167,194.167 50.167 C 194.258 50.167,194.333 50.311,194.333 50.486 C 194.333 50.958,194.514 51.345,194.684 51.239 C 194.766 51.188,194.833 51.451,194.833 51.823 C 194.833 52.196,194.908 52.500,195.000 52.500 C 195.092 52.500,195.167 52.688,195.167 52.917 C 195.167 53.146,195.242 53.333,195.333 53.333 C 195.425 53.333,195.500 53.561,195.500 53.839 C 195.500 54.134,195.604 54.384,195.750 54.440 C 195.887 54.492,196.000 54.678,196.000 54.851 C 196.000 55.025,196.067 55.167,196.148 55.167 C 196.230 55.167,196.399 55.514,196.523 55.938 C 196.648 56.362,196.844 56.745,196.958 56.789 C 197.073 56.833,197.167 57.011,197.167 57.184 C 197.167 57.358,197.242 57.500,197.333 57.500 C 197.425 57.500,197.500 57.612,197.500 57.750 C 197.500 57.887,197.575 58.000,197.667 58.000 C 197.758 58.000,197.833 58.150,197.833 58.333 C 197.833 58.517,197.904 58.667,197.990 58.667 C 198.076 58.667,198.350 59.042,198.599 59.500 C 198.849 59.958,199.121 60.333,199.205 60.333 C 199.452 60.333,199.833 60.788,199.833 61.083 C 199.833 61.393,200.218 61.833,200.488 61.833 C 200.586 61.833,200.667 61.929,200.667 62.047 C 200.667 62.164,200.817 62.368,201.000 62.500 C 201.183 62.632,201.333 62.834,201.333 62.948 C 201.333 63.065,201.443 63.114,201.583 63.060 C 201.763 62.991,201.833 63.078,201.833 63.371 C 201.833 63.634,201.980 63.856,202.250 64.000 C 202.479 64.123,202.667 64.323,202.667 64.445 C 202.667 64.629,207.971 64.667,233.667 64.667 C 254.564 64.667,264.667 64.611,264.667 64.497 C 264.667 64.404,265.004 64.004,265.417 63.609 C 265.829 63.214,266.167 62.840,266.167 62.779 C 266.167 62.717,266.298 62.528,266.458 62.358 C 266.898 61.894,267.278 61.408,267.610 60.886 C 267.774 60.628,268.041 60.295,268.204 60.147 C 268.367 59.999,268.501 59.774,268.503 59.647 C 268.504 59.520,268.692 59.240,268.920 59.024 C 269.147 58.808,269.333 58.496,269.333 58.330 C 269.333 58.164,269.412 58.002,269.507 57.970 C 269.603 57.938,269.694 57.749,269.709 57.551 C 269.724 57.352,269.789 57.223,269.855 57.263 C 270.008 57.358,270.500 56.376,270.500 55.974 C 270.500 55.805,270.566 55.667,270.647 55.667 C 270.728 55.667,270.839 55.535,270.892 55.375 C 270.946 55.215,271.056 54.971,271.136 54.833 C 271.524 54.166,271.667 53.810,271.667 53.502 C 271.667 53.318,271.742 53.167,271.833 53.167 C 271.925 53.167,272.000 52.942,272.000 52.667 C 272.000 52.392,272.075 52.167,272.167 52.167 C 272.258 52.167,272.333 52.087,272.333 51.990 C 272.333 51.893,272.240 51.861,272.125 51.919 C 272.010 51.977,272.048 51.917,272.208 51.786 C 272.369 51.654,272.500 51.428,272.500 51.283 C 272.500 51.138,272.575 50.973,272.667 50.917 C 272.758 50.860,272.833 50.598,272.833 50.333 C 272.833 50.069,272.908 49.807,273.000 49.750 C 273.092 49.693,273.167 49.361,273.167 49.011 C 273.167 48.648,273.274 48.285,273.417 48.167 C 273.559 48.049,273.667 47.685,273.667 47.323 C 273.667 46.973,273.742 46.640,273.833 46.583 C 273.925 46.527,274.000 46.072,274.000 45.573 C 274.000 45.075,274.075 44.667,274.167 44.667 C 274.260 44.667,274.333 44.201,274.333 43.604 C 274.333 42.891,274.411 42.476,274.569 42.345 C 274.974 42.009,275.390 28.000,274.995 28.000 C 274.900 28.000,274.833 27.247,274.833 26.179 C 274.833 24.782,274.775 24.299,274.583 24.107 C 274.417 23.940,274.333 23.524,274.333 22.855 C 274.333 22.304,274.258 21.807,274.167 21.750 C 274.075 21.693,274.000 21.239,274.000 20.740 C 274.000 20.241,273.925 19.833,273.833 19.833 C 273.742 19.833,273.667 19.493,273.667 19.078 C 273.667 18.561,273.588 18.293,273.417 18.227 C 273.255 18.165,273.167 17.906,273.167 17.492 C 273.167 17.141,273.092 16.807,273.000 16.750 C 272.908 16.693,272.833 16.389,272.833 16.073 C 272.833 15.758,272.758 15.500,272.667 15.500 C 272.575 15.500,272.500 15.356,272.500 15.180 C 272.500 14.709,272.320 14.322,272.149 14.427 C 272.067 14.478,272.000 14.290,272.000 14.010 C 272.000 13.729,271.941 13.500,271.870 13.500 C 271.798 13.500,271.723 13.297,271.702 13.049 C 271.682 12.801,271.590 12.523,271.499 12.432 C 271.408 12.341,271.333 12.129,271.333 11.961 C 271.333 11.794,271.221 11.613,271.083 11.560 C 270.946 11.508,270.833 11.322,270.833 11.149 C 270.833 10.975,270.758 10.833,270.667 10.833 C 270.575 10.833,270.500 10.646,270.500 10.417 C 270.500 10.188,270.425 10.000,270.333 10.000 C 270.242 10.000,270.167 9.848,270.167 9.661 C 270.167 9.475,270.054 9.280,269.917 9.227 C 269.779 9.174,269.667 8.989,269.667 8.816 C 269.667 8.642,269.592 8.500,269.500 8.500 C 269.408 8.500,269.333 8.346,269.333 8.157 C 269.333 7.968,269.258 7.860,269.167 7.917 C 269.075 7.973,269.000 7.899,269.000 7.752 C 269.000 7.605,268.813 7.310,268.583 7.098 C 268.354 6.886,268.167 6.597,268.167 6.456 C 268.167 6.316,267.907 5.974,267.591 5.695 C 267.237 5.385,267.092 5.158,267.216 5.108 C 267.368 5.046,267.366 5.023,267.208 5.013 C 267.094 5.006,267.000 4.920,267.000 4.821 C 267.000 4.591,266.576 4.167,266.345 4.167 C 266.247 4.167,266.166 4.073,266.166 3.958 C 266.166 3.844,265.828 3.378,265.416 2.924 C 265.004 2.469,264.667 2.038,264.667 1.965 C 264.667 1.652,202.696 1.812,202.596 2.125 M279.500 2.221 C 279.500 2.588,280.110 3.333,280.411 3.333 C 280.487 3.333,280.805 3.596,281.116 3.917 C 281.428 4.238,281.754 4.500,281.841 4.500 C 281.929 4.500,282.000 4.575,282.000 4.667 C 282.000 4.758,282.079 4.833,282.175 4.833 C 282.271 4.833,282.523 5.021,282.735 5.250 C 282.948 5.479,283.189 5.667,283.271 5.667 C 283.354 5.667,283.562 5.854,283.734 6.083 C 283.906 6.313,284.140 6.500,284.255 6.500 C 284.369 6.500,284.791 6.823,285.191 7.218 C 285.592 7.613,286.163 8.044,286.460 8.176 C 286.757 8.307,287.000 8.477,287.000 8.553 C 287.000 8.708,287.426 9.167,287.570 9.167 C 287.660 9.167,288.306 9.687,288.760 10.125 C 288.879 10.240,289.024 10.333,289.083 10.333 C 289.141 10.333,289.437 10.596,289.739 10.917 C 290.042 11.237,290.371 11.500,290.472 11.500 C 290.572 11.500,291.001 11.838,291.426 12.250 C 291.850 12.663,292.340 13.000,292.515 13.000 C 292.690 13.000,292.833 13.081,292.833 13.180 C 292.833 13.398,294.095 14.566,294.655 14.866 C 294.878 14.986,295.298 15.327,295.589 15.625 C 295.879 15.923,296.169 16.167,296.232 16.167 C 296.351 16.167,296.500 16.282,297.311 17.000 C 297.570 17.229,297.989 17.567,298.243 17.750 C 298.496 17.933,298.802 18.177,298.923 18.292 C 299.044 18.406,299.182 18.500,299.230 18.500 C 299.278 18.500,299.572 18.762,299.884 19.083 C 300.195 19.404,300.574 19.667,300.725 19.667 C 300.876 19.667,301.000 19.779,301.000 19.917 C 301.000 20.054,301.060 20.167,301.134 20.167 C 301.208 20.167,301.555 20.429,301.905 20.750 C 302.255 21.071,302.609 21.333,302.690 21.333 C 302.772 21.333,303.186 21.671,303.610 22.083 C 304.034 22.496,304.483 22.833,304.608 22.833 C 304.732 22.833,304.833 22.908,304.833 23.000 C 304.833 23.092,304.946 23.167,305.083 23.167 C 305.221 23.167,305.333 23.247,305.333 23.345 C 305.333 23.537,305.743 24.000,305.912 24.000 C 305.969 24.000,306.203 24.187,306.432 24.417 C 306.661 24.646,306.920 24.833,307.007 24.833 C 307.094 24.833,307.507 25.171,307.926 25.583 C 308.344 25.996,308.758 26.333,308.846 26.333 C 308.934 26.333,309.261 26.596,309.572 26.917 C 309.884 27.238,310.186 27.500,310.243 27.500 C 310.358 27.500,310.644 27.724,311.250 28.292 C 311.471 28.498,311.691 28.667,311.739 28.667 C 311.788 28.667,312.098 28.929,312.428 29.250 C 312.758 29.571,313.094 29.833,313.173 29.833 C 313.252 29.833,313.572 30.096,313.884 30.417 C 314.195 30.737,314.521 31.000,314.607 31.000 C 314.693 31.000,315.042 31.262,315.382 31.583 C 315.722 31.904,316.076 32.167,316.167 32.167 C 316.259 32.167,316.333 32.237,316.333 32.324 C 316.333 32.410,316.558 32.614,316.833 32.777 C 317.108 32.939,317.333 33.112,317.333 33.161 C 317.333 33.360,316.530 34.167,316.332 34.167 C 316.215 34.167,315.912 34.373,315.659 34.625 C 314.794 35.486,314.370 35.833,314.185 35.833 C 314.083 35.833,314.000 35.908,314.000 36.000 C 314.000 36.092,313.920 36.167,313.821 36.167 C 313.591 36.167,313.167 36.591,313.167 36.821 C 313.167 36.920,313.054 37.000,312.917 37.000 C 312.779 37.000,312.667 37.070,312.667 37.155 C 312.667 37.241,312.535 37.353,312.375 37.404 C 312.215 37.455,311.779 37.784,311.406 38.135 C 311.034 38.486,310.603 38.822,310.448 38.882 C 310.293 38.941,310.167 39.067,310.167 39.161 C 310.167 39.256,310.054 39.333,309.917 39.333 C 309.779 39.333,309.667 39.396,309.667 39.472 C 309.667 39.548,309.479 39.711,309.250 39.833 C 309.021 39.956,308.833 40.156,308.833 40.278 C 308.833 40.400,308.683 40.500,308.500 40.500 C 308.317 40.500,308.167 40.562,308.167 40.639 C 308.167 40.715,307.979 40.877,307.750 41.000 C 307.521 41.123,307.333 41.323,307.333 41.445 C 307.333 41.567,307.255 41.667,307.159 41.667 C 307.063 41.667,306.797 41.854,306.568 42.083 C 306.339 42.313,306.088 42.500,306.010 42.500 C 305.932 42.500,305.511 42.837,305.074 43.250 C 304.638 43.662,304.208 44.000,304.121 44.000 C 304.033 44.000,303.672 44.288,303.320 44.641 C 302.967 44.994,302.414 45.462,302.090 45.683 C 301.767 45.903,301.502 46.140,301.501 46.208 C 301.501 46.277,301.420 46.333,301.321 46.333 C 301.111 46.333,300.667 46.750,300.667 46.947 C 300.667 47.023,300.424 47.193,300.127 47.324 C 299.830 47.456,299.259 47.887,298.858 48.282 C 298.457 48.677,298.036 49.000,297.921 49.000 C 297.807 49.000,297.573 49.188,297.400 49.417 C 297.228 49.646,297.031 49.833,296.962 49.833 C 296.845 49.833,296.247 50.303,295.740 50.792 C 295.621 50.906,295.476 51.000,295.417 51.000 C 295.244 51.000,294.833 51.461,294.833 51.655 C 294.833 51.753,294.721 51.833,294.583 51.833 C 294.446 51.833,294.333 51.908,294.333 52.000 C 294.333 52.092,294.231 52.167,294.106 52.167 C 293.982 52.167,293.517 52.504,293.074 52.917 C 292.631 53.329,292.212 53.667,292.142 53.667 C 292.072 53.667,291.828 53.854,291.598 54.083 C 291.369 54.313,291.116 54.500,291.036 54.500 C 290.955 54.500,290.798 54.671,290.686 54.880 C 290.575 55.089,290.275 55.352,290.020 55.464 C 289.765 55.577,289.205 56.006,288.775 56.418 C 288.346 56.830,287.923 57.167,287.836 57.167 C 287.749 57.167,287.290 57.542,286.817 58.000 C 286.344 58.458,285.897 58.833,285.824 58.833 C 285.750 58.833,285.412 59.096,285.072 59.417 C 284.732 59.737,284.423 60.000,284.386 60.000 C 284.349 60.000,284.117 60.188,283.869 60.417 C 283.622 60.646,283.360 60.833,283.286 60.833 C 283.090 60.833,282.333 61.621,282.333 61.826 C 282.333 61.922,282.183 62.000,282.000 62.000 C 281.817 62.000,281.667 62.075,281.667 62.167 C 281.667 62.258,281.582 62.333,281.478 62.333 C 281.374 62.333,281.042 62.596,280.739 62.917 C 280.437 63.237,280.073 63.500,279.931 63.500 C 279.652 63.500,279.400 64.204,279.577 64.491 C 279.770 64.803,297.000 64.730,297.000 64.417 C 297.000 64.279,297.075 64.167,297.166 64.167 C 297.258 64.167,297.611 63.904,297.951 63.583 C 298.291 63.262,298.636 63.000,298.716 63.000 C 298.797 63.000,299.191 62.662,299.592 62.250 C 299.993 61.837,300.424 61.500,300.550 61.500 C 300.675 61.500,300.968 61.294,301.200 61.042 C 301.659 60.543,301.906 60.332,302.917 59.584 C 303.283 59.312,303.822 58.845,304.114 58.545 C 304.406 58.245,304.721 58.000,304.815 58.000 C 304.910 58.000,305.275 57.719,305.627 57.375 C 305.979 57.031,306.544 56.563,306.882 56.333 C 307.221 56.104,307.498 55.860,307.499 55.792 C 307.499 55.723,307.600 55.667,307.722 55.667 C 307.844 55.667,308.044 55.479,308.167 55.250 C 308.289 55.021,308.489 54.833,308.611 54.833 C 308.734 54.833,308.833 54.758,308.833 54.667 C 308.833 54.575,308.930 54.500,309.048 54.500 C 309.166 54.500,309.652 54.144,310.129 53.708 C 311.276 52.659,311.468 52.500,311.584 52.500 C 311.638 52.500,312.025 52.163,312.443 51.750 C 312.862 51.337,313.267 51.000,313.344 51.000 C 313.422 51.000,313.672 50.813,313.902 50.583 C 314.131 50.354,314.364 50.167,314.421 50.167 C 314.572 50.167,315.000 49.713,315.000 49.553 C 315.000 49.477,315.235 49.311,315.521 49.184 C 315.808 49.057,316.409 48.589,316.857 48.143 C 317.305 47.698,317.726 47.333,317.794 47.333 C 317.861 47.333,318.179 47.108,318.500 46.833 C 318.821 46.559,319.140 46.334,319.208 46.334 C 319.277 46.334,319.333 46.221,319.333 46.083 C 319.333 45.946,319.439 45.833,319.569 45.833 C 319.699 45.833,320.075 45.571,320.405 45.250 C 320.736 44.929,321.042 44.667,321.085 44.667 C 321.163 44.667,321.836 44.118,322.260 43.708 C 322.379 43.594,322.520 43.500,322.574 43.500 C 322.628 43.500,323.019 43.163,323.443 42.750 C 323.868 42.337,324.296 42.000,324.394 42.000 C 324.492 42.000,324.725 41.828,324.911 41.617 C 326.051 40.329,326.434 40.330,327.789 41.625 C 328.197 42.015,328.674 42.333,328.849 42.333 C 329.024 42.333,329.167 42.428,329.167 42.544 C 329.167 42.660,329.368 42.903,329.615 43.085 C 329.861 43.268,330.277 43.623,330.537 43.875 C 330.798 44.127,331.081 44.333,331.166 44.333 C 331.251 44.333,331.668 44.671,332.092 45.083 C 332.517 45.496,333.007 45.833,333.182 45.833 C 333.357 45.833,333.500 45.912,333.500 46.008 C 333.500 46.191,334.247 47.000,334.416 47.000 C 334.470 47.000,334.717 47.187,334.964 47.417 C 335.211 47.646,335.472 47.833,335.543 47.833 C 335.614 47.833,335.996 48.171,336.391 48.583 C 336.786 48.996,337.199 49.333,337.308 49.333 C 337.417 49.333,337.761 49.596,338.072 49.917 C 338.384 50.238,338.682 50.500,338.735 50.500 C 338.827 50.500,339.469 51.016,339.927 51.458 C 340.046 51.573,340.223 51.667,340.321 51.667 C 340.420 51.667,340.500 51.779,340.500 51.917 C 340.500 52.054,340.556 52.167,340.625 52.167 C 340.694 52.167,340.968 52.354,341.234 52.584 C 341.501 52.813,341.763 53.002,341.818 53.005 C 341.872 53.007,342.292 53.344,342.750 53.753 C 343.208 54.162,343.640 54.498,343.708 54.498 C 343.777 54.499,344.120 54.781,344.471 55.125 C 345.088 55.730,345.472 56.047,346.440 56.750 C 346.692 56.933,347.098 57.290,347.342 57.542 C 347.586 57.794,347.877 58.000,347.988 58.000 C 348.224 58.000,348.667 58.408,348.667 58.627 C 348.667 58.709,348.854 58.877,349.083 59.000 C 349.313 59.123,349.500 59.285,349.500 59.361 C 349.500 59.438,349.650 59.500,349.833 59.500 C 350.019 59.500,350.167 59.611,350.167 59.750 C 350.167 59.887,350.245 60.000,350.341 60.000 C 350.437 60.000,350.693 60.169,350.911 60.375 C 351.867 61.280,352.142 61.500,352.315 61.500 C 352.417 61.500,352.500 61.575,352.500 61.667 C 352.500 61.758,352.613 61.833,352.750 61.833 C 352.887 61.833,353.000 61.933,353.000 62.055 C 353.000 62.177,353.188 62.377,353.417 62.500 C 353.646 62.623,353.833 62.785,353.833 62.861 C 353.833 62.938,353.983 63.000,354.167 63.000 C 354.352 63.000,354.500 63.111,354.500 63.250 C 354.500 63.387,354.567 63.500,354.650 63.500 C 354.732 63.500,355.063 63.763,355.385 64.085 L 355.970 64.670 364.527 64.627 L 373.083 64.583 373.135 64.139 C 373.173 63.811,373.097 63.667,372.843 63.586 C 372.654 63.527,372.500 63.408,372.500 63.322 C 372.500 63.237,372.417 63.167,372.316 63.167 C 372.214 63.167,371.984 62.979,371.804 62.750 C 371.623 62.521,371.363 62.333,371.226 62.333 C 370.959 62.333,370.501 61.948,370.498 61.720 C 370.495 61.557,369.411 60.833,369.169 60.833 C 369.076 60.833,369.000 60.721,369.000 60.583 C 369.000 60.446,368.915 60.333,368.811 60.333 C 368.707 60.333,368.501 60.198,368.353 60.033 C 368.205 59.868,367.787 59.512,367.425 59.241 C 367.063 58.971,366.567 58.563,366.322 58.333 C 365.685 57.736,365.178 57.333,365.063 57.333 C 365.008 57.333,364.803 57.185,364.607 57.004 C 363.794 56.254,363.076 55.672,362.958 55.669 C 362.890 55.668,362.546 55.385,362.196 55.042 C 361.580 54.438,361.197 54.122,360.227 53.417 C 359.975 53.233,359.654 52.952,359.514 52.792 C 359.374 52.631,359.163 52.500,359.046 52.500 C 358.929 52.500,358.833 52.425,358.833 52.333 C 358.833 52.242,358.763 52.167,358.676 52.167 C 358.590 52.167,358.177 51.829,357.759 51.417 C 357.340 51.004,356.922 50.667,356.829 50.667 C 356.737 50.667,356.406 50.404,356.094 50.083 C 355.783 49.763,355.455 49.500,355.365 49.500 C 355.276 49.500,355.159 49.388,355.106 49.250 C 355.054 49.113,354.896 49.000,354.755 49.000 C 354.615 49.000,354.500 48.938,354.500 48.861 C 354.500 48.785,354.313 48.623,354.083 48.500 C 353.854 48.377,353.667 48.189,353.667 48.081 C 353.667 47.974,353.329 47.712,352.917 47.500 C 352.504 47.288,352.167 47.014,352.167 46.890 C 352.167 46.767,352.110 46.667,352.042 46.666 C 351.934 46.666,351.586 46.405,350.715 45.670 C 350.605 45.576,350.467 45.500,350.409 45.500 C 350.351 45.500,349.976 45.163,349.575 44.750 C 349.174 44.337,348.693 44.000,348.506 44.000 C 348.319 44.000,348.167 43.922,348.167 43.826 C 348.167 43.640,347.418 42.833,347.246 42.833 C 347.189 42.833,347.038 42.740,346.911 42.625 C 346.429 42.193,346.178 42.000,346.099 42.000 C 346.054 42.000,345.660 41.663,345.223 41.250 C 344.786 40.838,344.369 40.500,344.295 40.500 C 344.221 40.500,343.906 40.238,343.594 39.917 C 343.283 39.596,342.979 39.333,342.919 39.333 C 342.859 39.333,342.711 39.240,342.590 39.125 C 342.469 39.010,342.161 38.767,341.906 38.583 C 341.651 38.400,341.324 38.132,341.179 37.988 C 341.035 37.844,340.654 37.544,340.333 37.322 C 340.012 37.100,339.513 36.675,339.222 36.376 C 338.932 36.078,338.621 35.833,338.532 35.833 C 338.442 35.833,338.326 35.721,338.273 35.583 C 338.220 35.446,338.079 35.333,337.959 35.333 C 337.839 35.333,337.632 35.183,337.500 35.000 C 337.368 34.817,337.164 34.667,337.047 34.667 C 336.929 34.667,336.833 34.581,336.833 34.477 C 336.833 34.227,336.322 33.845,335.978 33.839 C 335.589 33.831,335.440 33.130,335.786 32.937 C 335.937 32.852,336.269 32.569,336.525 32.308 C 336.780 32.047,337.034 31.833,337.090 31.833 C 337.145 31.833,337.295 31.740,337.423 31.625 C 337.929 31.171,338.157 31.000,338.257 31.000 C 338.314 31.000,338.616 30.737,338.928 30.417 C 339.239 30.096,339.560 29.833,339.640 29.833 C 339.720 29.833,340.132 29.496,340.557 29.083 C 340.981 28.671,341.386 28.332,341.456 28.331 C 341.526 28.329,341.816 28.123,342.100 27.872 C 342.384 27.622,342.816 27.268,343.059 27.085 C 343.301 26.903,343.500 26.660,343.500 26.544 C 343.500 26.428,343.631 26.331,343.792 26.328 C 344.152 26.321,344.667 25.946,344.667 25.690 C 344.667 25.585,344.745 25.500,344.841 25.500 C 344.937 25.500,345.196 25.331,345.416 25.125 C 346.024 24.556,346.308 24.333,346.424 24.333 C 346.482 24.333,346.858 23.996,347.259 23.583 C 347.660 23.171,348.084 22.831,348.202 22.828 C 348.453 22.822,349.000 22.433,349.000 22.261 C 349.000 22.079,349.454 21.667,349.655 21.667 C 349.753 21.667,349.833 21.592,349.833 21.500 C 349.833 21.408,349.948 21.333,350.089 21.333 C 350.229 21.333,350.387 21.221,350.440 21.083 C 350.492 20.946,350.609 20.833,350.698 20.833 C 350.788 20.833,351.116 20.571,351.428 20.250 C 351.739 19.929,352.060 19.667,352.141 19.667 C 352.222 19.667,352.724 19.254,353.257 18.750 C 353.791 18.246,354.277 17.833,354.338 17.833 C 354.399 17.833,354.600 17.702,354.786 17.542 C 354.971 17.381,355.356 17.071,355.641 16.853 C 355.926 16.635,356.129 16.406,356.091 16.346 C 356.054 16.285,356.167 16.225,356.342 16.212 C 356.518 16.199,357.041 15.808,357.505 15.344 C 357.969 14.880,358.411 14.500,358.487 14.500 C 358.563 14.500,358.977 14.162,359.408 13.750 C 359.838 13.337,360.224 13.000,360.264 13.000 C 360.436 13.000,361.496 12.238,361.498 12.113 C 361.501 11.890,361.957 11.500,362.215 11.500 C 362.346 11.500,362.594 11.312,362.766 11.083 C 362.938 10.854,363.143 10.667,363.220 10.667 C 363.298 10.667,363.616 10.404,363.928 10.083 C 364.239 9.762,364.577 9.500,364.679 9.500 C 364.780 9.500,365.191 9.162,365.592 8.750 C 365.993 8.337,366.396 8.000,366.488 8.000 C 366.580 8.000,366.902 7.778,367.203 7.506 C 367.895 6.881,368.353 6.504,368.930 6.083 C 369.182 5.900,369.672 5.469,370.020 5.125 C 370.369 4.781,370.716 4.500,370.792 4.500 C 370.868 4.500,371.209 4.237,371.549 3.917 C 371.889 3.596,372.242 3.333,372.334 3.333 C 372.425 3.333,372.500 3.263,372.500 3.178 C 372.500 3.092,372.650 2.975,372.833 2.917 C 373.237 2.788,373.287 2.082,372.903 1.934 C 372.758 1.879,368.876 1.833,364.276 1.833 L 355.913 1.833 355.415 2.413 C 355.141 2.732,354.857 2.994,354.784 2.996 C 354.711 2.998,354.471 3.169,354.250 3.375 C 353.644 3.942,353.358 4.167,353.243 4.167 C 353.186 4.167,352.888 4.425,352.582 4.740 C 352.276 5.055,351.720 5.506,351.346 5.742 C 350.972 5.978,350.667 6.245,350.667 6.335 C 350.667 6.426,350.588 6.500,350.492 6.500 C 350.397 6.500,350.131 6.687,349.902 6.917 C 349.672 7.146,349.432 7.333,349.367 7.334 C 349.160 7.334,348.333 8.115,348.333 8.311 C 348.333 8.415,348.221 8.500,348.083 8.500 C 347.946 8.500,347.833 8.575,347.833 8.667 C 347.833 8.758,347.727 8.833,347.596 8.833 C 347.466 8.833,347.022 9.171,346.610 9.583 C 346.197 9.996,345.787 10.333,345.698 10.333 C 345.609 10.333,345.492 10.446,345.440 10.583 C 345.387 10.721,345.229 10.833,345.089 10.833 C 344.948 10.833,344.833 10.908,344.833 11.000 C 344.833 11.092,344.753 11.167,344.655 11.167 C 344.444 11.167,344.000 11.583,344.000 11.781 C 344.000 11.857,343.784 12.014,343.521 12.131 C 343.257 12.248,342.788 12.585,342.479 12.880 C 342.169 13.175,341.616 13.637,341.250 13.905 C 340.883 14.174,340.336 14.643,340.034 14.947 C 339.731 15.251,339.413 15.500,339.325 15.500 C 339.238 15.500,339.167 15.575,339.167 15.667 C 339.167 15.758,339.029 15.833,338.861 15.833 C 338.694 15.833,338.456 16.021,338.333 16.250 C 338.211 16.479,338.011 16.667,337.889 16.667 C 337.766 16.667,337.666 16.723,337.666 16.792 C 337.665 16.860,337.393 17.101,337.062 17.327 C 336.731 17.553,336.236 17.946,335.962 18.202 C 335.689 18.458,335.401 18.667,335.323 18.667 C 335.245 18.667,334.759 19.079,334.243 19.583 C 333.726 20.088,333.208 20.500,333.092 20.500 C 332.975 20.500,332.739 20.688,332.567 20.917 C 332.395 21.146,332.192 21.333,332.115 21.333 C 331.917 21.333,331.500 21.777,331.500 21.988 C 331.500 22.086,331.364 22.167,331.197 22.167 C 331.030 22.167,330.457 22.579,329.924 23.083 C 329.391 23.587,328.898 24.000,328.828 24.000 C 328.715 24.000,328.429 24.239,327.237 25.329 C 326.552 25.956,326.115 25.921,325.365 25.178 C 324.988 24.805,324.634 24.500,324.578 24.500 C 324.522 24.500,324.372 24.406,324.244 24.292 C 323.760 23.857,323.511 23.667,323.430 23.667 C 323.384 23.667,322.999 23.329,322.574 22.917 C 322.150 22.504,321.733 22.167,321.648 22.167 C 321.564 22.167,321.239 21.904,320.928 21.583 C 320.616 21.262,320.314 21.000,320.257 21.000 C 320.130 21.000,319.848 20.770,319.005 19.978 C 318.651 19.646,318.130 19.271,317.847 19.146 C 317.565 19.021,317.333 18.857,317.333 18.781 C 317.333 18.625,316.907 18.167,316.762 18.167 C 316.710 18.167,316.389 17.904,316.049 17.583 C 315.709 17.262,315.365 17.000,315.285 17.000 C 315.205 17.000,314.884 16.737,314.572 16.417 C 314.261 16.096,313.930 15.833,313.836 15.833 C 313.743 15.833,313.667 15.758,313.667 15.667 C 313.667 15.575,313.572 15.500,313.457 15.500 C 313.341 15.500,313.023 15.239,312.748 14.920 C 312.474 14.601,312.188 14.339,312.113 14.337 C 312.038 14.335,311.872 14.240,311.744 14.125 C 311.252 13.684,311.011 13.500,310.924 13.500 C 310.874 13.500,310.533 13.200,310.167 12.833 C 309.800 12.467,309.431 12.167,309.347 12.167 C 309.262 12.167,308.890 11.867,308.520 11.500 C 308.149 11.133,307.784 10.833,307.708 10.833 C 307.632 10.833,307.291 10.571,306.951 10.250 C 306.611 9.929,306.276 9.667,306.206 9.667 C 306.137 9.667,305.989 9.521,305.878 9.343 C 305.767 9.166,305.412 8.895,305.088 8.741 C 304.765 8.588,304.500 8.358,304.500 8.231 C 304.500 8.104,304.443 8.000,304.373 8.000 C 304.303 8.000,303.947 7.739,303.582 7.420 C 303.216 7.101,302.855 6.838,302.780 6.837 C 302.706 6.835,302.397 6.571,302.094 6.250 C 301.792 5.929,301.470 5.667,301.380 5.667 C 301.289 5.667,300.868 5.329,300.443 4.917 C 300.019 4.504,299.628 4.167,299.574 4.167 C 299.520 4.167,299.372 4.073,299.244 3.958 C 298.736 3.503,298.509 3.333,298.409 3.333 C 298.351 3.333,297.976 2.996,297.575 2.583 L 296.846 1.833 288.437 1.833 C 281.866 1.833,280.009 1.879,279.944 2.042 C 279.876 2.208,279.857 2.208,279.846 2.042 C 279.822 1.660,279.500 1.827,279.500 2.221 M380.164 2.402 C 379.361 3.206,380.172 4.167,381.656 4.167 L 382.667 4.167 382.667 7.580 L 382.667 10.994 383.063 11.093 C 383.281 11.148,383.675 11.168,383.938 11.138 L 384.417 11.083 384.462 7.625 L 384.507 4.167 385.587 4.167 C 387.102 4.167,387.889 3.246,387.071 2.429 C 386.778 2.135,386.333 2.078,386.333 2.333 C 386.333 2.438,385.333 2.500,383.667 2.500 C 382.118 2.500,381.000 2.434,381.000 2.344 C 381.000 2.143,380.380 2.187,380.164 2.402 M387.738 2.388 C 387.696 2.498,387.681 4.500,387.705 6.836 L 387.750 11.083 388.326 11.138 C 389.205 11.222,389.333 10.914,389.333 8.718 C 389.333 7.573,389.399 6.833,389.500 6.833 C 389.592 6.833,389.667 7.054,389.667 7.323 C 389.667 7.593,389.733 7.855,389.814 7.905 C 389.896 7.955,390.012 8.260,390.072 8.581 C 390.132 8.903,390.253 9.167,390.341 9.167 C 390.428 9.167,390.500 9.350,390.500 9.573 C 390.500 9.797,390.575 10.027,390.667 10.083 C 390.758 10.140,390.833 10.329,390.833 10.504 C 390.833 10.679,390.978 10.899,391.156 10.994 C 391.630 11.248,392.333 11.210,392.333 10.931 C 392.333 10.801,392.390 10.669,392.458 10.639 C 392.650 10.554,393.167 9.362,393.167 9.004 C 393.167 8.829,393.242 8.640,393.333 8.583 C 393.425 8.527,393.500 8.292,393.500 8.062 C 393.500 7.831,393.613 7.530,393.750 7.393 C 393.887 7.255,394.000 6.965,394.000 6.748 C 394.000 6.531,394.056 6.318,394.125 6.275 C 394.194 6.233,394.227 7.044,394.199 8.079 C 394.127 10.700,394.241 11.069,395.139 11.135 L 395.843 11.186 395.828 6.653 C 395.817 3.261,395.765 2.168,395.623 2.310 C 395.375 2.559,394.913 2.551,394.487 2.292 C 394.098 2.055,393.500 2.590,393.500 3.175 C 393.500 3.343,393.433 3.522,393.352 3.572 C 393.270 3.622,393.161 3.908,393.110 4.207 C 392.878 5.548,392.773 5.938,392.560 6.245 C 392.436 6.426,392.333 6.741,392.333 6.944 C 392.333 7.147,392.258 7.360,392.167 7.417 C 392.075 7.473,392.000 7.698,392.000 7.917 C 392.000 8.647,391.705 8.506,391.588 7.720 C 391.505 7.169,391.428 7.012,391.321 7.180 C 391.217 7.345,391.171 7.232,391.169 6.806 C 391.168 6.469,391.099 6.169,391.016 6.139 C 390.933 6.108,390.842 5.858,390.814 5.583 C 390.786 5.308,390.712 5.008,390.651 4.917 C 390.589 4.825,390.486 4.506,390.422 4.207 C 390.358 3.908,390.253 3.697,390.188 3.737 C 390.122 3.777,390.051 3.575,390.029 3.287 C 390.007 2.999,389.898 2.705,389.786 2.634 C 389.675 2.563,389.658 2.499,389.750 2.492 C 389.842 2.485,389.731 2.405,389.503 2.314 C 389.221 2.201,389.071 2.205,389.031 2.324 C 388.999 2.421,388.824 2.500,388.643 2.500 C 388.462 2.500,388.350 2.441,388.395 2.368 C 388.440 2.295,388.328 2.225,388.146 2.211 C 387.964 2.197,387.781 2.277,387.738 2.388 M258.680 13.000 C 258.764 13.000,258.833 13.188,258.833 13.417 C 258.833 13.646,258.908 13.833,259.000 13.833 C 259.092 13.833,259.167 13.986,259.167 14.172 C 259.167 14.358,259.279 14.554,259.417 14.606 C 259.554 14.659,259.667 14.844,259.667 15.018 C 259.667 15.191,259.742 15.333,259.833 15.333 C 259.925 15.333,260.000 15.521,260.000 15.750 C 260.000 15.979,260.075 16.167,260.167 16.167 C 260.258 16.167,260.333 16.319,260.333 16.505 C 260.333 16.691,260.446 16.887,260.583 16.940 C 260.721 16.992,260.833 17.215,260.833 17.434 C 260.833 17.654,260.908 17.833,261.000 17.833 C 261.092 17.833,261.167 17.979,261.167 18.157 C 261.167 18.335,261.242 18.527,261.333 18.583 C 261.425 18.640,261.500 18.872,261.500 19.098 C 261.500 19.325,261.612 19.554,261.750 19.606 C 261.904 19.666,262.000 19.919,262.000 20.268 C 262.000 20.579,262.075 20.833,262.167 20.833 C 262.258 20.833,262.333 21.096,262.333 21.417 C 262.333 21.738,262.408 22.000,262.500 22.000 C 262.592 22.000,262.667 22.257,262.667 22.571 C 262.667 22.886,262.779 23.255,262.917 23.393 C 263.056 23.532,263.167 23.939,263.167 24.312 C 263.167 24.679,263.242 25.027,263.333 25.083 C 263.425 25.140,263.500 25.562,263.500 26.021 C 263.500 26.480,263.566 26.982,263.646 27.136 C 263.726 27.290,263.829 28.260,263.874 29.291 C 263.922 30.360,264.042 31.266,264.154 31.401 C 264.390 31.686,264.373 34.956,264.135 35.103 C 264.048 35.157,264.018 35.305,264.067 35.434 C 264.116 35.562,264.094 35.667,264.018 35.667 C 263.942 35.667,263.866 36.285,263.848 37.042 C 263.830 37.798,263.744 38.488,263.657 38.575 C 263.571 38.662,263.500 39.164,263.500 39.690 C 263.500 40.216,263.425 40.693,263.333 40.750 C 263.242 40.807,263.167 41.178,263.167 41.575 C 263.167 42.064,263.086 42.329,262.917 42.394 C 262.760 42.454,262.667 42.709,262.667 43.078 C 262.667 43.402,262.592 43.667,262.500 43.667 C 262.408 43.667,262.333 43.929,262.333 44.250 C 262.333 44.571,262.258 44.833,262.167 44.833 C 262.075 44.833,262.000 45.064,262.000 45.345 C 262.000 45.627,261.887 45.970,261.750 46.107 C 261.612 46.245,261.500 46.533,261.500 46.748 C 261.500 46.963,261.426 47.164,261.335 47.194 C 261.244 47.225,261.153 47.451,261.133 47.696 C 261.113 47.942,261.037 48.106,260.965 48.061 C 260.851 47.991,260.755 48.506,260.814 48.875 C 260.824 48.944,260.721 49.000,260.583 49.000 C 260.428 49.000,260.333 49.157,260.333 49.417 C 260.333 49.646,260.258 49.833,260.167 49.833 C 260.075 49.833,260.000 50.021,260.000 50.250 C 260.000 50.479,259.925 50.667,259.833 50.667 C 259.742 50.667,259.667 50.807,259.667 50.980 C 259.667 51.152,259.554 51.386,259.417 51.500 C 259.279 51.614,259.167 51.844,259.167 52.011 C 259.167 52.177,259.092 52.360,259.000 52.417 C 258.908 52.473,258.833 52.671,258.833 52.855 C 258.833 53.711,260.222 53.667,233.637 53.661 C 207.575 53.656,208.333 53.677,208.333 52.945 C 208.333 52.798,208.190 52.421,208.014 52.109 C 207.839 51.796,207.668 51.363,207.635 51.145 C 207.602 50.928,207.483 50.769,207.371 50.792 C 207.246 50.817,207.167 50.640,207.167 50.333 C 207.167 50.058,207.092 49.833,207.000 49.833 C 206.908 49.833,206.833 49.650,206.833 49.427 C 206.833 49.203,206.758 48.973,206.667 48.917 C 206.575 48.860,206.500 48.673,206.500 48.502 C 206.500 48.331,206.387 48.078,206.250 47.940 C 206.112 47.803,206.000 47.588,206.000 47.462 C 206.000 47.336,205.937 47.162,205.859 47.075 C 205.782 46.988,205.588 46.486,205.427 45.959 C 205.267 45.432,205.068 44.959,204.985 44.907 C 204.901 44.856,204.833 44.593,204.833 44.323 C 204.833 44.054,204.758 43.833,204.667 43.833 C 204.575 43.833,204.500 43.533,204.500 43.167 C 204.500 42.800,204.425 42.500,204.333 42.500 C 204.242 42.500,204.166 42.294,204.166 42.042 C 204.165 41.790,204.053 41.369,203.916 41.106 C 203.779 40.843,203.667 40.277,203.667 39.848 C 203.667 39.418,203.599 38.995,203.516 38.908 C 203.218 38.593,202.918 30.737,203.198 30.564 C 203.272 30.518,203.333 29.777,203.333 28.917 C 203.333 28.054,203.408 27.307,203.500 27.250 C 203.592 27.193,203.667 26.701,203.667 26.157 C 203.667 25.608,203.741 25.167,203.833 25.167 C 203.925 25.167,203.988 25.110,203.973 25.042 C 203.937 24.879,204.153 24.009,204.335 23.583 C 204.468 23.272,204.530 22.982,204.780 21.508 C 204.834 21.191,204.980 20.829,205.106 20.704 C 205.231 20.579,205.333 20.294,205.333 20.071 C 205.333 19.849,205.392 19.667,205.465 19.667 C 205.537 19.667,205.608 19.499,205.624 19.294 C 205.639 19.089,205.730 18.895,205.826 18.864 C 205.922 18.832,206.000 18.595,206.000 18.337 C 206.000 18.075,206.110 17.827,206.250 17.773 C 206.387 17.720,206.500 17.529,206.500 17.348 C 206.500 17.168,206.575 16.973,206.667 16.917 C 206.758 16.860,206.833 16.668,206.833 16.490 C 206.833 16.312,206.908 16.167,207.000 16.167 C 207.092 16.167,207.167 16.014,207.167 15.828 C 207.167 15.642,207.279 15.446,207.417 15.394 C 207.554 15.341,207.667 15.160,207.667 14.992 C 207.667 14.824,207.742 14.640,207.833 14.583 C 207.925 14.527,208.000 14.335,208.000 14.157 C 208.000 13.979,208.075 13.833,208.167 13.833 C 208.258 13.833,208.333 13.646,208.333 13.417 L 208.333 13.001 233.208 12.959 C 246.890 12.936,258.183 12.935,258.305 12.958 C 258.427 12.981,258.596 13.000,258.680 13.000 M165.167 13.250 C 165.167 13.387,165.242 13.500,165.333 13.500 C 165.425 13.500,165.500 13.650,165.500 13.833 C 165.500 14.017,165.575 14.167,165.667 14.167 C 165.758 14.167,165.833 14.281,165.833 14.420 C 165.833 14.559,166.021 14.970,166.250 15.333 C 166.479 15.696,166.668 16.126,166.669 16.288 C 166.671 16.540,166.696 16.546,166.833 16.333 C 166.962 16.134,166.995 16.165,166.997 16.486 C 167.000 16.959,167.504 18.167,167.699 18.167 C 167.773 18.167,167.833 18.396,167.833 18.677 C 167.833 18.957,167.893 19.150,167.965 19.105 C 168.038 19.060,168.115 19.257,168.137 19.542 C 168.159 19.828,168.239 20.141,168.315 20.239 C 168.392 20.337,168.503 20.623,168.564 20.875 C 168.624 21.127,168.747 21.333,168.837 21.333 C 168.926 21.333,169.000 21.638,169.000 22.010 C 169.000 22.418,169.066 22.646,169.167 22.583 C 169.268 22.521,169.333 22.772,169.333 23.228 C 169.333 23.671,169.435 24.078,169.583 24.226 C 169.722 24.365,169.833 24.773,169.833 25.145 C 169.833 25.513,169.908 25.860,170.000 25.917 C 170.092 25.973,170.167 26.390,170.167 26.843 L 170.167 27.667 140.050 27.667 C 116.626 27.667,109.978 27.622,110.133 27.467 C 110.243 27.357,110.333 26.869,110.333 26.383 C 110.333 25.897,110.408 25.500,110.500 25.500 C 110.592 25.500,110.667 25.134,110.667 24.687 C 110.667 24.168,110.757 23.799,110.917 23.667 C 111.054 23.553,111.167 23.210,111.167 22.906 C 111.167 22.602,111.242 22.307,111.333 22.250 C 111.425 22.193,111.500 21.931,111.500 21.667 C 111.500 21.402,111.575 21.140,111.667 21.083 C 111.758 21.027,111.833 20.792,111.833 20.562 C 111.833 20.331,111.946 20.030,112.083 19.893 C 112.221 19.755,112.333 19.461,112.333 19.238 C 112.333 19.015,112.408 18.833,112.500 18.833 C 112.592 18.833,112.667 18.616,112.667 18.351 C 112.667 18.076,112.774 17.828,112.917 17.773 C 113.054 17.720,113.167 17.529,113.167 17.348 C 113.167 17.168,113.242 16.973,113.333 16.917 C 113.425 16.860,113.500 16.668,113.500 16.490 C 113.500 16.312,113.575 16.167,113.667 16.167 C 113.758 16.167,113.833 15.979,113.833 15.750 C 113.833 15.521,113.890 15.333,113.958 15.332 C 114.122 15.331,114.667 14.371,114.667 14.084 C 114.667 13.961,114.745 13.835,114.841 13.803 C 114.936 13.771,115.027 13.577,115.043 13.373 L 115.071 13.000 140.119 13.000 C 162.272 13.000,165.167 13.029,165.167 13.250 M170.193 39.625 C 170.161 40.060,170.067 40.488,169.984 40.575 C 169.901 40.662,169.833 41.061,169.833 41.462 C 169.833 41.887,169.729 42.295,169.583 42.440 C 169.446 42.578,169.333 42.943,169.333 43.252 C 169.333 43.561,169.258 43.860,169.167 43.917 C 169.075 43.973,169.000 44.278,169.000 44.593 C 169.000 44.909,168.928 45.167,168.841 45.167 C 168.753 45.167,168.633 45.429,168.572 45.750 C 168.512 46.071,168.396 46.333,168.315 46.333 C 168.233 46.333,168.167 46.596,168.167 46.917 C 168.167 47.237,168.092 47.500,168.000 47.500 C 167.908 47.500,167.833 47.655,167.833 47.845 C 167.833 48.035,167.721 48.303,167.583 48.440 C 167.446 48.578,167.333 48.831,167.333 49.002 C 167.333 49.173,167.258 49.360,167.167 49.417 C 167.075 49.473,167.000 49.665,167.000 49.843 C 167.000 50.021,166.925 50.167,166.833 50.167 C 166.742 50.167,166.667 50.322,166.667 50.512 C 166.667 50.702,166.554 50.970,166.417 51.107 C 166.279 51.245,166.167 51.539,166.167 51.762 C 166.167 51.985,166.104 52.167,166.028 52.167 C 165.952 52.167,165.786 52.373,165.660 52.625 C 165.086 53.772,167.688 53.667,139.974 53.667 C 115.111 53.667,115.000 53.665,115.000 53.333 C 115.000 53.150,114.906 52.999,114.792 52.997 C 114.653 52.996,114.667 52.941,114.833 52.833 C 115.000 52.726,115.014 52.671,114.875 52.669 C 114.760 52.668,114.667 52.554,114.667 52.417 C 114.667 52.279,114.592 52.167,114.500 52.167 C 114.408 52.167,114.333 52.060,114.333 51.929 C 114.333 51.798,114.237 51.591,114.120 51.470 C 114.003 51.349,113.803 50.931,113.677 50.542 C 113.550 50.152,113.371 49.833,113.279 49.833 C 113.187 49.833,113.155 49.789,113.209 49.736 C 113.344 49.601,113.002 48.667,112.817 48.667 C 112.734 48.667,112.667 48.484,112.667 48.260 C 112.667 48.036,112.592 47.807,112.500 47.750 C 112.408 47.693,112.333 47.462,112.333 47.235 C 112.333 47.008,112.221 46.780,112.083 46.727 C 111.929 46.668,111.833 46.414,111.833 46.066 C 111.833 45.754,111.758 45.500,111.667 45.500 C 111.575 45.500,111.500 45.237,111.500 44.917 C 111.500 44.596,111.425 44.333,111.333 44.333 C 111.242 44.333,111.167 44.031,111.167 43.661 C 111.167 43.218,111.082 42.957,110.917 42.894 C 110.747 42.828,110.667 42.563,110.667 42.066 C 110.667 41.663,110.603 41.333,110.526 41.333 C 110.449 41.333,110.370 40.829,110.350 40.212 C 110.329 39.565,110.229 39.037,110.115 38.965 C 110.006 38.895,123.492 38.837,140.085 38.836 L 170.252 38.833 170.193 39.625 " stroke="none" fill="#92ab69" fill-rule="evenodd"></path><path id="path4" d="" stroke="none" fill="#55ff55" fill-rule="evenodd"></path></g></svg>