<svg id="svg" version="1.1" width="400" height="98.16849816849816" xmlns="http://www.w3.org/2000/svg" xmlns:xlink="http://www.w3.org/1999/xlink" style="display: block;"><g id="svgg"><path id="path0" d="M220.627 13.675 L 217.670 13.799 216.127 14.556 C 212.802 16.188,211.395 18.077,211.015 21.417 C 210.753 23.722,210.795 35.577,211.075 38.679 C 211.418 42.465,212.945 45.175,215.492 46.516 C 216.000 46.784,216.767 47.246,217.196 47.543 C 218.678 48.571,222.959 50.998,225.679 52.353 C 228.646 53.832,228.660 53.889,228.712 64.583 L 228.750 72.417 228.331 73.167 C 227.550 74.567,225.633 74.466,224.751 72.978 C 224.437 72.449,224.411 72.001,224.304 65.250 C 224.153 55.690,224.183 55.866,222.615 55.485 C 221.351 55.178,213.516 55.173,212.464 55.478 C 211.036 55.893,211.110 55.279,211.216 65.903 C 211.324 76.649,211.392 77.250,212.780 79.583 C 215.115 83.513,219.106 84.573,229.461 84.015 C 236.199 83.651,238.578 82.730,240.190 79.858 C 240.481 79.340,240.810 78.804,240.922 78.667 C 241.758 77.640,242.165 56.069,241.416 52.491 C 240.765 49.382,238.852 47.085,235.736 45.672 C 235.106 45.387,234.439 45.013,234.253 44.841 C 234.068 44.670,233.357 44.259,232.674 43.928 C 231.990 43.597,231.276 43.181,231.086 43.002 C 230.896 42.824,230.417 42.564,230.022 42.424 C 229.626 42.285,229.073 41.977,228.792 41.741 C 228.511 41.504,227.696 41.017,226.982 40.658 C 224.029 39.173,224.012 39.122,223.882 31.428 C 223.764 24.401,223.910 23.816,225.841 23.578 C 228.002 23.311,228.250 24.009,228.389 30.750 C 228.516 36.946,228.639 37.601,229.750 37.970 C 231.105 38.421,239.186 38.206,240.545 37.683 C 241.529 37.305,241.653 35.978,241.479 27.667 L 241.349 21.417 240.830 19.927 C 238.800 14.099,235.436 13.058,220.627 13.675 M306.293 13.927 C 305.641 14.133,305.436 14.300,305.126 14.880 L 304.750 15.583 304.750 37.750 C 304.750 61.029,304.927 81.349,305.138 82.331 C 305.506 84.046,310.686 85.114,315.164 84.398 C 316.146 84.241,316.133 84.419,316.160 70.500 C 316.184 58.428,316.282 55.249,316.660 54.278 C 317.237 52.797,317.169 52.769,317.603 54.667 C 317.999 56.400,318.332 58.502,319.000 63.500 C 319.190 64.921,319.415 66.571,319.499 67.167 C 319.584 67.762,319.698 68.737,319.753 69.333 C 319.808 69.929,319.960 70.979,320.091 71.667 C 320.299 72.753,320.907 77.121,321.320 80.505 C 321.582 82.647,322.325 83.384,324.498 83.657 C 328.488 84.157,330.400 83.678,330.784 82.083 C 331.123 80.673,331.988 75.022,332.171 73.021 C 332.358 70.961,332.785 67.861,333.917 60.333 C 334.144 58.821,334.407 57.068,334.501 56.437 C 334.700 55.110,334.757 54.981,335.089 55.109 C 335.908 55.423,336.167 59.030,336.167 70.160 C 336.167 81.255,336.248 82.349,337.128 83.135 L 337.746 83.687 341.944 83.635 C 346.872 83.574,346.920 83.559,347.299 81.982 C 347.517 81.076,347.450 25.823,347.230 25.468 C 347.181 25.389,347.091 23.070,347.029 20.315 C 346.887 13.991,347.506 14.580,340.750 14.331 C 338.367 14.244,335.356 14.093,334.059 13.997 C 330.262 13.715,330.042 13.904,329.583 17.839 C 329.443 19.034,329.144 21.078,328.917 22.381 C 328.691 23.684,328.431 25.875,328.340 27.250 C 328.013 32.143,327.031 38.246,326.288 40.000 L 326.041 40.583 325.850 40.105 C 325.546 39.341,325.192 36.944,324.998 34.333 C 324.801 31.684,324.688 30.606,324.179 26.500 C 323.991 24.988,323.651 22.063,323.423 20.000 C 322.940 15.633,322.831 15.175,322.084 14.359 L 321.526 13.750 314.305 13.714 C 308.292 13.685,306.951 13.720,306.293 13.927 M257.417 13.985 C 250.052 14.055,246.988 14.139,246.750 14.276 C 245.594 14.946,245.335 15.816,245.334 19.038 C 245.333 22.901,245.695 23.404,248.583 23.549 C 250.569 23.648,251.294 23.877,251.525 24.479 C 251.928 25.529,252.001 29.112,252.092 52.500 C 252.189 77.525,252.289 82.543,252.698 82.918 C 253.369 83.533,254.286 83.667,257.795 83.662 C 264.220 83.654,264.967 83.466,265.332 81.772 C 265.540 80.802,265.582 54.367,265.404 36.250 C 265.271 22.681,265.046 23.575,268.643 23.335 C 271.636 23.135,272.031 22.402,271.753 17.574 L 271.630 15.442 270.940 14.719 C 270.074 13.812,270.899 13.857,257.417 13.985 M278.750 14.085 C 278.383 14.214,277.867 14.559,277.604 14.853 L 277.124 15.386 277.236 32.318 C 277.397 56.547,277.645 76.452,277.827 79.833 L 277.985 82.750 278.653 83.375 C 279.340 84.018,280.043 84.149,282.250 84.043 C 282.525 84.030,285.865 83.988,289.673 83.950 C 298.822 83.858,298.405 84.018,298.655 80.492 C 298.816 78.226,298.643 75.632,298.304 75.217 C 297.972 74.812,296.524 74.508,294.417 74.403 C 290.010 74.183,290.320 75.002,290.129 63.088 C 289.916 49.782,289.618 50.506,295.314 50.501 C 298.030 50.499,298.333 50.058,298.333 46.120 C 298.333 41.141,298.266 41.062,293.961 40.962 C 289.687 40.864,290.001 41.712,289.942 30.083 C 289.907 23.224,289.716 23.540,294.021 23.348 C 297.943 23.173,298.070 23.011,297.975 18.281 L 297.917 15.364 297.406 14.733 C 297.125 14.385,296.689 14.046,296.438 13.979 C 295.517 13.733,279.479 13.829,278.750 14.085 M153.083 14.171 C 151.617 14.236,150.079 14.379,149.667 14.490 C 147.566 15.055,147.116 15.234,146.461 15.768 C 142.699 18.832,142.631 19.089,142.651 30.250 C 142.667 39.292,142.672 39.414,143.192 41.794 C 143.655 43.918,144.777 45.330,147.417 47.111 C 148.675 47.961,152.856 50.298,155.714 51.751 C 160.449 54.158,160.332 53.837,160.329 64.500 C 160.325 74.109,160.244 74.500,158.247 74.500 C 155.909 74.500,155.715 73.673,155.517 62.917 C 155.400 56.501,155.357 56.230,154.417 55.963 C 153.969 55.837,152.772 55.827,146.076 55.897 C 142.558 55.934,142.567 55.895,143.006 69.750 C 143.286 78.610,143.461 79.341,145.847 81.637 C 148.174 83.877,150.363 84.335,158.733 84.332 C 163.733 84.330,165.357 84.173,167.636 83.469 L 169.355 82.937 170.719 81.503 C 173.560 78.516,173.667 77.935,173.665 65.479 C 173.664 55.899,173.530 53.719,172.814 51.646 C 172.140 49.697,170.392 47.579,168.905 46.911 C 168.441 46.702,167.428 46.175,166.655 45.739 C 165.882 45.304,164.612 44.598,163.833 44.171 C 163.054 43.743,161.742 42.993,160.917 42.503 C 160.092 42.013,158.882 41.325,158.228 40.973 C 155.525 39.520,155.461 39.304,155.436 31.555 C 155.417 25.685,155.426 25.515,155.765 25.055 C 156.960 23.439,158.811 23.490,159.664 25.162 C 159.970 25.762,160.007 26.244,160.090 30.784 C 160.215 37.615,160.171 37.312,161.132 37.920 L 161.916 38.417 165.833 38.417 C 173.859 38.417,173.464 38.885,173.184 29.700 C 172.911 20.740,172.638 19.487,170.439 17.126 C 167.687 14.171,164.688 13.660,153.083 14.171 M198.843 14.178 C 196.570 14.402,196.312 14.724,195.913 17.844 C 195.767 18.984,195.581 20.179,195.500 20.500 C 195.419 20.821,195.269 22.133,195.167 23.417 C 195.064 24.700,194.901 26.050,194.805 26.417 C 194.469 27.690,193.870 30.756,193.749 31.825 C 193.612 33.024,192.935 35.632,192.699 35.868 C 192.473 36.093,191.686 33.836,191.503 32.438 C 191.417 31.785,191.224 30.238,191.075 29.000 C 190.926 27.762,190.739 26.450,190.661 26.083 C 190.582 25.717,190.396 24.179,190.246 22.667 C 190.097 21.154,189.828 19.167,189.649 18.250 C 188.869 14.266,188.628 14.097,183.978 14.260 C 182.478 14.313,180.575 14.376,179.750 14.400 C 177.530 14.464,176.833 14.903,176.834 16.234 C 176.835 17.269,177.870 22.497,178.254 23.406 C 178.406 23.766,178.749 25.041,179.016 26.239 C 179.283 27.437,179.647 28.942,179.825 29.583 C 180.002 30.225,180.152 30.942,180.157 31.177 C 180.162 31.412,180.326 32.199,180.521 32.927 C 180.715 33.655,180.969 34.737,181.085 35.333 C 181.587 37.909,182.217 40.529,182.688 42.000 C 182.967 42.871,183.303 44.142,183.435 44.825 C 183.566 45.508,183.820 46.541,183.999 47.121 C 184.179 47.701,184.517 49.181,184.752 50.411 C 184.987 51.641,185.282 53.007,185.409 53.448 C 185.973 55.409,186.006 56.171,186.068 69.000 C 186.133 82.268,186.153 82.743,186.680 83.309 C 187.461 84.147,196.326 84.298,197.911 83.500 C 199.067 82.917,199.004 83.622,199.251 68.667 C 199.373 61.288,199.547 54.871,199.638 54.408 C 199.729 53.944,199.879 53.269,199.972 52.908 C 200.064 52.546,200.190 51.837,200.252 51.333 C 200.313 50.829,200.583 49.533,200.852 48.453 C 201.336 46.507,202.117 42.575,202.498 40.167 C 202.606 39.479,202.799 38.504,202.925 37.999 C 203.051 37.495,203.309 36.130,203.498 34.966 C 203.688 33.802,203.956 32.527,204.095 32.134 C 204.234 31.740,204.460 30.743,204.598 29.917 C 204.735 29.092,205.139 26.954,205.495 25.167 C 206.359 20.826,206.497 20.091,206.664 18.917 C 206.743 18.367,206.889 17.362,206.990 16.684 C 207.192 15.317,207.068 14.937,206.239 14.394 C 205.742 14.069,201.276 13.938,198.843 14.178 M100.250 14.507 C 95.028 14.844,92.117 16.607,90.534 20.390 L 90.104 21.417 90.039 30.775 L 89.974 40.133 90.399 41.733 C 91.176 44.649,92.611 46.148,97.250 48.889 C 98.258 49.485,99.383 50.157,99.750 50.382 C 100.117 50.607,100.694 50.880,101.033 50.989 C 101.373 51.098,101.922 51.372,102.255 51.597 C 102.587 51.823,103.227 52.194,103.677 52.422 C 104.127 52.650,105.020 53.288,105.661 53.840 C 107.453 55.382,107.398 55.004,107.290 64.996 C 107.182 74.970,107.243 74.673,105.303 74.661 C 103.100 74.647,102.829 73.524,102.827 64.417 C 102.825 57.500,102.731 56.558,101.997 56.165 C 101.561 55.932,91.801 55.946,91.286 56.181 C 91.068 56.280,90.685 56.674,90.434 57.056 L 89.978 57.750 90.055 66.250 C 90.138 75.529,90.314 77.995,90.982 79.301 C 91.705 80.713,93.806 83.000,94.380 83.000 C 94.465 83.000,94.907 83.187,95.361 83.415 C 97.326 84.402,97.471 84.417,105.083 84.417 C 111.412 84.417,112.179 84.387,113.083 84.109 C 117.410 82.780,119.796 80.198,120.146 76.465 C 120.396 73.805,120.527 56.764,120.314 54.618 C 119.878 50.213,118.169 48.119,113.000 45.659 C 112.405 45.375,111.805 45.043,111.667 44.920 C 111.529 44.797,111.004 44.478,110.500 44.212 C 109.996 43.945,109.208 43.498,108.750 43.218 C 108.292 42.938,107.190 42.284,106.301 41.765 C 104.520 40.724,103.992 40.199,103.348 38.833 L 102.917 37.917 102.917 32.000 C 102.917 25.409,102.920 25.385,104.057 24.683 C 105.053 24.067,106.206 24.286,106.901 25.220 C 107.236 25.672,107.254 25.933,107.336 31.554 C 107.453 39.472,106.904 38.834,113.603 38.832 C 120.764 38.831,120.229 39.363,120.307 32.167 C 120.367 26.588,120.121 21.719,119.723 20.591 C 118.683 17.642,115.546 15.114,112.376 14.671 C 110.610 14.424,103.106 14.322,100.250 14.507 M55.750 14.926 C 55.383 15.062,54.990 15.299,54.875 15.452 C 54.622 15.791,54.602 18.892,54.847 20.000 C 55.065 20.989,55.462 24.253,55.668 26.750 C 56.074 31.686,56.445 35.364,56.752 37.514 C 56.890 38.484,57.074 40.247,57.161 41.431 C 57.386 44.502,57.776 48.445,58.071 50.624 C 58.211 51.654,58.402 53.492,58.497 54.707 C 58.717 57.522,58.944 59.653,59.335 62.583 C 59.507 63.867,59.698 65.398,59.760 65.986 C 59.822 66.574,59.938 67.284,60.018 67.564 C 60.098 67.843,60.242 69.087,60.337 70.327 C 60.532 72.869,60.900 76.144,61.254 78.500 C 61.385 79.371,61.541 80.683,61.600 81.417 C 61.809 83.998,62.004 84.091,67.500 84.224 C 72.451 84.344,76.626 84.144,77.216 83.757 C 78.371 83.000,78.668 81.746,79.079 75.901 C 79.213 73.985,79.478 71.329,79.667 70.000 C 79.856 68.671,80.080 66.308,80.164 64.750 C 80.313 61.978,80.682 58.507,81.010 56.781 C 81.101 56.306,81.286 54.792,81.423 53.417 C 81.559 52.042,81.745 50.167,81.837 49.250 C 81.929 48.333,82.083 46.608,82.180 45.417 C 82.452 42.073,82.615 40.300,82.903 37.583 C 83.049 36.208,83.279 33.771,83.414 32.167 C 83.673 29.091,84.080 24.762,84.346 22.250 C 84.611 19.748,84.716 15.956,84.533 15.490 C 84.259 14.791,83.463 14.667,79.271 14.667 C 73.398 14.667,73.764 14.232,73.237 21.833 C 72.847 27.457,72.531 31.840,72.346 34.167 C 72.256 35.313,72.101 37.450,72.003 38.917 C 71.318 49.124,71.334 48.980,70.668 50.917 C 70.416 51.650,70.074 52.830,69.908 53.539 C 69.743 54.249,69.588 54.810,69.565 54.787 C 69.542 54.764,69.442 53.622,69.343 52.248 C 69.244 50.874,69.090 49.000,69.001 48.083 C 68.706 45.048,68.499 42.147,68.162 36.333 C 67.979 33.171,67.755 29.833,67.664 28.917 C 67.574 28.000,67.423 25.825,67.330 24.083 C 66.911 16.242,66.811 15.594,65.939 15.066 C 65.223 14.633,56.849 14.517,55.750 14.926 M127.351 72.619 C 126.318 73.128,126.153 73.821,126.161 77.622 C 126.164 79.434,126.242 81.367,126.333 81.917 C 126.424 82.467,126.499 82.934,126.499 82.955 C 126.514 83.542,128.404 83.997,130.833 83.998 C 135.687 83.999,135.922 83.687,135.806 77.416 C 135.739 73.817,135.606 73.277,134.616 72.583 C 134.067 72.199,128.146 72.228,127.351 72.619 " stroke="none" fill="#ffffff" fill-rule="evenodd"></path><path id="path1" d="M0.000 49.083 L 0.000 98.167 200.000 98.167 L 400.000 98.167 400.000 49.083 L 400.000 0.000 200.000 0.000 L 0.000 0.000 0.000 49.083 M231.500 13.654 C 236.712 13.935,239.365 15.719,240.830 19.927 L 241.349 21.417 241.479 27.667 C 241.653 35.978,241.529 37.305,240.545 37.683 C 239.186 38.206,231.105 38.421,229.750 37.970 C 228.639 37.601,228.516 36.946,228.389 30.750 C 228.250 24.009,228.002 23.311,225.841 23.578 C 223.910 23.816,223.764 24.401,223.882 31.428 C 224.012 39.122,224.029 39.173,226.982 40.658 C 227.696 41.017,228.511 41.504,228.792 41.741 C 229.073 41.977,229.626 42.285,230.022 42.424 C 230.417 42.564,230.896 42.824,231.086 43.002 C 231.276 43.181,231.990 43.597,232.674 43.928 C 233.357 44.259,234.068 44.670,234.253 44.841 C 234.439 45.013,235.106 45.387,235.736 45.672 C 238.852 47.085,240.765 49.382,241.416 52.491 C 242.165 56.069,241.758 77.640,240.922 78.667 C 240.810 78.804,240.481 79.340,240.190 79.858 C 238.578 82.730,236.199 83.651,229.461 84.015 C 217.425 84.663,213.199 82.955,211.698 76.833 C 211.165 74.659,210.910 56.880,211.401 56.131 C 212.222 54.877,222.915 54.832,223.732 56.079 C 224.126 56.680,224.183 57.603,224.304 65.250 C 224.411 72.001,224.437 72.449,224.751 72.978 C 225.633 74.466,227.550 74.567,228.331 73.167 L 228.750 72.417 228.712 64.583 C 228.660 53.889,228.646 53.832,225.679 52.353 C 222.959 50.998,218.678 48.571,217.196 47.543 C 216.767 47.246,216.000 46.784,215.492 46.516 C 212.945 45.175,211.418 42.465,211.075 38.679 C 210.795 35.577,210.753 23.722,211.015 21.417 C 211.395 18.077,212.802 16.188,216.127 14.556 L 217.670 13.799 220.627 13.675 C 224.686 13.506,228.625 13.498,231.500 13.654 M322.084 14.359 C 322.831 15.175,322.940 15.633,323.423 20.000 C 323.651 22.063,323.991 24.988,324.179 26.500 C 324.688 30.606,324.801 31.684,324.998 34.333 C 325.192 36.944,325.546 39.341,325.850 40.105 L 326.041 40.583 326.288 40.000 C 327.031 38.246,328.013 32.143,328.340 27.250 C 328.431 25.875,328.691 23.684,328.917 22.381 C 329.144 21.078,329.443 19.034,329.583 17.839 C 330.042 13.904,330.262 13.715,334.059 13.997 C 335.356 14.093,338.367 14.244,340.750 14.331 C 347.506 14.580,346.887 13.991,347.029 20.315 C 347.091 23.070,347.181 25.389,347.230 25.468 C 347.450 25.823,347.517 81.076,347.299 81.982 C 346.920 83.559,346.872 83.574,341.944 83.635 L 337.746 83.687 337.128 83.135 C 336.248 82.349,336.167 81.255,336.167 70.160 C 336.167 59.030,335.908 55.423,335.089 55.109 C 334.757 54.981,334.700 55.110,334.501 56.437 C 334.407 57.068,334.144 58.821,333.917 60.333 C 332.785 67.861,332.358 70.961,332.171 73.021 C 331.988 75.022,331.123 80.673,330.784 82.083 C 330.400 83.678,328.488 84.157,324.498 83.657 C 322.325 83.384,321.582 82.647,321.320 80.505 C 320.907 77.121,320.299 72.753,320.091 71.667 C 319.960 70.979,319.808 69.929,319.753 69.333 C 319.698 68.737,319.584 67.762,319.499 67.167 C 319.415 66.571,319.190 64.921,319.000 63.500 C 318.332 58.502,317.999 56.400,317.603 54.667 C 317.169 52.769,317.237 52.797,316.660 54.278 C 316.282 55.249,316.184 58.428,316.160 70.500 C 316.133 84.419,316.146 84.241,315.164 84.398 C 310.686 85.114,305.506 84.046,305.138 82.331 C 304.927 81.349,304.750 61.029,304.750 37.750 L 304.750 15.583 305.126 14.880 C 305.760 13.693,305.922 13.673,314.305 13.714 L 321.526 13.750 322.084 14.359 M270.940 14.719 L 271.630 15.442 271.753 17.574 C 272.031 22.402,271.636 23.135,268.643 23.335 C 265.046 23.575,265.271 22.681,265.404 36.250 C 265.582 54.367,265.540 80.802,265.332 81.772 C 264.967 83.466,264.220 83.654,257.795 83.662 C 254.286 83.667,253.369 83.533,252.698 82.918 C 252.289 82.543,252.189 77.525,252.092 52.500 C 252.001 29.112,251.928 25.529,251.525 24.479 C 251.294 23.877,250.569 23.648,248.583 23.549 C 245.695 23.404,245.333 22.901,245.334 19.038 C 245.335 15.816,245.594 14.946,246.750 14.276 C 247.073 14.089,265.900 13.806,269.000 13.941 C 270.231 13.995,270.261 14.007,270.940 14.719 M296.438 13.979 C 296.689 14.046,297.125 14.385,297.406 14.733 L 297.917 15.364 297.975 18.281 C 298.070 23.011,297.943 23.173,294.021 23.348 C 289.716 23.540,289.907 23.224,289.942 30.083 C 290.001 41.712,289.687 40.864,293.961 40.962 C 298.266 41.062,298.333 41.141,298.333 46.120 C 298.333 50.058,298.030 50.499,295.314 50.501 C 289.618 50.506,289.916 49.782,290.129 63.088 C 290.320 75.002,290.010 74.183,294.417 74.403 C 296.524 74.508,297.972 74.812,298.304 75.217 C 298.643 75.632,298.816 78.226,298.655 80.492 C 298.405 84.018,298.822 83.858,289.673 83.950 C 285.865 83.988,282.525 84.030,282.250 84.043 C 280.043 84.149,279.340 84.018,278.653 83.375 L 277.985 82.750 277.827 79.833 C 277.645 76.452,277.397 56.547,277.236 32.318 L 277.124 15.386 277.604 14.853 C 278.497 13.859,278.587 13.850,287.699 13.854 C 292.254 13.856,296.187 13.912,296.438 13.979 M163.763 14.158 C 168.902 14.584,172.104 17.406,172.753 22.083 C 173.114 24.682,173.420 35.198,173.170 36.403 C 172.788 38.239,172.141 38.417,165.833 38.417 L 161.916 38.417 161.132 37.920 C 160.171 37.312,160.215 37.615,160.090 30.784 C 160.007 26.244,159.970 25.762,159.664 25.162 C 158.811 23.490,156.960 23.439,155.765 25.055 C 155.426 25.515,155.417 25.685,155.436 31.555 C 155.461 39.304,155.525 39.520,158.228 40.973 C 158.882 41.325,160.092 42.013,160.917 42.503 C 161.742 42.993,163.054 43.743,163.833 44.171 C 164.612 44.598,165.882 45.304,166.655 45.739 C 167.428 46.175,168.441 46.702,168.905 46.911 C 170.392 47.579,172.140 49.697,172.814 51.646 C 173.530 53.719,173.664 55.899,173.665 65.479 C 173.667 77.935,173.560 78.516,170.719 81.503 L 169.355 82.937 167.636 83.469 C 165.357 84.173,163.733 84.330,158.733 84.332 C 150.363 84.335,148.174 83.877,145.847 81.637 C 143.461 79.341,143.286 78.610,143.006 69.750 C 142.567 55.895,142.558 55.934,146.076 55.897 C 152.772 55.827,153.969 55.837,154.417 55.963 C 155.357 56.230,155.400 56.501,155.517 62.917 C 155.715 73.673,155.909 74.500,158.247 74.500 C 160.244 74.500,160.325 74.109,160.329 64.500 C 160.332 54.973,160.322 54.906,158.654 53.546 C 158.118 53.108,156.795 52.301,155.714 51.751 C 152.856 50.298,148.675 47.961,147.417 47.111 C 144.777 45.330,143.655 43.918,143.192 41.794 C 142.672 39.414,142.667 39.292,142.651 30.250 C 142.631 19.089,142.699 18.832,146.461 15.768 C 147.116 15.234,147.566 15.055,149.667 14.490 C 151.121 14.099,160.406 13.880,163.763 14.158 M206.239 14.394 C 207.068 14.937,207.192 15.317,206.990 16.684 C 206.889 17.362,206.743 18.367,206.664 18.917 C 206.497 20.091,206.359 20.826,205.495 25.167 C 205.139 26.954,204.735 29.092,204.598 29.917 C 204.460 30.743,204.234 31.740,204.095 32.134 C 203.956 32.527,203.688 33.802,203.498 34.966 C 203.309 36.130,203.051 37.495,202.925 37.999 C 202.799 38.504,202.606 39.479,202.498 40.167 C 202.117 42.575,201.336 46.507,200.852 48.453 C 200.583 49.533,200.313 50.829,200.252 51.333 C 200.190 51.837,200.064 52.546,199.972 52.908 C 199.879 53.269,199.729 53.944,199.638 54.408 C 199.547 54.871,199.373 61.288,199.251 68.667 C 199.004 83.622,199.067 82.917,197.911 83.500 C 196.326 84.298,187.461 84.147,186.680 83.309 C 186.153 82.743,186.133 82.268,186.068 69.000 C 186.006 56.171,185.973 55.409,185.409 53.448 C 185.282 53.007,184.987 51.641,184.752 50.411 C 184.517 49.181,184.179 47.701,183.999 47.121 C 183.820 46.541,183.566 45.508,183.435 44.825 C 183.303 44.142,182.967 42.871,182.688 42.000 C 182.217 40.529,181.587 37.909,181.085 35.333 C 180.969 34.737,180.715 33.655,180.521 32.927 C 180.326 32.199,180.162 31.412,180.157 31.177 C 180.152 30.942,180.002 30.225,179.825 29.583 C 179.647 28.942,179.283 27.437,179.016 26.239 C 178.749 25.041,178.406 23.766,178.254 23.406 C 177.870 22.497,176.835 17.269,176.834 16.234 C 176.833 14.903,177.530 14.464,179.750 14.400 C 180.575 14.376,182.478 14.313,183.978 14.260 C 188.628 14.097,188.869 14.266,189.649 18.250 C 189.828 19.167,190.097 21.154,190.246 22.667 C 190.396 24.179,190.582 25.717,190.661 26.083 C 190.739 26.450,190.926 27.762,191.075 29.000 C 191.224 30.238,191.417 31.785,191.503 32.438 C 191.686 33.836,192.473 36.093,192.699 35.868 C 192.935 35.632,193.612 33.024,193.749 31.825 C 193.870 30.756,194.469 27.690,194.805 26.417 C 194.901 26.050,195.064 24.700,195.167 23.417 C 195.269 22.133,195.419 20.821,195.500 20.500 C 195.581 20.179,195.767 18.984,195.913 17.844 C 196.312 14.724,196.570 14.402,198.843 14.178 C 201.276 13.938,205.742 14.069,206.239 14.394 M112.376 14.671 C 115.546 15.114,118.683 17.642,119.723 20.591 C 120.121 21.719,120.367 26.588,120.307 32.167 C 120.229 39.363,120.764 38.831,113.603 38.832 C 106.904 38.834,107.453 39.472,107.336 31.554 C 107.254 25.933,107.236 25.672,106.901 25.220 C 106.206 24.286,105.053 24.067,104.057 24.683 C 102.920 25.385,102.917 25.409,102.917 32.000 L 102.917 37.917 103.348 38.833 C 103.992 40.199,104.520 40.724,106.301 41.765 C 107.190 42.284,108.292 42.938,108.750 43.218 C 109.208 43.498,109.996 43.945,110.500 44.212 C 111.004 44.478,111.529 44.797,111.667 44.920 C 111.805 45.043,112.405 45.375,113.000 45.659 C 118.169 48.119,119.878 50.213,120.314 54.618 C 120.527 56.764,120.396 73.805,120.146 76.465 C 119.796 80.198,117.410 82.780,113.083 84.109 C 112.179 84.387,111.412 84.417,105.083 84.417 C 97.471 84.417,97.326 84.402,95.361 83.415 C 94.907 83.187,94.465 83.000,94.380 83.000 C 93.806 83.000,91.705 80.713,90.982 79.301 C 90.314 77.995,90.138 75.529,90.055 66.250 L 89.978 57.750 90.434 57.056 C 90.685 56.674,91.068 56.280,91.286 56.181 C 91.801 55.946,101.561 55.932,101.997 56.165 C 102.731 56.558,102.825 57.500,102.827 64.417 C 102.829 73.524,103.100 74.647,105.303 74.661 C 107.243 74.673,107.182 74.970,107.290 64.996 C 107.398 55.004,107.453 55.382,105.661 53.840 C 105.020 53.288,104.127 52.650,103.677 52.422 C 103.227 52.194,102.587 51.823,102.255 51.597 C 101.922 51.372,101.373 51.098,101.033 50.989 C 100.694 50.880,100.117 50.607,99.750 50.382 C 99.383 50.157,98.258 49.485,97.250 48.889 C 92.611 46.148,91.176 44.649,90.399 41.733 L 89.974 40.133 90.039 30.775 L 90.104 21.417 90.534 20.390 C 91.614 17.808,94.447 15.361,96.942 14.855 C 99.391 14.358,109.297 14.240,112.376 14.671 M65.939 15.066 C 66.811 15.594,66.911 16.242,67.330 24.083 C 67.423 25.825,67.574 28.000,67.664 28.917 C 67.755 29.833,67.979 33.171,68.162 36.333 C 68.499 42.147,68.706 45.048,69.001 48.083 C 69.090 49.000,69.244 50.874,69.343 52.248 C 69.442 53.622,69.542 54.764,69.565 54.787 C 69.588 54.810,69.743 54.249,69.908 53.539 C 70.074 52.830,70.416 51.650,70.668 50.917 C 71.334 48.980,71.318 49.124,72.003 38.917 C 72.101 37.450,72.256 35.313,72.346 34.167 C 72.531 31.840,72.847 27.457,73.237 21.833 C 73.764 14.232,73.398 14.667,79.271 14.667 C 83.463 14.667,84.259 14.791,84.533 15.490 C 84.716 15.956,84.611 19.748,84.346 22.250 C 84.080 24.762,83.673 29.091,83.414 32.167 C 83.279 33.771,83.049 36.208,82.903 37.583 C 82.615 40.300,82.452 42.073,82.180 45.417 C 82.083 46.608,81.929 48.333,81.837 49.250 C 81.745 50.167,81.559 52.042,81.423 53.417 C 81.286 54.792,81.101 56.306,81.010 56.781 C 80.682 58.507,80.313 61.978,80.164 64.750 C 80.080 66.308,79.856 68.671,79.667 70.000 C 79.478 71.329,79.213 73.985,79.079 75.901 C 78.668 81.746,78.371 83.000,77.216 83.757 C 76.626 84.144,72.451 84.344,67.500 84.224 C 62.004 84.091,61.809 83.998,61.600 81.417 C 61.541 80.683,61.385 79.371,61.254 78.500 C 60.900 76.144,60.532 72.869,60.337 70.327 C 60.242 69.087,60.098 67.843,60.018 67.564 C 59.938 67.284,59.822 66.574,59.760 65.986 C 59.698 65.398,59.507 63.867,59.335 62.583 C 58.944 59.653,58.717 57.522,58.497 54.707 C 58.402 53.492,58.211 51.654,58.071 50.624 C 57.776 48.445,57.386 44.502,57.161 41.431 C 57.074 40.247,56.890 38.484,56.752 37.514 C 56.445 35.364,56.074 31.686,55.668 26.750 C 55.462 24.253,55.065 20.989,54.847 20.000 C 54.602 18.892,54.622 15.791,54.875 15.452 C 55.510 14.602,64.646 14.284,65.939 15.066 M134.616 72.583 C 135.606 73.277,135.739 73.817,135.806 77.416 C 135.922 83.687,135.687 83.999,130.833 83.998 C 128.404 83.997,126.514 83.542,126.499 82.955 C 126.499 82.934,126.424 82.467,126.333 81.917 C 126.242 81.367,126.164 79.434,126.161 77.622 C 126.150 72.381,126.186 72.343,131.088 72.337 C 133.641 72.334,134.329 72.382,134.616 72.583 " stroke="none" fill="#d92115" fill-rule="evenodd"></path></g></svg>
