<?xml version="1.0" encoding="utf-8"?>
<!-- Generator: Adobe Illustrator 21.0.2, SVG Export Plug-In . SVG Version: 6.00 Build 0)  -->
<svg version="1.1" id="Ebene_1" xmlns="http://www.w3.org/2000/svg" xmlns:xlink="http://www.w3.org/1999/xlink" x="0px" y="0px"
	 viewBox="0 0 650 170" enable-background="new 0 0 650 170" xml:space="preserve">
<g>
	<path fill="#706D6D" d="M463.6,94.1h-8.9V60.1c0,0,22.2,0,32.7,0c5.6,0,10.1,4.6,10.3,11v23.1h-8.4c0,0,0-14.7,0-21.2
		c0-3.2-1.6-5.4-4.4-5.6c-1.5-0.1-3,0-4.6,0c0,8.9,0,26.8,0,26.8h-8.8c0,0,0-17.9,0-26.9c-2.6,0-5.2,0-7.8,0
		C463.6,76.1,463.6,94.1,463.6,94.1z"/>
	<path fill="#706D6D" d="M598.9,94.1H590V60.1c0,0,22.2,0,32.7,0c5.6,0,10.1,4.6,10.3,11v23.1h-8.4c0,0,0-14.7,0-21.2
		c0-3.2-1.6-5.4-4.4-5.6c-1.5-0.1-3,0-4.6,0c0,8.9,0,26.8,0,26.8h-8.8c0,0,0-17.9,0-26.9c-2.6,0-5.2,0-7.8,0
		C598.9,76.1,598.9,94.1,598.9,94.1z"/>
	<path fill="#706D6D" d="M356,81.2c2.8,4.2,5.8,8.7,8.7,13c-3.4,0-9.9,0-9.9,0l-7.7-12.6h-8.5c0,0,0,8.4,0,12.6c-2.9,0-5.9,0-8.8,0
		c0-11.2,0-22.7,0-33.9c0.5,0,0.9,0,1.2,0c7.7,0,15.4,0,22.9,0c6.2,0,10.7,6.4,9.5,13.3c-0.7,3.8-2.8,6.1-6,7.3
		C357,80.8,356.7,80.9,356,81.2z M338.6,75.4c3.8,0,11.5,0,11.5,0c0.6,0,1.2-0.3,1.8-0.6c1.2-0.6,2.1-1.5,2.1-3.3
		c0-1.8-0.6-3.2-2.1-4c-0.9-0.4-1.8-0.6-2.7-0.6h-10.6C338.6,67,338.6,72.6,338.6,75.4z"/>
	<path fill="#706D6D" d="M449.8,94.1h-22.4c-1.7,0-3.4-0.4-5-0.9c-4.1-1.4-6.3-5.1-6-9.8c0.2-4.8,2.9-8.5,7-9.6
		c0.9-0.3,1.9-0.4,2.9-0.4h14.2c0.3,0-0.3,0,0,0c0-3.7-2.7-6.8-6.2-6.8h-15.6v-6.5h18.2c7,0,12.4,5.9,12.6,13.8v20.2H449.8
		L449.8,94.1z M440.9,79.8c-3.7,0-7.3,0-11,0c-2.3,0-3.8,1.5-4,4c0,2.3,1.5,3.8,3.8,3.8h11.1C440.9,87.4,440.9,82.5,440.9,79.8z"/>
	<path fill="#706D6D" d="M186.6,94.1v-6.6h19.6c1.8,0,2.9-1,3.3-3.1c0.3-1.5-0.6-3.1-2.1-3.7c-0.7-0.3-1.5-0.5-2.3-0.5H193
		c-5-0.1-7.8-3.4-8.2-9.3c-0.3-4.6,2.7-9.8,6.8-10.7c0,0,17.5,0,25.9,0c0,2,0,4.7,0,6.9c-0.5,0-0.8,0-1.2,0c-5.8,0-11.5,0-17.3,0
		c-0.6,0-1.1,0-1.6,0.1c-1.4,0.3-2.4,1.3-2.6,2.7s0.3,2.8,1.4,3.7c0.3,0.3,0.9,0.4,1.4,0.4h13.1c3.3,0.1,6.3,1,7.9,4.6
		c2.8,6.3,0.7,15.3-7.8,15.4L186.6,94.1L186.6,94.1z"/>
	<path fill="#706D6D" d="M567.3,59.4c3.4,0.1,6.7,0.5,9.7,2.2c4.3,2.2,7.5,5.7,8.4,11c1.1,6.6,0.1,12.9-4.6,17.6
		c-2.7,2.7-6.1,3.8-9.5,4.6c-5.4,1-10.5,0-15.4-2.7c-4.5-2.6-6.4-7.1-7-12.5c-0.2-2.8-0.2-5.5,0.6-8.2c1.8-6.3,6-9.4,11.3-10.8
		C562.8,59.9,564,59.5,567.3,59.4z M577,77.1c0-0.6,0-1.3-0.1-1.9c-0.2-4.6-2.7-8.2-6.4-9.2c-2.3-0.6-4.4-0.6-6.7,0
		c-3.2,0.8-5.3,2.9-6.2,6.5c-0.7,2.8-0.7,5.7-0.3,8.5c0.5,3.3,2.3,5.6,5.1,6.5c1.7,0.5,3.5,0.8,5.3,0.6
		C573.8,87.9,577.2,84,577,77.1z"/>
	<path fill="#706D6D" d="M325.1,73.8c0,2.2,0,4.3,0,6.5c-7,0-13.9,0-20.9,0c0,4.1,2.6,7,6.1,7c4.5,0,14.7,0,14.7,0v6.9h-16.8
		c-8.4-0.4-13.4-7.1-13.2-15.9c0.1-2.9,0.2-5.7,1.2-8.4c2-5.9,6.8-9.6,12.4-9.6c5.1,0,16.6,0,16.6,0v6.9c0,0-11.4,0-14.1,0
		c-3.4,0-6.1,2.8-6.5,6.8C311.3,73.8,318.2,73.8,325.1,73.8z"/>
	<path fill="#706D6D" d="M245.8,87.2c0,0,0-18.1,0-27c2.9,0,5.6,0,8.6,0c0,11.1,0,33.9,0,33.9h-22.6c-2.8,0-5.1-1.1-6.8-3.6
		c-1.7-2.3-2.7-4.7-2.6-7.9c0.1-6.8,0-22.5,0-22.5h8.6v21.7c-0.1,3.2,1.5,5.1,4.1,5.4C235.2,87.2,245.8,87.2,245.8,87.2z"/>
	<path fill="#706D6D" d="M267.8,82.6c0,4,0,7.7,0,11.5c-2.8,0-5.5,0-8.4,0c0-11.1,0-33.9,0-33.9h22.8c4.1-0.1,8.1,3.3,9.3,8.3
		c1.8,7.4-2.8,14.2-9.6,14.2c-4.3,0-8.6,0-13,0C268.7,82.6,268.4,82.6,267.8,82.6z M268.1,76.1h11.5c0.5,0,1-0.4,1.4-0.6
		c1.2-1,2.1-3.6,1.7-5c-0.7-2.3-1.9-3.3-4-3.3H268v8.9H268.1z"/>
	<path fill="#706D6D" d="M414.1,60.1v6.5h-14.7c-2.5,0.1-4.6,1.4-6.1,3.7c-0.5,0.8-0.8,1.8-0.9,3.2c7.2,0,14.2,0,21.2,0
		c0,2.4,0,4.7,0,7.1c-7.1,0-14.1,0-21.3,0c0,4.3,0,8.9,0,13.4c-2.9,0-8.7,0-8.7,0s0-13.9,0-20c0-7.3,4.9-13.7,11.3-13.9H414.1
		L414.1,60.1z"/>
	<path fill="#706D6D" d="M546,87.4v6.6h-15.8c-6.5,0-11.5-4.3-13.2-11.6c-1.2-5.6-0.7-11.4,2.1-16.2c2.4-4.1,5.8-6.1,10.2-6.1h16.9
		v6.8h-14.3c-2.8,0-4.6,1.5-5.5,4.5c-1.1,3.4-1.2,7.4-0.2,11c0.9,3.3,3.2,5.1,6.3,5.1L546,87.4L546,87.4z"/>
	<path fill="#706D6D" d="M355.8,125.1c0-2,0-4.1,0-6.1c7,0,13.9,0,20.9,0c0-3.4,0-6.8,0-10.1c-6.9,0-13.7,0-20.6,0c0-2,0-4,0-5.9
		c8.4,0,16.6,0,25.1,0c0,7.4,0,14.7,0,22.1C372.7,125.1,364.2,125.1,355.8,125.1z"/>
	<path fill="#706D6D" d="M185.5,108.6c0-2.2,0-4,0-6c7,0,13.9,0,20.9,0c0.6,4.3,0.2,8.4-1,12.5c-0.1,0.4-0.3,1-0.3,1
		s3.8,6.1,5.6,8.9c-2,0-5.9,0-5.9,0s-2-3.1-2.8-4.3c-0.5,0.4-0.8,0.6-1.1,1c-2.5,2.2-5.1,3.4-8.4,3.3c0,0-5.2,0-7.8,0V119
		c0,0,3.6,0,5.5,0c2.4,0,4.6-0.3,6.8-1.1c3.4-1.5,5.4-5,5.2-9.2C196.7,108.6,191.1,108.6,185.5,108.6z"/>
	<rect x="503" y="60.1" fill="#706D6D" width="9.3" height="33.9"/>
	<path fill="#706D6D" d="M280.9,125.1V119h10.8c4.4,0.3,7.8-2.9,7.7-9.1c0-0.4,0-0.8-0.1-1.3c-6.5,0-13.1,0-19.8,0
		c0-1.9,0-3.8,0-5.7c7.9,0,23.8,0,23.8,0v11c0,1-0.3,2.2-0.7,3.1c-1.6,4.8-4.9,7.8-9.4,8.2H280.9L280.9,125.1z"/>
	<path fill="#706D6D" d="M305.5,113.2c0-1.8,0-3.6,0-5.2c7,0,21,0,21,0v7.8c0,3.1-1.9,4.5-9.7,4.5c0,0-0.1,1.4-0.3,1.8
		c-0.8,2.3-2.4,3.2-4.7,3.2h-5.1c0-1.8,0-3.6,0-5.4c1.7,0,3.4,0,5,0c1.6,0,2.1-0.4,2.4-2.3c0.1-0.5,0.1-1.1,0.2-1.8
		c2.1,0,4.3,0,6.4,0c1.5,0,1.9-0.5,1.9-2.4C317,113.2,311.3,113.2,305.5,113.2z"/>
	<path fill="#706D6D" d="M408.7,103.1v12.5c-0.9,7-6.4,9.6-10.5,9.4h-14.5V119h14.8c3,0.1,6.1-3.1,6.1-7c0-2.6,0-5.1,0-7.5
		c0-0.4,0-0.8,0-1.1C406.1,103.1,407.5,103.1,408.7,103.1z"/>
	<path fill="#706D6D" d="M241.5,102.6c1.6,0,2.9,0,4.5,0c0,2.4,0,4.8,0,7.3c0,0.5,0,1,0,1.4c-0.3,5.7,3.3,7.4,6.5,7.4
		c0.5,0,0.9,0,1.4,0c0,2,0,4.1,0,6.1c-7.3,0.5-12.2-3.2-12.4-11.4c-0.1-3.2,0-6.4,0-9.6C241.5,103.5,241.5,103.1,241.5,102.6z"/>
	<polygon fill="#706D6D" points="353.4,118.1 328.7,114.6 328.7,109.1 353.4,112.4 	"/>
	<polygon fill="#706D6D" points="353.4,110.8 328.7,107.2 328.7,101.9 353.4,105.2 	"/>
	<path fill="#706D6D" d="M353.4,120c0,1.9,0,3.7,0,5.6c-8.2-1.1-16.5-2.3-24.7-3.6c0-1.7,0-3.6,0-5.5
		C336.9,117.5,345.2,119,353.4,120z"/>
	<path fill="#706D6D" d="M227.1,124.9c0-2.2,0-4.1,0-6.1c1.1-0.1,2.1-0.1,3.2-0.3c3-0.5,4.7-2.9,4.7-6.4c0-3.1,0-6.1,0-9.3
		c1.5,0,2.9,0,4.6,0c0,2.6,0,5,0,7.5c0,1.7,0,3.4-0.2,5c-1,5.7-4.2,8.7-9.5,9.2C229.1,124.8,228.2,124.8,227.1,124.9z"/>
	<path fill="#706D6D" d="M227.5,111c0,1.9,0,3.8,0,5.6c-6.3,0-12.5,0-18.9,0c0-1.9,0-3.7,0-5.6C214.8,111,221.2,111,227.5,111z"/>
	<path fill="#706D6D" d="M254.2,110.8c6.3,0,12.6,0,18.9,0c0,1.9,0,3.7,0,5.6c-6.3,0-12.5,0-18.9,0
		C254.2,114.6,254.2,112.7,254.2,110.8z"/>
	<path fill="#706D6D" d="M398.8,102.9c0,1.9,0,4,0,5.9c-5,0-9.9,0-14.9,0c0-1.8,0-4,0-5.9C388.7,102.9,393.7,102.9,398.8,102.9z"/>
	<path fill="#706D6D" d="M254.5,106.4c0,2.3-1.7,4.1-3.6,4.1s-3.6-1.8-3.6-4.1c0-2.3,1.6-4.2,3.6-4.2
		C252.8,102.4,254.5,104.2,254.5,106.4z M252.2,106.4c0-0.9-0.8-1.8-1.6-1.8c-0.8,0-1.6,0.9-1.5,1.9c0.1,1,0.7,1.7,1.6,1.7
		C251.6,108.1,252.1,107.5,252.2,106.4z"/>
	<g>
		<path fill="#706D6D" d="M412.7,106.8v-5.4h2.1c0.5,0,0.8,0,1,0.1c0.2,0.1,0.5,0.3,0.6,0.5c0.1,0.3,0.2,0.5,0.2,0.8
			c0,0.4-0.1,0.8-0.3,1c-0.2,0.3-0.6,0.4-1,0.5c0.1,0.1,0.3,0.1,0.3,0.3c0.2,0.1,0.3,0.4,0.6,0.8l0.8,1.5h-0.8l-0.7-1.1
			c-0.2-0.4-0.3-0.5-0.5-0.8c-0.1-0.1-0.2-0.3-0.3-0.4c-0.1-0.1-0.2-0.1-0.3-0.1c-0.1,0-0.2,0-0.3,0h-0.7v2.4h-0.7V106.8z
			 M413.2,103.8h1.4c0.3,0,0.6,0,0.7-0.1c0.1-0.1,0.3-0.1,0.3-0.4c0.1-0.1,0.1-0.3,0.1-0.5c0-0.3-0.1-0.5-0.2-0.6
			c-0.1-0.1-0.5-0.3-0.8-0.3h-1.5V103.8L413.2,103.8z"/>
	</g>
	<g>
		<path fill="#706D6D" d="M414.5,109.3c-2.5,0-4.4-2.3-4.4-5c0-2.7,2-5,4.4-5c2.5,0,4.4,2.3,4.4,5C418.9,107,417,109.3,414.5,109.3z
			 M414.5,100.1c-2,0-3.6,1.8-3.6,4.1c0,2.3,1.6,4.1,3.6,4.1c2,0,3.6-1.8,3.6-4.1C418.1,101.9,416.5,100.1,414.5,100.1z"/>
	</g>
	<g>
		<g>
			<path fill="#706D6D" d="M637.1,62.8v-5.4h2.1c0.5,0,0.8,0,1,0.1c0.2,0.1,0.5,0.3,0.6,0.5s0.2,0.5,0.2,0.8c0,0.4-0.1,0.8-0.3,1
				c-0.2,0.3-0.6,0.4-1,0.5c0.1,0.1,0.3,0.1,0.3,0.3c0.2,0.3,0.3,0.4,0.6,0.8l0.8,1.5h-0.8l-0.7-1.1c-0.2-0.4-0.3-0.5-0.5-0.8
				c-0.1-0.1-0.2-0.3-0.3-0.4s-0.2-0.1-0.3-0.1c-0.1,0-0.2,0-0.3,0h-0.7v2.3H637.1L637.1,62.8L637.1,62.8z M637.7,59.8h1.4
				c0.3,0,0.6,0,0.7-0.1c0.1-0.1,0.3-0.1,0.3-0.4c0.1-0.1,0.1-0.3,0.1-0.5c0-0.3-0.1-0.5-0.2-0.6s-0.5-0.3-0.8-0.3h-1.5L637.7,59.8
				L637.7,59.8z"/>
		</g>
		<g>
			<path fill="#706D6D" d="M639,65.2c-2.5,0-4.4-2.3-4.4-5c0-2.7,2-5,4.4-5c2.5,0,4.4,2.3,4.4,5C643.4,62.9,641.5,65.2,639,65.2z
				 M639,56.1c-2,0-3.6,1.8-3.6,4.1s1.6,4.1,3.6,4.1s3.6-1.8,3.6-4.1S641,56.1,639,56.1z"/>
		</g>
	</g>
	<g>
		<path id="path2842" fill="#01954B" d="M75,97.3c0,11.2-16,20.3-35.9,20.3S3.2,108.5,3.2,97.3l0,0C3.2,86,19.3,77,39.1,77
			S75,86,75,97.3L75,97.3z"/>
		<path id="path3624" fill="#F9EC2B" d="M136.9,129.3c0,11.2-16,20.3-35.9,20.3s-35.9-9.1-35.9-20.3l0,0c0-11.2,16-20.3,35.9-20.3
			S136.9,118.1,136.9,129.3L136.9,129.3z"/>
		<path id="path3644" fill="#323B98" d="M76.4,15.6c-18.1,0-32.9,16.3-33.2,36.7c0.8,0,1.5-0.1,2.3-0.1c18.4,0,33.3,16.8,33.3,37.6
			c0,0.3,0,0.6,0,0.9c17.3-1.3,30.9-17.6,30.9-37.5C109.6,32.4,94.7,15.6,76.4,15.6L76.4,15.6z"/>
		<path id="path3897" fill="#EB2D2F" d="M139.3,48.5c-18.4,0-33.2,16.8-33.2,37.6c0,0.5,0,0.9,0,1.4c0.5,0,0.9,0,1.4,0
			c18,0,32.6,16.1,33.2,36.2c17.7-0.8,32-17.2,32-37.5C172.6,65.4,157.7,48.5,139.3,48.5L139.3,48.5z"/>
	</g>
</g>
</svg>
