<svg id="svg" version="1.1" width="400" height="48.496993987975955" viewBox="0 0 400 48.496993987975955" xmlns="http://www.w3.org/2000/svg" xmlns:xlink="http://www.w3.org/1999/xlink" ><g id="svgg"><path id="path0" d="M265.913 30.333 C 265.913 39.271,265.934 42.927,265.958 38.458 C 265.983 33.990,265.983 26.677,265.958 22.208 C 265.934 17.740,265.913 21.396,265.913 30.333 " stroke="none" fill="#000000" fill-rule="evenodd"></path><path id="path1" d="M362.580 31.750 C 362.580 39.908,362.600 43.221,362.625 39.112 C 362.650 35.003,362.650 28.328,362.625 24.279 C 362.600 20.230,362.580 23.592,362.580 31.750 " stroke="none" fill="#550000" fill-rule="evenodd"></path><path id="path2" d="M166.039 5.355 C 166.000 10.785,165.999 10.793,165.625 11.054 C 165.419 11.198,165.332 11.320,165.433 11.325 C 166.127 11.358,166.173 10.959,166.125 5.318 L 166.079 -0.083 166.039 5.355 M9.375 4.122 C 9.169 4.261,9.000 4.445,9.000 4.532 C 9.000 4.619,9.111 4.579,9.247 4.443 C 9.383 4.308,9.589 4.162,9.705 4.121 C 9.822 4.080,9.879 4.006,9.833 3.958 C 9.787 3.909,9.581 3.983,9.375 4.122 M261.594 4.374 C 261.863 4.672,262.102 4.947,262.125 4.985 C 262.148 5.024,262.199 5.023,262.240 4.983 C 262.334 4.888,261.415 3.833,261.239 3.833 C 261.165 3.833,261.325 4.077,261.594 4.374 M367.526 5.192 C 367.232 5.479,367.022 5.744,367.059 5.781 C 367.096 5.818,367.364 5.611,367.654 5.321 C 367.944 5.030,368.154 4.765,368.120 4.732 C 368.087 4.698,367.819 4.905,367.526 5.192 M395.000 4.724 C 395.000 4.784,395.150 4.983,395.333 5.167 C 395.517 5.350,395.667 5.437,395.667 5.359 C 395.667 5.282,395.517 5.083,395.333 4.917 C 395.150 4.751,395.000 4.664,395.000 4.724 M304.500 10.736 C 304.500 10.912,305.002 11.387,305.092 11.297 C 305.134 11.255,305.018 11.084,304.834 10.918 C 304.650 10.751,304.500 10.669,304.500 10.736 M66.964 11.561 C 66.717 11.749,66.785 11.777,67.464 11.772 C 67.897 11.769,68.119 11.738,67.958 11.704 C 67.798 11.670,67.667 11.573,67.667 11.488 C 67.667 11.268,67.300 11.306,66.964 11.561 M385.667 12.016 C 385.667 12.180,386.481 13.075,386.556 12.993 C 386.594 12.951,386.409 12.692,386.146 12.417 C 385.883 12.142,385.667 11.961,385.667 12.016 M100.180 12.625 L 99.974 13.083 100.320 12.715 C 100.692 12.321,100.750 12.167,100.527 12.167 C 100.450 12.167,100.294 12.373,100.180 12.625 M104.372 12.500 C 104.567 12.813,104.833 12.950,104.833 12.738 C 104.833 12.614,104.385 12.167,104.260 12.167 C 104.207 12.167,104.258 12.317,104.372 12.500 M123.677 12.583 C 123.677 12.675,123.787 12.896,123.922 13.074 C 124.057 13.251,124.167 13.322,124.167 13.230 C 124.167 13.139,124.057 12.918,123.922 12.740 C 123.787 12.562,123.677 12.492,123.677 12.583 M105.247 30.667 C 105.247 39.604,105.267 43.260,105.292 38.792 C 105.316 34.323,105.316 27.010,105.292 22.542 C 105.267 18.073,105.247 21.729,105.247 30.667 M292.542 18.093 C 292.296 18.360,292.276 18.500,292.482 18.500 C 292.624 18.500,292.891 17.999,292.796 17.910 C 292.771 17.886,292.656 17.969,292.542 18.093 M166.039 24.033 C 166.004 28.230,165.973 28.666,165.708 28.820 C 165.548 28.913,165.501 28.992,165.605 28.995 C 166.122 29.009,166.172 28.525,166.125 23.980 L 166.078 19.417 166.039 24.033 M396.530 27.418 C 396.331 27.646,396.227 27.833,396.297 27.833 C 396.462 27.833,397.046 27.157,396.958 27.069 C 396.921 27.032,396.729 27.189,396.530 27.418 M47.013 29.375 C 47.006 29.535,46.925 29.667,46.833 29.667 C 46.742 29.667,46.667 29.758,46.667 29.869 C 46.667 30.000,46.762 29.977,46.936 29.802 C 47.084 29.654,47.165 29.432,47.116 29.308 C 47.055 29.154,47.022 29.175,47.013 29.375 M394.170 29.772 C 393.943 29.989,393.815 30.167,393.885 30.167 C 394.059 30.167,394.744 29.520,394.655 29.440 C 394.615 29.405,394.397 29.554,394.170 29.772 M391.667 31.461 C 391.667 31.562,391.516 31.692,391.331 31.751 C 391.146 31.809,391.038 31.926,391.090 32.010 C 391.142 32.094,391.344 32.015,391.538 31.833 C 391.733 31.652,391.842 31.453,391.780 31.391 C 391.717 31.329,391.667 31.360,391.667 31.461 M166.039 41.570 C 166.005 46.096,165.966 46.761,165.724 47.029 C 165.569 47.200,165.530 47.333,165.635 47.333 C 166.107 47.333,166.171 46.585,166.125 41.548 L 166.078 36.417 166.039 41.570 M379.844 37.750 C 379.844 37.842,379.954 38.062,380.089 38.240 C 380.223 38.418,380.333 38.489,380.333 38.397 C 380.333 38.305,380.223 38.085,380.089 37.907 C 379.954 37.729,379.844 37.658,379.844 37.750 M41.363 39.751 C 41.165 39.980,41.060 40.167,41.131 40.167 C 41.295 40.167,41.879 39.490,41.791 39.402 C 41.754 39.366,41.562 39.523,41.363 39.751 M37.810 42.994 C 37.594 43.175,37.476 43.325,37.549 43.328 C 37.621 43.331,37.842 43.183,38.038 43.000 C 38.500 42.570,38.324 42.566,37.810 42.994 M387.000 46.247 C 387.000 46.302,387.159 46.513,387.354 46.715 L 387.708 47.083 387.520 46.718 C 387.334 46.356,387.000 46.054,387.000 46.247 M362.500 46.631 C 362.500 46.714,362.661 46.925,362.858 47.099 C 363.213 47.414,363.214 47.414,363.023 47.051 C 362.811 46.646,362.500 46.396,362.500 46.631 M273.750 47.167 C 273.429 47.305,273.430 47.310,273.782 47.322 C 273.983 47.328,274.193 47.258,274.250 47.167 C 274.372 46.970,274.209 46.970,273.750 47.167 M356.750 47.167 L 353.917 47.262 356.792 47.298 C 358.621 47.320,359.667 47.273,359.667 47.167 C 359.667 47.075,359.648 47.016,359.625 47.036 C 359.602 47.055,358.308 47.114,356.750 47.167 " stroke="none" fill="#b60000" fill-rule="evenodd"></path><path id="path3" d="M139.747 18.667 C 139.747 28.979,139.767 33.198,139.792 28.042 C 139.816 22.885,139.816 14.448,139.792 9.292 C 139.767 4.135,139.747 8.354,139.747 18.667 M304.517 5.282 C 304.506 8.697,304.561 10.684,304.667 10.750 C 304.869 10.875,304.869 0.965,304.667 0.333 C 304.593 0.104,304.526 2.331,304.517 5.282 M78.833 4.083 C 79.144 4.404,79.436 4.667,79.482 4.667 C 79.528 4.667,79.311 4.404,79.000 4.083 C 78.689 3.762,78.397 3.500,78.351 3.500 C 78.305 3.500,78.522 3.762,78.833 4.083 M6.493 6.787 C 6.084 7.220,5.935 7.426,6.161 7.245 C 6.673 6.836,6.855 6.660,7.145 6.291 C 7.578 5.740,7.235 6.001,6.493 6.787 M380.542 10.615 C 380.702 10.657,380.965 10.657,381.125 10.615 C 381.285 10.573,381.154 10.539,380.833 10.539 C 380.512 10.539,380.381 10.573,380.542 10.615 M382.042 10.615 C 382.202 10.657,382.465 10.657,382.625 10.615 C 382.785 10.573,382.654 10.539,382.333 10.539 C 382.012 10.539,381.881 10.573,382.042 10.615 M327.208 10.958 C 325.261 10.988,324.000 11.071,324.000 11.170 C 324.000 11.464,330.087 11.381,330.333 11.083 C 330.447 10.946,330.513 10.850,330.479 10.871 C 330.445 10.892,328.973 10.931,327.208 10.958 M152.833 11.167 C 152.833 11.275,155.024 11.333,159.073 11.333 C 163.054 11.333,165.351 11.273,165.417 11.167 C 165.485 11.057,163.363 11.000,159.177 11.000 C 155.059 11.000,152.833 11.058,152.833 11.167 M298.833 11.167 C 298.662 11.278,299.054 11.328,300.083 11.328 C 300.908 11.328,301.696 11.256,301.833 11.167 C 302.005 11.056,301.613 11.005,300.583 11.005 C 299.758 11.005,298.971 11.078,298.833 11.167 M305.081 11.163 C 305.146 11.269,306.319 11.333,308.176 11.333 L 311.165 11.333 311.209 29.042 L 311.252 46.750 311.251 28.917 L 311.250 11.083 308.113 11.038 C 306.007 11.007,305.010 11.049,305.081 11.163 M346.708 11.249 C 346.455 11.537,346.420 15.451,346.667 15.833 C 346.775 16.001,346.829 15.303,346.831 13.708 L 346.833 11.333 349.010 11.333 C 350.418 11.333,351.150 11.275,351.083 11.167 C 350.912 10.890,346.959 10.965,346.708 11.249 M233.872 12.833 C 233.872 13.154,233.906 13.285,233.948 13.125 C 233.990 12.965,233.990 12.702,233.948 12.542 C 233.906 12.381,233.872 12.512,233.872 12.833 M99.580 30.167 C 99.580 39.196,99.600 42.890,99.625 38.375 C 99.650 33.860,99.650 26.473,99.625 21.958 C 99.600 17.444,99.580 21.137,99.580 30.167 M265.500 30.427 C 265.500 41.335,265.556 46.818,265.667 46.750 C 265.776 46.682,265.833 41.026,265.833 30.323 C 265.833 19.552,265.777 14.000,265.667 14.000 C 265.557 14.000,265.500 19.587,265.500 30.427 M83.172 30.479 C 83.169 39.367,83.121 46.757,83.066 46.902 C 82.976 47.135,82.291 47.171,77.274 47.206 L 71.583 47.245 77.248 47.292 L 82.912 47.338 83.202 46.961 C 83.539 46.523,83.672 14.626,83.338 14.420 C 83.234 14.355,83.175 20.069,83.172 30.479 M233.913 30.750 C 233.913 39.458,233.934 43.045,233.958 38.721 C 233.983 34.397,233.983 27.272,233.958 22.888 C 233.934 18.504,233.913 22.042,233.913 30.750 M346.740 17.791 L 346.750 19.417 347.626 19.431 L 348.502 19.446 347.674 19.381 L 346.845 19.316 346.788 17.741 L 346.731 16.166 346.740 17.791 M362.778 16.778 C 362.589 16.967,362.646 46.634,362.835 46.751 C 362.948 46.821,363.002 41.883,362.998 31.761 C 362.995 23.459,362.970 16.667,362.941 16.667 C 362.912 16.667,362.839 16.717,362.778 16.778 M155.969 19.458 C 157.740 19.485,160.590 19.485,162.303 19.458 C 164.015 19.431,162.567 19.409,159.083 19.409 C 155.600 19.409,154.199 19.431,155.969 19.458 M351.708 19.458 C 353.060 19.486,355.273 19.486,356.625 19.458 C 357.977 19.430,356.871 19.407,354.167 19.407 C 351.462 19.407,350.356 19.430,351.708 19.458 M65.375 23.458 C 66.452 23.487,68.215 23.487,69.292 23.458 C 70.369 23.429,69.487 23.405,67.333 23.405 C 65.179 23.405,64.298 23.429,65.375 23.458 M247.708 23.458 C 248.785 23.487,250.548 23.487,251.625 23.458 C 252.702 23.429,251.821 23.405,249.667 23.405 C 247.512 23.405,246.631 23.429,247.708 23.458 M351.302 28.958 C 352.798 28.986,355.198 28.986,356.635 28.958 C 358.073 28.930,356.850 28.908,353.917 28.908 C 350.983 28.908,349.807 28.930,351.302 28.958 M17.671 33.282 C 17.898 33.437,18.138 33.643,18.206 33.740 C 18.290 33.861,18.329 33.857,18.331 33.728 C 18.332 33.623,18.148 33.417,17.923 33.269 C 17.375 32.910,17.145 32.922,17.671 33.282 M118.402 46.998 C 118.301 47.099,115.818 47.180,111.994 47.208 L 105.750 47.254 112.021 47.294 C 117.425 47.328,118.321 47.299,118.500 47.083 C 118.731 46.805,118.659 46.741,118.402 46.998 M180.833 47.083 C 181.012 47.298,181.862 47.328,186.895 47.294 L 192.750 47.255 187.006 47.208 C 183.516 47.180,181.198 47.098,181.098 46.998 C 180.834 46.734,180.605 46.808,180.833 47.083 M199.145 47.042 C 199.357 47.312,199.843 47.330,205.645 47.294 L 211.917 47.254 205.681 47.208 C 201.039 47.174,199.378 47.110,199.181 46.956 C 198.947 46.774,198.943 46.784,199.145 47.042 M230.229 47.004 C 230.117 47.116,228.045 47.159,224.212 47.129 C 220.996 47.104,218.400 47.140,218.442 47.208 C 218.608 47.475,230.108 47.354,230.333 47.083 C 230.568 46.801,230.491 46.743,230.229 47.004 M311.500 47.083 C 311.678 47.298,312.538 47.328,317.645 47.294 L 323.583 47.254 317.756 47.208 C 314.210 47.180,311.865 47.098,311.764 46.998 C 311.501 46.734,311.272 46.808,311.500 47.083 M130.833 47.167 L 124.917 47.256 130.782 47.295 C 134.554 47.320,136.684 47.274,136.750 47.167 C 136.807 47.075,136.830 47.017,136.802 47.038 C 136.773 47.060,134.087 47.117,130.833 47.167 M149.891 47.206 C 149.997 47.273,153.571 47.313,157.833 47.294 C 162.096 47.276,164.608 47.240,163.417 47.215 C 158.036 47.100,149.716 47.095,149.891 47.206 M259.667 47.167 L 253.917 47.257 259.615 47.295 C 263.276 47.320,265.350 47.274,265.417 47.167 C 265.473 47.075,265.496 47.017,265.468 47.038 C 265.440 47.059,262.829 47.117,259.667 47.167 M349.667 47.167 L 345.417 47.259 349.615 47.296 C 352.275 47.320,353.851 47.272,353.917 47.167 C 353.973 47.075,353.996 47.017,353.968 47.037 C 353.940 47.058,352.004 47.116,349.667 47.167 M363.144 47.211 C 363.214 47.281,365.816 47.318,368.927 47.294 L 374.583 47.250 368.800 47.167 C 365.619 47.121,363.074 47.141,363.144 47.211 M54.625 47.291 C 56.206 47.319,58.794 47.319,60.375 47.291 C 61.956 47.264,60.663 47.242,57.500 47.242 C 54.337 47.242,53.044 47.264,54.625 47.291 M90.281 47.291 C 91.856 47.319,94.481 47.319,96.114 47.291 C 97.747 47.264,96.458 47.242,93.250 47.242 C 90.042 47.242,88.706 47.264,90.281 47.291 M236.958 47.291 C 238.540 47.319,241.127 47.319,242.708 47.291 C 244.290 47.264,242.996 47.242,239.833 47.242 C 236.671 47.242,235.377 47.264,236.958 47.291 M272.708 47.282 C 272.869 47.323,273.131 47.323,273.292 47.282 C 273.452 47.240,273.321 47.205,273.000 47.205 C 272.679 47.205,272.548 47.240,272.708 47.282 M22.943 47.542 C 23.050 47.717,24.033 47.693,24.325 47.509 C 24.488 47.406,24.288 47.366,23.717 47.386 C 23.249 47.403,22.901 47.473,22.943 47.542 " stroke="none" fill="#dd1111" fill-rule="evenodd"></path><path id="path4" d="M18.691 0.171 C 18.200 0.243,17.717 0.383,17.616 0.484 C 17.516 0.584,17.186 0.667,16.883 0.667 C 16.581 0.667,16.333 0.742,16.333 0.833 C 16.333 0.925,16.118 1.000,15.854 1.000 C 15.590 1.000,15.281 1.112,15.167 1.250 C 15.053 1.387,14.817 1.500,14.644 1.500 C 14.471 1.500,14.161 1.587,13.956 1.693 C 13.751 1.799,13.471 1.937,13.333 2.000 C 12.618 2.326,11.076 3.235,11.028 3.358 C 10.997 3.436,10.863 3.500,10.729 3.500 C 10.595 3.500,10.283 3.687,10.036 3.917 C 9.789 4.146,9.492 4.333,9.377 4.333 C 9.261 4.333,9.167 4.396,9.167 4.472 C 9.167 4.548,8.979 4.711,8.750 4.833 C 8.521 4.956,8.333 5.156,8.333 5.278 C 8.333 5.400,8.249 5.500,8.146 5.500 C 7.907 5.500,4.667 8.749,4.667 8.988 C 4.667 9.086,4.592 9.167,4.500 9.167 C 4.408 9.167,4.333 9.282,4.333 9.422 C 4.333 9.562,4.221 9.720,4.083 9.773 C 3.946 9.826,3.833 9.973,3.833 10.101 C 3.833 10.229,3.758 10.333,3.667 10.333 C 3.575 10.333,3.500 10.483,3.500 10.667 C 3.500 10.850,3.424 11.000,3.331 11.000 C 3.237 11.000,3.031 11.281,2.872 11.625 C 2.713 11.969,2.544 12.287,2.496 12.333 C 2.243 12.575,1.500 14.251,1.500 14.581 C 1.500 14.792,1.397 15.004,1.271 15.052 C 1.054 15.136,0.943 15.492,0.721 16.833 C 0.667 17.154,0.561 17.457,0.485 17.506 C 0.409 17.555,0.325 17.911,0.298 18.297 C 0.272 18.683,0.198 19.000,0.135 19.000 C -0.013 19.000,-0.046 27.899,0.101 28.046 C 0.162 28.106,0.239 28.464,0.273 28.841 C 0.307 29.217,0.410 29.664,0.501 29.835 C 0.592 30.005,0.667 30.333,0.667 30.563 C 0.667 30.792,0.742 31.027,0.833 31.083 C 0.925 31.140,1.000 31.360,1.000 31.573 C 1.000 31.785,1.112 32.053,1.250 32.167 C 1.387 32.281,1.500 32.516,1.500 32.689 C 1.500 32.978,1.647 33.341,2.031 34.000 C 2.111 34.137,2.220 34.381,2.274 34.542 C 2.328 34.702,2.438 34.833,2.519 34.833 C 2.600 34.833,2.667 34.958,2.667 35.109 C 2.667 35.261,2.854 35.631,3.083 35.931 C 3.313 36.232,3.500 36.552,3.500 36.642 C 3.500 36.732,3.566 36.831,3.647 36.861 C 3.727 36.892,3.948 37.173,4.137 37.487 C 4.875 38.710,8.514 42.500,8.951 42.500 C 9.029 42.500,9.198 42.646,9.327 42.824 C 9.455 43.003,9.622 43.111,9.697 43.065 C 9.772 43.018,9.833 43.060,9.833 43.157 C 9.833 43.254,9.946 43.333,10.083 43.333 C 10.221 43.333,10.333 43.408,10.333 43.500 C 10.333 43.592,10.442 43.667,10.575 43.667 C 10.708 43.667,11.018 43.854,11.266 44.083 C 11.513 44.313,11.854 44.500,12.024 44.500 C 12.194 44.500,12.333 44.567,12.333 44.649 C 12.333 44.730,12.521 44.844,12.750 44.902 C 12.979 44.959,13.167 45.080,13.167 45.170 C 13.167 45.260,13.354 45.333,13.583 45.333 C 13.813 45.333,14.000 45.400,14.000 45.481 C 14.000 45.562,14.169 45.666,14.375 45.714 C 14.843 45.821,15.822 46.164,16.206 46.356 C 16.365 46.435,16.715 46.500,16.984 46.500 C 17.252 46.500,17.497 46.574,17.528 46.664 C 17.558 46.753,17.885 46.854,18.253 46.887 C 18.622 46.920,19.095 47.039,19.304 47.151 C 19.846 47.441,27.506 47.433,28.038 47.142 C 28.246 47.027,28.706 46.921,29.060 46.905 C 29.414 46.889,29.754 46.795,29.815 46.697 C 29.875 46.598,30.242 46.499,30.629 46.476 C 31.017 46.454,31.333 46.374,31.333 46.301 C 31.333 46.227,31.477 46.167,31.653 46.167 C 32.125 46.167,32.511 45.986,32.406 45.816 C 32.355 45.734,32.543 45.667,32.823 45.667 C 33.104 45.667,33.333 45.592,33.333 45.500 C 33.333 45.408,33.440 45.333,33.570 45.333 C 33.848 45.333,34.892 44.806,34.972 44.625 C 35.003 44.556,35.153 44.500,35.306 44.500 C 35.458 44.500,35.801 44.312,36.068 44.083 C 36.334 43.854,36.653 43.667,36.776 43.667 C 36.899 43.667,37.000 43.592,37.000 43.500 C 37.000 43.408,37.074 43.333,37.165 43.333 C 37.343 43.333,37.947 42.863,38.715 42.125 C 38.977 41.873,39.223 41.667,39.262 41.667 C 39.385 41.667,40.199 40.933,40.815 40.266 C 41.146 39.908,41.698 39.332,42.042 38.987 C 42.385 38.642,42.667 38.279,42.667 38.180 C 42.667 38.081,42.725 38.000,42.795 38.000 C 42.866 38.000,43.066 37.737,43.238 37.417 C 43.411 37.096,43.616 36.833,43.693 36.833 C 43.770 36.833,43.833 36.717,43.833 36.575 C 43.833 36.433,44.021 36.144,44.250 35.931 C 44.479 35.719,44.667 35.400,44.667 35.223 C 44.667 35.045,44.732 34.829,44.813 34.742 C 45.140 34.387,45.833 32.965,45.833 32.649 C 45.833 32.462,45.946 32.197,46.083 32.060 C 46.221 31.922,46.333 31.632,46.333 31.415 C 46.333 31.197,46.408 30.973,46.500 30.917 C 46.592 30.860,46.667 30.571,46.667 30.273 C 46.667 29.976,46.738 29.662,46.825 29.575 C 46.911 29.488,47.014 29.154,47.052 28.833 C 47.090 28.512,47.206 28.039,47.311 27.781 C 47.633 26.981,47.566 19.922,47.231 19.411 L 46.962 19.000 32.847 19.000 C 22.092 19.000,18.686 19.048,18.533 19.200 C 18.248 19.485,18.248 28.848,18.533 29.133 C 18.683 29.283,20.574 29.333,26.018 29.333 L 33.302 29.333 33.205 29.703 C 33.062 30.252,30.359 32.898,29.546 33.285 C 29.159 33.469,28.890 33.668,28.949 33.727 C 29.008 33.785,28.897 33.833,28.704 33.833 C 28.511 33.833,28.307 33.908,28.250 34.000 C 28.193 34.092,27.979 34.167,27.773 34.167 C 27.568 34.167,27.310 34.256,27.200 34.366 C 27.091 34.476,26.734 34.577,26.409 34.591 C 26.083 34.606,25.730 34.703,25.625 34.809 C 25.392 35.041,21.809 35.074,21.575 34.845 C 21.488 34.760,21.192 34.660,20.917 34.623 C 20.642 34.585,20.042 34.386,19.583 34.181 C 19.125 33.976,18.619 33.798,18.458 33.785 C 18.298 33.773,18.167 33.720,18.167 33.667 C 18.167 33.615,17.928 33.431,17.637 33.259 C 16.431 32.547,14.146 30.223,13.905 29.464 C 13.842 29.263,13.687 28.996,13.561 28.871 C 13.436 28.745,13.333 28.536,13.333 28.405 C 13.333 28.274,13.258 28.167,13.167 28.167 C 13.075 28.167,13.000 27.942,13.000 27.667 C 13.000 27.392,12.935 27.167,12.857 27.167 C 12.778 27.167,12.667 26.773,12.610 26.293 C 12.553 25.812,12.430 25.393,12.336 25.362 C 12.092 25.281,12.115 22.118,12.363 21.871 C 12.470 21.763,12.588 21.354,12.624 20.962 C 12.659 20.571,12.759 20.179,12.844 20.092 C 12.930 20.005,13.000 19.801,13.000 19.639 C 13.000 19.310,13.806 17.781,14.025 17.694 C 14.103 17.664,14.167 17.529,14.167 17.395 C 14.167 17.038,16.974 14.287,17.725 13.908 C 18.078 13.729,18.603 13.456,18.892 13.300 C 19.180 13.144,19.577 13.012,19.774 13.008 C 19.970 13.004,20.174 12.888,20.227 12.750 C 20.294 12.576,20.566 12.500,21.128 12.500 C 21.571 12.500,22.016 12.417,22.117 12.316 C 22.451 11.982,26.686 12.371,27.013 12.766 C 27.120 12.895,27.381 13.000,27.594 13.000 C 27.806 13.000,28.027 13.075,28.083 13.167 C 28.140 13.258,28.332 13.333,28.510 13.333 C 28.688 13.333,28.833 13.392,28.833 13.465 C 28.833 13.537,29.251 13.815,29.761 14.082 C 30.330 14.380,31.131 15.042,31.835 15.798 C 32.737 16.767,33.052 17.006,33.313 16.923 C 33.897 16.738,41.833 8.729,41.833 8.326 C 41.833 7.969,39.528 5.500,39.194 5.500 C 39.107 5.500,38.995 5.395,38.946 5.267 C 38.842 4.996,36.795 3.500,36.529 3.500 C 36.430 3.500,36.290 3.406,36.217 3.291 C 36.143 3.176,35.652 2.860,35.125 2.589 C 34.598 2.318,34.167 2.053,34.167 2.001 C 34.167 1.949,33.964 1.889,33.716 1.869 C 33.468 1.848,33.190 1.757,33.099 1.666 C 33.008 1.575,32.769 1.500,32.568 1.500 C 32.367 1.500,32.159 1.388,32.106 1.250 C 32.050 1.104,31.801 1.000,31.505 1.000 C 31.227 1.000,31.000 0.925,31.000 0.833 C 31.000 0.742,30.706 0.667,30.347 0.667 C 29.988 0.667,29.668 0.588,29.637 0.493 C 29.489 0.052,21.189 -0.192,18.691 0.171 M62.617 0.161 C 62.268 0.228,61.897 0.370,61.792 0.475 C 61.686 0.580,61.464 0.667,61.298 0.667 C 61.020 0.667,60.654 0.816,60.000 1.197 C 59.862 1.277,59.619 1.387,59.458 1.441 C 59.298 1.495,59.167 1.605,59.167 1.686 C 59.167 1.767,59.066 1.833,58.944 1.833 C 58.604 1.833,56.838 3.055,56.835 3.292 C 56.834 3.406,56.759 3.500,56.669 3.500 C 56.508 3.500,54.833 5.087,54.833 5.239 C 54.833 5.282,54.646 5.518,54.417 5.766 C 54.188 6.013,54.000 6.309,54.000 6.423 C 54.000 6.537,53.887 6.674,53.750 6.727 C 53.612 6.780,53.500 6.975,53.500 7.161 C 53.500 7.348,53.425 7.500,53.333 7.500 C 53.242 7.500,53.167 7.644,53.167 7.819 C 53.167 7.995,53.110 8.164,53.042 8.194 C 52.811 8.297,52.333 9.356,52.333 9.764 C 52.333 9.985,52.258 10.167,52.167 10.167 C 52.075 10.167,52.000 10.495,52.000 10.896 C 52.000 11.338,51.902 11.707,51.753 11.831 C 51.498 12.043,51.348 46.244,51.600 46.899 C 51.755 47.304,63.244 47.307,63.399 46.903 C 63.454 46.758,63.500 43.646,63.500 39.986 L 63.500 33.333 67.333 33.333 L 71.167 33.333 71.167 40.012 C 71.167 45.578,71.206 46.730,71.405 46.929 C 71.783 47.307,82.921 47.281,83.066 46.901 C 83.246 46.433,83.190 11.645,83.009 11.428 C 82.918 11.318,82.808 10.935,82.763 10.575 C 82.719 10.216,82.604 9.896,82.508 9.864 C 82.412 9.832,82.333 9.665,82.333 9.494 C 82.333 9.135,81.044 6.611,80.818 6.528 C 80.735 6.497,80.667 6.371,80.667 6.247 C 80.667 6.010,77.497 2.667,77.273 2.667 C 77.201 2.667,77.038 2.573,76.911 2.458 C 76.332 1.940,76.164 1.833,75.924 1.833 C 75.782 1.833,75.667 1.758,75.667 1.667 C 75.667 1.575,75.517 1.500,75.333 1.500 C 75.150 1.500,75.019 1.417,75.042 1.314 C 75.065 1.212,74.897 1.098,74.670 1.060 C 74.443 1.022,74.184 0.918,74.095 0.829 C 74.006 0.740,73.730 0.667,73.481 0.667 C 73.232 0.667,73.000 0.582,72.965 0.479 C 72.824 0.055,64.487 -0.201,62.617 0.161 M96.000 0.114 C 95.771 0.152,95.358 0.286,95.083 0.412 C 94.808 0.539,94.321 0.763,94.000 0.911 C 93.047 1.351,92.277 1.846,91.884 2.269 C 91.682 2.488,91.455 2.667,91.381 2.667 C 91.103 2.667,89.667 4.204,89.667 4.501 C 89.667 4.592,89.572 4.667,89.457 4.667 C 89.342 4.667,89.142 4.910,89.012 5.208 C 88.883 5.506,88.722 5.787,88.655 5.833 C 88.588 5.879,88.507 6.067,88.475 6.250 C 88.443 6.433,88.350 6.632,88.268 6.691 C 88.062 6.840,87.672 7.999,87.669 8.470 C 87.668 8.683,87.554 8.970,87.417 9.107 C 87.160 9.364,87.014 46.243,87.268 46.903 C 87.409 47.271,99.009 47.307,99.314 46.940 C 99.451 46.775,99.502 42.178,99.504 30.081 C 99.506 15.879,99.541 13.422,99.744 13.266 C 99.875 13.166,100.005 12.973,100.033 12.837 C 100.133 12.351,100.808 11.916,101.729 11.743 C 102.062 11.681,102.334 11.544,102.336 11.440 C 102.338 11.300,102.371 11.299,102.461 11.437 C 102.528 11.540,102.843 11.681,103.161 11.750 C 104.108 11.956,104.833 12.450,104.833 12.891 C 104.833 13.027,104.927 13.170,105.042 13.208 C 105.206 13.263,105.259 16.805,105.295 30.014 C 105.324 40.823,105.398 46.770,105.504 46.806 C 105.595 46.837,105.626 46.930,105.575 47.014 C 105.411 47.278,118.192 47.200,118.542 46.935 C 118.816 46.726,118.833 45.724,118.833 30.033 C 118.833 19.093,118.891 13.318,119.000 13.250 C 119.092 13.193,119.167 13.001,119.167 12.823 C 119.167 12.646,119.279 12.500,119.417 12.500 C 119.554 12.500,119.667 12.433,119.667 12.351 C 119.667 12.093,120.976 11.667,121.769 11.667 C 122.831 11.667,124.167 12.470,124.167 13.109 C 124.167 13.232,124.242 13.333,124.333 13.333 C 124.443 13.333,124.500 19.021,124.500 30.063 C 124.500 44.013,124.538 46.824,124.728 46.982 C 124.891 47.117,126.639 47.158,130.853 47.127 L 136.750 47.083 136.748 28.167 C 136.745 9.778,136.704 8.180,136.222 7.698 C 136.100 7.576,136.000 7.300,136.000 7.085 C 136.000 6.870,135.922 6.668,135.826 6.636 C 135.730 6.605,135.640 6.416,135.625 6.217 C 135.610 6.019,135.540 5.892,135.470 5.935 C 135.400 5.978,135.295 5.823,135.237 5.590 C 135.178 5.357,135.064 5.167,134.982 5.167 C 134.900 5.167,134.833 5.088,134.833 4.993 C 134.833 4.607,132.057 1.833,131.671 1.833 C 131.577 1.833,131.500 1.758,131.500 1.667 C 131.500 1.575,131.350 1.500,131.167 1.500 C 130.981 1.500,130.833 1.389,130.833 1.250 C 130.833 1.094,130.676 1.000,130.417 1.000 C 130.188 1.000,130.000 0.925,130.000 0.833 C 130.000 0.742,129.847 0.667,129.661 0.667 C 129.474 0.667,129.122 0.535,128.877 0.375 C 128.038 -0.175,120.319 -0.129,119.760 0.430 C 119.630 0.560,119.337 0.667,119.109 0.667 C 118.881 0.667,118.669 0.735,118.639 0.818 C 118.608 0.901,118.434 0.995,118.252 1.026 C 118.070 1.058,117.770 1.236,117.586 1.423 C 117.401 1.609,117.088 1.834,116.890 1.923 C 116.428 2.129,114.500 3.934,114.500 4.161 C 114.500 4.256,114.406 4.315,114.292 4.292 C 114.177 4.269,114.100 4.337,114.120 4.442 C 114.140 4.548,114.046 4.726,113.911 4.838 C 113.777 4.949,113.667 5.144,113.667 5.270 C 113.667 5.397,113.592 5.500,113.500 5.500 C 113.408 5.500,113.333 5.652,113.333 5.839 C 113.333 6.025,113.221 6.220,113.083 6.273 C 112.946 6.326,112.833 6.507,112.833 6.675 C 112.833 6.843,112.758 7.027,112.667 7.083 C 112.575 7.140,112.500 7.374,112.500 7.603 C 112.500 7.838,112.427 7.975,112.333 7.917 C 112.241 7.860,112.167 7.981,112.167 8.189 C 112.167 8.657,111.681 8.123,111.672 7.645 C 111.669 7.496,111.554 7.281,111.417 7.167 C 111.279 7.053,111.167 6.850,111.167 6.717 C 111.167 5.975,107.736 1.833,107.121 1.833 C 107.037 1.833,106.733 1.665,106.445 1.458 C 105.646 0.886,105.168 0.667,104.721 0.667 C 104.497 0.667,104.352 0.604,104.400 0.527 C 104.655 0.115,97.989 -0.213,96.000 0.114 M139.793 18.764 C 139.759 33.615,139.793 37.564,139.958 37.701 C 140.073 37.796,140.167 38.236,140.167 38.677 C 140.167 39.119,140.242 39.527,140.333 39.583 C 140.425 39.640,140.500 39.832,140.500 40.011 C 140.500 40.190,140.706 40.728,140.958 41.208 C 141.414 42.076,141.560 42.300,141.958 42.744 C 142.073 42.872,142.167 43.019,142.167 43.071 C 142.167 43.202,143.474 44.500,143.606 44.500 C 143.664 44.500,143.886 44.688,144.098 44.917 C 144.310 45.146,144.600 45.333,144.742 45.333 C 144.884 45.333,145.000 45.408,145.000 45.500 C 145.000 45.592,145.112 45.667,145.250 45.667 C 145.387 45.667,145.500 45.727,145.500 45.801 C 145.500 45.985,146.698 46.500,147.125 46.500 C 147.316 46.500,147.497 46.571,147.528 46.657 C 147.696 47.131,165.290 47.400,165.754 46.936 C 166.137 46.553,166.120 36.415,165.736 36.268 C 165.591 36.212,163.210 36.166,160.445 36.164 C 154.489 36.161,153.612 35.966,153.261 34.568 C 153.206 34.347,153.087 34.167,152.997 34.167 C 152.897 34.167,152.833 33.161,152.833 31.583 L 152.833 29.000 159.046 29.000 C 164.400 29.000,165.310 28.964,165.630 28.741 C 166.035 28.456,166.231 19.829,165.837 19.586 C 165.748 19.530,162.785 19.490,159.254 19.496 L 152.833 19.507 152.833 15.254 L 152.833 11.000 159.153 11.000 C 162.629 11.000,165.591 10.954,165.736 10.899 C 165.969 10.809,166.000 10.168,166.000 5.399 L 166.000 0.000 152.918 0.000 L 139.836 0.000 139.793 18.764 M189.292 0.193 C 188.948 0.288,188.667 0.434,188.667 0.517 C 188.667 0.599,188.553 0.667,188.414 0.667 C 188.036 0.667,186.833 1.065,186.833 1.190 C 186.833 1.250,186.440 1.548,185.958 1.853 C 184.948 2.493,183.199 4.214,182.834 4.928 C 182.696 5.197,182.490 5.477,182.375 5.550 C 182.261 5.623,182.167 5.830,182.167 6.008 C 182.167 6.187,182.092 6.333,182.000 6.333 C 181.908 6.333,181.833 6.477,181.833 6.653 C 181.833 6.828,181.754 6.999,181.658 7.031 C 181.463 7.096,181.177 8.060,181.049 9.083 C 181.003 9.450,180.899 9.821,180.816 9.908 C 180.492 10.252,180.632 46.687,180.958 46.935 C 181.434 47.296,192.760 47.266,192.899 46.903 C 192.954 46.758,193.000 39.320,193.000 30.373 C 193.000 17.784,193.047 13.975,193.208 13.522 C 193.421 12.924,194.054 12.167,194.341 12.167 C 194.428 12.167,194.500 12.100,194.500 12.019 C 194.500 11.870,195.614 11.577,195.905 11.649 C 195.991 11.670,196.365 11.719,196.738 11.757 C 197.585 11.846,198.646 12.831,198.658 13.542 C 198.663 13.794,198.742 14.000,198.833 14.000 C 198.943 14.000,199.000 19.577,199.000 30.396 C 199.000 43.796,199.040 46.826,199.221 46.976 C 199.573 47.268,211.970 47.319,212.082 47.028 C 212.128 46.906,212.167 39.350,212.167 30.236 C 212.167 20.099,212.227 13.667,212.322 13.667 C 212.408 13.667,212.528 13.508,212.589 13.315 C 212.741 12.835,213.327 12.182,213.847 11.911 C 214.381 11.633,216.531 11.677,216.628 11.968 C 216.665 12.077,216.773 12.167,216.869 12.167 C 217.114 12.167,217.644 12.808,217.973 13.500 C 218.224 14.028,218.258 15.657,218.333 30.583 L 218.417 47.083 224.167 47.129 C 228.386 47.162,230.017 47.121,230.293 46.975 L 230.670 46.775 230.665 28.788 C 230.662 16.914,230.603 10.693,230.491 10.484 C 230.398 10.309,230.280 9.773,230.229 9.292 C 230.178 8.810,230.068 8.392,229.985 8.361 C 229.901 8.331,229.833 8.183,229.833 8.033 C 229.833 7.626,229.309 6.333,229.144 6.333 C 229.065 6.333,229.000 6.183,229.000 6.000 C 229.000 5.817,228.925 5.667,228.833 5.667 C 228.742 5.667,228.667 5.558,228.667 5.425 C 228.667 5.292,228.565 5.123,228.441 5.050 C 228.317 4.977,228.121 4.729,228.006 4.500 C 227.737 3.965,225.510 1.833,225.220 1.833 C 225.099 1.833,225.000 1.776,225.000 1.706 C 225.000 1.579,224.506 1.278,223.958 1.071 C 223.798 1.011,223.667 0.895,223.667 0.814 C 223.667 0.733,223.404 0.667,223.083 0.667 C 222.762 0.667,222.500 0.604,222.500 0.526 C 222.500 -0.185,213.434 -0.220,213.197 0.491 C 213.165 0.588,213.007 0.667,212.845 0.667 C 212.456 0.667,211.500 1.149,211.500 1.346 C 211.500 1.430,211.369 1.500,211.208 1.500 C 211.048 1.501,210.654 1.725,210.333 2.000 C 210.012 2.275,209.688 2.499,209.611 2.500 C 209.432 2.500,207.833 4.183,207.833 4.371 C 207.833 4.450,207.683 4.675,207.500 4.871 C 207.317 5.068,206.923 5.721,206.625 6.323 C 206.327 6.924,206.027 7.442,205.958 7.472 C 205.890 7.503,205.833 7.776,205.833 8.079 C 205.833 8.416,205.736 8.668,205.583 8.727 C 205.396 8.799,205.333 8.699,205.333 8.326 C 205.333 8.052,205.267 7.699,205.185 7.539 C 205.104 7.380,204.897 6.950,204.727 6.583 C 204.556 6.217,204.371 5.879,204.315 5.833 C 204.259 5.787,204.088 5.506,203.936 5.208 C 203.783 4.910,203.585 4.667,203.496 4.667 C 203.406 4.667,203.333 4.572,203.333 4.457 C 203.333 4.154,201.022 1.960,200.333 1.610 C 200.012 1.446,199.450 1.160,199.083 0.974 C 198.717 0.787,198.192 0.514,197.917 0.366 C 197.308 0.039,190.347 -0.101,189.292 0.193 M245.666 0.052 C 245.621 0.096,245.294 0.170,244.941 0.217 C 244.588 0.263,244.216 0.384,244.116 0.484 C 244.016 0.584,243.761 0.667,243.550 0.667 C 243.339 0.667,243.167 0.742,243.167 0.833 C 243.167 0.925,243.014 1.000,242.828 1.000 C 242.642 1.000,242.446 1.112,242.394 1.250 C 242.341 1.387,242.118 1.500,241.899 1.500 C 241.679 1.500,241.500 1.575,241.500 1.667 C 241.500 1.758,241.384 1.833,241.243 1.833 C 241.101 1.833,240.783 2.021,240.536 2.250 C 240.289 2.479,240.005 2.667,239.904 2.667 C 239.804 2.667,239.536 2.873,239.309 3.125 C 239.082 3.377,238.694 3.732,238.448 3.915 C 238.202 4.097,238.000 4.340,238.000 4.456 C 238.000 4.572,237.906 4.668,237.792 4.670 C 237.677 4.672,237.358 5.010,237.083 5.420 C 236.808 5.830,236.527 6.166,236.458 6.166 C 236.390 6.167,236.333 6.279,236.333 6.417 C 236.333 6.554,236.266 6.667,236.185 6.667 C 236.103 6.667,235.989 6.854,235.932 7.083 C 235.874 7.313,235.753 7.500,235.663 7.500 C 235.574 7.500,235.500 7.650,235.500 7.833 C 235.500 8.017,235.425 8.167,235.333 8.167 C 235.242 8.167,235.167 8.392,235.167 8.667 C 235.167 8.942,235.099 9.167,235.016 9.167 C 234.832 9.167,234.489 10.101,234.625 10.236 C 234.678 10.289,234.635 10.333,234.528 10.333 C 234.414 10.333,234.333 10.595,234.333 10.967 C 234.333 11.315,234.252 11.681,234.153 11.780 C 234.027 11.907,233.978 17.079,233.988 29.272 C 233.997 38.793,234.003 46.713,234.002 46.871 C 233.999 47.258,245.601 47.413,245.748 47.028 C 245.795 46.906,245.833 43.775,245.833 40.070 L 245.833 33.333 249.667 33.333 L 253.500 33.333 253.503 40.042 C 253.504 43.731,253.565 46.845,253.639 46.961 C 253.743 47.125,255.048 47.161,259.595 47.127 L 265.417 47.083 265.459 29.208 C 265.487 17.321,265.445 11.333,265.334 11.333 C 265.242 11.333,265.167 11.076,265.167 10.762 C 265.167 10.448,265.054 10.078,264.917 9.940 C 264.779 9.803,264.667 9.502,264.667 9.272 C 264.667 9.041,264.592 8.807,264.500 8.750 C 264.408 8.693,264.333 8.534,264.333 8.396 C 264.333 8.258,264.146 7.899,263.917 7.598 C 263.688 7.298,263.500 6.965,263.500 6.859 C 263.500 6.753,263.425 6.667,263.333 6.667 C 263.242 6.667,263.167 6.557,263.167 6.422 C 263.167 6.288,262.960 5.962,262.708 5.697 C 262.456 5.432,261.943 4.886,261.568 4.483 C 261.193 4.080,260.514 3.428,260.059 3.034 C 259.289 2.369,259.003 2.181,257.795 1.550 C 257.545 1.419,257.297 1.242,257.243 1.156 C 257.190 1.070,256.964 1.000,256.740 1.000 C 256.516 1.000,256.333 0.925,256.333 0.833 C 256.333 0.742,256.181 0.667,255.994 0.667 C 255.808 0.667,255.455 0.535,255.210 0.375 C 254.784 0.096,245.934 -0.204,245.666 0.052 M293.375 0.199 C 292.894 0.287,292.500 0.428,292.500 0.513 C 292.500 0.597,292.279 0.667,292.010 0.667 C 291.740 0.667,291.473 0.742,291.417 0.833 C 291.360 0.925,291.128 1.000,290.902 1.000 C 290.675 1.000,290.446 1.112,290.394 1.250 C 290.341 1.387,290.160 1.500,289.992 1.500 C 289.824 1.500,289.640 1.575,289.583 1.667 C 289.527 1.758,289.335 1.833,289.157 1.833 C 288.979 1.833,288.833 1.908,288.833 2.000 C 288.833 2.092,288.726 2.167,288.595 2.167 C 288.464 2.167,288.247 2.276,288.113 2.411 C 287.979 2.545,287.773 2.676,287.655 2.702 C 287.537 2.729,287.198 2.994,286.901 3.292 C 286.604 3.590,286.312 3.833,286.252 3.833 C 286.077 3.833,285.667 4.293,285.667 4.488 C 285.667 4.586,285.554 4.667,285.417 4.667 C 285.279 4.667,285.167 4.733,285.167 4.815 C 285.167 4.896,284.829 5.305,284.417 5.723 C 284.004 6.142,283.667 6.545,283.667 6.619 C 283.667 6.693,283.479 6.956,283.250 7.203 C 283.021 7.450,282.833 7.805,282.833 7.993 C 282.833 8.180,282.762 8.333,282.674 8.333 C 282.357 8.333,281.667 10.242,281.667 11.120 C 281.667 11.434,281.568 11.789,281.447 11.910 C 281.327 12.030,281.210 12.526,281.188 13.010 C 281.166 13.495,281.077 14.023,280.990 14.185 C 280.904 14.346,280.833 14.774,280.833 15.137 C 280.833 15.499,280.721 16.010,280.584 16.273 C 280.447 16.535,280.335 17.102,280.334 17.532 C 280.334 17.962,280.258 18.360,280.167 18.417 C 280.075 18.473,280.000 18.923,280.000 19.417 C 280.000 19.910,279.925 20.360,279.833 20.417 C 279.742 20.473,279.664 20.909,279.661 21.385 C 279.658 21.880,279.551 22.388,279.411 22.574 C 279.268 22.763,279.167 23.261,279.167 23.772 C 279.167 24.253,279.092 24.693,279.000 24.750 C 278.908 24.807,278.831 25.242,278.827 25.718 C 278.824 26.194,278.714 26.771,278.583 27.000 C 278.452 27.229,278.342 27.768,278.339 28.198 C 278.336 28.629,278.258 29.027,278.167 29.083 C 278.075 29.140,278.000 29.444,278.000 29.760 C 278.000 30.075,277.925 30.333,277.833 30.333 C 277.742 30.333,277.667 30.515,277.667 30.738 C 277.667 30.961,277.554 31.255,277.417 31.393 C 277.279 31.530,277.164 31.742,277.161 31.863 C 277.155 32.137,276.765 32.665,276.565 32.671 C 276.483 32.674,276.229 32.934,276.000 33.250 C 275.771 33.566,275.490 33.826,275.375 33.829 C 275.260 33.831,275.167 33.908,275.167 34.000 C 275.167 34.092,275.073 34.167,274.958 34.168 C 274.844 34.169,274.375 34.354,273.917 34.580 C 273.190 34.937,272.848 34.991,271.250 35.000 C 268.592 35.015,268.833 34.402,268.833 41.134 C 268.833 44.801,268.893 46.851,269.003 46.918 C 269.096 46.976,269.135 47.083,269.090 47.156 C 268.963 47.361,271.803 47.371,273.060 47.170 C 273.676 47.072,274.792 46.956,275.541 46.911 C 276.290 46.867,276.977 46.757,277.068 46.665 C 277.159 46.574,277.556 46.500,277.950 46.500 C 278.344 46.500,278.667 46.425,278.667 46.333 C 278.667 46.242,278.932 46.167,279.255 46.167 C 279.625 46.167,279.880 46.074,279.940 45.917 C 279.992 45.779,280.179 45.667,280.353 45.667 C 280.643 45.667,280.968 45.536,281.667 45.140 C 281.804 45.062,282.029 44.949,282.167 44.890 C 283.201 44.443,285.736 42.246,286.239 41.361 C 286.324 41.210,286.536 40.936,286.708 40.752 C 286.881 40.568,287.144 40.154,287.294 39.833 C 287.444 39.512,287.613 39.212,287.671 39.167 C 287.873 39.006,288.333 37.946,288.333 37.641 C 288.333 37.472,288.405 37.333,288.492 37.333 C 288.580 37.333,288.701 37.070,288.761 36.748 C 288.822 36.426,288.938 36.122,289.019 36.072 C 289.100 36.021,289.167 35.722,289.167 35.407 C 289.167 35.091,289.242 34.833,289.333 34.833 C 289.425 34.833,289.500 34.427,289.500 33.931 C 289.500 33.378,289.577 33.002,289.699 32.961 C 289.891 32.897,290.086 31.822,290.274 29.791 C 290.323 29.264,290.431 28.874,290.515 28.926 C 290.598 28.977,290.670 28.921,290.675 28.802 C 290.700 28.157,290.872 27.023,291.010 26.600 C 291.096 26.334,291.167 25.795,291.167 25.402 C 291.167 25.008,291.242 24.640,291.333 24.583 C 291.425 24.527,291.502 24.091,291.505 23.615 C 291.508 23.139,291.608 22.622,291.726 22.466 C 291.845 22.310,291.960 21.747,291.980 21.216 C 292.001 20.685,292.089 20.225,292.176 20.194 C 292.263 20.164,292.333 19.741,292.333 19.255 C 292.333 18.769,292.445 18.157,292.582 17.894 C 292.719 17.631,292.832 17.177,292.832 16.885 C 292.833 16.592,292.908 16.307,293.000 16.250 C 293.092 16.193,293.165 16.020,293.164 15.865 C 293.156 14.997,295.244 12.167,295.893 12.167 C 296.054 12.167,296.140 12.092,296.083 12.000 C 296.027 11.908,296.129 11.833,296.312 11.833 C 296.494 11.833,296.747 11.729,296.875 11.601 C 297.126 11.350,298.001 11.216,300.583 11.034 L 302.250 10.917 302.294 5.458 L 302.338 0.000 298.294 0.020 C 296.070 0.031,293.856 0.111,293.375 0.199 M304.729 0.521 C 304.786 0.807,304.833 3.281,304.833 6.017 L 304.833 10.993 308.042 11.038 L 311.250 11.083 311.292 28.899 C 311.332 45.624,311.353 46.728,311.626 46.935 C 312.028 47.241,323.496 47.270,323.800 46.967 C 323.953 46.814,324.000 42.571,324.000 28.887 L 324.000 11.007 327.208 10.962 L 330.417 10.917 330.461 5.458 L 330.505 -0.000 317.565 -0.000 L 304.625 -0.000 304.729 0.521 M333.668 19.423 C 333.672 36.437,333.703 38.858,333.919 38.941 C 334.071 38.999,334.167 39.255,334.167 39.601 C 334.167 39.912,334.242 40.167,334.333 40.167 C 334.425 40.167,334.500 40.345,334.500 40.563 C 334.500 40.781,334.612 41.053,334.750 41.167 C 334.887 41.281,335.000 41.477,335.000 41.604 C 335.000 41.730,335.075 41.833,335.167 41.833 C 335.258 41.833,335.333 41.945,335.333 42.081 C 335.333 42.687,338.420 45.667,339.047 45.667 C 339.185 45.667,339.341 45.779,339.394 45.917 C 339.446 46.054,339.637 46.167,339.818 46.167 C 339.999 46.167,340.193 46.242,340.250 46.333 C 340.307 46.425,340.567 46.500,340.829 46.500 C 341.091 46.500,341.331 46.573,341.361 46.662 C 341.392 46.751,341.860 46.866,342.402 46.919 C 342.944 46.971,343.462 47.060,343.553 47.116 C 343.759 47.243,359.088 47.187,359.424 47.058 C 359.630 46.979,359.667 46.142,359.667 41.566 L 359.667 36.167 354.260 36.167 C 350.835 36.167,348.815 36.106,348.750 36.000 C 348.693 35.908,348.525 35.833,348.375 35.833 C 348.225 35.833,347.817 35.527,347.468 35.153 L 346.833 34.472 346.833 31.761 L 346.833 29.049 348.208 28.942 C 348.965 28.883,351.733 28.835,354.361 28.834 C 356.989 28.834,359.258 28.788,359.403 28.732 C 359.755 28.597,359.810 19.500,359.458 19.500 C 359.344 19.499,356.438 19.481,353.000 19.458 L 346.750 19.417 346.684 17.667 C 346.472 12.006,346.476 11.501,346.729 11.247 C 347.049 10.927,350.820 10.887,351.133 11.200 C 351.286 11.352,351.333 11.353,351.333 11.203 C 351.333 11.058,352.420 10.994,355.458 10.961 L 359.583 10.917 359.627 5.458 L 359.671 0.000 346.668 0.000 L 333.664 0.000 333.668 19.423 M377.481 0.074 C 377.440 0.115,377.093 0.167,376.709 0.190 C 376.321 0.213,375.974 0.328,375.927 0.449 C 375.880 0.571,375.586 0.667,375.255 0.667 C 374.932 0.667,374.667 0.742,374.667 0.833 C 374.667 0.925,374.488 1.000,374.270 1.000 C 374.052 1.000,373.781 1.112,373.667 1.250 C 373.553 1.387,373.337 1.507,373.188 1.515 C 373.039 1.523,372.542 1.748,372.083 2.014 C 371.625 2.280,371.119 2.544,370.958 2.601 C 370.798 2.659,370.667 2.764,370.667 2.835 C 370.667 2.906,370.470 3.013,370.230 3.073 C 369.990 3.134,369.840 3.229,369.896 3.285 C 369.952 3.341,369.727 3.571,369.396 3.797 C 368.534 4.382,365.833 7.176,365.833 7.482 C 365.833 7.574,365.646 7.852,365.417 8.099 C 365.188 8.346,365.000 8.608,365.000 8.681 C 365.000 8.755,364.831 9.099,364.625 9.447 C 364.224 10.124,363.840 11.109,363.836 11.470 C 363.834 11.591,363.721 11.803,363.583 11.940 C 363.446 12.078,363.333 12.479,363.333 12.831 C 363.333 13.184,363.257 13.498,363.164 13.529 C 362.986 13.588,362.917 46.731,363.094 47.018 C 363.243 47.258,374.558 47.208,374.800 46.967 C 374.951 46.816,375.003 44.326,375.012 36.842 C 375.018 31.148,375.084 27.059,375.167 27.250 C 375.245 27.433,375.315 27.813,375.322 28.093 C 375.328 28.374,375.443 28.749,375.578 28.926 C 375.713 29.104,375.825 29.432,375.828 29.655 C 375.831 29.877,375.902 30.290,375.985 30.572 C 376.416 32.022,376.709 32.950,376.830 33.250 C 377.253 34.290,377.529 34.833,377.635 34.833 C 377.701 34.833,377.886 35.137,378.047 35.508 C 378.208 35.879,378.413 36.137,378.503 36.081 C 378.593 36.026,378.667 36.063,378.667 36.163 C 378.667 36.264,379.004 36.674,379.417 37.075 C 379.829 37.476,380.167 37.888,380.167 37.990 C 380.167 38.093,380.279 38.220,380.417 38.273 C 380.554 38.326,380.667 38.473,380.667 38.601 C 380.667 38.729,380.742 38.833,380.833 38.833 C 380.925 38.833,381.000 38.933,381.000 39.055 C 381.000 39.177,381.188 39.377,381.417 39.500 C 381.646 39.623,381.833 39.791,381.833 39.873 C 381.833 40.081,382.271 40.500,382.488 40.500 C 382.586 40.500,382.667 40.606,382.667 40.736 C 382.667 40.865,382.929 41.242,383.250 41.572 C 383.571 41.902,383.833 42.209,383.833 42.253 C 383.833 42.297,384.133 42.633,384.500 43.000 C 384.867 43.367,385.167 43.723,385.168 43.792 C 385.168 43.860,385.562 44.332,386.043 44.839 C 386.523 45.347,387.060 45.984,387.235 46.256 C 387.409 46.528,387.655 46.811,387.780 46.885 C 387.905 46.960,387.964 47.091,387.910 47.177 C 387.857 47.263,387.887 47.333,387.976 47.333 C 388.065 47.333,388.351 47.558,388.610 47.833 C 389.185 48.442,390.045 48.523,390.372 48.000 C 390.487 47.817,390.665 47.667,390.770 47.667 C 390.874 47.667,391.054 47.552,391.170 47.413 C 391.286 47.273,391.414 47.192,391.455 47.233 C 391.495 47.273,391.966 46.862,392.500 46.320 C 393.034 45.777,393.517 45.333,393.573 45.333 C 393.684 45.333,394.619 44.527,395.360 43.792 C 395.614 43.540,395.872 43.333,395.934 43.333 C 395.995 43.333,396.219 43.146,396.431 42.917 C 396.644 42.688,396.885 42.500,396.969 42.500 C 397.052 42.500,397.261 42.313,397.433 42.083 C 397.605 41.854,397.813 41.667,397.895 41.667 C 398.276 41.667,398.695 40.933,398.426 40.737 C 398.284 40.632,398.167 40.459,398.167 40.352 C 398.167 40.164,397.824 39.752,396.417 38.249 C 396.050 37.857,395.563 37.295,395.333 37.000 C 395.104 36.705,394.523 36.051,394.042 35.546 C 393.560 35.042,393.167 34.574,393.167 34.506 C 393.167 34.438,392.942 34.147,392.667 33.860 C 392.392 33.572,392.167 33.302,392.167 33.260 C 392.167 33.217,391.904 32.928,391.583 32.616 C 391.262 32.305,391.000 31.977,391.000 31.889 C 391.000 31.801,391.262 31.626,391.583 31.500 C 391.904 31.374,392.167 31.210,392.167 31.136 C 392.167 31.061,392.261 31.000,392.377 31.000 C 392.492 31.000,392.773 30.827,393.002 30.616 C 393.230 30.405,393.548 30.183,393.708 30.122 C 393.869 30.060,394.000 29.933,394.000 29.839 C 394.000 29.744,394.082 29.667,394.182 29.667 C 394.383 29.667,396.500 27.532,396.500 27.329 C 396.500 27.259,396.613 27.159,396.750 27.106 C 396.887 27.054,397.000 26.896,397.000 26.755 C 397.000 26.615,397.063 26.500,397.140 26.500 C 397.218 26.500,397.422 26.238,397.595 25.917 C 397.768 25.596,397.967 25.333,398.038 25.333 C 398.109 25.333,398.167 25.190,398.167 25.014 C 398.167 24.838,398.223 24.669,398.292 24.639 C 398.489 24.551,399.000 23.560,399.000 23.266 C 399.000 23.120,399.075 23.000,399.167 23.000 C 399.258 23.000,399.333 22.824,399.333 22.609 C 399.333 22.394,399.465 21.963,399.625 21.651 C 399.880 21.154,399.917 20.553,399.917 16.826 C 399.917 13.052,399.884 12.518,399.625 12.123 C 399.465 11.879,399.333 11.493,399.333 11.266 C 399.333 11.039,399.258 10.807,399.167 10.750 C 399.075 10.693,399.000 10.501,399.000 10.323 C 399.000 10.146,398.936 10.000,398.858 10.000 C 398.781 10.000,398.578 9.663,398.408 9.250 C 398.238 8.838,398.039 8.500,397.966 8.500 C 397.893 8.500,397.833 8.350,397.833 8.167 C 397.833 7.981,397.722 7.833,397.583 7.833 C 397.446 7.833,397.333 7.731,397.333 7.606 C 397.333 7.482,396.996 7.017,396.583 6.574 C 396.171 6.131,395.833 5.708,395.833 5.634 C 395.833 5.560,395.721 5.500,395.583 5.500 C 395.446 5.500,395.352 5.437,395.375 5.361 C 395.426 5.189,394.066 3.930,393.509 3.634 C 393.285 3.514,392.917 3.248,392.693 3.042 C 392.468 2.835,392.171 2.667,392.031 2.667 C 391.892 2.667,391.829 2.615,391.892 2.553 C 392.010 2.435,390.241 1.500,389.900 1.500 C 389.794 1.500,389.614 1.387,389.500 1.250 C 389.386 1.112,389.119 1.000,388.906 1.000 C 388.694 1.000,388.473 0.925,388.417 0.833 C 388.360 0.742,388.062 0.667,387.754 0.667 C 387.446 0.667,387.166 0.582,387.132 0.479 C 387.008 0.106,377.834 -0.278,377.481 0.074 M383.614 10.798 C 383.814 10.909,384.085 11.000,384.215 11.000 C 384.345 11.000,384.645 11.180,384.882 11.399 C 385.119 11.619,385.343 11.768,385.380 11.731 C 385.531 11.580,387.000 13.196,387.000 13.512 C 387.000 13.700,387.075 13.807,387.167 13.750 C 387.258 13.693,387.333 13.759,387.333 13.895 C 387.333 14.031,387.438 14.247,387.565 14.375 C 388.079 14.889,388.155 19.167,387.650 19.167 C 387.567 19.167,387.500 19.307,387.500 19.480 C 387.500 19.652,387.387 19.886,387.250 20.000 C 387.113 20.114,387.000 20.279,387.000 20.366 C 387.000 20.605,385.474 22.167,385.240 22.167 C 385.128 22.167,384.992 22.279,384.940 22.417 C 384.887 22.554,384.691 22.667,384.505 22.667 C 384.319 22.667,384.167 22.742,384.167 22.833 C 384.167 22.925,384.012 23.000,383.822 23.000 C 383.633 23.000,383.324 23.082,383.136 23.183 C 382.947 23.284,382.249 23.367,381.583 23.367 C 380.918 23.367,380.220 23.284,380.031 23.183 C 379.843 23.082,379.534 23.000,379.344 23.000 C 379.155 23.000,379.000 22.925,379.000 22.833 C 379.000 22.742,378.850 22.667,378.667 22.667 C 378.323 22.667,376.167 20.699,376.167 20.385 C 376.167 20.287,376.054 20.114,375.917 20.000 C 375.779 19.886,375.667 19.652,375.667 19.480 C 375.667 19.307,375.599 19.167,375.517 19.167 C 375.355 19.167,375.156 17.996,375.134 16.917 C 375.111 15.746,375.368 14.774,375.942 13.872 C 376.249 13.389,376.500 12.882,376.500 12.747 C 376.500 12.611,376.599 12.500,376.720 12.500 C 376.841 12.500,377.098 12.331,377.292 12.125 C 377.935 11.439,378.683 11.003,379.295 10.957 C 379.499 10.942,379.667 10.875,379.667 10.809 C 379.667 10.490,383.041 10.480,383.614 10.798 M67.833 11.485 C 67.833 11.569,68.148 11.691,68.533 11.756 C 69.706 11.954,70.833 12.923,70.833 13.734 C 70.833 13.880,70.908 14.000,71.000 14.000 C 71.107 14.000,71.167 15.694,71.167 18.750 L 71.167 23.500 67.333 23.500 L 63.500 23.500 63.500 18.833 C 63.500 15.833,63.560 14.167,63.667 14.167 C 63.758 14.167,63.833 14.059,63.833 13.928 C 63.833 13.577,64.550 12.515,64.792 12.507 C 64.906 12.503,65.000 12.425,65.000 12.333 C 65.000 12.242,65.106 12.167,65.236 12.167 C 65.366 12.167,65.499 12.087,65.531 11.990 C 65.564 11.893,65.833 11.795,66.130 11.772 C 66.426 11.749,66.759 11.641,66.868 11.532 C 67.101 11.299,67.833 11.264,67.833 11.485 M250.258 11.491 C 250.345 11.577,250.677 11.694,250.996 11.750 C 251.314 11.806,251.614 11.904,251.662 11.968 C 251.711 12.032,251.955 12.190,252.206 12.319 C 252.456 12.448,252.709 12.704,252.768 12.889 C 252.826 13.073,253.015 13.376,253.187 13.560 C 253.478 13.873,253.500 14.231,253.500 18.698 L 253.500 23.500 249.667 23.500 L 245.833 23.500 245.833 18.833 C 245.833 15.894,245.894 14.167,245.997 14.167 C 246.087 14.167,246.207 13.979,246.265 13.750 C 246.322 13.521,246.436 13.333,246.518 13.333 C 246.600 13.333,246.667 13.226,246.667 13.095 C 246.667 12.963,246.910 12.685,247.208 12.476 C 247.506 12.267,247.775 12.036,247.806 11.964 C 247.836 11.892,248.024 11.832,248.222 11.831 C 248.421 11.830,248.771 11.724,249.000 11.597 C 249.499 11.320,250.041 11.274,250.258 11.491 " stroke="none" fill="#e8362d" fill-rule="evenodd"></path></g></svg>