<svg id="svg" version="1.1" width="400" height="300" xmlns="http://www.w3.org/2000/svg" xmlns:xlink="http://www.w3.org/1999/xlink" style="display: block;"><g id="svgg"><path id="path0" d="M0.000 150.038 L 0.000 300.075 200.000 300.075 L 400.000 300.075 400.000 150.038 L 400.000 0.000 200.000 0.000 L 0.000 0.000 0.000 150.038 M357.689 147.487 L 357.689 227.757 197.449 227.757 L 37.209 227.757 37.209 147.687 C 37.209 103.648,37.299 67.527,37.409 67.417 C 37.519 67.307,109.627 67.217,197.649 67.217 L 357.689 67.217 357.689 147.487 M47.912 77.919 C 47.802 78.030,47.712 109.425,47.712 147.687 L 47.712 217.254 197.449 217.254 L 347.187 217.254 347.187 147.487 L 347.187 77.719 197.649 77.719 C 115.404 77.719,48.022 77.809,47.912 77.919 M132.610 107.548 C 132.829 107.813,132.927 108.847,132.871 110.324 L 132.783 112.678 115.304 112.756 L 97.824 112.833 97.824 145.086 L 97.824 177.340 115.304 177.417 L 132.783 177.494 132.783 180.045 L 132.783 182.596 112.528 182.596 L 92.273 182.596 92.196 145.236 C 92.153 124.689,92.183 107.708,92.261 107.502 C 92.486 106.912,132.120 106.958,132.610 107.548 M147.577 107.487 C 147.849 107.759,147.937 112.068,147.937 125.041 L 147.937 142.236 162.491 142.236 L 177.044 142.236 177.044 125.018 C 177.044 105.247,176.720 107.057,180.242 107.189 L 182.596 107.277 182.672 145.011 L 182.748 182.746 180.078 182.746 C 177.921 182.746,177.374 182.655,177.226 182.271 C 177.126 182.010,177.044 174.178,177.044 164.867 L 177.044 147.937 162.493 147.937 L 147.942 147.937 147.864 165.266 L 147.787 182.596 145.011 182.682 L 142.236 182.768 142.236 145.148 C 142.236 124.456,142.326 107.437,142.436 107.327 C 142.793 106.969,147.196 107.106,147.577 107.487 M197.676 145.023 L 197.752 182.768 194.975 182.682 L 192.198 182.596 192.122 145.268 C 192.065 117.334,192.133 107.836,192.393 107.523 C 192.650 107.213,193.374 107.127,195.170 107.190 L 197.599 107.277 197.676 145.023 M247.712 127.532 L 247.712 147.787 230.233 147.864 L 212.753 147.942 212.753 165.355 L 212.753 182.768 209.977 182.682 L 207.202 182.596 207.126 145.268 C 207.070 117.819,207.139 107.833,207.389 107.532 C 207.671 107.192,211.131 107.136,227.720 107.200 L 247.712 107.277 247.712 127.532 M297.664 107.707 C 298.000 108.336,298.126 181.401,297.792 182.271 C 297.629 182.697,295.551 182.746,277.387 182.746 L 257.164 182.746 257.164 145.136 C 257.164 124.451,257.254 107.437,257.364 107.327 C 257.945 106.746,297.349 107.118,297.664 107.707 M212.753 127.532 L 212.753 142.236 227.457 142.236 L 242.161 142.236 242.161 127.532 L 242.161 112.828 227.457 112.828 L 212.753 112.828 212.753 127.532 M262.866 127.532 L 262.866 142.236 277.569 142.236 L 292.273 142.236 292.273 127.532 L 292.273 112.828 277.569 112.828 L 262.866 112.828 262.866 127.532 M262.866 162.644 L 262.866 177.350 277.494 177.272 L 292.123 177.194 292.201 162.566 L 292.279 147.937 277.572 147.937 L 262.866 147.937 262.866 162.644 " stroke="none" fill="#ffffff" fill-rule="evenodd"></path><path id="path1" d="M37.809 147.487 L 37.809 227.157 197.449 227.157 L 357.089 227.157 357.089 147.487 L 357.089 67.817 197.449 67.817 L 37.809 67.817 37.809 147.487 M347.787 147.487 L 347.787 217.854 197.449 217.854 L 47.112 217.854 47.112 147.487 L 47.112 77.119 197.449 77.119 L 347.787 77.119 347.787 147.487 M93.067 108.005 C 92.906 108.106,92.811 123.296,92.834 145.086 L 92.873 181.995 112.453 182.073 L 132.033 182.150 132.033 180.047 L 132.033 177.944 114.629 177.944 L 97.224 177.944 97.224 145.086 L 97.224 112.228 114.629 112.228 L 132.033 112.228 132.033 110.128 C 132.033 108.972,131.932 108.006,131.808 107.980 C 131.119 107.837,93.293 107.861,93.067 108.005 M143.211 107.926 C 142.914 108.046,142.836 115.765,142.836 145.111 L 142.836 182.146 144.934 182.146 L 147.032 182.146 147.109 164.682 L 147.187 147.218 162.491 147.218 L 177.794 147.218 177.872 164.682 L 177.949 182.146 180.047 182.146 L 182.146 182.146 182.146 145.118 C 182.146 111.631,182.100 108.074,181.671 107.909 C 181.410 107.809,180.678 107.727,180.045 107.727 C 177.755 107.727,177.944 106.129,177.944 125.463 L 177.944 142.836 162.491 142.836 L 147.037 142.836 147.037 125.463 C 147.037 106.061,147.241 107.705,144.837 107.751 C 144.149 107.764,143.417 107.842,143.211 107.926 M193.323 107.926 C 193.026 108.046,192.948 115.765,192.948 145.111 L 192.948 182.146 195.049 182.146 L 197.149 182.146 197.149 145.118 C 197.149 111.631,197.104 108.074,196.675 107.909 C 196.118 107.696,193.866 107.707,193.323 107.926 M208.319 107.955 C 208.032 108.050,207.952 116.162,207.952 145.111 L 207.952 182.146 210.050 182.146 L 212.148 182.146 212.226 164.680 L 212.303 147.214 229.407 147.174 C 238.815 147.153,246.680 147.113,246.887 147.086 C 247.309 147.031,247.459 108.068,247.037 107.980 C 246.502 107.869,208.651 107.844,208.319 107.955 M258.132 107.955 C 257.845 108.050,257.764 116.167,257.764 145.111 L 257.764 182.146 277.419 182.146 L 297.074 182.146 297.074 145.086 C 297.074 124.704,296.973 108.006,296.849 107.980 C 296.314 107.869,258.463 107.844,258.132 107.955 M242.761 127.532 L 242.761 142.836 227.457 142.836 L 212.153 142.836 212.153 127.532 L 212.153 112.228 227.457 112.228 L 242.761 112.228 242.761 127.532 M292.873 127.532 L 292.873 142.836 277.569 142.836 C 267.578 142.836,262.260 142.732,262.249 142.536 C 262.240 142.371,262.232 135.619,262.232 127.532 C 262.232 119.445,262.240 112.693,262.249 112.528 C 262.260 112.332,267.578 112.228,277.569 112.228 L 292.873 112.228 292.873 127.532 M292.801 162.585 L 292.879 177.944 277.572 177.944 L 262.266 177.944 262.240 175.469 C 262.160 167.679,262.253 147.600,262.370 147.411 C 262.446 147.288,269.307 147.195,277.616 147.206 L 292.723 147.225 292.801 162.585 " stroke="none" fill="#3c4141" fill-rule="evenodd"></path><path id="path2" d="M37.648 67.892 C 37.570 68.098,37.540 104.051,37.583 147.787 L 37.659 227.307 197.449 227.307 L 357.239 227.307 357.239 147.487 L 357.239 67.667 197.515 67.592 C 69.893 67.531,37.762 67.592,37.648 67.892 M357.089 147.487 L 357.089 227.157 197.449 227.157 L 37.809 227.157 37.809 147.487 L 37.809 67.817 197.449 67.817 L 357.089 67.817 357.089 147.487 M47.112 147.487 L 47.112 217.854 197.449 217.854 L 347.787 217.854 347.787 147.487 L 347.787 77.119 197.449 77.119 L 47.112 77.119 47.112 147.487 M347.487 147.487 L 347.487 217.554 197.449 217.554 L 47.412 217.554 47.412 147.687 C 47.412 109.260,47.502 77.729,47.612 77.619 C 47.722 77.509,115.239 77.419,197.649 77.419 L 347.487 77.419 347.487 147.487 M96.999 107.934 C 97.288 108.009,97.761 108.009,98.050 107.934 C 98.338 107.858,98.102 107.797,97.524 107.797 C 96.947 107.797,96.710 107.858,96.999 107.934 M101.954 107.939 C 102.327 108.011,102.867 108.008,103.154 107.933 C 103.441 107.858,103.136 107.799,102.476 107.803 C 101.815 107.806,101.581 107.867,101.954 107.939 M106.902 107.934 C 107.191 108.009,107.663 108.009,107.952 107.934 C 108.241 107.858,108.005 107.797,107.427 107.797 C 106.849 107.797,106.613 107.858,106.902 107.934 M112.003 107.934 C 112.292 108.009,112.764 108.009,113.053 107.934 C 113.342 107.858,113.106 107.797,112.528 107.797 C 111.950 107.797,111.714 107.858,112.003 107.934 M116.958 107.939 C 117.331 108.011,117.871 108.008,118.158 107.933 C 118.445 107.858,118.140 107.799,117.479 107.803 C 116.819 107.806,116.584 107.867,116.958 107.939 M121.905 107.934 C 122.194 108.009,122.667 108.009,122.956 107.934 C 123.245 107.858,123.008 107.797,122.431 107.797 C 121.853 107.797,121.617 107.858,121.905 107.934 M127.007 107.934 C 127.296 108.009,127.768 108.009,128.057 107.934 C 128.346 107.858,128.110 107.797,127.532 107.797 C 126.954 107.797,126.718 107.858,127.007 107.934 M131.658 107.926 C 131.907 108.026,132.033 108.773,132.033 110.153 L 132.033 112.228 114.629 112.228 C 105.056 112.228,97.224 112.329,97.224 112.453 C 97.224 112.577,105.090 112.611,114.704 112.528 L 132.183 112.378 132.271 110.053 C 132.349 107.977,132.300 107.729,131.821 107.751 C 131.506 107.764,131.438 107.837,131.658 107.926 M142.609 145.011 L 142.686 182.296 145.011 182.383 L 147.337 182.471 147.337 165.044 L 147.337 147.618 148.012 147.330 C 148.677 147.047,148.676 147.044,147.937 147.115 L 147.187 147.187 147.109 164.666 L 147.032 182.146 144.934 182.146 L 142.836 182.146 142.836 145.111 C 142.836 115.765,142.914 108.046,143.211 107.926 C 143.434 107.835,143.373 107.765,143.060 107.751 C 142.560 107.728,142.537 109.634,142.609 145.011 M146.662 107.926 C 146.956 108.044,147.037 111.834,147.037 125.456 L 147.037 142.836 162.491 142.836 L 177.944 142.836 177.944 125.456 C 177.944 111.834,178.026 108.044,178.320 107.926 C 178.544 107.835,178.483 107.765,178.170 107.751 C 177.675 107.728,177.644 108.747,177.644 125.134 L 177.644 142.541 162.566 142.463 L 147.487 142.386 147.409 125.056 C 147.337 108.802,147.300 107.728,146.809 107.751 C 146.496 107.765,146.437 107.835,146.662 107.926 M181.770 107.926 C 182.068 108.046,182.146 115.765,182.146 145.111 L 182.146 182.146 180.047 182.146 L 177.949 182.146 177.872 164.666 L 177.794 147.187 177.044 147.115 C 176.305 147.044,176.304 147.047,176.969 147.330 L 177.644 147.618 177.644 165.044 L 177.644 182.471 179.970 182.383 L 182.296 182.296 182.372 145.011 C 182.444 109.634,182.421 107.728,181.922 107.751 C 181.608 107.765,181.547 107.835,181.770 107.926 M192.648 145.099 L 192.648 182.471 194.974 182.383 L 197.299 182.296 197.376 145.011 C 197.448 109.634,197.425 107.728,196.925 107.751 C 196.612 107.765,196.551 107.835,196.774 107.926 C 197.071 108.046,197.149 115.765,197.149 145.111 L 197.149 182.146 195.049 182.146 L 192.948 182.146 192.948 145.111 C 192.948 115.765,193.026 108.046,193.323 107.926 C 193.547 107.835,193.487 107.765,193.173 107.751 C 192.676 107.728,192.648 109.698,192.648 145.099 M207.652 145.099 L 207.652 182.471 209.977 182.383 L 212.303 182.296 212.379 165.041 C 212.449 149.019,212.491 147.758,212.979 147.385 C 213.468 147.010,213.463 146.990,212.903 147.089 C 212.312 147.193,212.302 147.461,212.226 164.670 L 212.148 182.146 210.050 182.146 L 207.952 182.146 207.952 145.111 C 207.952 115.765,208.030 108.046,208.327 107.926 C 208.551 107.835,208.491 107.765,208.177 107.751 C 207.680 107.728,207.652 109.698,207.652 145.099 M211.928 107.934 C 212.217 108.009,212.689 108.009,212.978 107.934 C 213.267 107.858,213.031 107.797,212.453 107.797 C 211.875 107.797,211.639 107.858,211.928 107.934 M217.029 107.934 C 217.318 108.009,217.791 108.009,218.080 107.934 C 218.368 107.858,218.132 107.797,217.554 107.797 C 216.977 107.797,216.740 107.858,217.029 107.934 M221.984 107.939 C 222.357 108.011,222.897 108.008,223.184 107.933 C 223.471 107.858,223.166 107.799,222.506 107.803 C 221.845 107.806,221.611 107.867,221.984 107.939 M226.932 107.934 C 227.221 108.009,227.693 108.009,227.982 107.934 C 228.271 107.858,228.035 107.797,227.457 107.797 C 226.879 107.797,226.643 107.858,226.932 107.934 M232.033 107.934 C 232.322 108.009,232.794 108.009,233.083 107.934 C 233.372 107.858,233.136 107.797,232.558 107.797 C 231.980 107.797,231.744 107.858,232.033 107.934 M236.988 107.939 C 237.361 108.011,237.901 108.008,238.188 107.933 C 238.475 107.858,238.170 107.799,237.509 107.803 C 236.849 107.806,236.614 107.867,236.988 107.939 M241.935 107.934 C 242.224 108.009,242.697 108.009,242.986 107.934 C 243.275 107.858,243.038 107.797,242.461 107.797 C 241.883 107.797,241.647 107.858,241.935 107.934 M262.041 107.934 C 262.329 108.009,262.802 108.009,263.091 107.934 C 263.380 107.858,263.143 107.797,262.566 107.797 C 261.988 107.797,261.752 107.858,262.041 107.934 M266.995 107.939 C 267.369 108.011,267.909 108.008,268.196 107.933 C 268.482 107.858,268.177 107.799,267.517 107.803 C 266.857 107.806,266.622 107.867,266.995 107.939 M271.943 107.934 C 272.232 108.009,272.704 108.009,272.993 107.934 C 273.282 107.858,273.046 107.797,272.468 107.797 C 271.890 107.797,271.654 107.858,271.943 107.934 M277.044 107.934 C 277.333 108.009,277.806 108.009,278.095 107.934 C 278.383 107.858,278.147 107.797,277.569 107.797 C 276.992 107.797,276.755 107.858,277.044 107.934 M281.999 107.939 C 282.372 108.011,282.912 108.008,283.199 107.933 C 283.486 107.858,283.181 107.799,282.521 107.803 C 281.860 107.806,281.626 107.867,281.999 107.939 M286.947 107.934 C 287.236 108.009,287.708 108.009,287.997 107.934 C 288.286 107.858,288.050 107.797,287.472 107.797 C 286.894 107.797,286.658 107.858,286.947 107.934 M292.048 107.934 C 292.337 108.009,292.809 108.009,293.098 107.934 C 293.387 107.858,293.151 107.797,292.573 107.797 C 291.995 107.797,291.759 107.858,292.048 107.934 M296.699 107.926 C 296.996 108.046,297.074 115.764,297.074 145.109 L 297.074 182.141 277.344 182.221 L 257.614 182.300 277.494 182.373 L 297.374 182.446 297.374 145.086 C 297.374 109.697,297.347 107.728,296.849 107.751 C 296.536 107.765,296.475 107.835,296.699 107.926 M257.557 109.977 C 257.559 110.968,257.615 111.337,257.682 110.797 C 257.749 110.258,257.747 109.448,257.679 108.997 C 257.610 108.546,257.556 108.987,257.557 109.977 M212.153 127.532 L 212.153 142.836 227.457 142.836 C 235.874 142.836,242.761 142.734,242.761 142.611 C 242.761 142.487,235.942 142.422,227.607 142.466 L 212.453 142.546 212.453 127.532 L 212.453 112.517 227.607 112.598 C 235.942 112.642,242.761 112.577,242.761 112.453 C 242.761 112.329,235.874 112.228,227.457 112.228 L 212.153 112.228 212.153 127.532 M262.130 112.753 C 261.970 113.174,262.005 113.204,262.308 112.903 C 262.600 112.613,266.076 112.528,277.629 112.528 L 292.573 112.528 292.573 127.532 L 292.573 142.536 277.629 142.536 C 266.076 142.536,262.600 142.451,262.308 142.161 C 262.005 141.860,261.970 141.890,262.130 142.311 C 262.317 142.801,263.333 142.836,277.601 142.836 L 292.873 142.836 292.873 127.532 L 292.873 112.228 277.601 112.228 C 263.333 112.228,262.317 112.263,262.130 112.753 M97.323 115.079 C 97.324 116.234,97.378 116.670,97.443 116.047 C 97.508 115.425,97.507 114.479,97.441 113.947 C 97.375 113.414,97.321 113.923,97.323 115.079 M242.551 114.929 C 242.551 115.836,242.607 116.208,242.676 115.754 C 242.744 115.300,242.744 114.557,242.676 114.104 C 242.607 113.650,242.551 114.021,242.551 114.929 M257.557 115.079 C 257.559 116.069,257.615 116.438,257.682 115.899 C 257.749 115.359,257.747 114.549,257.679 114.098 C 257.610 113.647,257.556 114.089,257.557 115.079 M97.320 120.030 C 97.320 121.103,97.375 121.542,97.441 121.005 C 97.508 120.469,97.508 119.591,97.441 119.055 C 97.375 118.518,97.320 118.957,97.320 120.030 M242.551 120.030 C 242.551 120.938,242.607 121.309,242.676 120.855 C 242.744 120.401,242.744 119.659,242.676 119.205 C 242.607 118.751,242.551 119.122,242.551 120.030 M257.554 120.030 C 257.554 120.938,257.611 121.309,257.679 120.855 C 257.748 120.401,257.748 119.659,257.679 119.205 C 257.611 118.751,257.554 119.122,257.554 120.030 M97.323 124.981 C 97.324 126.137,97.378 126.572,97.443 125.950 C 97.508 125.327,97.507 124.382,97.441 123.849 C 97.375 123.317,97.321 123.826,97.323 124.981 M257.557 124.981 C 257.559 125.971,257.615 126.340,257.682 125.801 C 257.749 125.262,257.747 124.452,257.679 124.001 C 257.610 123.550,257.556 123.991,257.557 124.981 M242.551 125.131 C 242.551 126.039,242.607 126.410,242.676 125.956 C 242.744 125.503,242.744 124.760,242.676 124.306 C 242.607 123.852,242.551 124.224,242.551 125.131 M97.323 130.083 C 97.324 131.238,97.378 131.674,97.443 131.051 C 97.508 130.428,97.507 129.483,97.441 128.951 C 97.375 128.418,97.321 128.927,97.323 130.083 M242.551 129.932 C 242.551 130.840,242.607 131.212,242.676 130.758 C 242.744 130.304,242.744 129.561,242.676 129.107 C 242.607 128.653,242.551 129.025,242.551 129.932 M257.557 130.083 C 257.559 131.073,257.615 131.442,257.682 130.902 C 257.749 130.363,257.747 129.553,257.679 129.102 C 257.610 128.651,257.556 129.092,257.557 130.083 M97.320 135.034 C 97.320 136.107,97.375 136.545,97.441 136.009 C 97.508 135.473,97.508 134.595,97.441 134.059 C 97.375 133.522,97.320 133.961,97.320 135.034 M242.551 135.034 C 242.551 135.941,242.607 136.313,242.676 135.859 C 242.744 135.405,242.744 134.662,242.676 134.209 C 242.607 133.755,242.551 134.126,242.551 135.034 M257.554 135.034 C 257.554 135.941,257.611 136.313,257.679 135.859 C 257.748 135.405,257.748 134.662,257.679 134.209 C 257.611 133.755,257.554 134.126,257.554 135.034 M97.323 139.985 C 97.324 141.140,97.378 141.576,97.443 140.954 C 97.508 140.331,97.507 139.386,97.441 138.853 C 97.375 138.320,97.321 138.830,97.323 139.985 M257.557 139.985 C 257.559 140.975,257.615 141.344,257.682 140.805 C 257.749 140.265,257.747 139.455,257.679 139.004 C 257.610 138.553,257.556 138.995,257.557 139.985 M242.551 140.135 C 242.551 141.043,242.607 141.414,242.676 140.960 C 242.744 140.506,242.744 139.764,242.676 139.310 C 242.607 138.856,242.551 139.227,242.551 140.135 M97.323 145.086 C 97.324 146.242,97.378 146.677,97.443 146.055 C 97.508 145.432,97.507 144.487,97.441 143.954 C 97.375 143.422,97.321 143.931,97.323 145.086 M257.557 145.086 C 257.559 146.077,257.615 146.445,257.682 145.906 C 257.749 145.367,257.747 144.557,257.679 144.106 C 257.610 143.655,257.556 144.096,257.557 145.086 M151.913 147.244 C 152.202 147.319,152.674 147.319,152.963 147.244 C 153.252 147.168,153.016 147.106,152.438 147.106 C 151.860 147.106,151.624 147.168,151.913 147.244 M157.014 147.244 C 157.303 147.319,157.776 147.319,158.065 147.244 C 158.353 147.168,158.117 147.106,157.539 147.106 C 156.962 147.106,156.725 147.168,157.014 147.244 M161.969 147.249 C 162.342 147.321,162.882 147.318,163.169 147.243 C 163.456 147.168,163.151 147.109,162.491 147.112 C 161.830 147.116,161.596 147.177,161.969 147.249 M166.917 147.244 C 167.206 147.319,167.678 147.319,167.967 147.244 C 168.256 147.168,168.020 147.106,167.442 147.106 C 166.864 147.106,166.628 147.168,166.917 147.244 M172.018 147.244 C 172.307 147.319,172.779 147.319,173.068 147.244 C 173.357 147.168,173.121 147.106,172.543 147.106 C 171.965 147.106,171.729 147.168,172.018 147.244 M217.029 147.244 C 217.318 147.319,217.791 147.319,218.080 147.244 C 218.368 147.168,218.132 147.106,217.554 147.106 C 216.977 147.106,216.740 147.168,217.029 147.244 M221.984 147.249 C 222.357 147.321,222.897 147.318,223.184 147.243 C 223.471 147.168,223.166 147.109,222.506 147.112 C 221.845 147.116,221.611 147.177,221.984 147.249 M226.932 147.244 C 227.221 147.319,227.693 147.319,227.982 147.244 C 228.271 147.168,228.035 147.106,227.457 147.106 C 226.879 147.106,226.643 147.168,226.932 147.244 M232.033 147.244 C 232.322 147.319,232.794 147.319,233.083 147.244 C 233.372 147.168,233.136 147.106,232.558 147.106 C 231.980 147.106,231.744 147.168,232.033 147.244 M236.988 147.249 C 237.361 147.321,237.901 147.318,238.188 147.243 C 238.475 147.168,238.170 147.109,237.509 147.112 C 236.849 147.116,236.614 147.177,236.988 147.249 M241.935 147.244 C 242.224 147.319,242.697 147.319,242.986 147.244 C 243.275 147.168,243.038 147.106,242.461 147.106 C 241.883 147.106,241.647 147.168,241.935 147.244 M262.403 147.357 C 262.085 147.871,262.370 147.922,262.999 147.462 C 263.485 147.106,263.500 147.037,263.091 147.037 C 262.821 147.037,262.512 147.181,262.403 147.357 M266.995 147.249 C 267.369 147.321,267.909 147.318,268.196 147.243 C 268.482 147.168,268.177 147.109,267.517 147.112 C 266.857 147.116,266.622 147.177,266.995 147.249 M271.943 147.244 C 272.232 147.319,272.704 147.319,272.993 147.244 C 273.282 147.168,273.046 147.106,272.468 147.106 C 271.890 147.106,271.654 147.168,271.943 147.244 M277.044 147.244 C 277.333 147.319,277.806 147.319,278.095 147.244 C 278.383 147.168,278.147 147.106,277.569 147.106 C 276.992 147.106,276.755 147.168,277.044 147.244 M281.999 147.249 C 282.372 147.321,282.912 147.318,283.199 147.243 C 283.486 147.168,283.181 147.109,282.521 147.112 C 281.860 147.116,281.626 147.177,281.999 147.249 M286.947 147.244 C 287.236 147.319,287.708 147.319,287.997 147.244 C 288.286 147.168,288.050 147.106,287.472 147.106 C 286.894 147.106,286.658 147.168,286.947 147.244 M292.052 147.385 C 292.546 147.761,292.575 148.755,292.502 162.641 L 292.423 177.494 277.344 177.494 C 269.051 177.494,262.266 177.596,262.266 177.719 C 262.266 177.843,269.154 177.944,277.572 177.944 L 292.879 177.944 292.801 162.570 C 292.725 147.461,292.713 147.193,292.123 147.089 C 291.561 146.990,291.556 147.008,292.052 147.385 M97.320 150.038 C 97.320 151.110,97.375 151.549,97.441 151.013 C 97.508 150.476,97.508 149.599,97.441 149.062 C 97.375 148.526,97.320 148.965,97.320 150.038 M257.554 150.038 C 257.554 150.945,257.611 151.317,257.679 150.863 C 257.748 150.409,257.748 149.666,257.679 149.212 C 257.611 148.758,257.554 149.130,257.554 150.038 M97.323 154.989 C 97.324 156.144,97.378 156.580,97.443 155.957 C 97.508 155.335,97.507 154.389,97.441 153.857 C 97.375 153.324,97.321 153.833,97.323 154.989 M257.557 154.989 C 257.559 155.979,257.615 156.348,257.682 155.809 C 257.749 155.269,257.747 154.459,257.679 154.008 C 257.610 153.557,257.556 153.998,257.557 154.989 M97.323 160.090 C 97.324 161.245,97.378 161.681,97.443 161.059 C 97.508 160.436,97.507 159.491,97.441 158.958 C 97.375 158.425,97.321 158.935,97.323 160.090 M257.557 160.090 C 257.559 161.080,257.615 161.449,257.682 160.910 C 257.749 160.371,257.747 159.560,257.679 159.109 C 257.610 158.658,257.556 159.100,257.557 160.090 M97.320 165.041 C 97.320 166.114,97.375 166.553,97.441 166.017 C 97.508 165.480,97.508 164.602,97.441 164.066 C 97.375 163.530,97.320 163.968,97.320 165.041 M257.554 165.041 C 257.554 165.949,257.611 166.320,257.679 165.866 C 257.748 165.413,257.748 164.670,257.679 164.216 C 257.611 163.762,257.554 164.134,257.554 165.041 M97.323 169.992 C 97.324 171.148,97.378 171.584,97.443 170.961 C 97.508 170.338,97.507 169.393,97.441 168.861 C 97.375 168.328,97.321 168.837,97.323 169.992 M257.557 169.992 C 257.559 170.983,257.615 171.352,257.682 170.812 C 257.749 170.273,257.747 169.463,257.679 169.012 C 257.610 168.561,257.556 169.002,257.557 169.992 M97.285 175.469 L 97.224 177.944 114.629 177.944 L 132.033 177.944 132.033 180.049 L 132.033 182.154 112.378 182.075 C 101.568 182.031,92.723 182.097,92.723 182.221 C 92.723 182.344,101.635 182.446,112.528 182.446 L 132.333 182.446 132.333 180.045 L 132.333 177.644 114.941 177.644 L 97.550 177.644 97.447 175.319 L 97.345 172.993 97.285 175.469 M257.557 175.094 C 257.559 176.084,257.615 176.453,257.682 175.914 C 257.749 175.374,257.747 174.564,257.679 174.113 C 257.610 173.662,257.556 174.104,257.557 175.094 M257.554 180.045 C 257.554 180.953,257.611 181.324,257.679 180.870 C 257.748 180.416,257.748 179.674,257.679 179.220 C 257.611 178.766,257.554 179.137,257.554 180.045 " stroke="none" fill="#636767" fill-rule="evenodd"></path><path id="path3" d="M39.235 67.429 C 39.606 67.500,40.214 67.500,40.585 67.429 C 40.956 67.357,40.653 67.299,39.910 67.299 C 39.167 67.299,38.863 67.357,39.235 67.429 M44.336 67.429 C 44.707 67.500,45.315 67.500,45.686 67.429 C 46.058 67.357,45.754 67.299,45.011 67.299 C 44.269 67.299,43.965 67.357,44.336 67.429 M49.291 67.432 C 49.748 67.501,50.423 67.499,50.792 67.428 C 51.161 67.357,50.788 67.300,49.962 67.303 C 49.137 67.305,48.835 67.363,49.291 67.432 M54.239 67.429 C 54.610 67.500,55.218 67.500,55.589 67.429 C 55.960 67.357,55.656 67.299,54.914 67.299 C 54.171 67.299,53.867 67.357,54.239 67.429 M59.340 67.429 C 59.711 67.500,60.319 67.500,60.690 67.429 C 61.062 67.357,60.758 67.299,60.015 67.299 C 59.272 67.299,58.968 67.357,59.340 67.429 M64.295 67.432 C 64.751 67.501,65.427 67.499,65.796 67.428 C 66.165 67.357,65.791 67.300,64.966 67.303 C 64.141 67.305,63.839 67.363,64.295 67.432 M69.242 67.429 C 69.614 67.500,70.221 67.500,70.593 67.429 C 70.964 67.357,70.660 67.299,69.917 67.299 C 69.175 67.299,68.871 67.357,69.242 67.429 M74.344 67.429 C 74.715 67.500,75.323 67.500,75.694 67.429 C 76.065 67.357,75.761 67.299,75.019 67.299 C 74.276 67.299,73.972 67.357,74.344 67.429 M79.299 67.432 C 79.755 67.501,80.430 67.499,80.799 67.428 C 81.168 67.357,80.795 67.300,79.970 67.303 C 79.145 67.305,78.843 67.363,79.299 67.432 M84.246 67.429 C 84.617 67.500,85.225 67.500,85.596 67.429 C 85.968 67.357,85.664 67.299,84.921 67.299 C 84.179 67.299,83.875 67.357,84.246 67.429 M89.347 67.429 C 89.719 67.500,90.326 67.500,90.698 67.429 C 91.069 67.357,90.765 67.299,90.023 67.299 C 89.280 67.299,88.976 67.357,89.347 67.429 M94.303 67.432 C 94.759 67.501,95.434 67.499,95.803 67.428 C 96.172 67.357,95.799 67.300,94.974 67.303 C 94.149 67.305,93.847 67.363,94.303 67.432 M99.250 67.429 C 99.621 67.500,100.229 67.500,100.600 67.429 C 100.971 67.357,100.668 67.299,99.925 67.299 C 99.182 67.299,98.878 67.357,99.250 67.429 M104.351 67.429 C 104.722 67.500,105.330 67.500,105.701 67.429 C 106.073 67.357,105.769 67.299,105.026 67.299 C 104.284 67.299,103.980 67.357,104.351 67.429 M109.306 67.432 C 109.763 67.501,110.438 67.499,110.807 67.428 C 111.176 67.357,110.803 67.300,109.977 67.303 C 109.152 67.305,108.850 67.363,109.306 67.432 M114.254 67.429 C 114.625 67.500,115.233 67.500,115.604 67.429 C 115.975 67.357,115.671 67.299,114.929 67.299 C 114.186 67.299,113.882 67.357,114.254 67.429 M119.355 67.429 C 119.726 67.500,120.334 67.500,120.705 67.429 C 121.077 67.357,120.773 67.299,120.030 67.299 C 119.287 67.299,118.983 67.357,119.355 67.429 M124.310 67.432 C 124.766 67.501,125.442 67.499,125.811 67.428 C 126.180 67.357,125.806 67.300,124.981 67.303 C 124.156 67.305,123.854 67.363,124.310 67.432 M129.257 67.429 C 129.629 67.500,130.236 67.500,130.608 67.429 C 130.979 67.357,130.675 67.299,129.932 67.299 C 129.190 67.299,128.886 67.357,129.257 67.429 M134.359 67.429 C 134.730 67.500,135.338 67.500,135.709 67.429 C 136.080 67.357,135.776 67.299,135.034 67.299 C 134.291 67.299,133.987 67.357,134.359 67.429 M139.314 67.432 C 139.770 67.501,140.445 67.499,140.814 67.428 C 141.183 67.357,140.810 67.300,139.985 67.303 C 139.160 67.305,138.858 67.363,139.314 67.432 M144.261 67.429 C 144.632 67.500,145.240 67.500,145.611 67.429 C 145.983 67.357,145.679 67.299,144.936 67.299 C 144.194 67.299,143.890 67.357,144.261 67.429 M149.362 67.429 C 149.734 67.500,150.341 67.500,150.713 67.429 C 151.084 67.357,150.780 67.299,150.038 67.299 C 149.295 67.299,148.991 67.357,149.362 67.429 M154.318 67.432 C 154.774 67.501,155.449 67.499,155.818 67.428 C 156.187 67.357,155.814 67.300,154.989 67.303 C 154.164 67.305,153.862 67.363,154.318 67.432 M159.265 67.429 C 159.636 67.500,160.244 67.500,160.615 67.429 C 160.986 67.357,160.683 67.299,159.940 67.299 C 159.197 67.299,158.893 67.357,159.265 67.429 M164.366 67.429 C 164.737 67.500,165.345 67.500,165.716 67.429 C 166.088 67.357,165.784 67.299,165.041 67.299 C 164.299 67.299,163.995 67.357,164.366 67.429 M169.321 67.432 C 169.778 67.501,170.453 67.499,170.822 67.428 C 171.191 67.357,170.818 67.300,169.992 67.303 C 169.167 67.305,168.865 67.363,169.321 67.432 M174.269 67.429 C 174.640 67.500,175.248 67.500,175.619 67.429 C 175.990 67.357,175.686 67.299,174.944 67.299 C 174.201 67.299,173.897 67.357,174.269 67.429 M179.370 67.429 C 179.741 67.500,180.349 67.500,180.720 67.429 C 181.092 67.357,180.788 67.299,180.045 67.299 C 179.302 67.299,178.998 67.357,179.370 67.429 M184.325 67.432 C 184.781 67.501,185.457 67.499,185.826 67.428 C 186.195 67.357,185.821 67.300,184.996 67.303 C 184.171 67.305,183.869 67.363,184.325 67.432 M189.272 67.429 C 189.644 67.500,190.251 67.500,190.623 67.429 C 190.994 67.357,190.690 67.299,189.947 67.299 C 189.205 67.299,188.901 67.357,189.272 67.429 M194.374 67.429 C 194.745 67.500,195.353 67.500,195.724 67.429 C 196.095 67.357,195.791 67.299,195.049 67.299 C 194.306 67.299,194.002 67.357,194.374 67.429 M199.329 67.432 C 199.785 67.501,200.460 67.499,200.829 67.428 C 201.198 67.357,200.825 67.300,200.000 67.303 C 199.175 67.305,198.873 67.363,199.329 67.432 M204.276 67.429 C 204.647 67.500,205.255 67.500,205.626 67.429 C 205.998 67.357,205.694 67.299,204.951 67.299 C 204.209 67.299,203.905 67.357,204.276 67.429 M209.377 67.429 C 209.749 67.500,210.356 67.500,210.728 67.429 C 211.099 67.357,210.795 67.299,210.053 67.299 C 209.310 67.299,209.006 67.357,209.377 67.429 M214.333 67.432 C 214.789 67.501,215.464 67.499,215.833 67.428 C 216.202 67.357,215.829 67.300,215.004 67.303 C 214.179 67.305,213.877 67.363,214.333 67.432 M219.280 67.429 C 219.651 67.500,220.259 67.500,220.630 67.429 C 221.002 67.357,220.698 67.299,219.955 67.299 C 219.212 67.299,218.908 67.357,219.280 67.429 M224.381 67.429 C 224.752 67.500,225.360 67.500,225.731 67.429 C 226.103 67.357,225.799 67.299,225.056 67.299 C 224.314 67.299,224.010 67.357,224.381 67.429 M229.336 67.432 C 229.793 67.501,230.468 67.499,230.837 67.428 C 231.206 67.357,230.833 67.300,230.008 67.303 C 229.182 67.305,228.880 67.363,229.336 67.432 M234.284 67.429 C 234.655 67.500,235.263 67.500,235.634 67.429 C 236.005 67.357,235.701 67.299,234.959 67.299 C 234.216 67.299,233.912 67.357,234.284 67.429 M239.385 67.429 C 239.756 67.500,240.364 67.500,240.735 67.429 C 241.107 67.357,240.803 67.299,240.060 67.299 C 239.317 67.299,239.014 67.357,239.385 67.429 M244.340 67.432 C 244.796 67.501,245.472 67.499,245.841 67.428 C 246.210 67.357,245.836 67.300,245.011 67.303 C 244.186 67.305,243.884 67.363,244.340 67.432 M249.287 67.429 C 249.659 67.500,250.266 67.500,250.638 67.429 C 251.009 67.357,250.705 67.299,249.962 67.299 C 249.220 67.299,248.916 67.357,249.287 67.429 M254.389 67.429 C 254.760 67.500,255.368 67.500,255.739 67.429 C 256.110 67.357,255.806 67.299,255.064 67.299 C 254.321 67.299,254.017 67.357,254.389 67.429 M259.344 67.432 C 259.800 67.501,260.475 67.499,260.844 67.428 C 261.213 67.357,260.840 67.300,260.015 67.303 C 259.190 67.305,258.888 67.363,259.344 67.432 M264.291 67.429 C 264.662 67.500,265.270 67.500,265.641 67.429 C 266.013 67.357,265.709 67.299,264.966 67.299 C 264.224 67.299,263.920 67.357,264.291 67.429 M269.392 67.429 C 269.764 67.500,270.371 67.500,270.743 67.429 C 271.114 67.357,270.810 67.299,270.068 67.299 C 269.325 67.299,269.021 67.357,269.392 67.429 M274.348 67.432 C 274.804 67.501,275.479 67.499,275.848 67.428 C 276.217 67.357,275.844 67.300,275.019 67.303 C 274.194 67.305,273.892 67.363,274.348 67.432 M279.295 67.429 C 279.666 67.500,280.274 67.500,280.645 67.429 C 281.017 67.357,280.713 67.299,279.970 67.299 C 279.227 67.299,278.923 67.357,279.295 67.429 M284.396 67.429 C 284.767 67.500,285.375 67.500,285.746 67.429 C 286.118 67.357,285.814 67.299,285.071 67.299 C 284.329 67.299,284.025 67.357,284.396 67.429 M289.351 67.432 C 289.808 67.501,290.483 67.499,290.852 67.428 C 291.221 67.357,290.848 67.300,290.023 67.303 C 289.197 67.305,288.895 67.363,289.351 67.432 M294.299 67.429 C 294.670 67.500,295.278 67.500,295.649 67.429 C 296.020 67.357,295.716 67.299,294.974 67.299 C 294.231 67.299,293.927 67.357,294.299 67.429 M299.400 67.429 C 299.771 67.500,300.379 67.500,300.750 67.429 C 301.122 67.357,300.818 67.299,300.075 67.299 C 299.332 67.299,299.029 67.357,299.400 67.429 M304.355 67.432 C 304.811 67.501,305.487 67.499,305.856 67.428 C 306.225 67.357,305.851 67.300,305.026 67.303 C 304.201 67.305,303.899 67.363,304.355 67.432 M309.302 67.429 C 309.674 67.500,310.281 67.500,310.653 67.429 C 311.024 67.357,310.720 67.299,309.977 67.299 C 309.235 67.299,308.931 67.357,309.302 67.429 M314.404 67.429 C 314.775 67.500,315.383 67.500,315.754 67.429 C 316.125 67.357,315.821 67.299,315.079 67.299 C 314.336 67.299,314.032 67.357,314.404 67.429 M319.359 67.432 C 319.815 67.501,320.490 67.499,320.859 67.428 C 321.228 67.357,320.855 67.300,320.030 67.303 C 319.205 67.305,318.903 67.363,319.359 67.432 M324.306 67.429 C 324.677 67.500,325.285 67.500,325.656 67.429 C 326.028 67.357,325.724 67.299,324.981 67.299 C 324.239 67.299,323.935 67.357,324.306 67.429 M329.407 67.429 C 329.779 67.500,330.386 67.500,330.758 67.429 C 331.129 67.357,330.825 67.299,330.083 67.299 C 329.340 67.299,329.036 67.357,329.407 67.429 M334.363 67.432 C 334.819 67.501,335.494 67.499,335.863 67.428 C 336.232 67.357,335.859 67.300,335.034 67.303 C 334.209 67.305,333.907 67.363,334.363 67.432 M339.310 67.429 C 339.681 67.500,340.289 67.500,340.660 67.429 C 341.032 67.357,340.728 67.299,339.985 67.299 C 339.242 67.299,338.938 67.357,339.310 67.429 M344.411 67.429 C 344.782 67.500,345.390 67.500,345.761 67.429 C 346.133 67.357,345.829 67.299,345.086 67.299 C 344.344 67.299,344.040 67.357,344.411 67.429 M349.366 67.432 C 349.823 67.501,350.498 67.499,350.867 67.428 C 351.236 67.357,350.863 67.300,350.038 67.303 C 349.212 67.305,348.910 67.363,349.366 67.432 M354.314 67.429 C 354.685 67.500,355.293 67.500,355.664 67.429 C 356.035 67.357,355.731 67.299,354.989 67.299 C 354.246 67.299,353.942 67.357,354.314 67.429 M357.239 147.427 L 357.239 227.307 197.389 227.307 C 109.472 227.307,37.641 227.408,37.765 227.532 C 37.889 227.656,109.889 227.724,197.765 227.682 L 357.539 227.607 357.615 147.803 C 357.657 103.910,357.589 67.897,357.465 67.772 C 357.341 67.648,357.239 103.493,357.239 147.427 M37.302 70.068 C 37.304 71.058,37.360 71.427,37.427 70.887 C 37.494 70.348,37.492 69.538,37.424 69.087 C 37.355 68.636,37.301 69.077,37.302 70.068 M37.305 75.019 C 37.305 76.092,37.360 76.530,37.426 75.994 C 37.493 75.458,37.493 74.580,37.426 74.044 C 37.360 73.507,37.305 73.946,37.305 75.019 M47.612 77.619 C 47.334 77.897,47.359 217.554,47.637 217.554 C 47.761 217.554,47.828 186.091,47.786 147.636 L 47.709 77.718 197.598 77.794 C 280.037 77.835,347.487 77.768,347.487 77.644 C 347.487 77.366,47.890 77.341,47.612 77.619 M37.302 79.970 C 37.304 80.960,37.360 81.329,37.427 80.790 C 37.494 80.250,37.492 79.440,37.424 78.989 C 37.355 78.538,37.301 78.980,37.302 79.970 M37.302 85.071 C 37.304 86.062,37.360 86.430,37.427 85.891 C 37.494 85.352,37.492 84.542,37.424 84.091 C 37.355 83.640,37.301 84.081,37.302 85.071 M37.305 90.023 C 37.305 91.095,37.360 91.534,37.426 90.998 C 37.493 90.461,37.493 89.584,37.426 89.047 C 37.360 88.511,37.305 88.950,37.305 90.023 M37.302 94.974 C 37.304 95.964,37.360 96.333,37.427 95.794 C 37.494 95.254,37.492 94.444,37.424 93.993 C 37.355 93.542,37.301 93.983,37.302 94.974 M37.302 100.075 C 37.304 101.065,37.360 101.434,37.427 100.895 C 37.494 100.356,37.492 99.545,37.424 99.094 C 37.355 98.643,37.301 99.085,37.302 100.075 M37.305 105.026 C 37.305 106.099,37.360 106.538,37.426 106.002 C 37.493 105.465,37.493 104.587,37.426 104.051 C 37.360 103.515,37.305 103.953,37.305 105.026 M92.562 107.800 C 92.483 108.007,92.453 124.921,92.496 145.386 L 92.573 182.596 112.528 182.596 L 132.483 182.596 132.483 180.045 L 132.483 177.494 115.004 177.344 C 105.390 177.262,97.524 177.296,97.524 177.419 C 97.524 177.543,105.356 177.644,114.929 177.644 L 132.333 177.644 132.333 180.045 L 132.333 182.446 112.528 182.446 L 92.723 182.446 92.723 145.086 L 92.723 107.727 112.551 107.727 L 132.379 107.727 132.281 110.128 C 132.227 111.449,132.290 112.529,132.420 112.529 C 132.551 112.528,132.618 111.414,132.570 110.053 L 132.483 107.577 112.595 107.500 C 96.843 107.439,92.676 107.501,92.562 107.800 M145.011 107.646 L 147.337 107.751 147.337 124.976 C 147.337 134.449,147.438 142.263,147.562 142.339 C 147.686 142.416,147.719 134.626,147.637 125.028 L 147.487 107.577 145.086 107.559 L 142.686 107.541 145.011 107.646 M177.491 107.790 C 177.249 108.440,177.178 142.536,177.419 142.536 C 177.543 142.536,177.644 134.704,177.644 125.131 L 177.644 107.727 180.046 107.727 L 182.448 107.727 182.372 145.011 L 182.296 182.296 179.972 182.383 L 177.649 182.471 177.572 164.979 L 177.494 147.487 162.491 147.487 L 147.487 147.487 147.409 164.979 L 147.332 182.471 145.009 182.383 L 142.686 182.296 142.534 145.086 L 142.382 107.877 142.309 144.975 C 142.246 176.564,142.298 182.124,142.658 182.423 C 142.920 182.640,143.917 182.739,145.284 182.684 L 147.487 182.596 147.564 165.116 L 147.642 147.637 162.491 147.637 L 177.340 147.637 177.417 165.116 L 177.494 182.596 179.773 182.682 C 181.443 182.746,182.146 182.657,182.400 182.350 C 182.661 182.036,182.729 172.595,182.672 144.754 L 182.596 107.577 180.115 107.490 C 178.299 107.426,177.596 107.506,177.491 107.790 M192.491 107.790 C 192.410 108.003,192.378 124.921,192.421 145.386 L 192.498 182.596 194.777 182.682 C 196.447 182.746,197.149 182.657,197.404 182.350 C 197.664 182.036,197.733 172.595,197.676 144.754 L 197.599 107.577 195.119 107.490 C 193.304 107.426,192.599 107.506,192.491 107.790 M207.491 107.800 C 207.412 108.007,207.382 124.921,207.425 145.386 L 207.502 182.596 209.705 182.684 C 213.052 182.819,212.753 184.567,212.753 164.857 L 212.753 147.642 230.083 147.564 L 247.412 147.487 247.412 127.532 L 247.412 107.577 227.523 107.500 C 211.772 107.439,207.605 107.501,207.491 107.800 M257.488 107.950 C 257.502 108.264,257.573 108.325,257.663 108.102 C 257.782 107.807,262.051 107.727,277.594 107.727 L 297.374 107.727 297.374 145.086 L 297.374 182.446 277.591 182.446 C 260.155 182.446,257.792 182.392,257.667 181.990 C 257.568 181.671,257.540 181.693,257.574 182.065 C 257.620 182.567,258.707 182.596,277.574 182.596 L 297.524 182.596 297.524 145.086 L 297.524 107.577 277.494 107.500 C 258.551 107.427,257.466 107.451,257.488 107.950 M197.376 145.011 L 197.299 182.296 194.974 182.383 L 192.648 182.471 192.648 145.099 L 192.648 107.727 195.050 107.727 L 197.452 107.727 197.376 145.011 M247.262 127.529 L 247.262 147.332 229.932 147.409 L 212.603 147.487 212.453 164.891 L 212.303 182.296 209.977 182.383 L 207.652 182.471 207.652 145.099 L 207.652 107.727 227.457 107.727 L 247.262 107.727 247.262 127.529 M37.302 109.977 C 37.304 110.968,37.360 111.337,37.427 110.797 C 37.494 110.258,37.492 109.448,37.424 108.997 C 37.355 108.546,37.301 108.987,37.302 109.977 M257.534 112.528 C 257.534 113.106,257.596 113.342,257.671 113.053 C 257.747 112.764,257.747 112.292,257.671 112.003 C 257.596 111.714,257.534 111.950,257.534 112.528 M99.250 112.740 C 99.621 112.811,100.229 112.811,100.600 112.740 C 100.971 112.668,100.668 112.610,99.925 112.610 C 99.182 112.610,98.878 112.668,99.250 112.740 M104.351 112.740 C 104.722 112.811,105.330 112.811,105.701 112.740 C 106.073 112.668,105.769 112.610,105.026 112.610 C 104.284 112.610,103.980 112.668,104.351 112.740 M109.306 112.743 C 109.763 112.812,110.438 112.811,110.807 112.739 C 111.176 112.668,110.803 112.612,109.977 112.614 C 109.152 112.616,108.850 112.674,109.306 112.743 M114.254 112.740 C 114.625 112.811,115.233 112.811,115.604 112.740 C 115.975 112.668,115.671 112.610,114.929 112.610 C 114.186 112.610,113.882 112.668,114.254 112.740 M119.355 112.740 C 119.726 112.811,120.334 112.811,120.705 112.740 C 121.077 112.668,120.773 112.610,120.030 112.610 C 119.287 112.610,118.983 112.668,119.355 112.740 M124.310 112.743 C 124.766 112.812,125.442 112.811,125.811 112.739 C 126.180 112.668,125.806 112.612,124.981 112.614 C 124.156 112.616,123.854 112.674,124.310 112.743 M129.257 112.740 C 129.629 112.811,130.236 112.811,130.608 112.740 C 130.979 112.668,130.675 112.610,129.932 112.610 C 129.190 112.610,128.886 112.668,129.257 112.740 M212.592 127.532 C 212.592 135.866,212.631 139.276,212.678 135.109 C 212.725 130.941,212.725 124.122,212.678 119.955 C 212.631 115.788,212.592 119.197,212.592 127.532 M214.333 112.743 C 214.789 112.812,215.464 112.811,215.833 112.739 C 216.202 112.668,215.829 112.612,215.004 112.614 C 214.179 112.616,213.877 112.674,214.333 112.743 M219.280 112.740 C 219.651 112.811,220.259 112.811,220.630 112.740 C 221.002 112.668,220.698 112.610,219.955 112.610 C 219.212 112.610,218.908 112.668,219.280 112.740 M224.381 112.740 C 224.752 112.811,225.360 112.811,225.731 112.740 C 226.103 112.668,225.799 112.610,225.056 112.610 C 224.314 112.610,224.010 112.668,224.381 112.740 M229.336 112.743 C 229.793 112.812,230.468 112.811,230.837 112.739 C 231.206 112.668,230.833 112.612,230.008 112.614 C 229.182 112.616,228.880 112.674,229.336 112.743 M234.284 112.740 C 234.655 112.811,235.263 112.811,235.634 112.740 C 236.005 112.668,235.701 112.610,234.959 112.610 C 234.216 112.610,233.912 112.668,234.284 112.740 M239.385 112.740 C 239.756 112.811,240.364 112.811,240.735 112.740 C 241.107 112.668,240.803 112.610,240.060 112.610 C 239.317 112.610,239.014 112.668,239.385 112.740 M262.466 112.728 C 262.188 113.006,262.213 142.167,262.491 142.339 C 262.614 142.416,262.716 135.740,262.716 127.503 C 262.716 119.267,262.704 112.528,262.691 112.528 C 262.677 112.528,262.576 112.618,262.466 112.728 M264.291 112.740 C 264.662 112.811,265.270 112.811,265.641 112.740 C 266.013 112.668,265.709 112.610,264.966 112.610 C 264.224 112.610,263.920 112.668,264.291 112.740 M269.392 112.740 C 269.764 112.811,270.371 112.811,270.743 112.740 C 271.114 112.668,270.810 112.610,270.068 112.610 C 269.325 112.610,269.021 112.668,269.392 112.740 M274.348 112.743 C 274.804 112.812,275.479 112.811,275.848 112.739 C 276.217 112.668,275.844 112.612,275.019 112.614 C 274.194 112.616,273.892 112.674,274.348 112.743 M279.295 112.740 C 279.666 112.811,280.274 112.811,280.645 112.740 C 281.017 112.668,280.713 112.610,279.970 112.610 C 279.227 112.610,278.923 112.668,279.295 112.740 M284.396 112.740 C 284.767 112.811,285.375 112.811,285.746 112.740 C 286.118 112.668,285.814 112.610,285.071 112.610 C 284.329 112.610,284.025 112.668,284.396 112.740 M289.351 112.743 C 289.808 112.812,290.483 112.811,290.852 112.739 C 291.221 112.668,290.848 112.612,290.023 112.614 C 289.197 112.616,288.895 112.674,289.351 112.743 M292.123 127.532 C 292.123 135.784,292.224 142.536,292.348 142.536 C 292.472 142.536,292.573 135.784,292.573 127.532 C 292.573 119.280,292.472 112.528,292.348 112.528 C 292.224 112.528,292.123 119.280,292.123 127.532 M37.302 115.079 C 37.304 116.069,37.360 116.438,37.427 115.899 C 37.494 115.359,37.492 114.549,37.424 114.098 C 37.355 113.647,37.301 114.089,37.302 115.079 M242.536 117.479 C 242.540 118.140,242.601 118.374,242.673 118.001 C 242.745 117.628,242.742 117.088,242.667 116.801 C 242.592 116.514,242.533 116.819,242.536 117.479 M257.534 117.629 C 257.534 118.207,257.596 118.443,257.671 118.155 C 257.747 117.866,257.747 117.393,257.671 117.104 C 257.596 116.815,257.534 117.052,257.534 117.629 M37.305 120.030 C 37.305 121.103,37.360 121.542,37.426 121.005 C 37.493 120.469,37.493 119.591,37.426 119.055 C 37.360 118.518,37.305 118.957,37.305 120.030 M242.536 122.581 C 242.540 123.241,242.601 123.476,242.673 123.102 C 242.745 122.729,242.742 122.189,242.667 121.902 C 242.592 121.615,242.533 121.920,242.536 122.581 M257.534 122.431 C 257.534 123.008,257.596 123.245,257.671 122.956 C 257.747 122.667,257.747 122.194,257.671 121.905 C 257.596 121.617,257.534 121.853,257.534 122.431 M37.302 124.981 C 37.304 125.971,37.360 126.340,37.427 125.801 C 37.494 125.262,37.492 124.452,37.424 124.001 C 37.355 123.550,37.301 123.991,37.302 124.981 M242.530 127.532 C 242.530 128.110,242.592 128.346,242.667 128.057 C 242.743 127.768,242.743 127.296,242.667 127.007 C 242.592 126.718,242.530 126.954,242.530 127.532 M257.534 127.532 C 257.534 128.110,257.596 128.346,257.671 128.057 C 257.747 127.768,257.747 127.296,257.671 127.007 C 257.596 126.718,257.534 126.954,257.534 127.532 M37.302 130.083 C 37.304 131.073,37.360 131.442,37.427 130.902 C 37.494 130.363,37.492 129.553,37.424 129.102 C 37.355 128.651,37.301 129.092,37.302 130.083 M242.536 132.483 C 242.540 133.143,242.601 133.378,242.673 133.005 C 242.745 132.631,242.742 132.091,242.667 131.804 C 242.592 131.518,242.533 131.823,242.536 132.483 M257.534 132.633 C 257.534 133.211,257.596 133.447,257.671 133.158 C 257.747 132.869,257.747 132.397,257.671 132.108 C 257.596 131.819,257.534 132.056,257.534 132.633 M37.305 135.034 C 37.305 136.107,37.360 136.545,37.426 136.009 C 37.493 135.473,37.493 134.595,37.426 134.059 C 37.360 133.522,37.305 133.961,37.305 135.034 M242.536 137.584 C 242.540 138.245,242.601 138.479,242.673 138.106 C 242.745 137.733,242.742 137.193,242.667 136.906 C 242.592 136.619,242.533 136.924,242.536 137.584 M257.534 137.434 C 257.534 138.012,257.596 138.248,257.671 137.959 C 257.747 137.671,257.747 137.198,257.671 136.909 C 257.596 136.620,257.534 136.857,257.534 137.434 M37.302 139.985 C 37.304 140.975,37.360 141.344,37.427 140.805 C 37.494 140.265,37.492 139.455,37.424 139.004 C 37.355 138.553,37.301 138.995,37.302 139.985 M257.534 142.536 C 257.534 143.113,257.596 143.350,257.671 143.061 C 257.747 142.772,257.747 142.299,257.671 142.011 C 257.596 141.722,257.534 141.958,257.534 142.536 M149.362 142.447 C 149.734 142.519,150.341 142.519,150.713 142.447 C 151.084 142.376,150.780 142.317,150.038 142.317 C 149.295 142.317,148.991 142.376,149.362 142.447 M154.318 142.451 C 154.774 142.520,155.449 142.518,155.818 142.447 C 156.187 142.376,155.814 142.319,154.989 142.321 C 154.164 142.324,153.862 142.382,154.318 142.451 M159.265 142.447 C 159.636 142.519,160.244 142.519,160.615 142.447 C 160.986 142.376,160.683 142.317,159.940 142.317 C 159.197 142.317,158.893 142.376,159.265 142.447 M164.366 142.447 C 164.737 142.519,165.345 142.519,165.716 142.447 C 166.088 142.376,165.784 142.317,165.041 142.317 C 164.299 142.317,163.995 142.376,164.366 142.447 M169.321 142.451 C 169.778 142.520,170.453 142.518,170.822 142.447 C 171.191 142.376,170.818 142.319,169.992 142.321 C 169.167 142.324,168.865 142.382,169.321 142.451 M174.269 142.447 C 174.640 142.519,175.248 142.519,175.619 142.447 C 175.990 142.376,175.686 142.317,174.944 142.317 C 174.201 142.317,173.897 142.376,174.269 142.447 M214.333 142.451 C 214.789 142.520,215.464 142.518,215.833 142.447 C 216.202 142.376,215.829 142.319,215.004 142.321 C 214.179 142.324,213.877 142.382,214.333 142.451 M219.280 142.447 C 219.651 142.519,220.259 142.519,220.630 142.447 C 221.002 142.376,220.698 142.317,219.955 142.317 C 219.212 142.317,218.908 142.376,219.280 142.447 M224.381 142.447 C 224.752 142.519,225.360 142.519,225.731 142.447 C 226.103 142.376,225.799 142.317,225.056 142.317 C 224.314 142.317,224.010 142.376,224.381 142.447 M229.336 142.451 C 229.793 142.520,230.468 142.518,230.837 142.447 C 231.206 142.376,230.833 142.319,230.008 142.321 C 229.182 142.324,228.880 142.382,229.336 142.451 M234.284 142.447 C 234.655 142.519,235.263 142.519,235.634 142.447 C 236.005 142.376,235.701 142.317,234.959 142.317 C 234.216 142.317,233.912 142.376,234.284 142.447 M239.385 142.447 C 239.756 142.519,240.364 142.519,240.735 142.447 C 241.107 142.376,240.803 142.317,240.060 142.317 C 239.317 142.317,239.014 142.376,239.385 142.447 M264.291 142.447 C 264.662 142.519,265.270 142.519,265.641 142.447 C 266.013 142.376,265.709 142.317,264.966 142.317 C 264.224 142.317,263.920 142.376,264.291 142.447 M269.392 142.447 C 269.764 142.519,270.371 142.519,270.743 142.447 C 271.114 142.376,270.810 142.317,270.068 142.317 C 269.325 142.317,269.021 142.376,269.392 142.447 M274.348 142.451 C 274.804 142.520,275.479 142.518,275.848 142.447 C 276.217 142.376,275.844 142.319,275.019 142.321 C 274.194 142.324,273.892 142.382,274.348 142.451 M279.295 142.447 C 279.666 142.519,280.274 142.519,280.645 142.447 C 281.017 142.376,280.713 142.317,279.970 142.317 C 279.227 142.317,278.923 142.376,279.295 142.447 M284.396 142.447 C 284.767 142.519,285.375 142.519,285.746 142.447 C 286.118 142.376,285.814 142.317,285.071 142.317 C 284.329 142.317,284.025 142.376,284.396 142.447 M289.351 142.451 C 289.808 142.520,290.483 142.518,290.852 142.447 C 291.221 142.376,290.848 142.319,290.023 142.321 C 289.197 142.324,288.895 142.382,289.351 142.451 M37.302 145.086 C 37.304 146.077,37.360 146.445,37.427 145.906 C 37.494 145.367,37.492 144.557,37.424 144.106 C 37.355 143.655,37.301 144.096,37.302 145.086 M257.534 147.637 C 257.534 148.215,257.596 148.451,257.671 148.162 C 257.747 147.873,257.747 147.401,257.671 147.112 C 257.596 146.823,257.534 147.059,257.534 147.637 M262.602 147.743 C 262.354 148.042,262.281 152.184,262.338 162.825 L 262.416 177.494 277.419 177.494 L 292.423 177.494 292.423 162.491 L 292.423 147.487 277.683 147.409 C 265.481 147.345,262.885 147.402,262.602 147.743 M292.273 162.491 L 292.273 177.344 277.419 177.344 L 262.566 177.344 262.566 162.691 C 262.566 154.631,262.656 147.947,262.766 147.837 C 262.876 147.727,269.560 147.637,277.619 147.637 L 292.273 147.637 292.273 162.491 M37.305 150.038 C 37.305 151.110,37.360 151.549,37.426 151.013 C 37.493 150.476,37.493 149.599,37.426 149.062 C 37.360 148.526,37.305 148.965,37.305 150.038 M257.534 152.438 C 257.534 153.016,257.596 153.252,257.671 152.963 C 257.747 152.674,257.747 152.202,257.671 151.913 C 257.596 151.624,257.534 151.860,257.534 152.438 M37.302 154.989 C 37.304 155.979,37.360 156.348,37.427 155.809 C 37.494 155.269,37.492 154.459,37.424 154.008 C 37.355 153.557,37.301 153.998,37.302 154.989 M257.534 157.539 C 257.534 158.117,257.596 158.353,257.671 158.065 C 257.747 157.776,257.747 157.303,257.671 157.014 C 257.596 156.725,257.534 156.962,257.534 157.539 M37.302 160.090 C 37.304 161.080,37.360 161.449,37.427 160.910 C 37.494 160.371,37.492 159.560,37.424 159.109 C 37.355 158.658,37.301 159.100,37.302 160.090 M257.534 162.641 C 257.534 163.218,257.596 163.455,257.671 163.166 C 257.747 162.877,257.747 162.404,257.671 162.116 C 257.596 161.827,257.534 162.063,257.534 162.641 M37.305 165.041 C 37.305 166.114,37.360 166.553,37.426 166.017 C 37.493 165.480,37.493 164.602,37.426 164.066 C 37.360 163.530,37.305 163.968,37.305 165.041 M257.534 167.442 C 257.534 168.020,257.596 168.256,257.671 167.967 C 257.747 167.678,257.747 167.206,257.671 166.917 C 257.596 166.628,257.534 166.864,257.534 167.442 M37.302 169.992 C 37.304 170.983,37.360 171.352,37.427 170.812 C 37.494 170.273,37.492 169.463,37.424 169.012 C 37.355 168.561,37.301 169.002,37.302 169.992 M257.534 172.543 C 257.534 173.121,257.596 173.357,257.671 173.068 C 257.747 172.779,257.747 172.307,257.671 172.018 C 257.596 171.729,257.534 171.965,257.534 172.543 M37.302 175.094 C 37.304 176.084,37.360 176.453,37.427 175.914 C 37.494 175.374,37.492 174.564,37.424 174.113 C 37.355 173.662,37.301 174.104,37.302 175.094 M257.534 177.644 C 257.534 178.222,257.596 178.458,257.671 178.170 C 257.747 177.881,257.747 177.408,257.671 177.119 C 257.596 176.830,257.534 177.067,257.534 177.644 M37.305 180.045 C 37.305 181.118,37.360 181.557,37.426 181.020 C 37.493 180.484,37.493 179.606,37.426 179.070 C 37.360 178.533,37.305 178.972,37.305 180.045 M37.302 184.996 C 37.304 185.986,37.360 186.355,37.427 185.816 C 37.494 185.277,37.492 184.467,37.424 184.016 C 37.355 183.565,37.301 184.006,37.302 184.996 M37.302 190.098 C 37.304 191.088,37.360 191.457,37.427 190.917 C 37.494 190.378,37.492 189.568,37.424 189.117 C 37.355 188.666,37.301 189.107,37.302 190.098 M37.305 195.049 C 37.305 196.122,37.360 196.560,37.426 196.024 C 37.493 195.488,37.493 194.610,37.426 194.074 C 37.360 193.537,37.305 193.976,37.305 195.049 M37.302 200.000 C 37.304 200.990,37.360 201.359,37.427 200.820 C 37.494 200.280,37.492 199.470,37.424 199.019 C 37.355 198.568,37.301 199.010,37.302 200.000 M37.302 205.101 C 37.304 206.092,37.360 206.460,37.427 205.921 C 37.494 205.382,37.492 204.572,37.424 204.121 C 37.355 203.670,37.301 204.111,37.302 205.101 M37.305 210.053 C 37.305 211.125,37.360 211.564,37.426 211.028 C 37.493 210.491,37.493 209.614,37.426 209.077 C 37.360 208.541,37.305 208.980,37.305 210.053 M37.302 215.004 C 37.304 215.994,37.360 216.363,37.427 215.824 C 37.494 215.284,37.492 214.474,37.424 214.023 C 37.355 213.572,37.301 214.014,37.302 215.004 M49.291 217.470 C 49.748 217.539,50.423 217.537,50.792 217.466 C 51.161 217.394,50.788 217.338,49.962 217.340 C 49.137 217.342,48.835 217.401,49.291 217.470 M54.239 217.466 C 54.610 217.538,55.218 217.538,55.589 217.466 C 55.960 217.395,55.656 217.336,54.914 217.336 C 54.171 217.336,53.867 217.395,54.239 217.466 M59.340 217.466 C 59.711 217.538,60.319 217.538,60.690 217.466 C 61.062 217.395,60.758 217.336,60.015 217.336 C 59.272 217.336,58.968 217.395,59.340 217.466 M64.295 217.470 C 64.751 217.539,65.427 217.537,65.796 217.466 C 66.165 217.394,65.791 217.338,64.966 217.340 C 64.141 217.342,63.839 217.401,64.295 217.470 M69.242 217.466 C 69.614 217.538,70.221 217.538,70.593 217.466 C 70.964 217.395,70.660 217.336,69.917 217.336 C 69.175 217.336,68.871 217.395,69.242 217.466 M74.344 217.466 C 74.715 217.538,75.323 217.538,75.694 217.466 C 76.065 217.395,75.761 217.336,75.019 217.336 C 74.276 217.336,73.972 217.395,74.344 217.466 M79.299 217.470 C 79.755 217.539,80.430 217.537,80.799 217.466 C 81.168 217.394,80.795 217.338,79.970 217.340 C 79.145 217.342,78.843 217.401,79.299 217.470 M84.246 217.466 C 84.617 217.538,85.225 217.538,85.596 217.466 C 85.968 217.395,85.664 217.336,84.921 217.336 C 84.179 217.336,83.875 217.395,84.246 217.466 M89.347 217.466 C 89.719 217.538,90.326 217.538,90.698 217.466 C 91.069 217.395,90.765 217.336,90.023 217.336 C 89.280 217.336,88.976 217.395,89.347 217.466 M94.303 217.470 C 94.759 217.539,95.434 217.537,95.803 217.466 C 96.172 217.394,95.799 217.338,94.974 217.340 C 94.149 217.342,93.847 217.401,94.303 217.470 M99.250 217.466 C 99.621 217.538,100.229 217.538,100.600 217.466 C 100.971 217.395,100.668 217.336,99.925 217.336 C 99.182 217.336,98.878 217.395,99.250 217.466 M104.351 217.466 C 104.722 217.538,105.330 217.538,105.701 217.466 C 106.073 217.395,105.769 217.336,105.026 217.336 C 104.284 217.336,103.980 217.395,104.351 217.466 M109.306 217.470 C 109.763 217.539,110.438 217.537,110.807 217.466 C 111.176 217.394,110.803 217.338,109.977 217.340 C 109.152 217.342,108.850 217.401,109.306 217.470 M114.254 217.466 C 114.625 217.538,115.233 217.538,115.604 217.466 C 115.975 217.395,115.671 217.336,114.929 217.336 C 114.186 217.336,113.882 217.395,114.254 217.466 M119.355 217.466 C 119.726 217.538,120.334 217.538,120.705 217.466 C 121.077 217.395,120.773 217.336,120.030 217.336 C 119.287 217.336,118.983 217.395,119.355 217.466 M124.310 217.470 C 124.766 217.539,125.442 217.537,125.811 217.466 C 126.180 217.394,125.806 217.338,124.981 217.340 C 124.156 217.342,123.854 217.401,124.310 217.470 M129.257 217.466 C 129.629 217.538,130.236 217.538,130.608 217.466 C 130.979 217.395,130.675 217.336,129.932 217.336 C 129.190 217.336,128.886 217.395,129.257 217.466 M134.359 217.466 C 134.730 217.538,135.338 217.538,135.709 217.466 C 136.080 217.395,135.776 217.336,135.034 217.336 C 134.291 217.336,133.987 217.395,134.359 217.466 M139.314 217.470 C 139.770 217.539,140.445 217.537,140.814 217.466 C 141.183 217.394,140.810 217.338,139.985 217.340 C 139.160 217.342,138.858 217.401,139.314 217.470 M144.261 217.466 C 144.632 217.538,145.240 217.538,145.611 217.466 C 145.983 217.395,145.679 217.336,144.936 217.336 C 144.194 217.336,143.890 217.395,144.261 217.466 M149.362 217.466 C 149.734 217.538,150.341 217.538,150.713 217.466 C 151.084 217.395,150.780 217.336,150.038 217.336 C 149.295 217.336,148.991 217.395,149.362 217.466 M154.318 217.470 C 154.774 217.539,155.449 217.537,155.818 217.466 C 156.187 217.394,155.814 217.338,154.989 217.340 C 154.164 217.342,153.862 217.401,154.318 217.470 M159.265 217.466 C 159.636 217.538,160.244 217.538,160.615 217.466 C 160.986 217.395,160.683 217.336,159.940 217.336 C 159.197 217.336,158.893 217.395,159.265 217.466 M164.366 217.466 C 164.737 217.538,165.345 217.538,165.716 217.466 C 166.088 217.395,165.784 217.336,165.041 217.336 C 164.299 217.336,163.995 217.395,164.366 217.466 M169.321 217.470 C 169.778 217.539,170.453 217.537,170.822 217.466 C 171.191 217.394,170.818 217.338,169.992 217.340 C 169.167 217.342,168.865 217.401,169.321 217.470 M174.269 217.466 C 174.640 217.538,175.248 217.538,175.619 217.466 C 175.990 217.395,175.686 217.336,174.944 217.336 C 174.201 217.336,173.897 217.395,174.269 217.466 M179.370 217.466 C 179.741 217.538,180.349 217.538,180.720 217.466 C 181.092 217.395,180.788 217.336,180.045 217.336 C 179.302 217.336,178.998 217.395,179.370 217.466 M184.325 217.470 C 184.781 217.539,185.457 217.537,185.826 217.466 C 186.195 217.394,185.821 217.338,184.996 217.340 C 184.171 217.342,183.869 217.401,184.325 217.470 M189.272 217.466 C 189.644 217.538,190.251 217.538,190.623 217.466 C 190.994 217.395,190.690 217.336,189.947 217.336 C 189.205 217.336,188.901 217.395,189.272 217.466 M194.374 217.466 C 194.745 217.538,195.353 217.538,195.724 217.466 C 196.095 217.395,195.791 217.336,195.049 217.336 C 194.306 217.336,194.002 217.395,194.374 217.466 M199.329 217.470 C 199.785 217.539,200.460 217.537,200.829 217.466 C 201.198 217.394,200.825 217.338,200.000 217.340 C 199.175 217.342,198.873 217.401,199.329 217.470 M204.276 217.466 C 204.647 217.538,205.255 217.538,205.626 217.466 C 205.998 217.395,205.694 217.336,204.951 217.336 C 204.209 217.336,203.905 217.395,204.276 217.466 M209.377 217.466 C 209.749 217.538,210.356 217.538,210.728 217.466 C 211.099 217.395,210.795 217.336,210.053 217.336 C 209.310 217.336,209.006 217.395,209.377 217.466 M214.333 217.470 C 214.789 217.539,215.464 217.537,215.833 217.466 C 216.202 217.394,215.829 217.338,215.004 217.340 C 214.179 217.342,213.877 217.401,214.333 217.470 M219.280 217.466 C 219.651 217.538,220.259 217.538,220.630 217.466 C 221.002 217.395,220.698 217.336,219.955 217.336 C 219.212 217.336,218.908 217.395,219.280 217.466 M224.381 217.466 C 224.752 217.538,225.360 217.538,225.731 217.466 C 226.103 217.395,225.799 217.336,225.056 217.336 C 224.314 217.336,224.010 217.395,224.381 217.466 M229.336 217.470 C 229.793 217.539,230.468 217.537,230.837 217.466 C 231.206 217.394,230.833 217.338,230.008 217.340 C 229.182 217.342,228.880 217.401,229.336 217.470 M234.284 217.466 C 234.655 217.538,235.263 217.538,235.634 217.466 C 236.005 217.395,235.701 217.336,234.959 217.336 C 234.216 217.336,233.912 217.395,234.284 217.466 M239.385 217.466 C 239.756 217.538,240.364 217.538,240.735 217.466 C 241.107 217.395,240.803 217.336,240.060 217.336 C 239.317 217.336,239.014 217.395,239.385 217.466 M244.340 217.470 C 244.796 217.539,245.472 217.537,245.841 217.466 C 246.210 217.394,245.836 217.338,245.011 217.340 C 244.186 217.342,243.884 217.401,244.340 217.470 M249.287 217.466 C 249.659 217.538,250.266 217.538,250.638 217.466 C 251.009 217.395,250.705 217.336,249.962 217.336 C 249.220 217.336,248.916 217.395,249.287 217.466 M254.389 217.466 C 254.760 217.538,255.368 217.538,255.739 217.466 C 256.110 217.395,255.806 217.336,255.064 217.336 C 254.321 217.336,254.017 217.395,254.389 217.466 M259.344 217.470 C 259.800 217.539,260.475 217.537,260.844 217.466 C 261.213 217.394,260.840 217.338,260.015 217.340 C 259.190 217.342,258.888 217.401,259.344 217.470 M264.291 217.466 C 264.662 217.538,265.270 217.538,265.641 217.466 C 266.013 217.395,265.709 217.336,264.966 217.336 C 264.224 217.336,263.920 217.395,264.291 217.466 M269.392 217.466 C 269.764 217.538,270.371 217.538,270.743 217.466 C 271.114 217.395,270.810 217.336,270.068 217.336 C 269.325 217.336,269.021 217.395,269.392 217.466 M274.348 217.470 C 274.804 217.539,275.479 217.537,275.848 217.466 C 276.217 217.394,275.844 217.338,275.019 217.340 C 274.194 217.342,273.892 217.401,274.348 217.470 M279.295 217.466 C 279.666 217.538,280.274 217.538,280.645 217.466 C 281.017 217.395,280.713 217.336,279.970 217.336 C 279.227 217.336,278.923 217.395,279.295 217.466 M284.396 217.466 C 284.767 217.538,285.375 217.538,285.746 217.466 C 286.118 217.395,285.814 217.336,285.071 217.336 C 284.329 217.336,284.025 217.395,284.396 217.466 M289.351 217.470 C 289.808 217.539,290.483 217.537,290.852 217.466 C 291.221 217.394,290.848 217.338,290.023 217.340 C 289.197 217.342,288.895 217.401,289.351 217.470 M294.299 217.466 C 294.670 217.538,295.278 217.538,295.649 217.466 C 296.020 217.395,295.716 217.336,294.974 217.336 C 294.231 217.336,293.927 217.395,294.299 217.466 M299.400 217.466 C 299.771 217.538,300.379 217.538,300.750 217.466 C 301.122 217.395,300.818 217.336,300.075 217.336 C 299.332 217.336,299.029 217.395,299.400 217.466 M304.355 217.470 C 304.811 217.539,305.487 217.537,305.856 217.466 C 306.225 217.394,305.851 217.338,305.026 217.340 C 304.201 217.342,303.899 217.401,304.355 217.470 M309.302 217.466 C 309.674 217.538,310.281 217.538,310.653 217.466 C 311.024 217.395,310.720 217.336,309.977 217.336 C 309.235 217.336,308.931 217.395,309.302 217.466 M314.404 217.466 C 314.775 217.538,315.383 217.538,315.754 217.466 C 316.125 217.395,315.821 217.336,315.079 217.336 C 314.336 217.336,314.032 217.395,314.404 217.466 M319.359 217.470 C 319.815 217.539,320.490 217.537,320.859 217.466 C 321.228 217.394,320.855 217.338,320.030 217.340 C 319.205 217.342,318.903 217.401,319.359 217.470 M324.306 217.466 C 324.677 217.538,325.285 217.538,325.656 217.466 C 326.028 217.395,325.724 217.336,324.981 217.336 C 324.239 217.336,323.935 217.395,324.306 217.466 M329.407 217.466 C 329.779 217.538,330.386 217.538,330.758 217.466 C 331.129 217.395,330.825 217.336,330.083 217.336 C 329.340 217.336,329.036 217.395,329.407 217.466 M334.363 217.470 C 334.819 217.539,335.494 217.537,335.863 217.466 C 336.232 217.394,335.859 217.338,335.034 217.340 C 334.209 217.342,333.907 217.401,334.363 217.470 M339.310 217.466 C 339.681 217.538,340.289 217.538,340.660 217.466 C 341.032 217.395,340.728 217.336,339.985 217.336 C 339.242 217.336,338.938 217.395,339.310 217.466 M344.411 217.466 C 344.782 217.538,345.390 217.538,345.761 217.466 C 346.133 217.395,345.829 217.336,345.086 217.336 C 344.344 217.336,344.040 217.395,344.411 217.466 M37.302 220.105 C 37.304 221.095,37.360 221.464,37.427 220.925 C 37.494 220.386,37.492 219.575,37.424 219.124 C 37.355 218.674,37.301 219.115,37.302 220.105 M37.305 225.056 C 37.305 226.129,37.360 226.568,37.426 226.032 C 37.493 225.495,37.493 224.617,37.426 224.081 C 37.360 223.545,37.305 223.983,37.305 225.056 " stroke="none" fill="#a9abab" fill-rule="evenodd"></path><path id="path4" d="M37.313 67.680 C 37.215 67.935,37.219 68.227,37.322 68.330 C 37.425 68.433,37.509 68.301,37.509 68.038 C 37.509 67.774,37.813 67.500,38.185 67.429 L 38.860 67.299 38.175 67.258 C 37.799 67.235,37.411 67.425,37.313 67.680 M41.790 67.432 C 42.246 67.501,42.921 67.499,43.290 67.428 C 43.659 67.357,43.286 67.300,42.461 67.303 C 41.635 67.305,41.333 67.363,41.790 67.432 M46.737 67.429 C 47.108 67.500,47.716 67.500,48.087 67.429 C 48.458 67.357,48.155 67.299,47.412 67.299 C 46.669 67.299,46.365 67.357,46.737 67.429 M51.838 67.429 C 52.209 67.500,52.817 67.500,53.188 67.429 C 53.560 67.357,53.256 67.299,52.513 67.299 C 51.770 67.299,51.467 67.357,51.838 67.429 M56.793 67.432 C 57.249 67.501,57.925 67.499,58.294 67.428 C 58.663 67.357,58.290 67.300,57.464 67.303 C 56.639 67.305,56.337 67.363,56.793 67.432 M61.740 67.429 C 62.112 67.500,62.719 67.500,63.091 67.429 C 63.462 67.357,63.158 67.299,62.416 67.299 C 61.673 67.299,61.369 67.357,61.740 67.429 M66.842 67.429 C 67.213 67.500,67.821 67.500,68.192 67.429 C 68.563 67.357,68.260 67.299,67.517 67.299 C 66.774 67.299,66.470 67.357,66.842 67.429 M71.797 67.432 C 72.253 67.501,72.928 67.499,73.297 67.428 C 73.667 67.357,73.293 67.300,72.468 67.303 C 71.643 67.305,71.341 67.363,71.797 67.432 M76.744 67.429 C 77.116 67.500,77.723 67.500,78.095 67.429 C 78.466 67.357,78.162 67.299,77.419 67.299 C 76.677 67.299,76.373 67.357,76.744 67.429 M81.845 67.429 C 82.217 67.500,82.824 67.500,83.196 67.429 C 83.567 67.357,83.263 67.299,82.521 67.299 C 81.778 67.299,81.474 67.357,81.845 67.429 M86.801 67.432 C 87.257 67.501,87.932 67.499,88.301 67.428 C 88.670 67.357,88.297 67.300,87.472 67.303 C 86.647 67.305,86.345 67.363,86.801 67.432 M91.748 67.429 C 92.119 67.500,92.727 67.500,93.098 67.429 C 93.470 67.357,93.166 67.299,92.423 67.299 C 91.680 67.299,91.377 67.357,91.748 67.429 M96.849 67.429 C 97.221 67.500,97.828 67.500,98.200 67.429 C 98.571 67.357,98.267 67.299,97.524 67.299 C 96.782 67.299,96.478 67.357,96.849 67.429 M101.805 67.432 C 102.261 67.501,102.936 67.499,103.305 67.428 C 103.674 67.357,103.301 67.300,102.476 67.303 C 101.650 67.305,101.348 67.363,101.805 67.432 M106.752 67.429 C 107.123 67.500,107.731 67.500,108.102 67.429 C 108.473 67.357,108.170 67.299,107.427 67.299 C 106.684 67.299,106.380 67.357,106.752 67.429 M111.853 67.429 C 112.224 67.500,112.832 67.500,113.203 67.429 C 113.575 67.357,113.271 67.299,112.528 67.299 C 111.785 67.299,111.482 67.357,111.853 67.429 M116.808 67.432 C 117.264 67.501,117.940 67.499,118.309 67.428 C 118.678 67.357,118.305 67.300,117.479 67.303 C 116.654 67.305,116.352 67.363,116.808 67.432 M121.755 67.429 C 122.127 67.500,122.734 67.500,123.106 67.429 C 123.477 67.357,123.173 67.299,122.431 67.299 C 121.688 67.299,121.384 67.357,121.755 67.429 M126.857 67.429 C 127.228 67.500,127.836 67.500,128.207 67.429 C 128.578 67.357,128.275 67.299,127.532 67.299 C 126.789 67.299,126.485 67.357,126.857 67.429 M131.812 67.432 C 132.268 67.501,132.943 67.499,133.312 67.428 C 133.682 67.357,133.308 67.300,132.483 67.303 C 131.658 67.305,131.356 67.363,131.812 67.432 M136.759 67.429 C 137.131 67.500,137.738 67.500,138.110 67.429 C 138.481 67.357,138.177 67.299,137.434 67.299 C 136.692 67.299,136.388 67.357,136.759 67.429 M141.860 67.429 C 142.232 67.500,142.839 67.500,143.211 67.429 C 143.582 67.357,143.278 67.299,142.536 67.299 C 141.793 67.299,141.489 67.357,141.860 67.429 M146.816 67.432 C 147.272 67.501,147.947 67.499,148.316 67.428 C 148.685 67.357,148.312 67.300,147.487 67.303 C 146.662 67.305,146.360 67.363,146.816 67.432 M151.763 67.429 C 152.134 67.500,152.742 67.500,153.113 67.429 C 153.485 67.357,153.181 67.299,152.438 67.299 C 151.695 67.299,151.392 67.357,151.763 67.429 M156.864 67.429 C 157.236 67.500,157.843 67.500,158.215 67.429 C 158.586 67.357,158.282 67.299,157.539 67.299 C 156.797 67.299,156.493 67.357,156.864 67.429 M161.820 67.432 C 162.276 67.501,162.951 67.499,163.320 67.428 C 163.689 67.357,163.316 67.300,162.491 67.303 C 161.665 67.305,161.363 67.363,161.820 67.432 M166.767 67.429 C 167.138 67.500,167.746 67.500,168.117 67.429 C 168.488 67.357,168.185 67.299,167.442 67.299 C 166.699 67.299,166.395 67.357,166.767 67.429 M171.868 67.429 C 172.239 67.500,172.847 67.500,173.218 67.429 C 173.590 67.357,173.286 67.299,172.543 67.299 C 171.800 67.299,171.497 67.357,171.868 67.429 M176.823 67.432 C 177.279 67.501,177.955 67.499,178.324 67.428 C 178.693 67.357,178.320 67.300,177.494 67.303 C 176.669 67.305,176.367 67.363,176.823 67.432 M181.770 67.429 C 182.142 67.500,182.749 67.500,183.121 67.429 C 183.492 67.357,183.188 67.299,182.446 67.299 C 181.703 67.299,181.399 67.357,181.770 67.429 M186.872 67.429 C 187.243 67.500,187.851 67.500,188.222 67.429 C 188.593 67.357,188.290 67.299,187.547 67.299 C 186.804 67.299,186.500 67.357,186.872 67.429 M191.827 67.432 C 192.283 67.501,192.958 67.499,193.327 67.428 C 193.697 67.357,193.323 67.300,192.498 67.303 C 191.673 67.305,191.371 67.363,191.827 67.432 M196.774 67.429 C 197.146 67.500,197.753 67.500,198.125 67.429 C 198.496 67.357,198.192 67.299,197.449 67.299 C 196.707 67.299,196.403 67.357,196.774 67.429 M201.875 67.429 C 202.247 67.500,202.854 67.500,203.226 67.429 C 203.597 67.357,203.293 67.299,202.551 67.299 C 201.808 67.299,201.504 67.357,201.875 67.429 M206.831 67.432 C 207.287 67.501,207.962 67.499,208.331 67.428 C 208.700 67.357,208.327 67.300,207.502 67.303 C 206.677 67.305,206.375 67.363,206.831 67.432 M211.778 67.429 C 212.149 67.500,212.757 67.500,213.128 67.429 C 213.500 67.357,213.196 67.299,212.453 67.299 C 211.710 67.299,211.407 67.357,211.778 67.429 M216.879 67.429 C 217.251 67.500,217.858 67.500,218.230 67.429 C 218.601 67.357,218.297 67.299,217.554 67.299 C 216.812 67.299,216.508 67.357,216.879 67.429 M221.835 67.432 C 222.291 67.501,222.966 67.499,223.335 67.428 C 223.704 67.357,223.331 67.300,222.506 67.303 C 221.680 67.305,221.378 67.363,221.835 67.432 M226.782 67.429 C 227.153 67.500,227.761 67.500,228.132 67.429 C 228.503 67.357,228.200 67.299,227.457 67.299 C 226.714 67.299,226.410 67.357,226.782 67.429 M231.883 67.429 C 232.254 67.500,232.862 67.500,233.233 67.429 C 233.605 67.357,233.301 67.299,232.558 67.299 C 231.815 67.299,231.512 67.357,231.883 67.429 M236.838 67.432 C 237.294 67.501,237.970 67.499,238.339 67.428 C 238.708 67.357,238.335 67.300,237.509 67.303 C 236.684 67.305,236.382 67.363,236.838 67.432 M241.785 67.429 C 242.157 67.500,242.764 67.500,243.136 67.429 C 243.507 67.357,243.203 67.299,242.461 67.299 C 241.718 67.299,241.414 67.357,241.785 67.429 M246.887 67.429 C 247.258 67.500,247.866 67.500,248.237 67.429 C 248.608 67.357,248.305 67.299,247.562 67.299 C 246.819 67.299,246.515 67.357,246.887 67.429 M251.842 67.432 C 252.298 67.501,252.973 67.499,253.342 67.428 C 253.712 67.357,253.338 67.300,252.513 67.303 C 251.688 67.305,251.386 67.363,251.842 67.432 M256.789 67.429 C 257.161 67.500,257.768 67.500,258.140 67.429 C 258.511 67.357,258.207 67.299,257.464 67.299 C 256.722 67.299,256.418 67.357,256.789 67.429 M261.890 67.429 C 262.262 67.500,262.869 67.500,263.241 67.429 C 263.612 67.357,263.308 67.299,262.566 67.299 C 261.823 67.299,261.519 67.357,261.890 67.429 M266.846 67.432 C 267.302 67.501,267.977 67.499,268.346 67.428 C 268.715 67.357,268.342 67.300,267.517 67.303 C 266.692 67.305,266.390 67.363,266.846 67.432 M271.793 67.429 C 272.164 67.500,272.772 67.500,273.143 67.429 C 273.515 67.357,273.211 67.299,272.468 67.299 C 271.725 67.299,271.422 67.357,271.793 67.429 M276.894 67.429 C 277.266 67.500,277.873 67.500,278.245 67.429 C 278.616 67.357,278.312 67.299,277.569 67.299 C 276.827 67.299,276.523 67.357,276.894 67.429 M281.850 67.432 C 282.306 67.501,282.981 67.499,283.350 67.428 C 283.719 67.357,283.346 67.300,282.521 67.303 C 281.695 67.305,281.393 67.363,281.850 67.432 M286.797 67.429 C 287.168 67.500,287.776 67.500,288.147 67.429 C 288.518 67.357,288.215 67.299,287.472 67.299 C 286.729 67.299,286.425 67.357,286.797 67.429 M291.898 67.429 C 292.269 67.500,292.877 67.500,293.248 67.429 C 293.620 67.357,293.316 67.299,292.573 67.299 C 291.830 67.299,291.527 67.357,291.898 67.429 M296.853 67.432 C 297.309 67.501,297.985 67.499,298.354 67.428 C 298.723 67.357,298.350 67.300,297.524 67.303 C 296.699 67.305,296.397 67.363,296.853 67.432 M301.800 67.429 C 302.172 67.500,302.779 67.500,303.151 67.429 C 303.522 67.357,303.218 67.299,302.476 67.299 C 301.733 67.299,301.429 67.357,301.800 67.429 M306.902 67.429 C 307.273 67.500,307.881 67.500,308.252 67.429 C 308.623 67.357,308.320 67.299,307.577 67.299 C 306.834 67.299,306.530 67.357,306.902 67.429 M311.857 67.432 C 312.313 67.501,312.988 67.499,313.357 67.428 C 313.727 67.357,313.353 67.300,312.528 67.303 C 311.703 67.305,311.401 67.363,311.857 67.432 M316.804 67.429 C 317.176 67.500,317.783 67.500,318.155 67.429 C 318.526 67.357,318.222 67.299,317.479 67.299 C 316.737 67.299,316.433 67.357,316.804 67.429 M321.905 67.429 C 322.277 67.500,322.884 67.500,323.256 67.429 C 323.627 67.357,323.323 67.299,322.581 67.299 C 321.838 67.299,321.534 67.357,321.905 67.429 M326.861 67.432 C 327.317 67.501,327.992 67.499,328.361 67.428 C 328.730 67.357,328.357 67.300,327.532 67.303 C 326.707 67.305,326.405 67.363,326.861 67.432 M331.808 67.429 C 332.179 67.500,332.787 67.500,333.158 67.429 C 333.530 67.357,333.226 67.299,332.483 67.299 C 331.740 67.299,331.437 67.357,331.808 67.429 M336.909 67.429 C 337.281 67.500,337.888 67.500,338.260 67.429 C 338.631 67.357,338.327 67.299,337.584 67.299 C 336.842 67.299,336.538 67.357,336.909 67.429 M341.865 67.432 C 342.321 67.501,342.996 67.499,343.365 67.428 C 343.734 67.357,343.361 67.300,342.536 67.303 C 341.710 67.305,341.408 67.363,341.865 67.432 M346.812 67.429 C 347.183 67.500,347.791 67.500,348.162 67.429 C 348.533 67.357,348.230 67.299,347.487 67.299 C 346.744 67.299,346.440 67.357,346.812 67.429 M351.913 67.429 C 352.284 67.500,352.892 67.500,353.263 67.429 C 353.635 67.357,353.331 67.299,352.588 67.299 C 351.845 67.299,351.542 67.357,351.913 67.429 M356.189 67.332 C 356.189 67.395,356.527 67.511,356.939 67.590 C 357.352 67.669,357.689 67.617,357.689 67.475 C 357.689 67.333,357.352 67.217,356.939 67.217 C 356.527 67.217,356.189 67.269,356.189 67.332 M347.261 147.540 C 347.191 213.605,347.160 217.217,346.662 217.348 C 346.170 217.476,346.170 217.487,346.671 217.520 C 347.520 217.575,347.494 220.006,347.413 147.337 L 347.336 77.869 347.261 147.540 M37.279 82.521 C 37.279 83.098,37.341 83.335,37.416 83.046 C 37.492 82.757,37.492 82.284,37.416 81.995 C 37.341 81.707,37.279 81.943,37.279 82.521 M37.279 97.524 C 37.279 98.102,37.341 98.338,37.416 98.050 C 37.492 97.761,37.492 97.288,37.416 96.999 C 37.341 96.710,37.279 96.947,37.279 97.524 M92.323 107.327 C 92.045 107.605,92.070 182.377,92.348 182.549 C 92.472 182.626,92.573 165.788,92.573 145.133 L 92.573 107.577 112.528 107.577 L 132.483 107.577 132.570 110.031 L 132.657 112.486 131.820 112.626 C 131.003 112.762,131.004 112.764,131.883 112.722 L 132.783 112.678 132.871 110.324 C 132.927 108.847,132.829 107.813,132.610 107.548 C 132.238 107.101,92.766 106.883,92.323 107.327 M142.436 107.327 C 142.326 107.437,142.238 107.673,142.240 107.852 C 142.243 108.036,142.352 108.008,142.491 107.788 C 142.667 107.511,143.415 107.425,145.112 107.488 L 147.487 107.577 147.637 124.977 C 147.768 140.158,147.844 142.382,148.237 142.410 C 148.496 142.429,148.528 142.390,148.312 142.317 C 148.018 142.219,147.937 138.490,147.937 125.019 C 147.937 112.063,147.849 107.759,147.577 107.487 C 147.196 107.106,142.793 106.969,142.436 107.327 M177.404 107.487 C 177.133 107.759,177.044 112.063,177.044 125.019 C 177.044 140.120,176.989 142.209,176.588 142.333 C 176.269 142.432,176.292 142.460,176.663 142.426 C 177.163 142.380,177.203 141.342,177.344 124.977 L 177.494 107.577 180.092 107.577 C 181.521 107.577,182.627 107.476,182.550 107.352 C 182.315 106.973,177.800 107.092,177.404 107.487 M192.408 107.487 C 191.999 107.896,191.865 182.297,192.273 182.549 C 192.397 182.626,192.498 165.788,192.498 145.133 L 192.498 107.577 195.096 107.577 C 196.524 107.577,197.631 107.476,197.554 107.352 C 197.319 106.973,192.803 107.092,192.408 107.487 M207.414 107.485 C 207.003 107.896,206.867 182.296,207.277 182.549 C 207.401 182.626,207.502 165.788,207.502 145.133 L 207.502 107.577 227.457 107.577 L 247.412 107.577 247.412 127.532 L 247.412 147.487 230.008 147.642 L 212.603 147.797 230.158 147.792 L 247.712 147.787 247.712 127.532 L 247.712 107.277 227.744 107.200 C 212.463 107.141,207.691 107.208,207.414 107.485 M257.364 107.327 C 257.086 107.605,257.111 182.746,257.389 182.746 C 257.513 182.746,257.580 165.797,257.537 145.082 L 257.460 107.418 277.538 107.498 C 288.582 107.541,297.555 107.476,297.478 107.352 C 297.306 107.074,257.642 107.049,257.364 107.327 M297.820 145.086 C 297.820 165.551,297.856 173.879,297.899 163.593 C 297.943 153.306,297.943 136.562,297.899 126.383 C 297.856 116.205,297.820 124.621,297.820 145.086 M37.279 112.528 C 37.279 113.106,37.341 113.342,37.416 113.053 C 37.492 112.764,37.492 112.292,37.416 112.003 C 37.341 111.714,37.279 111.950,37.279 112.528 M97.663 112.903 C 97.584 113.110,97.555 127.659,97.598 145.236 L 97.677 177.194 97.751 145.033 C 97.820 114.692,97.854 112.864,98.350 112.735 C 98.842 112.606,98.841 112.596,98.340 112.563 C 98.046 112.544,97.741 112.697,97.663 112.903 M101.805 112.743 C 102.261 112.812,102.936 112.811,103.305 112.739 C 103.674 112.668,103.301 112.612,102.476 112.614 C 101.650 112.616,101.348 112.674,101.805 112.743 M106.752 112.740 C 107.123 112.811,107.731 112.811,108.102 112.740 C 108.473 112.668,108.170 112.610,107.427 112.610 C 106.684 112.610,106.380 112.668,106.752 112.740 M111.853 112.740 C 112.224 112.811,112.832 112.811,113.203 112.740 C 113.575 112.668,113.271 112.610,112.528 112.610 C 111.785 112.610,111.482 112.668,111.853 112.740 M116.808 112.743 C 117.264 112.812,117.940 112.811,118.309 112.739 C 118.678 112.668,118.305 112.612,117.479 112.614 C 116.654 112.616,116.352 112.674,116.808 112.743 M121.755 112.740 C 122.127 112.811,122.734 112.811,123.106 112.740 C 123.477 112.668,123.173 112.610,122.431 112.610 C 121.688 112.610,121.384 112.668,121.755 112.740 M126.857 112.740 C 127.228 112.811,127.836 112.811,128.207 112.740 C 128.578 112.668,128.275 112.610,127.532 112.610 C 126.789 112.610,126.485 112.668,126.857 112.740 M216.879 112.740 C 217.251 112.811,217.858 112.811,218.230 112.740 C 218.601 112.668,218.297 112.610,217.554 112.610 C 216.812 112.610,216.508 112.668,216.879 112.740 M221.835 112.743 C 222.291 112.812,222.966 112.811,223.335 112.739 C 223.704 112.668,223.331 112.612,222.506 112.614 C 221.680 112.616,221.378 112.674,221.835 112.743 M226.782 112.740 C 227.153 112.811,227.761 112.811,228.132 112.740 C 228.503 112.668,228.200 112.610,227.457 112.610 C 226.714 112.610,226.410 112.668,226.782 112.740 M231.883 112.740 C 232.254 112.811,232.862 112.811,233.233 112.740 C 233.605 112.668,233.301 112.610,232.558 112.610 C 231.815 112.610,231.512 112.668,231.883 112.740 M236.838 112.743 C 237.294 112.812,237.970 112.811,238.339 112.739 C 238.708 112.668,238.335 112.612,237.509 112.614 C 236.684 112.616,236.382 112.674,236.838 112.743 M241.635 112.717 C 242.388 112.939,242.456 142.100,241.705 142.333 C 241.386 142.432,241.408 142.460,241.780 142.426 C 242.664 142.345,242.596 112.716,241.710 112.624 C 241.244 112.576,241.227 112.597,241.635 112.717 M262.703 112.903 C 262.215 114.177,262.734 142.379,263.247 142.426 C 263.618 142.460,263.641 142.432,263.322 142.333 C 262.570 142.100,262.638 112.932,263.391 112.735 C 263.883 112.606,263.882 112.596,263.381 112.563 C 263.087 112.544,262.782 112.697,262.703 112.903 M266.846 112.743 C 267.302 112.812,267.977 112.811,268.346 112.739 C 268.715 112.668,268.342 112.612,267.517 112.614 C 266.692 112.616,266.390 112.674,266.846 112.743 M271.793 112.740 C 272.164 112.811,272.772 112.811,273.143 112.740 C 273.515 112.668,273.211 112.610,272.468 112.610 C 271.725 112.610,271.422 112.668,271.793 112.740 M276.894 112.740 C 277.266 112.811,277.873 112.811,278.245 112.740 C 278.616 112.668,278.312 112.610,277.569 112.610 C 276.827 112.610,276.523 112.668,276.894 112.740 M281.850 112.743 C 282.306 112.812,282.981 112.811,283.350 112.739 C 283.719 112.668,283.346 112.612,282.521 112.614 C 281.695 112.616,281.393 112.674,281.850 112.743 M286.797 112.740 C 287.168 112.811,287.776 112.811,288.147 112.740 C 288.518 112.668,288.215 112.610,287.472 112.610 C 286.729 112.610,286.425 112.668,286.797 112.740 M37.279 127.532 C 37.279 128.110,37.341 128.346,37.416 128.057 C 37.492 127.768,37.492 127.296,37.416 127.007 C 37.341 126.718,37.279 126.954,37.279 127.532 M37.279 142.536 C 37.279 143.113,37.341 143.350,37.416 143.061 C 37.492 142.772,37.492 142.299,37.416 142.011 C 37.341 141.722,37.279 141.958,37.279 142.536 M151.763 142.447 C 152.134 142.519,152.742 142.519,153.113 142.447 C 153.485 142.376,153.181 142.317,152.438 142.317 C 151.695 142.317,151.392 142.376,151.763 142.447 M156.864 142.447 C 157.236 142.519,157.843 142.519,158.215 142.447 C 158.586 142.376,158.282 142.317,157.539 142.317 C 156.797 142.317,156.493 142.376,156.864 142.447 M161.820 142.451 C 162.276 142.520,162.951 142.518,163.320 142.447 C 163.689 142.376,163.316 142.319,162.491 142.321 C 161.665 142.324,161.363 142.382,161.820 142.451 M166.767 142.447 C 167.138 142.519,167.746 142.519,168.117 142.447 C 168.488 142.376,168.185 142.317,167.442 142.317 C 166.699 142.317,166.395 142.376,166.767 142.447 M171.868 142.447 C 172.239 142.519,172.847 142.519,173.218 142.447 C 173.590 142.376,173.286 142.317,172.543 142.317 C 171.800 142.317,171.497 142.376,171.868 142.447 M216.879 142.447 C 217.251 142.519,217.858 142.519,218.230 142.447 C 218.601 142.376,218.297 142.317,217.554 142.317 C 216.812 142.317,216.508 142.376,216.879 142.447 M221.835 142.451 C 222.291 142.520,222.966 142.518,223.335 142.447 C 223.704 142.376,223.331 142.319,222.506 142.321 C 221.680 142.324,221.378 142.382,221.835 142.451 M226.782 142.447 C 227.153 142.519,227.761 142.519,228.132 142.447 C 228.503 142.376,228.200 142.317,227.457 142.317 C 226.714 142.317,226.410 142.376,226.782 142.447 M231.883 142.447 C 232.254 142.519,232.862 142.519,233.233 142.447 C 233.605 142.376,233.301 142.317,232.558 142.317 C 231.815 142.317,231.512 142.376,231.883 142.447 M236.838 142.451 C 237.294 142.520,237.970 142.518,238.339 142.447 C 238.708 142.376,238.335 142.319,237.509 142.321 C 236.684 142.324,236.382 142.382,236.838 142.451 M266.846 142.451 C 267.302 142.520,267.977 142.518,268.346 142.447 C 268.715 142.376,268.342 142.319,267.517 142.321 C 266.692 142.324,266.390 142.382,266.846 142.451 M271.793 142.447 C 272.164 142.519,272.772 142.519,273.143 142.447 C 273.515 142.376,273.211 142.317,272.468 142.317 C 271.725 142.317,271.422 142.376,271.793 142.447 M276.894 142.447 C 277.266 142.519,277.873 142.519,278.245 142.447 C 278.616 142.376,278.312 142.317,277.569 142.317 C 276.827 142.317,276.523 142.376,276.894 142.447 M281.850 142.451 C 282.306 142.520,282.981 142.518,283.350 142.447 C 283.719 142.376,283.346 142.319,282.521 142.321 C 281.695 142.324,281.393 142.382,281.850 142.451 M286.797 142.447 C 287.168 142.519,287.776 142.519,288.147 142.447 C 288.518 142.376,288.215 142.317,287.472 142.317 C 286.729 142.317,286.425 142.376,286.797 142.447 M147.567 165.163 C 147.523 174.802,147.588 182.626,147.712 182.549 C 147.836 182.473,147.937 174.654,147.937 165.174 L 147.937 147.937 162.488 147.937 L 177.039 147.937 177.119 165.116 L 177.199 182.296 177.272 164.966 L 177.344 147.637 162.495 147.637 L 147.646 147.637 147.567 165.163 M262.703 148.012 C 262.624 148.218,262.596 154.936,262.641 162.941 L 262.722 177.494 262.794 162.719 L 262.866 147.943 277.644 147.862 L 292.423 147.781 277.635 147.709 C 266.028 147.652,262.816 147.718,262.703 148.012 M37.279 157.539 C 37.279 158.117,37.341 158.353,37.416 158.065 C 37.492 157.776,37.492 157.303,37.416 157.014 C 37.341 156.725,37.279 156.962,37.279 157.539 M37.279 172.543 C 37.279 173.121,37.341 173.357,37.416 173.068 C 37.492 172.779,37.492 172.307,37.416 172.018 C 37.341 171.729,37.279 171.965,37.279 172.543 M132.483 180.045 C 132.483 181.499,132.584 182.626,132.708 182.549 C 132.832 182.473,132.933 181.346,132.933 180.045 C 132.933 178.744,132.832 177.617,132.708 177.541 C 132.584 177.464,132.483 178.591,132.483 180.045 M37.279 187.547 C 37.279 188.125,37.341 188.361,37.416 188.072 C 37.492 187.783,37.492 187.311,37.416 187.022 C 37.341 186.733,37.279 186.969,37.279 187.547 M37.279 202.551 C 37.279 203.128,37.341 203.365,37.416 203.076 C 37.492 202.787,37.492 202.314,37.416 202.026 C 37.341 201.737,37.279 201.973,37.279 202.551 M37.279 217.554 C 37.279 218.132,37.341 218.368,37.416 218.080 C 37.492 217.791,37.492 217.318,37.416 217.029 C 37.341 216.740,37.279 216.977,37.279 217.554 M51.838 217.466 C 52.209 217.538,52.817 217.538,53.188 217.466 C 53.560 217.395,53.256 217.336,52.513 217.336 C 51.770 217.336,51.467 217.395,51.838 217.466 M56.793 217.470 C 57.249 217.539,57.925 217.537,58.294 217.466 C 58.663 217.394,58.290 217.338,57.464 217.340 C 56.639 217.342,56.337 217.401,56.793 217.470 M61.740 217.466 C 62.112 217.538,62.719 217.538,63.091 217.466 C 63.462 217.395,63.158 217.336,62.416 217.336 C 61.673 217.336,61.369 217.395,61.740 217.466 M66.842 217.466 C 67.213 217.538,67.821 217.538,68.192 217.466 C 68.563 217.395,68.260 217.336,67.517 217.336 C 66.774 217.336,66.470 217.395,66.842 217.466 M71.797 217.470 C 72.253 217.539,72.928 217.537,73.297 217.466 C 73.667 217.394,73.293 217.338,72.468 217.340 C 71.643 217.342,71.341 217.401,71.797 217.470 M76.744 217.466 C 77.116 217.538,77.723 217.538,78.095 217.466 C 78.466 217.395,78.162 217.336,77.419 217.336 C 76.677 217.336,76.373 217.395,76.744 217.466 M81.845 217.466 C 82.217 217.538,82.824 217.538,83.196 217.466 C 83.567 217.395,83.263 217.336,82.521 217.336 C 81.778 217.336,81.474 217.395,81.845 217.466 M86.801 217.470 C 87.257 217.539,87.932 217.537,88.301 217.466 C 88.670 217.394,88.297 217.338,87.472 217.340 C 86.647 217.342,86.345 217.401,86.801 217.470 M91.748 217.466 C 92.119 217.538,92.727 217.538,93.098 217.466 C 93.470 217.395,93.166 217.336,92.423 217.336 C 91.680 217.336,91.377 217.395,91.748 217.466 M96.849 217.466 C 97.221 217.538,97.828 217.538,98.200 217.466 C 98.571 217.395,98.267 217.336,97.524 217.336 C 96.782 217.336,96.478 217.395,96.849 217.466 M101.805 217.470 C 102.261 217.539,102.936 217.537,103.305 217.466 C 103.674 217.394,103.301 217.338,102.476 217.340 C 101.650 217.342,101.348 217.401,101.805 217.470 M106.752 217.466 C 107.123 217.538,107.731 217.538,108.102 217.466 C 108.473 217.395,108.170 217.336,107.427 217.336 C 106.684 217.336,106.380 217.395,106.752 217.466 M111.853 217.466 C 112.224 217.538,112.832 217.538,113.203 217.466 C 113.575 217.395,113.271 217.336,112.528 217.336 C 111.785 217.336,111.482 217.395,111.853 217.466 M116.808 217.470 C 117.264 217.539,117.940 217.537,118.309 217.466 C 118.678 217.394,118.305 217.338,117.479 217.340 C 116.654 217.342,116.352 217.401,116.808 217.470 M121.755 217.466 C 122.127 217.538,122.734 217.538,123.106 217.466 C 123.477 217.395,123.173 217.336,122.431 217.336 C 121.688 217.336,121.384 217.395,121.755 217.466 M126.857 217.466 C 127.228 217.538,127.836 217.538,128.207 217.466 C 128.578 217.395,128.275 217.336,127.532 217.336 C 126.789 217.336,126.485 217.395,126.857 217.466 M131.812 217.470 C 132.268 217.539,132.943 217.537,133.312 217.466 C 133.682 217.394,133.308 217.338,132.483 217.340 C 131.658 217.342,131.356 217.401,131.812 217.470 M136.759 217.466 C 137.131 217.538,137.738 217.538,138.110 217.466 C 138.481 217.395,138.177 217.336,137.434 217.336 C 136.692 217.336,136.388 217.395,136.759 217.466 M141.860 217.466 C 142.232 217.538,142.839 217.538,143.211 217.466 C 143.582 217.395,143.278 217.336,142.536 217.336 C 141.793 217.336,141.489 217.395,141.860 217.466 M146.816 217.470 C 147.272 217.539,147.947 217.537,148.316 217.466 C 148.685 217.394,148.312 217.338,147.487 217.340 C 146.662 217.342,146.360 217.401,146.816 217.470 M151.763 217.466 C 152.134 217.538,152.742 217.538,153.113 217.466 C 153.485 217.395,153.181 217.336,152.438 217.336 C 151.695 217.336,151.392 217.395,151.763 217.466 M156.864 217.466 C 157.236 217.538,157.843 217.538,158.215 217.466 C 158.586 217.395,158.282 217.336,157.539 217.336 C 156.797 217.336,156.493 217.395,156.864 217.466 M161.820 217.470 C 162.276 217.539,162.951 217.537,163.320 217.466 C 163.689 217.394,163.316 217.338,162.491 217.340 C 161.665 217.342,161.363 217.401,161.820 217.470 M166.767 217.466 C 167.138 217.538,167.746 217.538,168.117 217.466 C 168.488 217.395,168.185 217.336,167.442 217.336 C 166.699 217.336,166.395 217.395,166.767 217.466 M171.868 217.466 C 172.239 217.538,172.847 217.538,173.218 217.466 C 173.590 217.395,173.286 217.336,172.543 217.336 C 171.800 217.336,171.497 217.395,171.868 217.466 M176.823 217.470 C 177.279 217.539,177.955 217.537,178.324 217.466 C 178.693 217.394,178.320 217.338,177.494 217.340 C 176.669 217.342,176.367 217.401,176.823 217.470 M181.770 217.466 C 182.142 217.538,182.749 217.538,183.121 217.466 C 183.492 217.395,183.188 217.336,182.446 217.336 C 181.703 217.336,181.399 217.395,181.770 217.466 M186.872 217.466 C 187.243 217.538,187.851 217.538,188.222 217.466 C 188.593 217.395,188.290 217.336,187.547 217.336 C 186.804 217.336,186.500 217.395,186.872 217.466 M191.827 217.470 C 192.283 217.539,192.958 217.537,193.327 217.466 C 193.697 217.394,193.323 217.338,192.498 217.340 C 191.673 217.342,191.371 217.401,191.827 217.470 M196.774 217.466 C 197.146 217.538,197.753 217.538,198.125 217.466 C 198.496 217.395,198.192 217.336,197.449 217.336 C 196.707 217.336,196.403 217.395,196.774 217.466 M201.875 217.466 C 202.247 217.538,202.854 217.538,203.226 217.466 C 203.597 217.395,203.293 217.336,202.551 217.336 C 201.808 217.336,201.504 217.395,201.875 217.466 M206.831 217.470 C 207.287 217.539,207.962 217.537,208.331 217.466 C 208.700 217.394,208.327 217.338,207.502 217.340 C 206.677 217.342,206.375 217.401,206.831 217.470 M211.778 217.466 C 212.149 217.538,212.757 217.538,213.128 217.466 C 213.500 217.395,213.196 217.336,212.453 217.336 C 211.710 217.336,211.407 217.395,211.778 217.466 M216.879 217.466 C 217.251 217.538,217.858 217.538,218.230 217.466 C 218.601 217.395,218.297 217.336,217.554 217.336 C 216.812 217.336,216.508 217.395,216.879 217.466 M221.835 217.470 C 222.291 217.539,222.966 217.537,223.335 217.466 C 223.704 217.394,223.331 217.338,222.506 217.340 C 221.680 217.342,221.378 217.401,221.835 217.470 M226.782 217.466 C 227.153 217.538,227.761 217.538,228.132 217.466 C 228.503 217.395,228.200 217.336,227.457 217.336 C 226.714 217.336,226.410 217.395,226.782 217.466 M231.883 217.466 C 232.254 217.538,232.862 217.538,233.233 217.466 C 233.605 217.395,233.301 217.336,232.558 217.336 C 231.815 217.336,231.512 217.395,231.883 217.466 M236.838 217.470 C 237.294 217.539,237.970 217.537,238.339 217.466 C 238.708 217.394,238.335 217.338,237.509 217.340 C 236.684 217.342,236.382 217.401,236.838 217.470 M241.785 217.466 C 242.157 217.538,242.764 217.538,243.136 217.466 C 243.507 217.395,243.203 217.336,242.461 217.336 C 241.718 217.336,241.414 217.395,241.785 217.466 M246.887 217.466 C 247.258 217.538,247.866 217.538,248.237 217.466 C 248.608 217.395,248.305 217.336,247.562 217.336 C 246.819 217.336,246.515 217.395,246.887 217.466 M251.842 217.470 C 252.298 217.539,252.973 217.537,253.342 217.466 C 253.712 217.394,253.338 217.338,252.513 217.340 C 251.688 217.342,251.386 217.401,251.842 217.470 M256.789 217.466 C 257.161 217.538,257.768 217.538,258.140 217.466 C 258.511 217.395,258.207 217.336,257.464 217.336 C 256.722 217.336,256.418 217.395,256.789 217.466 M261.890 217.466 C 262.262 217.538,262.869 217.538,263.241 217.466 C 263.612 217.395,263.308 217.336,262.566 217.336 C 261.823 217.336,261.519 217.395,261.890 217.466 M266.846 217.470 C 267.302 217.539,267.977 217.537,268.346 217.466 C 268.715 217.394,268.342 217.338,267.517 217.340 C 266.692 217.342,266.390 217.401,266.846 217.470 M271.793 217.466 C 272.164 217.538,272.772 217.538,273.143 217.466 C 273.515 217.395,273.211 217.336,272.468 217.336 C 271.725 217.336,271.422 217.395,271.793 217.466 M276.894 217.466 C 277.266 217.538,277.873 217.538,278.245 217.466 C 278.616 217.395,278.312 217.336,277.569 217.336 C 276.827 217.336,276.523 217.395,276.894 217.466 M281.850 217.470 C 282.306 217.539,282.981 217.537,283.350 217.466 C 283.719 217.394,283.346 217.338,282.521 217.340 C 281.695 217.342,281.393 217.401,281.850 217.470 M286.797 217.466 C 287.168 217.538,287.776 217.538,288.147 217.466 C 288.518 217.395,288.215 217.336,287.472 217.336 C 286.729 217.336,286.425 217.395,286.797 217.466 M291.898 217.466 C 292.269 217.538,292.877 217.538,293.248 217.466 C 293.620 217.395,293.316 217.336,292.573 217.336 C 291.830 217.336,291.527 217.395,291.898 217.466 M296.853 217.470 C 297.309 217.539,297.985 217.537,298.354 217.466 C 298.723 217.394,298.350 217.338,297.524 217.340 C 296.699 217.342,296.397 217.401,296.853 217.470 M301.800 217.466 C 302.172 217.538,302.779 217.538,303.151 217.466 C 303.522 217.395,303.218 217.336,302.476 217.336 C 301.733 217.336,301.429 217.395,301.800 217.466 M306.902 217.466 C 307.273 217.538,307.881 217.538,308.252 217.466 C 308.623 217.395,308.320 217.336,307.577 217.336 C 306.834 217.336,306.530 217.395,306.902 217.466 M311.857 217.470 C 312.313 217.539,312.988 217.537,313.357 217.466 C 313.727 217.394,313.353 217.338,312.528 217.340 C 311.703 217.342,311.401 217.401,311.857 217.470 M316.804 217.466 C 317.176 217.538,317.783 217.538,318.155 217.466 C 318.526 217.395,318.222 217.336,317.479 217.336 C 316.737 217.336,316.433 217.395,316.804 217.466 M321.905 217.466 C 322.277 217.538,322.884 217.538,323.256 217.466 C 323.627 217.395,323.323 217.336,322.581 217.336 C 321.838 217.336,321.534 217.395,321.905 217.466 M326.861 217.470 C 327.317 217.539,327.992 217.537,328.361 217.466 C 328.730 217.394,328.357 217.338,327.532 217.340 C 326.707 217.342,326.405 217.401,326.861 217.470 M331.808 217.466 C 332.179 217.538,332.787 217.538,333.158 217.466 C 333.530 217.395,333.226 217.336,332.483 217.336 C 331.740 217.336,331.437 217.395,331.808 217.466 M336.909 217.466 C 337.281 217.538,337.888 217.538,338.260 217.466 C 338.631 217.395,338.327 217.336,337.584 217.336 C 336.842 217.336,336.538 217.395,336.909 217.466 M341.865 217.470 C 342.321 217.539,342.996 217.537,343.365 217.466 C 343.734 217.394,343.361 217.338,342.536 217.340 C 341.710 217.342,341.408 217.401,341.865 217.470 " stroke="none" fill="#d8d9d9" fill-rule="evenodd"></path></g></svg>