<svg id="svg" version="1.1" width="400" height="198.99497487437188" xmlns="http://www.w3.org/2000/svg" xmlns:xlink="http://www.w3.org/1999/xlink" style="display: block;"><g id="svgg"><path id="path0" d="M105.871 49.254 L 105.871 93.134 115.323 93.134 L 124.776 93.134 124.776 58.706 L 124.776 24.279 146.667 24.279 L 168.557 24.279 168.557 49.254 L 168.557 74.229 165.572 74.229 L 162.587 74.229 162.587 52.338 L 162.587 30.448 146.766 30.448 L 130.945 30.448 130.945 61.791 L 130.945 93.134 134.229 93.134 L 137.512 93.134 137.512 65.075 L 137.512 37.015 146.766 37.015 L 156.020 37.015 156.020 58.806 L 156.020 80.597 159.104 80.597 C 161.714 80.597,162.189 80.643,162.189 80.896 C 162.189 81.155,163.040 81.194,168.657 81.194 L 175.124 81.194 175.124 49.552 L 175.124 17.910 146.766 17.910 L 118.408 17.910 118.408 52.338 L 118.408 86.766 115.323 86.766 L 112.239 86.766 112.239 49.254 L 112.239 11.741 146.667 11.741 L 181.095 11.741 181.095 46.468 L 181.095 81.194 184.378 81.194 L 187.662 81.194 187.662 43.284 L 187.662 5.373 146.766 5.373 L 105.871 5.373 105.871 49.254 M212.338 49.552 L 212.338 93.731 222.090 93.731 L 231.841 93.731 231.841 59.005 L 231.841 24.279 253.532 24.279 L 275.224 24.279 275.224 59.005 L 275.224 93.731 284.975 93.731 L 294.726 93.731 294.726 49.552 L 294.726 5.373 253.532 5.373 L 212.338 5.373 212.338 49.552 M287.761 49.254 L 287.761 86.766 284.975 86.766 L 282.189 86.766 282.189 52.338 L 282.189 17.910 253.532 17.910 L 224.876 17.910 224.876 52.338 L 224.876 86.766 222.090 86.766 L 219.303 86.766 219.303 49.254 L 219.303 11.741 253.532 11.741 L 287.761 11.741 287.761 49.254 M237.413 62.090 L 237.413 93.731 253.532 93.731 L 269.652 93.731 269.652 62.090 L 269.652 30.448 253.532 30.448 L 237.413 30.448 237.413 62.090 M262.687 61.891 L 262.687 86.766 253.532 86.766 L 244.378 86.766 244.378 61.891 L 244.378 37.015 253.532 37.015 L 262.687 37.015 262.687 61.891 M105.871 146.468 L 105.871 193.632 146.766 193.632 L 187.662 193.632 187.662 152.736 L 187.662 111.841 184.378 111.841 L 181.095 111.841 181.095 149.552 L 181.095 187.264 146.667 187.264 L 112.239 187.264 112.239 146.567 L 112.239 105.871 115.323 105.871 L 118.408 105.871 118.408 143.483 L 118.408 181.095 146.766 181.095 L 175.124 181.095 175.124 146.468 L 175.124 111.841 165.572 111.841 L 156.020 111.841 156.020 137.015 L 156.020 162.189 146.766 162.189 L 137.512 162.189 137.512 130.746 L 137.512 99.303 134.229 99.303 L 130.945 99.303 130.945 133.930 L 130.945 168.557 146.766 168.557 L 162.587 168.557 162.587 143.483 L 162.587 118.408 165.572 118.408 L 168.557 118.408 168.557 146.567 L 168.557 174.726 146.667 174.726 L 124.776 174.726 124.776 137.015 L 124.776 99.303 115.323 99.303 L 105.871 99.303 105.871 146.468 M212.338 146.468 L 212.338 193.632 253.532 193.632 L 294.726 193.632 294.726 146.468 L 294.726 99.303 284.975 99.303 L 275.224 99.303 275.224 137.015 L 275.224 174.726 253.532 174.726 L 231.841 174.726 231.841 137.015 L 231.841 99.303 222.090 99.303 L 212.338 99.303 212.338 146.468 M237.413 133.930 L 237.413 168.557 253.532 168.557 L 269.652 168.557 269.652 133.930 L 269.652 99.303 253.532 99.303 L 237.413 99.303 237.413 133.930 M224.876 143.682 L 224.876 181.095 253.532 181.095 L 282.189 181.095 282.189 143.682 L 282.189 106.269 284.975 106.269 L 287.761 106.269 287.761 146.766 L 287.761 187.264 253.532 187.264 L 219.303 187.264 219.303 146.766 L 219.303 106.269 222.090 106.269 L 224.876 106.269 224.876 143.682 M262.687 134.229 L 262.687 162.189 253.532 162.189 L 244.378 162.189 244.378 134.229 L 244.378 106.269 253.532 106.269 L 262.687 106.269 262.687 134.229 " stroke="none" fill="#000000" fill-rule="evenodd"></path><path id="path1" d="M105.871 49.254 L 105.871 93.134 115.323 93.134 L 124.776 93.134 124.776 58.706 L 124.776 24.279 146.667 24.279 L 168.557 24.279 168.557 49.254 L 168.557 74.229 165.572 74.229 L 162.587 74.229 162.587 52.338 L 162.587 30.448 146.766 30.448 L 130.945 30.448 130.945 61.791 L 130.945 93.134 134.229 93.134 L 137.512 93.134 137.512 65.075 L 137.512 37.015 146.766 37.015 L 156.020 37.015 156.020 58.806 L 156.020 80.597 159.104 80.597 C 161.714 80.597,162.189 80.643,162.189 80.896 C 162.189 81.155,163.040 81.194,168.657 81.194 L 175.124 81.194 175.124 49.552 L 175.124 17.910 146.766 17.910 L 118.408 17.910 118.408 52.338 L 118.408 86.766 115.323 86.766 L 112.239 86.766 112.239 49.254 L 112.239 11.741 146.667 11.741 L 181.095 11.741 181.095 46.468 L 181.095 81.194 184.378 81.194 L 187.662 81.194 187.662 43.284 L 187.662 5.373 146.766 5.373 L 105.871 5.373 105.871 49.254 M212.338 49.552 L 212.338 93.731 222.090 93.731 L 231.841 93.731 231.841 59.005 L 231.841 24.279 253.532 24.279 L 275.224 24.279 275.224 59.005 L 275.224 93.731 284.975 93.731 L 294.726 93.731 294.726 49.552 L 294.726 5.373 253.532 5.373 L 212.338 5.373 212.338 49.552 M287.761 49.254 L 287.761 86.766 284.975 86.766 L 282.189 86.766 282.189 52.338 L 282.189 17.910 253.532 17.910 L 224.876 17.910 224.876 52.338 L 224.876 86.766 222.090 86.766 L 219.303 86.766 219.303 49.254 L 219.303 11.741 253.532 11.741 L 287.761 11.741 287.761 49.254 M237.413 62.090 L 237.413 93.731 253.532 93.731 L 269.652 93.731 269.652 62.090 L 269.652 30.448 253.532 30.448 L 237.413 30.448 237.413 62.090 M262.687 61.891 L 262.687 86.766 253.532 86.766 L 244.378 86.766 244.378 61.891 L 244.378 37.015 253.532 37.015 L 262.687 37.015 262.687 61.891 M105.871 146.468 L 105.871 193.632 146.766 193.632 L 187.662 193.632 187.662 152.736 L 187.662 111.841 184.378 111.841 L 181.095 111.841 181.095 149.552 L 181.095 187.264 146.667 187.264 L 112.239 187.264 112.239 146.567 L 112.239 105.871 115.323 105.871 L 118.408 105.871 118.408 143.483 L 118.408 181.095 146.766 181.095 L 175.124 181.095 175.124 146.468 L 175.124 111.841 165.572 111.841 L 156.020 111.841 156.020 137.015 L 156.020 162.189 146.766 162.189 L 137.512 162.189 137.512 130.746 L 137.512 99.303 134.229 99.303 L 130.945 99.303 130.945 133.930 L 130.945 168.557 146.766 168.557 L 162.587 168.557 162.587 143.483 L 162.587 118.408 165.572 118.408 L 168.557 118.408 168.557 146.567 L 168.557 174.726 146.667 174.726 L 124.776 174.726 124.776 137.015 L 124.776 99.303 115.323 99.303 L 105.871 99.303 105.871 146.468 M212.338 146.468 L 212.338 193.632 253.532 193.632 L 294.726 193.632 294.726 146.468 L 294.726 99.303 284.975 99.303 L 275.224 99.303 275.224 137.015 L 275.224 174.726 253.532 174.726 L 231.841 174.726 231.841 137.015 L 231.841 99.303 222.090 99.303 L 212.338 99.303 212.338 146.468 M237.413 133.930 L 237.413 168.557 253.532 168.557 L 269.652 168.557 269.652 133.930 L 269.652 99.303 253.532 99.303 L 237.413 99.303 237.413 133.930 M224.876 143.682 L 224.876 181.095 253.532 181.095 L 282.189 181.095 282.189 143.682 L 282.189 106.269 284.975 106.269 L 287.761 106.269 287.761 146.766 L 287.761 187.264 253.532 187.264 L 219.303 187.264 219.303 146.766 L 219.303 106.269 222.090 106.269 L 224.876 106.269 224.876 143.682 M262.687 134.229 L 262.687 162.189 253.532 162.189 L 244.378 162.189 244.378 134.229 L 244.378 106.269 253.532 106.269 L 262.687 106.269 262.687 134.229 " stroke="none" fill="#000000" fill-rule="evenodd"></path><path id="path2" d="M105.871 49.254 L 105.871 93.134 115.323 93.134 L 124.776 93.134 124.776 58.706 L 124.776 24.279 146.667 24.279 L 168.557 24.279 168.557 49.254 L 168.557 74.229 165.572 74.229 L 162.587 74.229 162.587 52.338 L 162.587 30.448 146.766 30.448 L 130.945 30.448 130.945 61.791 L 130.945 93.134 134.229 93.134 L 137.512 93.134 137.512 65.075 L 137.512 37.015 146.766 37.015 L 156.020 37.015 156.020 58.806 L 156.020 80.597 159.104 80.597 C 161.714 80.597,162.189 80.643,162.189 80.896 C 162.189 81.155,163.040 81.194,168.657 81.194 L 175.124 81.194 175.124 49.552 L 175.124 17.910 146.766 17.910 L 118.408 17.910 118.408 52.338 L 118.408 86.766 115.323 86.766 L 112.239 86.766 112.239 49.254 L 112.239 11.741 146.667 11.741 L 181.095 11.741 181.095 46.468 L 181.095 81.194 184.378 81.194 L 187.662 81.194 187.662 43.284 L 187.662 5.373 146.766 5.373 L 105.871 5.373 105.871 49.254 M212.338 49.552 L 212.338 93.731 222.090 93.731 L 231.841 93.731 231.841 59.005 L 231.841 24.279 253.532 24.279 L 275.224 24.279 275.224 59.005 L 275.224 93.731 284.975 93.731 L 294.726 93.731 294.726 49.552 L 294.726 5.373 253.532 5.373 L 212.338 5.373 212.338 49.552 M287.761 49.254 L 287.761 86.766 284.975 86.766 L 282.189 86.766 282.189 52.338 L 282.189 17.910 253.532 17.910 L 224.876 17.910 224.876 52.338 L 224.876 86.766 222.090 86.766 L 219.303 86.766 219.303 49.254 L 219.303 11.741 253.532 11.741 L 287.761 11.741 287.761 49.254 M237.413 62.090 L 237.413 93.731 253.532 93.731 L 269.652 93.731 269.652 62.090 L 269.652 30.448 253.532 30.448 L 237.413 30.448 237.413 62.090 M262.687 61.891 L 262.687 86.766 253.532 86.766 L 244.378 86.766 244.378 61.891 L 244.378 37.015 253.532 37.015 L 262.687 37.015 262.687 61.891 M105.871 146.468 L 105.871 193.632 146.766 193.632 L 187.662 193.632 187.662 152.736 L 187.662 111.841 184.378 111.841 L 181.095 111.841 181.095 149.552 L 181.095 187.264 146.667 187.264 L 112.239 187.264 112.239 146.567 L 112.239 105.871 115.323 105.871 L 118.408 105.871 118.408 143.483 L 118.408 181.095 146.766 181.095 L 175.124 181.095 175.124 146.468 L 175.124 111.841 165.572 111.841 L 156.020 111.841 156.020 137.015 L 156.020 162.189 146.766 162.189 L 137.512 162.189 137.512 130.746 L 137.512 99.303 134.229 99.303 L 130.945 99.303 130.945 133.930 L 130.945 168.557 146.766 168.557 L 162.587 168.557 162.587 143.483 L 162.587 118.408 165.572 118.408 L 168.557 118.408 168.557 146.567 L 168.557 174.726 146.667 174.726 L 124.776 174.726 124.776 137.015 L 124.776 99.303 115.323 99.303 L 105.871 99.303 105.871 146.468 M212.338 146.468 L 212.338 193.632 253.532 193.632 L 294.726 193.632 294.726 146.468 L 294.726 99.303 284.975 99.303 L 275.224 99.303 275.224 137.015 L 275.224 174.726 253.532 174.726 L 231.841 174.726 231.841 137.015 L 231.841 99.303 222.090 99.303 L 212.338 99.303 212.338 146.468 M237.413 133.930 L 237.413 168.557 253.532 168.557 L 269.652 168.557 269.652 133.930 L 269.652 99.303 253.532 99.303 L 237.413 99.303 237.413 133.930 M224.876 143.682 L 224.876 181.095 253.532 181.095 L 282.189 181.095 282.189 143.682 L 282.189 106.269 284.975 106.269 L 287.761 106.269 287.761 146.766 L 287.761 187.264 253.532 187.264 L 219.303 187.264 219.303 146.766 L 219.303 106.269 222.090 106.269 L 224.876 106.269 224.876 143.682 M262.687 134.229 L 262.687 162.189 253.532 162.189 L 244.378 162.189 244.378 134.229 L 244.378 106.269 253.532 106.269 L 262.687 106.269 262.687 134.229 " stroke="none" fill="#000000" fill-rule="evenodd"></path><path id="path3" d="M105.871 49.254 L 105.871 93.134 115.323 93.134 L 124.776 93.134 124.776 58.706 L 124.776 24.279 146.667 24.279 L 168.557 24.279 168.557 49.254 L 168.557 74.229 165.572 74.229 L 162.587 74.229 162.587 52.338 L 162.587 30.448 146.766 30.448 L 130.945 30.448 130.945 61.791 L 130.945 93.134 134.229 93.134 L 137.512 93.134 137.512 65.075 L 137.512 37.015 146.766 37.015 L 156.020 37.015 156.020 58.806 L 156.020 80.597 159.104 80.597 C 161.714 80.597,162.189 80.643,162.189 80.896 C 162.189 81.155,163.040 81.194,168.657 81.194 L 175.124 81.194 175.124 49.552 L 175.124 17.910 146.766 17.910 L 118.408 17.910 118.408 52.338 L 118.408 86.766 115.323 86.766 L 112.239 86.766 112.239 49.254 L 112.239 11.741 146.667 11.741 L 181.095 11.741 181.095 46.468 L 181.095 81.194 184.378 81.194 L 187.662 81.194 187.662 43.284 L 187.662 5.373 146.766 5.373 L 105.871 5.373 105.871 49.254 M212.338 49.552 L 212.338 93.731 222.090 93.731 L 231.841 93.731 231.841 59.005 L 231.841 24.279 253.532 24.279 L 275.224 24.279 275.224 59.005 L 275.224 93.731 284.975 93.731 L 294.726 93.731 294.726 49.552 L 294.726 5.373 253.532 5.373 L 212.338 5.373 212.338 49.552 M287.761 49.254 L 287.761 86.766 284.975 86.766 L 282.189 86.766 282.189 52.338 L 282.189 17.910 253.532 17.910 L 224.876 17.910 224.876 52.338 L 224.876 86.766 222.090 86.766 L 219.303 86.766 219.303 49.254 L 219.303 11.741 253.532 11.741 L 287.761 11.741 287.761 49.254 M237.413 62.090 L 237.413 93.731 253.532 93.731 L 269.652 93.731 269.652 62.090 L 269.652 30.448 253.532 30.448 L 237.413 30.448 237.413 62.090 M262.687 61.891 L 262.687 86.766 253.532 86.766 L 244.378 86.766 244.378 61.891 L 244.378 37.015 253.532 37.015 L 262.687 37.015 262.687 61.891 M105.871 146.468 L 105.871 193.632 146.766 193.632 L 187.662 193.632 187.662 152.736 L 187.662 111.841 184.378 111.841 L 181.095 111.841 181.095 149.552 L 181.095 187.264 146.667 187.264 L 112.239 187.264 112.239 146.567 L 112.239 105.871 115.323 105.871 L 118.408 105.871 118.408 143.483 L 118.408 181.095 146.766 181.095 L 175.124 181.095 175.124 146.468 L 175.124 111.841 165.572 111.841 L 156.020 111.841 156.020 137.015 L 156.020 162.189 146.766 162.189 L 137.512 162.189 137.512 130.746 L 137.512 99.303 134.229 99.303 L 130.945 99.303 130.945 133.930 L 130.945 168.557 146.766 168.557 L 162.587 168.557 162.587 143.483 L 162.587 118.408 165.572 118.408 L 168.557 118.408 168.557 146.567 L 168.557 174.726 146.667 174.726 L 124.776 174.726 124.776 137.015 L 124.776 99.303 115.323 99.303 L 105.871 99.303 105.871 146.468 M212.338 146.468 L 212.338 193.632 253.532 193.632 L 294.726 193.632 294.726 146.468 L 294.726 99.303 284.975 99.303 L 275.224 99.303 275.224 137.015 L 275.224 174.726 253.532 174.726 L 231.841 174.726 231.841 137.015 L 231.841 99.303 222.090 99.303 L 212.338 99.303 212.338 146.468 M237.413 133.930 L 237.413 168.557 253.532 168.557 L 269.652 168.557 269.652 133.930 L 269.652 99.303 253.532 99.303 L 237.413 99.303 237.413 133.930 M224.876 143.682 L 224.876 181.095 253.532 181.095 L 282.189 181.095 282.189 143.682 L 282.189 106.269 284.975 106.269 L 287.761 106.269 287.761 146.766 L 287.761 187.264 253.532 187.264 L 219.303 187.264 219.303 146.766 L 219.303 106.269 222.090 106.269 L 224.876 106.269 224.876 143.682 M262.687 134.229 L 262.687 162.189 253.532 162.189 L 244.378 162.189 244.378 134.229 L 244.378 106.269 253.532 106.269 L 262.687 106.269 262.687 134.229 " stroke="none" fill="#000000" fill-rule="evenodd"></path><path id="path4" d="M105.871 49.254 L 105.871 93.134 115.323 93.134 L 124.776 93.134 124.776 58.706 L 124.776 24.279 146.667 24.279 L 168.557 24.279 168.557 49.254 L 168.557 74.229 165.572 74.229 L 162.587 74.229 162.587 52.338 L 162.587 30.448 146.766 30.448 L 130.945 30.448 130.945 61.791 L 130.945 93.134 134.229 93.134 L 137.512 93.134 137.512 65.075 L 137.512 37.015 146.766 37.015 L 156.020 37.015 156.020 58.806 L 156.020 80.597 159.104 80.597 C 161.714 80.597,162.189 80.643,162.189 80.896 C 162.189 81.155,163.040 81.194,168.657 81.194 L 175.124 81.194 175.124 49.552 L 175.124 17.910 146.766 17.910 L 118.408 17.910 118.408 52.338 L 118.408 86.766 115.323 86.766 L 112.239 86.766 112.239 49.254 L 112.239 11.741 146.667 11.741 L 181.095 11.741 181.095 46.468 L 181.095 81.194 184.378 81.194 L 187.662 81.194 187.662 43.284 L 187.662 5.373 146.766 5.373 L 105.871 5.373 105.871 49.254 M212.338 49.552 L 212.338 93.731 222.090 93.731 L 231.841 93.731 231.841 59.005 L 231.841 24.279 253.532 24.279 L 275.224 24.279 275.224 59.005 L 275.224 93.731 284.975 93.731 L 294.726 93.731 294.726 49.552 L 294.726 5.373 253.532 5.373 L 212.338 5.373 212.338 49.552 M287.761 49.254 L 287.761 86.766 284.975 86.766 L 282.189 86.766 282.189 52.338 L 282.189 17.910 253.532 17.910 L 224.876 17.910 224.876 52.338 L 224.876 86.766 222.090 86.766 L 219.303 86.766 219.303 49.254 L 219.303 11.741 253.532 11.741 L 287.761 11.741 287.761 49.254 M237.413 62.090 L 237.413 93.731 253.532 93.731 L 269.652 93.731 269.652 62.090 L 269.652 30.448 253.532 30.448 L 237.413 30.448 237.413 62.090 M262.687 61.891 L 262.687 86.766 253.532 86.766 L 244.378 86.766 244.378 61.891 L 244.378 37.015 253.532 37.015 L 262.687 37.015 262.687 61.891 M105.871 146.468 L 105.871 193.632 146.766 193.632 L 187.662 193.632 187.662 152.736 L 187.662 111.841 184.378 111.841 L 181.095 111.841 181.095 149.552 L 181.095 187.264 146.667 187.264 L 112.239 187.264 112.239 146.567 L 112.239 105.871 115.323 105.871 L 118.408 105.871 118.408 143.483 L 118.408 181.095 146.766 181.095 L 175.124 181.095 175.124 146.468 L 175.124 111.841 165.572 111.841 L 156.020 111.841 156.020 137.015 L 156.020 162.189 146.766 162.189 L 137.512 162.189 137.512 130.746 L 137.512 99.303 134.229 99.303 L 130.945 99.303 130.945 133.930 L 130.945 168.557 146.766 168.557 L 162.587 168.557 162.587 143.483 L 162.587 118.408 165.572 118.408 L 168.557 118.408 168.557 146.567 L 168.557 174.726 146.667 174.726 L 124.776 174.726 124.776 137.015 L 124.776 99.303 115.323 99.303 L 105.871 99.303 105.871 146.468 M212.338 146.468 L 212.338 193.632 253.532 193.632 L 294.726 193.632 294.726 146.468 L 294.726 99.303 284.975 99.303 L 275.224 99.303 275.224 137.015 L 275.224 174.726 253.532 174.726 L 231.841 174.726 231.841 137.015 L 231.841 99.303 222.090 99.303 L 212.338 99.303 212.338 146.468 M237.413 133.930 L 237.413 168.557 253.532 168.557 L 269.652 168.557 269.652 133.930 L 269.652 99.303 253.532 99.303 L 237.413 99.303 237.413 133.930 M224.876 143.682 L 224.876 181.095 253.532 181.095 L 282.189 181.095 282.189 143.682 L 282.189 106.269 284.975 106.269 L 287.761 106.269 287.761 146.766 L 287.761 187.264 253.532 187.264 L 219.303 187.264 219.303 146.766 L 219.303 106.269 222.090 106.269 L 224.876 106.269 224.876 143.682 M262.687 134.229 L 262.687 162.189 253.532 162.189 L 244.378 162.189 244.378 134.229 L 244.378 106.269 253.532 106.269 L 262.687 106.269 262.687 134.229 " stroke="none" fill="#000000" fill-rule="evenodd"></path></g></svg>