<svg id="svg" version="1.1" width="400" height="48" viewBox="0 0 400 48" xmlns="http://www.w3.org/2000/svg" xmlns:xlink="http://www.w3.org/1999/xlink" ><g id="svgg"><path id="path0" d="" stroke="none" fill="#ffffff" fill-rule="evenodd"></path><path id="path1" d="M362.500 0.837 C 359.200 1.060,354.221 1.722,353.672 2.010 C 353.532 2.083,352.743 2.304,351.920 2.500 C 351.098 2.695,350.348 2.915,350.254 2.989 C 350.160 3.062,349.671 3.257,349.167 3.421 C 345.445 4.634,341.820 8.019,341.314 10.755 C 341.212 11.302,341.063 11.880,340.981 12.039 C 340.787 12.420,340.792 13.759,340.990 14.405 C 341.077 14.686,341.272 15.420,341.424 16.036 C 341.576 16.651,341.843 17.319,342.017 17.519 C 342.191 17.720,342.333 17.947,342.333 18.023 C 342.333 18.454,344.817 20.873,345.941 21.536 C 346.248 21.718,346.501 21.915,346.501 21.975 C 346.502 22.034,347.309 22.496,348.293 23.000 C 349.278 23.504,350.122 23.967,350.169 24.029 C 350.216 24.091,350.703 24.309,351.252 24.512 C 351.801 24.716,352.287 24.932,352.333 24.992 C 352.379 25.051,352.792 25.238,353.250 25.406 C 353.708 25.574,354.458 25.874,354.917 26.074 C 355.375 26.274,356.087 26.542,356.500 26.670 C 356.912 26.798,357.287 26.949,357.333 27.005 C 357.379 27.061,357.979 27.282,358.667 27.496 C 359.354 27.711,359.999 27.948,360.099 28.025 C 360.199 28.101,360.724 28.308,361.265 28.485 C 361.807 28.662,362.565 28.963,362.950 29.154 C 363.335 29.344,363.728 29.500,363.822 29.500 C 364.004 29.500,366.743 30.728,367.167 30.999 C 367.304 31.087,367.773 31.320,368.208 31.517 C 368.644 31.714,369.000 31.924,369.000 31.985 C 369.000 32.045,369.244 32.238,369.542 32.414 C 372.037 33.885,372.454 36.968,370.416 38.893 C 369.209 40.034,369.086 40.112,367.895 40.492 C 367.265 40.693,366.600 40.927,366.417 41.012 C 365.074 41.633,354.069 41.628,352.583 41.005 C 352.400 40.928,350.975 40.700,349.417 40.498 C 347.858 40.297,346.546 40.083,346.500 40.023 C 346.454 39.963,345.589 39.749,344.578 39.546 C 343.567 39.343,342.510 39.063,342.230 38.923 C 341.950 38.783,341.483 38.622,341.194 38.564 L 340.667 38.458 340.667 42.543 L 340.667 46.628 341.042 46.728 C 341.248 46.784,341.618 46.830,341.865 46.831 C 342.112 46.832,342.353 46.897,342.401 46.975 C 342.450 47.054,342.998 47.169,343.620 47.231 C 344.241 47.294,345.912 47.461,347.333 47.602 C 350.808 47.946,363.704 48.110,367.093 47.852 C 370.147 47.620,373.667 47.164,373.667 47.000 C 373.667 46.933,374.009 46.832,374.427 46.774 C 375.650 46.607,377.500 46.124,377.500 45.973 C 377.500 45.896,377.592 45.833,377.704 45.833 C 378.077 45.833,380.167 45.122,380.167 44.995 C 380.167 44.926,380.335 44.827,380.542 44.775 C 381.508 44.531,383.350 43.266,384.667 41.942 C 385.996 40.605,386.287 40.218,386.610 39.356 C 386.769 38.931,386.952 38.546,387.017 38.500 C 387.311 38.290,387.541 36.208,387.463 34.451 C 387.351 31.899,386.400 29.842,384.499 28.041 C 383.233 26.841,383.102 26.734,382.500 26.403 C 382.180 26.227,381.842 25.996,381.750 25.890 C 381.659 25.784,380.908 25.351,380.083 24.929 C 379.258 24.508,378.508 24.105,378.417 24.034 C 378.325 23.963,377.837 23.735,377.333 23.528 C 376.829 23.320,376.154 23.014,375.833 22.847 C 375.512 22.681,374.894 22.444,374.458 22.320 C 374.023 22.195,373.667 22.042,373.667 21.977 C 373.667 21.913,373.123 21.693,372.458 21.489 C 371.794 21.284,371.100 21.023,370.917 20.908 C 370.733 20.794,370.133 20.574,369.583 20.418 C 369.033 20.262,368.508 20.075,368.417 20.002 C 368.325 19.928,367.688 19.702,367.000 19.500 C 366.313 19.298,365.675 19.073,365.583 19.002 C 365.492 18.931,364.854 18.696,364.167 18.480 C 363.479 18.265,362.879 18.042,362.833 17.986 C 362.787 17.929,362.263 17.715,361.668 17.511 C 361.073 17.307,360.548 17.085,360.501 17.019 C 360.455 16.953,360.004 16.725,359.500 16.512 C 358.996 16.299,358.546 16.070,358.500 16.002 C 358.454 15.935,358.168 15.753,357.865 15.597 C 355.204 14.233,354.535 11.501,356.454 9.833 C 357.605 8.834,357.835 8.703,358.975 8.403 C 359.585 8.243,360.159 8.055,360.251 7.986 C 361.127 7.329,371.340 7.334,372.917 7.993 C 373.100 8.069,374.261 8.300,375.498 8.506 C 376.734 8.711,377.859 8.943,377.998 9.021 C 378.274 9.176,381.654 9.833,382.175 9.833 C 382.488 9.833,382.500 9.689,382.500 6.000 L 382.500 2.167 381.950 2.167 C 381.648 2.167,381.329 2.097,381.242 2.012 C 381.069 1.843,376.056 1.167,374.979 1.167 C 374.612 1.167,374.184 1.099,374.029 1.016 C 373.647 0.811,364.887 0.675,362.500 0.837 M0.000 12.083 L 0.000 23.333 1.917 23.333 L 3.833 23.333 3.833 15.417 C 3.833 11.063,3.873 7.500,3.921 7.500 C 3.969 7.500,4.864 8.344,5.909 9.375 C 6.954 10.406,9.558 12.945,11.696 15.016 C 13.834 17.088,16.633 19.804,17.917 21.052 L 20.250 23.321 22.042 23.327 L 23.833 23.333 23.833 12.083 L 23.833 0.833 21.668 0.833 L 19.503 0.833 19.460 8.772 L 19.417 16.711 17.230 14.564 C 16.027 13.383,13.223 10.654,10.998 8.500 C 8.773 6.346,6.088 3.740,5.031 2.708 L 3.109 0.833 1.555 0.833 L 0.000 0.833 0.000 12.083 M29.949 0.940 C 29.885 1.003,29.833 6.068,29.833 12.194 L 29.833 23.333 32.168 23.333 L 34.502 23.333 34.460 12.125 L 34.417 0.917 32.241 0.870 C 31.044 0.845,30.013 0.876,29.949 0.940 M40.500 12.083 L 40.500 23.333 42.665 23.333 L 44.830 23.333 44.873 15.325 L 44.917 7.317 47.500 9.840 C 48.921 11.227,51.021 13.262,52.167 14.362 C 53.313 15.462,55.489 17.574,57.004 19.056 C 58.518 20.538,60.142 22.106,60.612 22.542 L 61.466 23.333 63.150 23.333 L 64.833 23.333 64.833 12.083 L 64.833 0.833 62.752 0.833 L 60.670 0.833 60.627 8.753 L 60.583 16.672 59.333 15.484 C 57.548 13.787,50.648 7.088,47.205 3.708 L 44.276 0.833 42.388 0.833 L 40.500 0.833 40.500 12.083 M69.167 2.999 L 69.167 5.167 74.167 5.167 L 79.167 5.167 79.167 14.250 L 79.167 23.333 81.417 23.333 L 83.667 23.333 83.667 14.250 L 83.667 5.167 88.672 5.167 L 93.677 5.167 93.630 3.042 L 93.583 0.917 81.375 0.874 L 69.167 0.831 69.167 2.999 M118.583 1.000 C 118.516 1.108,114.832 1.167,108.073 1.167 L 97.667 1.167 97.667 12.333 L 97.667 23.500 108.667 23.500 L 119.667 23.500 119.667 21.417 L 119.667 19.333 111.000 19.333 L 102.333 19.333 102.333 16.583 L 102.333 13.833 109.083 13.833 L 115.833 13.833 115.833 11.750 L 115.833 9.667 109.083 9.667 L 102.333 9.667 102.333 7.417 L 102.333 5.167 111.000 5.167 L 119.667 5.167 119.667 3.000 L 119.667 0.833 119.177 0.833 C 118.907 0.833,118.640 0.908,118.583 1.000 M125.500 12.083 L 125.500 23.333 127.667 23.333 L 129.833 23.333 129.833 15.316 L 129.833 7.298 131.363 8.774 C 132.204 9.586,133.583 10.925,134.426 11.750 C 135.270 12.575,136.925 14.181,138.105 15.320 C 139.285 16.458,141.611 18.727,143.274 20.361 L 146.297 23.333 148.065 23.333 L 149.833 23.333 149.833 12.078 L 149.833 0.823 147.708 0.870 L 145.583 0.917 145.500 8.750 L 145.417 16.583 144.271 15.500 C 143.641 14.904,141.981 13.292,140.582 11.917 C 138.405 9.777,131.106 2.700,129.624 1.292 C 129.158 0.849,129.078 0.833,127.321 0.833 L 125.500 0.833 125.500 12.083 M155.910 1.042 C 155.866 1.156,155.850 6.200,155.873 12.250 L 155.917 23.250 165.516 23.250 C 172.122 23.250,175.189 23.194,175.350 23.070 C 175.478 22.972,175.958 22.754,176.417 22.588 C 177.376 22.239,177.414 22.211,178.750 20.881 C 180.062 19.574,180.115 19.499,180.539 18.377 C 180.738 17.849,180.954 17.379,181.019 17.332 C 181.814 16.768,181.827 7.532,181.034 7.016 C 180.950 6.961,180.787 6.617,180.672 6.250 C 180.347 5.218,178.494 2.667,178.068 2.667 C 178.040 2.667,177.686 2.443,177.282 2.171 C 176.568 1.689,174.978 1.167,174.225 1.167 C 174.020 1.167,173.807 1.092,173.750 1.000 C 173.585 0.734,156.012 0.775,155.910 1.042 M189.500 0.994 C 189.362 1.072,188.936 1.219,188.552 1.322 C 187.716 1.544,186.745 2.429,186.070 3.583 L 185.583 4.417 185.583 12.167 L 185.583 19.917 186.057 20.750 C 186.706 21.891,187.171 22.348,188.228 22.883 L 189.131 23.341 199.572 23.295 C 207.008 23.263,210.046 23.197,210.131 23.065 C 210.197 22.963,210.522 22.738,210.855 22.565 C 211.599 22.178,212.187 21.477,212.554 20.538 C 212.894 19.673,212.979 5.115,212.652 3.936 C 212.399 3.026,211.155 1.748,210.193 1.410 C 209.766 1.260,209.286 1.069,209.127 0.985 C 208.760 0.793,189.841 0.801,189.500 0.994 M276.500 24.425 L 276.500 48.017 294.042 47.958 C 312.126 47.897,317.397 47.682,317.639 46.992 C 317.669 46.905,317.845 46.833,318.029 46.833 C 318.579 46.833,321.737 46.155,321.830 46.017 C 321.878 45.946,322.473 45.746,323.152 45.572 C 323.832 45.398,324.483 45.160,324.599 45.044 C 324.715 44.928,324.970 44.833,325.166 44.833 C 325.530 44.833,327.183 44.190,327.333 43.990 C 327.379 43.928,327.754 43.707,328.167 43.498 C 328.579 43.289,329.149 42.942,329.432 42.726 C 329.716 42.510,330.031 42.333,330.132 42.333 C 330.234 42.333,330.377 42.233,330.450 42.110 C 330.523 41.988,330.706 41.819,330.855 41.735 C 331.730 41.247,334.209 38.924,335.167 37.697 C 335.396 37.403,335.717 37.011,335.881 36.826 C 336.643 35.962,338.399 32.450,338.666 31.257 C 338.767 30.802,338.916 30.351,338.997 30.254 C 339.842 29.236,339.767 20.356,338.900 18.694 C 338.773 18.450,338.667 18.137,338.665 18.000 C 338.661 17.661,338.171 16.275,338.018 16.169 C 337.951 16.122,337.723 15.652,337.512 15.125 C 337.301 14.598,337.080 14.166,337.022 14.165 C 336.964 14.164,336.775 13.867,336.602 13.505 C 336.428 13.143,336.110 12.681,335.893 12.478 C 335.677 12.275,335.500 12.034,335.500 11.943 C 335.500 11.796,332.311 8.599,331.601 8.033 C 330.937 7.504,329.149 6.333,329.005 6.333 C 328.918 6.333,328.712 6.198,328.548 6.033 C 328.384 5.868,327.912 5.588,327.500 5.411 C 327.087 5.234,326.651 4.994,326.530 4.878 C 326.409 4.762,326.236 4.667,326.145 4.667 C 326.055 4.667,325.554 4.455,325.032 4.196 C 324.510 3.937,323.558 3.587,322.917 3.419 C 322.275 3.250,321.672 3.053,321.577 2.981 C 321.482 2.910,320.582 2.695,319.577 2.504 C 318.572 2.314,317.525 2.087,317.250 2.001 C 316.499 1.766,312.706 1.347,310.202 1.224 C 308.984 1.164,307.948 1.051,307.901 0.974 C 307.853 0.897,300.768 0.833,292.157 0.833 L 276.500 0.833 276.500 24.425 M174.504 5.530 C 178.824 7.560,178.763 16.537,174.415 18.743 L 173.583 19.165 166.875 19.166 L 160.167 19.167 160.167 12.158 L 160.167 5.150 167.042 5.202 C 173.020 5.248,173.993 5.290,174.504 5.530 M208.344 5.339 C 208.718 5.539,208.858 18.331,208.494 19.011 C 208.327 19.324,208.049 19.333,199.340 19.333 L 190.358 19.333 190.012 18.894 C 189.677 18.468,189.667 18.276,189.669 12.353 C 189.671 5.770,189.683 5.625,190.223 5.364 C 190.718 5.124,207.899 5.101,208.344 5.339 M304.167 7.670 C 305.496 7.762,306.733 7.903,306.917 7.984 C 307.100 8.065,308.112 8.296,309.167 8.497 C 310.221 8.698,311.158 8.921,311.250 8.993 C 311.342 9.065,311.717 9.216,312.083 9.330 C 312.798 9.552,315.528 10.819,315.667 10.993 C 315.712 11.051,316.020 11.255,316.351 11.446 C 318.018 12.411,321.500 16.224,321.500 17.085 C 321.500 17.149,321.687 17.573,321.915 18.027 C 322.143 18.481,322.452 19.504,322.602 20.301 C 322.751 21.098,322.940 21.880,323.020 22.039 C 323.225 22.445,323.207 26.789,323.000 26.917 C 322.908 26.973,322.833 27.217,322.833 27.458 C 322.833 28.584,321.445 32.456,320.976 32.639 C 320.897 32.669,320.833 32.770,320.833 32.863 C 320.833 32.955,320.681 33.230,320.495 33.474 C 320.309 33.717,319.990 34.136,319.787 34.403 C 318.273 36.394,314.574 38.780,311.750 39.588 C 311.200 39.745,310.675 39.929,310.583 39.998 C 310.364 40.160,308.038 40.614,306.667 40.761 C 306.071 40.825,305.487 40.953,305.369 41.047 C 305.236 41.153,302.702 41.248,298.661 41.299 L 292.167 41.380 292.167 24.440 L 292.167 7.500 296.958 7.502 C 299.594 7.503,302.837 7.578,304.167 7.670 M389.500 41.083 L 389.500 41.667 390.333 41.667 L 391.167 41.667 391.167 43.917 L 391.167 46.167 391.750 46.167 L 392.333 46.167 392.333 43.917 L 392.333 41.667 393.000 41.667 C 393.651 41.667,393.667 41.653,393.667 41.083 L 393.667 40.500 391.583 40.500 L 389.500 40.500 389.500 41.083 M394.048 41.208 C 393.943 41.598,393.813 42.798,393.761 43.875 L 393.665 45.833 394.416 45.833 L 395.167 45.833 395.186 45.042 C 395.227 43.426,395.401 43.125,395.645 44.251 C 396.063 46.182,397.172 46.530,397.660 44.885 C 398.026 43.650,398.167 43.628,398.167 44.806 L 398.167 45.833 398.859 45.833 L 399.551 45.833 399.442 43.807 C 399.382 42.693,399.333 41.493,399.333 41.140 L 399.333 40.500 398.448 40.500 L 397.563 40.500 397.343 41.375 C 397.223 41.856,397.069 42.325,397.002 42.417 C 396.934 42.508,396.823 42.808,396.755 43.083 C 396.635 43.564,396.621 43.547,396.397 42.667 C 396.269 42.162,396.096 41.600,396.014 41.417 C 395.931 41.233,395.822 40.952,395.770 40.792 C 395.549 40.098,394.264 40.409,394.048 41.208 " stroke="none" fill="#1e191a" fill-rule="evenodd"></path><path id="path2" d="M194.958 43.958 C 197.365 43.984,201.302 43.984,203.708 43.958 C 206.115 43.932,204.146 43.911,199.333 43.911 C 194.521 43.911,192.552 43.932,194.958 43.958 " stroke="none" fill="#993399" fill-rule="evenodd"></path><path id="path3" d="M231.750 0.776 C 230.925 0.809,230.100 0.905,229.917 0.989 C 229.733 1.072,228.721 1.185,227.667 1.240 C 224.813 1.388,220.262 1.853,220.165 2.007 C 220.117 2.081,219.780 2.166,219.415 2.196 L 218.750 2.250 218.705 5.958 L 218.660 9.667 219.062 9.667 C 219.596 9.667,221.995 9.189,222.417 8.998 C 222.600 8.916,223.762 8.688,225.000 8.492 C 226.237 8.296,227.372 8.073,227.521 7.996 C 229.372 7.040,245.541 7.026,246.732 7.980 C 246.834 8.061,247.327 8.214,247.829 8.320 C 254.419 9.710,255.416 15.239,249.482 17.494 C 248.988 17.682,248.469 17.900,248.329 17.979 C 248.190 18.058,247.477 18.243,246.746 18.391 C 246.015 18.539,245.042 18.741,244.583 18.842 C 242.171 19.370,237.350 19.661,230.958 19.664 L 226.833 19.667 226.833 23.050 L 226.833 26.433 234.524 26.621 C 238.853 26.726,242.259 26.876,242.316 26.963 C 242.371 27.048,243.017 27.169,243.750 27.232 C 245.427 27.376,247.978 27.793,248.417 27.996 C 248.600 28.081,249.350 28.312,250.083 28.511 C 250.817 28.710,251.454 28.920,251.500 28.978 C 251.546 29.036,251.938 29.250,252.371 29.454 C 253.301 29.892,253.979 30.447,254.901 31.522 C 256.504 33.394,255.264 37.000,252.496 38.510 C 252.086 38.733,251.713 38.958,251.667 39.009 C 251.621 39.059,251.208 39.237,250.750 39.405 C 250.292 39.572,249.692 39.808,249.417 39.929 C 248.757 40.220,247.141 40.610,246.000 40.755 C 245.496 40.818,245.008 40.927,244.917 40.997 C 244.448 41.351,236.185 41.478,233.750 41.168 C 231.290 40.856,227.797 40.341,227.040 40.179 C 226.606 40.087,225.275 39.818,224.083 39.583 C 222.892 39.347,221.767 39.084,221.583 38.997 C 221.176 38.804,218.300 38.167,217.835 38.167 C 217.509 38.167,217.500 38.271,217.500 42.231 L 217.500 46.295 218.792 46.481 C 219.502 46.583,220.458 46.711,220.917 46.763 C 221.375 46.816,221.900 46.926,222.083 47.007 C 222.267 47.089,223.542 47.267,224.917 47.404 C 234.698 48.379,254.301 48.131,255.744 47.015 C 255.839 46.941,256.404 46.791,257.000 46.682 C 258.146 46.471,259.033 46.237,259.583 46.000 C 259.767 45.922,260.442 45.692,261.083 45.490 C 261.725 45.288,262.326 45.063,262.419 44.990 C 262.511 44.918,263.018 44.697,263.544 44.501 C 264.070 44.304,264.500 44.083,264.500 44.011 C 264.500 43.938,264.829 43.753,265.232 43.599 C 265.635 43.445,266.179 43.135,266.441 42.910 C 266.702 42.685,267.011 42.500,267.127 42.500 C 267.423 42.500,270.667 39.232,270.667 38.934 C 270.667 38.800,270.772 38.585,270.901 38.457 C 271.203 38.155,271.656 36.833,271.858 35.667 C 271.945 35.162,272.058 34.505,272.110 34.206 C 272.161 33.907,272.130 33.569,272.041 33.456 C 271.951 33.343,271.827 32.849,271.764 32.359 C 271.654 31.491,271.221 30.168,270.993 30.000 C 270.931 29.954,270.747 29.654,270.585 29.333 C 270.237 28.645,270.161 28.552,268.875 27.250 C 267.174 25.527,264.506 23.883,262.500 23.319 C 262.087 23.203,261.675 23.055,261.583 22.989 C 261.416 22.870,260.314 22.621,258.750 22.349 C 258.279 22.267,258.110 22.196,258.361 22.185 C 258.606 22.175,258.831 22.110,258.861 22.042 C 258.892 21.973,259.479 21.778,260.167 21.608 C 260.854 21.438,261.829 21.111,262.333 20.880 C 264.365 19.951,265.702 19.239,265.783 19.042 C 265.830 18.927,265.943 18.833,266.034 18.833 C 266.281 18.833,268.108 17.299,268.316 16.917 C 268.601 16.393,268.894 15.970,269.182 15.666 C 269.327 15.513,269.549 14.925,269.674 14.360 C 269.800 13.795,269.962 13.333,270.034 13.333 C 270.215 13.333,270.203 11.067,270.021 10.706 C 269.940 10.547,269.738 9.977,269.571 9.440 C 269.404 8.903,269.169 8.427,269.050 8.381 C 268.931 8.335,268.833 8.202,268.833 8.084 C 268.833 6.630,262.072 3.040,258.000 2.333 C 257.404 2.229,256.786 2.074,256.626 1.988 C 256.301 1.813,251.501 1.167,250.527 1.167 C 250.182 1.167,249.807 1.074,249.693 0.960 C 249.492 0.758,235.735 0.618,231.750 0.776 " stroke="none" fill="#d01019" fill-rule="evenodd"></path><path id="path4" d="M189.332 25.669 C 187.862 26.027,186.815 26.880,186.060 28.333 L 185.583 29.250 185.583 36.750 L 185.583 44.250 186.000 45.072 C 186.489 46.037,187.318 46.892,188.250 47.392 C 189.092 47.844,208.811 47.964,210.055 47.524 C 210.911 47.222,212.386 45.704,212.637 44.868 C 212.933 43.879,212.898 29.307,212.598 28.464 C 212.275 27.560,211.550 26.791,210.417 26.149 L 209.417 25.583 199.667 25.555 C 194.304 25.539,189.654 25.590,189.332 25.669 M208.296 29.926 L 208.667 30.186 208.667 36.839 L 208.667 43.492 208.273 43.750 C 207.927 43.977,206.797 44.003,199.091 43.963 L 190.304 43.917 189.985 43.523 C 189.684 43.152,189.667 42.786,189.667 36.992 C 189.667 30.610,189.717 30.103,190.373 29.839 C 191.100 29.547,207.871 29.628,208.296 29.926 " stroke="none" fill="#a19e9f" fill-rule="evenodd"></path></g></svg>